<svg width="35" height="25" viewBox="0 0 35 25" fill="none" xmlns="http://www.w3.org/2000/svg">
<path d="M0.082653 12.6583C6.24433 22.972 21.3783 28.644 32.2882 22.3889C32.6026 22.2088 32.3856 21.769 32.0498 21.8861C25.9553 24.0112 20.312 24.8916 14.0357 22.7812C8.3531 20.8698 4.03403 17.1224 0.457732 12.4159C0.306229 12.2169 -0.0500147 12.4372 0.082653 12.6583Z" fill="white"/>
<path d="M10.7493 12.3397C12.727 17.2575 20.0229 18.856 23.8334 15.3952C24.1962 15.066 23.7065 14.4829 23.3404 14.8129C19.4628 18.3049 13.7507 16.0176 11.1628 12.0728C11.0015 11.8263 10.6494 12.0932 10.7493 12.3397Z" fill="white"/>
<path d="M11.3488 12.6207C12.2291 9.46041 14.5688 6.667 18.1222 6.75627C22.4749 6.86519 23.7524 11.2211 23.5288 14.8752C23.4993 15.3633 24.2552 15.4354 24.2855 14.9473C24.5304 10.9369 23.0506 6.29029 18.3826 6.01267C14.6057 5.78746 11.2825 8.81508 10.9745 12.5347C10.9565 12.7468 11.2882 12.8385 11.3488 12.6207Z" fill="white"/>
<path d="M0.664091 12.8483C-0.984428 7.33195 10.3767 9.51768 12.9326 9.12868C13.1275 9.0992 13.1856 8.82649 13.0235 8.71593C12.0842 8.07962 10.4561 8.21557 9.37511 8.18608C7.57099 8.13613 5.71446 8.20821 3.94473 8.58573C1.72296 9.0599 -0.90582 10.3243 0.306206 12.9629C0.392195 13.1513 0.727149 13.0588 0.664091 12.8483Z" fill="white"/>
<path d="M23.8367 11.5781C25.9832 13.4076 36.658 17.8962 32.2439 21.6567C31.8738 21.972 32.3627 22.551 32.732 22.2324C37.6456 18.0075 27.1215 12.5059 24.048 11.176C23.7933 11.0662 23.6508 11.42 23.8367 11.5781Z" fill="white"/>
<path d="M0.830333 12.3119C4.75304 15.835 9.79033 19.0648 15.0504 20.0418C15.2616 20.0803 15.3304 19.7478 15.133 19.6774C9.9369 17.8315 5.26897 15.6302 1.01951 12.0425C0.855724 11.9041 0.676373 12.1735 0.830333 12.3119Z" fill="white"/>
<path d="M18.2761 21.0466C22.5706 22.4871 28.087 22.4625 32.4552 21.2882C32.6771 21.2292 32.6239 20.9156 32.3938 20.9377C27.6505 21.3914 23.1013 21.85 18.4072 20.6904C18.1762 20.633 18.0394 20.9663 18.2761 21.0466Z" fill="white"/>
<path d="M17.0215 6.54485C16.6759 5.07404 16.4941 3.66056 16.531 2.14552C16.5408 1.74097 15.9201 1.67546 15.9004 2.08574C15.8234 3.63108 15.961 5.2534 16.4638 6.72257C16.5711 7.03704 17.0977 6.86669 17.0215 6.54485Z" fill="white"/>
<path d="M15.5393 0.750971C15.5696 0.823037 15.4967 1.00075 15.486 1.08592C15.4631 1.24971 15.4631 1.4266 15.5335 1.58056C15.7628 2.08257 16.4516 2.04653 16.9069 2.02278C17.074 2.01377 17.1632 1.82215 17.1477 1.67965C17.0985 1.23333 16.8201 0.411935 16.3336 0.243234C15.7882 0.05406 15.7391 0.885281 16.2558 1.00157C16.3508 1.02286 16.4647 0.939325 16.4941 0.851699C16.5187 0.776356 16.5277 0.7256 16.5253 0.644525C16.5228 0.528236 16.531 0.523308 16.4843 0.650243C16.4303 0.709207 16.377 0.767363 16.323 0.826327C16.255 0.824689 16.1731 0.828769 16.0912 0.832045C16.0912 0.832045 16.2698 1.03925 16.3181 1.11131C16.454 1.31523 16.531 1.54043 16.5638 1.78284C16.644 1.66737 16.7234 1.55354 16.8037 1.43889C16.531 1.45936 16.0364 1.55271 16.0347 1.18337C16.0331 0.964716 16.1092 0.741154 15.9913 0.53642C15.8341 0.257982 15.4115 0.45124 15.5393 0.750971Z" fill="white"/>
<path d="M16.5523 1.50366C16.5064 1.42341 16.4589 1.34313 16.413 1.26288C16.2386 0.964786 15.8005 1.25552 16.0183 1.51758C16.0773 1.58801 16.1363 1.65844 16.1952 1.72887C16.3394 1.90248 16.599 1.71986 16.5179 1.52086C16.4827 1.43487 16.4482 1.34887 16.413 1.26288C16.2959 0.97707 15.8267 1.20965 15.9847 1.46597C16.0347 1.54541 16.083 1.62486 16.1322 1.70348C16.2869 1.95407 16.7054 1.76572 16.5523 1.50366Z" fill="white"/>
<path d="M19.8706 11.0336C21.5241 9.7184 23.1218 8.35405 24.9144 7.2272C25.2142 7.03884 24.9865 6.53356 24.6745 6.7211C22.8467 7.81929 21.1031 9.20739 19.6127 10.729C19.435 10.9108 19.6659 11.1966 19.8706 11.0336Z" fill="white"/>
<path d="M24.9554 6.20576C25.3747 6.35235 25.5483 7.05253 25.839 7.36373C26.1764 7.72324 26.4082 7.64545 26.7783 7.42843C26.9143 7.34817 26.9912 7.19093 26.9175 7.03779C26.8954 6.98784 26.8709 6.93952 26.843 6.89284C26.6596 6.98047 26.477 7.06729 26.2935 7.1541C26.3206 7.20077 26.3476 7.24827 26.3754 7.29577C26.4524 7.43008 26.6309 7.52917 26.784 7.44072C26.8913 7.37848 26.9986 7.31624 27.1059 7.25482C27.2394 7.17702 27.3491 6.99112 27.2541 6.83716C26.8529 6.18692 26.2141 5.73978 25.8046 5.09856C25.6785 4.90037 25.373 4.81192 25.2215 5.05023C25.0168 5.37289 24.315 6.26308 24.6581 6.64716C24.7146 6.71104 24.8202 6.76509 24.9087 6.73725C25.025 6.7004 25.0856 6.64881 25.1347 6.53907C25.2002 6.39248 25.0757 6.26635 24.9455 6.23687C25.1216 6.34169 25.1773 6.44326 25.1118 6.54071C25.1183 6.52843 25.1257 6.51531 25.1331 6.50303C25.1593 6.47846 25.1929 6.39166 25.2142 6.35481C25.2928 6.21805 25.3837 6.0911 25.4623 5.95516C25.5638 5.78073 25.6687 5.60875 25.7768 5.43841C25.5827 5.42203 25.3886 5.40566 25.1937 5.38928C25.6228 6.06081 26.296 6.51205 26.7333 7.17457C26.7685 7.01242 26.8029 6.85108 26.8373 6.68974C26.7316 6.75526 26.626 6.82079 26.5203 6.8863C26.6563 6.93544 26.7931 6.98376 26.929 7.03207C26.9003 6.9854 26.8717 6.93952 26.843 6.89284C26.6391 6.56445 26.0872 6.82079 26.2935 7.1541C26.3369 7.22289 26.3811 7.28758 26.4286 7.35309C26.4614 7.20159 26.4942 7.05008 26.5261 6.89858C26.4196 6.96409 26.314 7.02962 26.2084 7.09513C26.2821 7.09186 26.3574 7.08857 26.4319 7.0853C26.1306 6.98621 25.9602 6.54399 25.7989 6.29667C25.6326 6.04198 25.4459 5.7922 25.1462 5.69229C24.8112 5.58009 24.6221 6.08865 24.9554 6.20576Z" fill="white"/>
<path d="M25.3239 6.19033C25.4967 6.51627 25.735 7.04611 26.1347 7.14193C26.5965 7.25167 26.8046 6.71691 26.857 6.3574C26.902 6.04457 26.4483 5.96511 26.3345 6.23864C26.3059 6.30743 26.2632 6.53429 26.1928 6.58261C26.2788 6.59244 26.2862 6.57523 26.2125 6.53182C26.1838 6.50152 26.1576 6.47041 26.1322 6.43766C25.9955 6.27387 25.8841 6.08224 25.7645 5.90617C25.5958 5.65885 25.1855 5.92746 25.3239 6.19033Z" fill="white"/>
<path d="M14.0292 10.2473C12.7705 10.1147 12.2087 11.4364 12.56 12.4986C12.9138 13.5673 14.1102 14.0849 15.1921 13.9088C16.7972 13.6492 17.1943 11.5699 16.2165 10.4422C15.9332 10.1147 15.5507 9.89439 15.1298 9.79775C14.6687 9.69211 13.8809 9.65606 13.528 10.0246C13.3961 10.1613 13.4633 10.3489 13.6426 10.389C14.0856 10.4889 14.5475 10.249 15.016 10.3612C15.3353 10.4382 15.6203 10.6175 15.8243 10.8763C16.2067 11.3611 16.2935 12.094 16.0241 12.6534C15.6703 13.3871 14.8563 13.4756 14.1446 13.2676C13.496 13.0776 13.0702 12.6984 12.9695 11.9974C12.8655 11.2595 13.2946 10.6462 14.0423 10.5651C14.2257 10.5446 14.2052 10.2654 14.0292 10.2473Z" fill="white"/>
<path d="M25.2109 5.64235C24.9301 6.09604 24.7302 6.79216 25.2314 7.19425C25.7342 7.59799 26.4303 7.29907 26.7882 6.86422C26.9045 6.72254 26.7497 6.52107 26.5859 6.54646C26.3869 6.57922 25.826 6.81426 25.6433 6.68078C25.4394 6.53091 25.5451 5.97976 25.5688 5.77503C25.5918 5.5834 25.3158 5.47283 25.2109 5.64235Z" fill="white"/>
<path d="M25.5844 5.42382C26.0659 5.13228 26.6048 5.04303 26.9905 5.55978C27.445 6.16989 26.7702 6.46551 26.2346 6.56542C26.3714 6.63585 26.5081 6.70628 26.6449 6.77671C26.4967 6.51219 26.3362 6.23047 26.4713 5.9332C26.5581 5.74403 26.7137 5.58844 26.7178 5.36732C26.7219 5.14375 26.5163 4.98406 26.3026 5.0766C25.464 5.43775 25.5844 6.4606 25.957 7.10346C26.0397 7.2476 26.1937 7.34997 26.3673 7.31558C26.9233 7.2042 27.5187 6.97161 27.7464 6.40327C27.9102 5.99626 27.7972 5.54995 27.5408 5.20763C27.0118 4.49925 25.7653 4.23473 25.3141 5.1765C25.2429 5.32637 25.4394 5.51145 25.5844 5.42382Z" fill="white"/>
<path d="M26.3075 5.60301C26.4696 5.91912 26.7923 6.03869 26.7759 6.42851C26.8373 6.34088 26.8987 6.25244 26.9602 6.16481C26.8521 6.22378 26.7415 6.28274 26.6351 6.34579C26.7939 6.42769 26.9544 6.51122 27.1141 6.59311C27.0682 6.41868 26.9225 5.82986 26.8955 5.7103C26.8848 5.65952 26.8799 5.58909 26.8603 5.54077C26.8455 5.49983 26.8701 5.40892 26.8537 5.52112C26.7587 5.62349 26.6637 5.72667 26.5695 5.82904C26.4672 5.78891 26.3591 5.75043 26.251 5.71112C26.3337 5.81922 26.3681 5.86917 26.4123 5.99365C26.3795 6.07226 26.4017 6.06245 26.4786 5.96336C26.4459 5.98301 26.4139 6.00431 26.382 6.02642C26.4565 6.00267 26.5319 5.97973 26.6064 5.95598C26.4467 5.91749 26.2534 5.98875 26.26 6.1509C26.2649 6.27783 26.2829 6.37528 26.3689 6.47519C26.4402 6.55954 26.5663 6.61358 26.6776 6.58656C27.395 6.41212 27.1215 5.05434 26.4492 5.1477C26.2944 5.16899 26.1846 5.30821 26.165 5.45562C26.1117 5.84052 26.346 6.34333 26.4467 6.71104C26.4983 6.90103 26.721 7.08283 26.9258 6.95836C27.291 6.73561 27.5023 6.60212 27.3917 6.12387C27.2902 5.68 26.9716 5.63823 26.7079 5.34424C26.5302 5.14687 26.1773 5.35242 26.3075 5.60301Z" fill="white"/>
<path d="M16.0036 1.44548C15.9323 0.960672 16.1764 0.475866 16.7128 0.692065C16.8528 0.747753 16.9765 0.847661 16.9552 0.935287C16.8889 1.20799 16.3598 1.31282 16.5457 1.67397C16.7505 2.07279 17.2418 1.6707 17.4122 1.4504C17.5751 1.23993 17.6546 0.982796 17.5841 0.720736C17.4441 0.202349 16.8111 -0.0515171 16.3181 0.00826526C16.0241 0.0442984 15.762 0.195797 15.6097 0.453762C15.3828 0.841119 15.527 1.17442 15.6703 1.55195C15.7432 1.74276 16.0314 1.63629 16.0036 1.44548Z" fill="white"/>
<path d="M0.591198 12.737C2.34618 14.3814 4.33622 16.7776 6.51295 17.7505C8.40306 18.5949 6.77663 17.0995 5.96261 16.5C4.73339 15.5959 3.54348 14.646 2.36585 13.6755C2.01616 13.3881 1.57311 13.913 1.84581 14.2463C4.10035 17.002 6.62265 19.2934 9.58884 21.2646C10.0655 21.5807 10.5307 20.8969 10.0942 20.5431C8.25401 19.051 6.41467 17.5589 4.57534 16.0668C4.40664 16.3076 4.23792 16.5483 4.06922 16.7891C7.15251 19.2394 10.4348 21.1131 14.1012 22.5307C14.5606 22.7068 14.9431 22.0205 14.5074 21.7535C11.9261 20.1721 9.30386 18.6784 6.62512 17.2649C6.48999 17.5237 6.35407 17.7833 6.21813 18.0421C9.0926 19.2992 11.967 20.5562 14.8415 21.8141C15.2944 22.0123 15.6932 21.2785 15.2493 21.0353C12.8646 19.7275 10.4373 18.6203 7.87891 17.6883C7.42277 17.5221 7.0133 18.2255 7.47108 18.4679C10.6707 20.1615 13.9423 21.62 17.3475 22.8558C17.4498 22.5782 17.553 22.2997 17.6562 22.0221C15.215 21.3244 12.7737 20.6258 10.3333 19.9273C9.87304 19.7963 9.47504 20.4186 9.92382 20.7094C12.2177 22.1908 14.5139 23.2243 17.1616 23.9442C17.7103 24.0932 18.0247 23.2661 17.4711 23.1088C15.1945 22.4594 12.9195 21.8108 10.6437 21.1614C10.0851 21.0017 9.81979 21.7478 10.3341 21.9976C12.7287 23.1662 15.0659 23.8746 17.6906 24.2513C18.2245 24.3283 18.3277 23.5846 17.8888 23.3807C16.0011 22.5028 14.1094 21.8247 12.0956 21.3047C11.5388 21.1606 11.2128 21.9763 11.7795 22.1581C14.7121 23.1007 17.6038 23.7599 20.6543 24.1817C21.1662 24.2521 21.3668 23.4315 20.8583 23.2874C18.7184 22.683 16.5785 22.0786 14.437 21.4742C14.3297 21.7666 14.2216 22.0581 14.1127 22.3513C16.7513 23.0122 19.3948 23.5552 22.0825 23.9802C22.6861 24.0752 22.7631 23.1473 22.1718 23.0425C19.8518 22.6306 17.5309 22.2187 15.2109 21.8067C14.6876 21.7142 14.4836 22.5806 15.002 22.7207C17.3728 23.3619 19.6945 23.7329 22.1571 23.8442C22.7819 23.8721 22.8327 23.0245 22.2472 22.8992C19.2867 22.2637 16.3271 21.6299 13.3683 20.9952C13.338 21.3113 13.3085 21.6282 13.2773 21.9451C16.816 22.5536 20.3022 22.8386 23.8916 22.7764C24.4911 22.7674 24.5893 21.8329 23.9809 21.8378C20.3898 21.8673 16.9077 21.602 13.3683 20.9952C12.7541 20.8895 12.691 21.819 13.2773 21.9451C16.2378 22.5782 19.1974 23.2112 22.1571 23.8442C22.1866 23.529 22.2169 23.2145 22.2472 22.8992C19.8542 22.7927 17.6562 22.4619 15.3296 21.8338C15.26 22.1384 15.1904 22.4431 15.1208 22.7477C17.4416 23.1588 19.7617 23.5691 22.0825 23.9802C22.1128 23.6674 22.1424 23.3545 22.1718 23.0425C19.5602 22.6306 17.0043 22.1147 14.437 21.4742C13.8629 21.3317 13.5279 22.1867 14.1127 22.3513C16.2542 22.9524 18.3957 23.5535 20.538 24.1546C20.606 23.8573 20.674 23.5584 20.742 23.2612C17.7913 22.8574 14.9308 22.2096 12.0956 21.3047C11.9908 21.5889 11.8851 21.8739 11.7795 22.1581C13.7965 22.6765 15.6891 23.3521 17.576 24.2259C17.6431 23.9352 17.7094 23.6452 17.7758 23.3537C15.2223 22.9917 12.9416 22.2817 10.6437 21.1614C10.5405 21.4407 10.4373 21.7191 10.3341 21.9976C12.6099 22.6462 14.8857 23.2948 17.1616 23.9442C17.2648 23.6649 17.3679 23.3865 17.4711 23.1088C14.9242 22.4168 12.6574 21.4153 10.434 19.9805C10.2981 20.2409 10.1613 20.5014 10.0245 20.7618C12.465 21.4603 14.907 22.1581 17.3475 22.8558C17.8912 23.0114 18.2 22.2203 17.6562 22.0221C14.319 20.8125 11.1203 19.4023 7.97964 17.7407C7.8437 18.0011 7.70777 18.2607 7.57101 18.5212C10.063 19.4277 12.4125 20.485 14.7408 21.7609C14.8767 21.5021 15.0127 21.2417 15.1486 20.9829C12.2741 19.7258 9.3997 18.4687 6.52523 17.2117C6.07318 17.0143 5.67106 17.7538 6.1182 17.9897C8.79694 19.4023 11.4192 20.8953 14.0013 22.4774C14.1364 22.2195 14.2724 21.9599 14.4075 21.7011C10.7911 20.3048 7.60131 18.4712 4.57534 16.0668C4.12983 15.7122 3.63109 16.4345 4.06922 16.7891C5.90855 18.2812 7.74869 19.7725 9.58884 21.2646C9.75673 21.0238 9.92546 20.7839 10.0942 20.5431C9.00743 19.8216 7.94852 19.0887 6.93714 18.2624C7.1345 18.4237 3.51644 14.768 3.27895 14.7336C2.07348 14.5591 5.03312 16.7465 5.00692 16.7261C6.05761 17.504 7.13367 18.2444 8.21712 18.9748C8.6053 19.2369 9.02053 18.6465 8.63563 18.3778C5.95197 16.5123 3.37478 14.5321 0.894221 12.4037C0.700952 12.2383 0.402843 12.5601 0.591198 12.737Z" fill="white"/>
<path d="M11.0662 19.833C13.8146 21.7411 17.8561 22.1571 21.0425 23.0039C21.095 22.7705 21.149 22.5355 21.2022 22.3021C17.3205 21.5569 13.5386 20.5209 9.81736 19.1934C9.73219 19.4235 9.64787 19.6528 9.56188 19.8821C13.0997 20.9017 17.4564 23.0645 21.1727 22.8008C21.642 22.7673 21.5495 22.0916 21.1416 22.0212C16.4753 21.2047 12.0064 19.9002 7.63411 18.087C7.16731 17.8938 6.91016 18.6144 7.36303 18.8175C9.76088 19.8952 12.0965 21.0761 14.3838 22.3709C14.505 22.1408 14.6254 21.9106 14.7457 21.6797C11.2104 20.0721 7.94038 18.1026 4.86364 15.7391C4.70722 15.9627 4.54999 16.1855 4.39439 16.409C6.94456 18.1779 9.51274 19.9214 12.0752 21.674C12.524 21.9811 12.9965 21.3046 12.5592 20.9828C10.7346 19.6381 8.8715 18.3868 6.8348 17.3901C6.46055 17.2067 6.14363 17.8176 6.49659 18.0363C8.39407 19.2098 10.2752 20.3489 12.0752 21.674C12.2357 21.443 12.397 21.2129 12.5592 20.9828C9.99589 19.2311 7.43837 17.4728 4.86364 15.7391C4.42469 15.4435 3.97591 16.0905 4.39439 16.409C7.53992 18.8012 10.8763 20.7871 14.473 22.4184C14.8759 22.601 15.2265 21.9475 14.8358 21.7264C12.4879 20.4005 10.095 19.1902 7.63411 18.087C7.54402 18.3311 7.45312 18.5743 7.36303 18.8175C11.7943 20.6487 16.3484 21.9696 21.0671 22.8049C21.0565 22.5445 21.0466 22.2849 21.036 22.0253C17.5285 22.2685 13.1791 20.1606 9.81736 19.1934C9.36777 19.0649 9.11229 19.7225 9.56188 19.8821C13.347 21.2301 17.1894 22.2702 21.1334 23.0244C21.5339 23.1014 21.6911 22.429 21.2939 22.3234C18.1582 21.493 14.1667 21.0999 11.3832 19.3809C11.0834 19.195 10.7722 19.6283 11.0662 19.833Z" fill="white"/>
<path d="M5.20102 16.2837C7.97558 18.2827 11.1252 20.3489 14.4492 21.28C14.6687 21.3414 14.8808 21.0261 14.6491 20.8984C11.5789 19.204 8.42924 17.8257 5.52448 15.8218C5.22475 15.6154 4.90702 16.0707 5.20102 16.2837Z" fill="white"/>
<path d="M6.59078 17.9232C8.26223 19.688 10.208 21.0769 12.4315 22.0629C12.8278 22.2382 13.094 21.66 12.7705 21.4143C11.5544 20.4897 10.244 19.7724 8.81091 19.2417C8.46614 19.1139 8.14351 19.5521 8.39656 19.8346C8.81995 20.3079 9.27281 20.6486 9.86245 20.8894C10.0999 20.986 10.4234 20.7526 10.3464 20.4856C10.2653 20.2031 10.2375 20.1335 9.99677 19.9665C9.83871 19.8559 9.63149 19.9976 9.65851 20.181C9.65524 20.2613 9.65115 20.3423 9.64788 20.4218C9.80266 20.3505 9.95909 20.2793 10.1147 20.2072C9.62496 19.9648 9.33342 19.7576 8.96654 19.3506C8.82814 19.548 8.68971 19.7453 8.55131 19.9427C9.92631 20.4496 11.1801 21.1359 12.3479 22.0195C12.4609 21.8033 12.5748 21.5871 12.6878 21.3717C10.5757 20.4406 8.66923 19.1745 7.01253 17.5661C6.76193 17.3229 6.34428 17.6611 6.59078 17.9232Z" fill="white"/>
<path d="M0.189104 11.5848C0.490472 12.8304 1.32415 14.1145 2.60497 14.533C2.83345 14.6075 2.96612 14.3225 2.79251 14.1751C1.86301 13.3856 1.05145 12.6224 0.587935 11.4578C0.501128 11.2376 0.133416 11.3522 0.189104 11.5848Z" fill="white"/>
<path d="M0.651003 12.8165C2.68278 15.1406 5.41474 17.1749 8.14999 18.5851C8.37438 18.7005 8.53488 18.3476 8.34817 18.2067C5.85041 16.3281 3.43374 14.3839 0.974479 12.4611C0.756641 12.2899 0.470018 12.6101 0.651003 12.8165Z" fill="white"/>
<path d="M0.243126 12.1415C1.293 13.5829 3.00461 14.6868 4.46723 15.6802C5.98963 16.7128 7.59472 17.6407 9.28992 18.3573C9.5143 18.4523 9.70675 18.0993 9.48973 17.9765C7.91246 17.074 6.33274 16.1887 4.83327 15.1569C3.34772 14.134 2.03579 12.7762 0.499463 11.8606C0.310289 11.7485 0.112915 11.963 0.243126 12.1415Z" fill="white"/>
<path d="M15.5352 21.6583C15.5123 21.6968 15.4893 21.7353 15.4647 21.7738C15.4099 21.8647 15.4042 21.9859 15.4787 22.0703C16.1412 22.8204 17.9502 22.9645 18.8814 23.1734C20.724 23.5869 22.533 24.0431 24.3838 23.4911C24.7425 23.3847 24.8105 22.7443 24.3543 22.7574C22.7377 22.8032 21.1212 22.8548 19.5038 22.881C19.0042 22.8892 18.9125 23.6009 19.4292 23.6696C21.7943 23.9817 24.1357 24.0693 26.5188 23.9808C27.0437 23.962 27.1551 23.2029 26.599 23.1431C24.4051 22.9064 22.3004 22.9162 20.1138 23.1636C19.6094 23.2201 19.7085 23.917 20.1474 23.9997C22.1784 24.3805 23.9424 24.1414 25.939 23.6844C26.4017 23.5787 26.3902 22.9064 25.9054 22.8458C24.663 22.691 23.4723 22.6705 22.2292 22.7672C21.7574 22.8032 21.7837 23.6156 22.2627 23.6066C24.166 23.5706 26.0552 23.4731 27.9527 23.3109C28.4433 23.2692 28.3802 22.5223 27.9191 22.4683C26.6342 22.32 25.3788 22.2594 24.0857 22.2873C23.5509 22.2979 23.4461 23.1095 24.0054 23.1349C25.4451 23.2012 26.7972 23.1439 28.2246 22.9555C28.7209 22.8908 28.6505 22.1792 28.191 22.1112C26.6989 21.8876 25.2683 21.8287 23.7688 21.9057C23.2807 21.9294 23.3331 22.7131 23.8023 22.7516C25.9357 22.9285 28.0436 22.9736 30.1516 22.587C30.5242 22.519 30.5299 21.8778 30.1237 21.8934C28.028 21.9728 25.9774 22.0727 23.8834 21.9007C23.8941 22.1833 23.9055 22.465 23.9178 22.7467C25.4091 22.6705 26.6629 22.7451 28.1108 22.9605C28.0993 22.6787 28.0878 22.397 28.0772 22.1153C26.7431 22.2914 25.4296 22.3479 24.0857 22.2873C24.0595 22.569 24.0316 22.8523 24.0054 23.1349C25.2985 23.1079 26.554 23.1668 27.8389 23.3159C27.8274 23.035 27.816 22.7541 27.8053 22.4732C25.9856 22.6296 24.1684 22.7262 22.343 22.7623C22.3536 23.0423 22.3651 23.3216 22.3766 23.6017C23.6034 23.5067 24.6295 23.5403 25.8259 23.6893C25.8153 23.41 25.8038 23.13 25.7924 22.8507C23.9121 23.2823 22.1309 23.5157 20.2269 23.1586C20.2375 23.4371 20.249 23.7163 20.2604 23.9956C22.3741 23.7556 24.4133 23.7548 26.5188 23.9808C26.5458 23.7016 26.5728 23.4223 26.599 23.1431C24.211 23.2397 21.8778 23.139 19.5038 22.881C19.5144 23.1431 19.5242 23.4043 19.5349 23.6647C21.1179 23.5935 22.7009 23.5476 24.2847 23.4952C24.274 23.2503 24.2642 23.0063 24.2552 22.7614C22.7934 23.2053 21.4413 22.9613 19.9771 22.6918C19.6421 22.6304 15.9979 21.7443 15.9438 21.8729C16.0445 21.6313 15.6744 21.4307 15.5352 21.6583Z" fill="white"/>
<path d="M28.1451 23.6353C28.5636 23.4986 28.9731 23.3315 29.3924 23.1964C29.7666 23.0768 30.2244 23.0481 30.5208 22.7754C30.6592 22.6485 30.6339 22.4012 30.4431 22.3365C30.023 22.1924 29.5717 22.3963 29.168 22.533C28.6971 22.6919 28.259 22.8975 27.8536 23.1849C27.5809 23.379 27.8814 23.7213 28.1451 23.6353Z" fill="white"/>
<path d="M29.3932 22.9966C29.9018 22.7993 30.421 22.6396 30.9533 22.5241C31.3661 22.4348 31.7944 22.4357 32.1424 22.1875C32.2923 22.0811 32.2259 21.8452 32.072 21.7846C31.6232 21.6118 31.0901 21.801 30.6446 21.9246C30.1303 22.068 29.6332 22.2588 29.1484 22.4807C28.811 22.6355 29.0534 23.1285 29.3932 22.9966Z" fill="white"/>
<path d="M30.9713 22.2818C31.2039 22.1172 31.452 22.0041 31.7247 21.9214C31.9336 21.8584 32.0597 21.8346 32.1931 21.652C32.2693 21.5464 32.239 21.3908 32.1342 21.317C31.6666 20.9903 30.9304 21.5046 30.561 21.7978C30.2367 22.0549 30.6429 22.5135 30.9713 22.2818Z" fill="white"/>
<path d="M30.9557 22.1268C31.1793 21.9483 31.4143 21.8165 31.6862 21.7272C31.8983 21.6568 32.0179 21.6355 32.1686 21.4651C32.2398 21.3832 32.2104 21.2129 32.1145 21.1621C31.6166 20.8951 30.9598 21.3685 30.5889 21.6944C30.3145 21.936 30.6708 22.3561 30.9557 22.1268Z" fill="white"/>
<path d="M30.8861 22.2955C31.3939 22.0834 31.9041 21.8598 32.271 21.4405C32.4159 21.2759 32.1866 21.1039 32.0294 21.1555C31.547 21.3095 31.1188 21.6043 30.6544 21.8082C30.3358 21.9482 30.5668 22.4306 30.8861 22.2955Z" fill="white"/>
<path d="M29.8494 22.2783C30.3792 22.1571 30.9099 22.0318 31.4274 21.8623C31.8901 21.7116 32.3946 21.5937 32.7222 21.2161C32.8311 21.0884 32.7148 20.8853 32.5625 20.8722C32.1301 20.8353 31.7386 21.0524 31.3382 21.1981C30.814 21.3881 30.2899 21.5822 29.756 21.7468C29.4325 21.8451 29.5021 22.3577 29.8494 22.2783Z" fill="white"/>
<path d="M32.1841 21.9902C32.5387 21.7044 32.958 21.4489 33.1652 21.0321C33.2365 20.8871 33.0719 20.6906 32.9171 20.7348C32.4683 20.8634 32.1408 21.2335 31.7943 21.5316C31.5003 21.7839 31.882 22.2351 32.1841 21.9902Z" fill="white"/>
<path d="M9.85748 20.9141C10.6035 21.0656 11.2603 21.3662 11.8377 21.86C11.9458 21.6528 12.0539 21.4456 12.1628 21.2376C11.3913 20.951 10.6658 20.5898 9.97376 20.1435C9.57248 19.8839 9.14826 20.485 9.5479 20.7528C10.7935 21.5881 12.2856 22.2973 13.8195 22.2637C14.0742 22.2588 14.2077 21.8903 13.926 21.7945C12.5395 21.322 11.2194 20.9534 9.97376 20.1435C9.83127 20.3466 9.68957 20.5497 9.5479 20.7528C10.2972 21.2286 11.0777 21.611 11.9171 21.9026C12.3102 22.0393 12.5493 21.5308 12.2439 21.2802C11.5511 20.7135 10.8034 20.4072 9.90498 20.408C9.57495 20.408 9.53646 20.8494 9.85748 20.9141Z" fill="white"/>
<path d="M15.1634 16.5565C16.9356 17.4319 18.9273 17.893 20.8788 18.1837C22.4085 18.4122 24.6467 18.8397 26.1322 18.1141C28.2762 17.065 25.473 14.9407 24.256 14.3879C23.994 14.2692 23.7909 14.6713 24.0251 14.8277C24.9169 15.4255 27.3025 16.6908 24.9628 17.7832C24.2454 18.119 22.524 17.7537 21.7149 17.662C19.5038 17.4123 17.4376 16.7506 15.2977 16.1929C15.0545 16.1298 14.9398 16.4459 15.1634 16.5565Z" fill="white"/>
<path d="M19.6921 17.6464C21.036 17.8028 22.3913 17.8315 23.7434 17.8937C23.7352 17.6898 23.7262 17.4851 23.718 17.2812C22.6436 17.3279 21.6584 17.133 20.6691 16.7112C20.6224 16.9127 20.5774 17.1149 20.5307 17.3164C21.2252 17.4515 21.9188 17.5883 22.6124 17.7242C22.9834 17.7971 23.0694 17.2435 22.7533 17.1076C21.6715 16.6408 20.5839 16.3926 19.4079 16.3574C18.9649 16.3435 18.9248 16.9405 19.344 17.0289C20.3071 17.2337 21.2702 17.3745 22.2521 17.4548C22.6739 17.4892 22.7394 16.9536 22.4061 16.7808C21.8516 16.4917 21.3979 16.427 20.7837 16.4991C20.389 16.545 20.4152 17.1739 20.8116 17.196C21.746 17.2492 22.5068 17.006 23.2348 16.4188C23.4363 16.2567 23.3847 15.8882 23.1276 15.8104C22.5707 15.6433 22.1866 15.7129 21.7124 16.047C21.3545 16.3001 21.7444 16.7784 22.1022 16.649C22.7951 16.4008 23.3478 16.0479 23.89 15.5524C23.7057 15.3837 23.5206 15.215 23.3356 15.0463C23.1603 15.2723 22.9859 15.4984 22.8106 15.7244C22.6444 15.9398 22.8016 16.3238 23.0882 16.3247C24.1316 16.3255 24.7548 15.6441 24.7089 14.6123C24.6966 14.3379 24.3633 14.2462 24.1561 14.3265C22.8794 14.8203 24.5468 16.4131 25.0578 16.7947C25.3641 17.0232 25.8628 16.644 25.6507 16.2935C25.2314 15.5983 24.6901 15.1601 23.89 14.9767C23.5534 14.8997 23.2226 15.1822 23.3782 15.5368C23.6623 16.1813 24.0144 16.6997 24.5156 17.1993C24.6704 16.9798 24.8236 16.7603 24.9784 16.5409C24.2659 16.1674 23.6279 16.0798 22.8368 16.2035C22.5428 16.2501 22.4405 16.5515 22.5289 16.8013C22.8147 17.612 23.519 17.983 24.3543 17.8389C24.799 17.7619 24.7966 17.187 24.4289 17.0142C23.7532 16.6973 23.1112 16.5368 22.3668 16.4991C21.9098 16.4762 21.7534 17.0093 22.0768 17.2877C22.6599 17.7906 24.1037 18.2156 24.7843 17.6481C25.5672 16.9954 24.4501 16.174 23.9571 15.7948C23.8228 16.0503 23.6893 16.305 23.555 16.5605C24.1594 16.8398 25.2773 17.7046 25.7891 16.8864C25.8644 16.7661 25.9095 16.5802 25.8259 16.4491C25.7973 16.4049 25.7686 16.3607 25.74 16.3165C25.5254 16.4983 25.3108 16.6801 25.0954 16.8619C25.215 17.0339 25.333 17.2058 25.4525 17.3778C25.5213 17.1837 25.5901 16.9896 25.6597 16.7964C25.2715 16.9946 24.8637 17.0896 24.4354 17.0805C24.5238 17.3557 24.6115 17.6309 24.6991 17.906C25.1233 17.748 25.5475 17.5891 25.9709 17.4311C25.8464 17.1674 25.7211 16.9036 25.5958 16.6408C25.3125 16.753 25.0283 16.8652 24.7441 16.9782C24.2208 17.1854 24.5975 17.9724 25.12 17.7684C26.4156 17.264 25.7547 15.9242 24.8702 15.4083C24.3854 15.1249 23.8793 15.8415 24.3666 16.1257C24.7654 16.2387 24.8915 16.5228 24.7441 16.9782C24.8702 17.2419 24.9947 17.5047 25.12 17.7684C25.4042 17.6562 25.6883 17.5432 25.9709 17.4311C26.4966 17.2222 26.1183 16.4442 25.5958 16.6408C25.1724 16.7996 24.7474 16.9577 24.324 17.1166C23.8269 17.3025 24.134 17.9732 24.5877 17.9421C25.1307 17.9036 25.5401 17.7946 26.0339 17.585C26.2682 17.4851 26.3149 17.2189 26.2411 17.0027C26.1068 16.6129 25.9234 16.391 25.5958 16.1469C25.2683 15.9021 24.7089 16.3148 24.9513 16.6915C25.2502 16.3632 25.1651 16.1773 24.6991 16.1314C24.419 16.002 24.1381 15.8726 23.858 15.7432C23.3921 15.5278 23.0801 16.2198 23.4568 16.5089C24.3944 17.2288 22.9932 16.9364 22.5748 16.5761C22.4781 16.8389 22.3815 17.1018 22.2849 17.3647C22.9539 17.3975 23.5272 17.54 24.1307 17.8192C24.1561 17.5441 24.1807 17.2689 24.2053 16.9946C23.9015 16.8095 23.5968 16.6236 23.293 16.4385C23.1898 16.6383 23.0874 16.8373 22.9842 17.0363C23.6353 16.9299 24.1168 17.0257 24.6892 17.3205C25.0561 17.5105 25.4386 16.9446 25.1511 16.6612C24.7032 16.2215 24.3773 15.7612 24.1185 15.1847C23.9825 15.3796 23.8466 15.5737 23.7098 15.7686C24.2528 15.8661 24.6573 16.156 24.9251 16.6383C25.1225 16.4712 25.3206 16.3042 25.5188 16.1363C25.0831 15.8571 24.7409 15.4894 24.4919 15.034C24.3068 14.939 24.1234 14.8432 23.9383 14.7482C23.6795 15.0201 23.4191 15.2912 23.1603 15.5631C23.252 15.7629 23.3446 15.9635 23.4371 16.1633C23.6107 15.9357 23.7835 15.708 23.9563 15.4803C24.2135 15.1413 23.718 14.6802 23.4011 14.9742C22.9122 15.4296 22.4028 15.7416 21.7919 15.9963C21.9213 16.1969 22.0506 16.3975 22.1809 16.5982C22.4143 16.5597 22.6468 16.5204 22.8794 16.4819C22.8434 16.2788 22.8082 16.0765 22.7721 15.8734C22.1858 16.3509 21.633 16.5343 20.8779 16.495C20.8861 16.7276 20.896 16.9602 20.9058 17.1927C21.3718 17.1076 21.7918 17.1878 22.1645 17.4343C22.2161 17.2099 22.2669 16.9855 22.3185 16.7603C21.3357 16.6866 20.3735 16.554 19.4079 16.3574C19.3858 16.581 19.3653 16.8054 19.344 17.0289C20.4668 17.0527 21.4978 17.2664 22.5313 17.7054C22.5788 17.4998 22.6263 17.2951 22.673 17.0887C21.9777 16.9569 21.2841 16.8259 20.5896 16.6932C20.2277 16.6244 20.1401 17.1657 20.4513 17.2984C21.5503 17.7635 22.6354 17.9437 23.8253 17.8905C24.1733 17.8749 24.1471 17.2918 23.8015 17.2779C22.447 17.2263 21.0909 17.1411 19.7355 17.1821C19.4448 17.1919 19.385 17.6104 19.6921 17.6464Z" fill="white"/>
<path d="M18.6045 17.3976C19.5242 17.6744 20.4561 17.7448 21.4069 17.6023C21.8827 17.5311 21.7525 16.7948 21.2776 16.8661C20.4586 16.9889 19.6577 16.9357 18.8641 16.6974C18.4039 16.559 18.1435 17.26 18.6045 17.3976Z" fill="white"/>
<path d="M14.0652 10.9337C13.9554 10.8477 13.8457 10.7626 13.7351 10.6766C13.5271 10.5152 13.2708 10.6512 13.1701 10.8526C12.8286 11.5389 13.1299 12.3136 13.6909 12.7812C14.1593 13.1711 15.0077 13.6739 15.6113 13.3234C16.8684 12.5929 16.0601 10.4522 14.7269 10.4121C14.1258 10.394 13.5517 10.7838 13.4591 11.3964C13.3764 11.9467 13.6803 12.5478 14.2494 12.6715C15.5859 12.9614 16.0601 10.8035 14.6622 10.5087C13.2413 10.209 12.5264 12.19 13.8015 12.8746C15.0233 13.5297 16.3131 11.9468 15.3877 10.9034C14.5483 9.95837 12.7884 10.9771 13.3912 12.1728C13.9955 13.3709 15.7751 12.8279 15.4967 11.484C15.1945 10.019 12.8343 10.6078 12.8671 11.9582C12.881 12.5315 13.3649 13.0793 13.9701 12.9802C14.6253 12.8738 14.9684 12.1343 14.7105 11.5471C14.4754 11.0123 13.7785 10.6299 13.2364 10.9616C12.795 11.2302 12.6631 11.8558 12.8711 12.3136C13.4927 13.6837 15.7301 12.5536 15.3853 11.2195C15.2313 10.6242 14.5573 10.2835 14.0176 10.6217C13.4722 10.964 13.3306 11.7985 13.5926 12.3562C13.849 12.9016 14.5328 13.1833 15.0806 12.8951C15.6342 12.6043 15.7825 11.7412 15.631 11.1835C15.4541 10.5357 14.7678 10.2835 14.1921 10.6061C13.6033 10.9354 13.4198 11.774 13.4993 12.3963C13.5762 13.0007 14.0856 13.5289 14.7293 13.2734C15.3574 13.0236 15.7178 12.226 15.7178 11.5839C15.7186 10.9485 15.2542 10.4366 14.5975 10.4956C13.876 10.5595 13.3797 11.2572 13.1824 11.9017C13.0087 12.4676 13.1823 13.176 13.8432 13.3013C14.4542 13.4159 15.0765 12.9614 15.3501 12.443C15.6113 11.9467 15.6703 11.2482 15.3288 10.7732C14.9807 10.2884 14.31 10.2352 13.8473 10.593C13.3518 10.9755 12.9473 11.8149 13.1054 12.4422C13.252 13.0245 13.9005 13.2685 14.4459 13.153C15.174 12.9983 15.5237 12.2792 15.7841 11.6552C15.97 11.2097 15.2674 10.9525 15.0831 11.3956C14.9185 11.7879 14.6581 12.493 14.1192 12.4348C13.5107 12.3693 14.007 11.4038 14.2936 11.1974C14.7572 10.8616 14.8645 11.5242 14.7842 11.8509C14.7138 12.1416 14.0111 12.959 13.8645 12.3718C13.7745 12.0123 14.3002 11.1876 14.708 11.2334C15.3959 11.3104 14.6769 12.823 14.2822 12.4905C14.0095 12.2612 14.3575 11.0721 14.7719 11.2539C15.26 11.4685 14.6597 12.7796 14.2674 12.036C14.1774 11.8632 14.1872 11.5184 14.3133 11.3653C14.5393 11.0926 14.6523 11.3088 14.6564 11.5274C14.6597 11.7011 14.55 11.8534 14.4263 11.9664C14.2691 12.1081 14.0119 12.2178 13.7974 12.172C13.5967 12.1294 13.4215 11.896 13.5517 11.6912C13.7196 11.4284 14.0488 11.76 14.0357 11.9762C14.0111 12.4193 13.5427 12.1842 13.6221 11.8378C13.7318 11.3653 14.8055 11.1024 14.7768 11.7682C14.7539 12.2735 14.0553 12.1605 14.0168 11.7158C13.9775 11.2654 14.6957 11.127 14.889 11.4963C15.1019 11.9033 14.7137 12.3914 14.2699 12.2661C13.6712 12.0966 13.79 11.1671 14.432 11.2261C15.2379 11.3006 14.4714 12.3054 14.2232 11.7633C13.9317 11.1295 14.9201 11.0402 15.2395 11.4243C15.4205 11.6421 15.4975 11.9697 15.4565 12.2448C15.4017 12.6093 15.2543 12.7214 14.9087 12.624C14.2806 12.4487 13.5205 11.8165 13.8711 11.1122C13.6835 11.1712 13.4944 11.2302 13.3068 11.2891C13.4158 11.3751 13.5263 11.4603 13.6368 11.5463C14.0168 11.8427 14.4443 11.2294 14.0652 10.9337Z" fill="white"/>
<path d="M14.7302 10.733C14.776 10.8239 14.8211 10.9148 14.8669 11.0066C15.0815 11.4357 15.7587 11.1171 15.5425 10.6855C15.4967 10.5946 15.4516 10.5038 15.4058 10.412C15.1904 9.98291 14.514 10.3015 14.7302 10.733Z" fill="white"/>
<path d="M16.029 11.6757C16.0593 11.2572 16.0724 10.7937 15.8112 10.4383C15.577 10.1189 15.2019 9.94772 14.8112 10.0345C14.5238 10.0984 14.3617 10.539 14.6614 10.7093C15.0529 10.9313 15.4451 11.1524 15.8366 11.3743C16.2526 11.6094 16.685 10.9992 16.2657 10.7617C15.8734 10.5398 15.4828 10.3179 15.0905 10.096C15.0406 10.3212 14.9906 10.5464 14.9415 10.7708C15.3673 10.6758 15.3018 11.362 15.2854 11.6044C15.251 12.0843 15.9946 12.1556 16.029 11.6757Z" fill="white"/>
<path d="M14.6163 10.9205C15.0086 10.859 15.3845 11.1236 15.3116 11.5486C15.2527 11.8917 14.9562 11.9924 14.6867 12.1399C14.3559 12.3192 14.0087 12.5526 13.9956 12.9694C13.9833 13.3822 14.2961 13.7081 14.6949 13.7785C15.2256 13.8711 15.6253 13.5026 15.9381 13.125C16.246 12.7549 15.6318 12.329 15.3255 12.6967C15.2117 12.8351 15.0823 13.0448 14.8817 12.9866C14.6827 12.9285 14.8907 12.881 15.0086 12.8147C15.1757 12.7205 15.3542 12.6492 15.5106 12.5354C15.8374 12.2979 16.0446 11.9327 16.0732 11.5265C16.133 10.6453 15.3067 10.0557 14.4869 10.1842C14.0111 10.2588 14.1405 10.995 14.6163 10.9205Z" fill="white"/>
</svg>
