<svg width="430" height="156" viewBox="0 0 430 156" fill="none" xmlns="http://www.w3.org/2000/svg">
<path d="M429.5 78C429.5 88.5685 423.598 98.7018 412.779 107.982C401.961 117.26 386.279 125.638 366.857 132.684C328.018 146.775 274.328 155.5 215 155.5C155.672 155.5 101.982 146.775 63.1426 132.684C43.7206 125.638 28.0385 117.26 17.2213 107.982C6.40233 98.7018 0.5 88.5685 0.5 78C0.5 67.4315 6.40233 57.2982 17.2213 48.0184C28.0385 38.7401 43.7206 30.3618 63.1426 23.3157C101.982 9.22501 155.672 0.5 215 0.5C274.328 0.5 328.018 9.22501 366.857 23.3157C386.279 30.3618 401.961 38.7401 412.779 48.0184C423.598 57.2982 429.5 67.4315 429.5 78Z" stroke="white"/>
</svg>
