<svg width="30" height="48" viewBox="0 0 30 48" fill="none" xmlns="http://www.w3.org/2000/svg">
<path d="M15.6711 33.2896C16.5269 29.7096 17.8133 26.4243 20.6023 23.8349C17.2837 21.2243 16.2747 17.4776 15.319 13.6803C14.0935 17.8349 12.7727 21.8296 9.06381 24.5443C10.8346 25.4589 12.517 26.3469 13.4075 28.0349C14.2794 29.6869 14.9003 31.4709 15.6711 33.2896ZM16.3977 6.18826C16.3398 9.3736 16.4581 12.5509 17.2461 15.6616C17.3143 15.9322 17.3894 16.2016 17.467 16.4696C18.6894 20.7202 21.1195 22.599 25.5747 22.7763C26.5195 22.8136 27.4711 22.8842 28.3982 23.0562C28.6685 23.1069 28.8643 23.5616 29.0946 23.8309C28.8471 24.0162 28.6231 24.2576 28.3455 24.3709C28.1003 24.4709 27.7961 24.4349 27.5175 24.4469C25.2285 24.5429 23.1217 25.2389 21.2493 26.5323C20.5857 26.9909 19.9498 27.6216 19.5618 28.3189C17.8029 31.4816 16.817 34.879 16.6441 38.515C16.5179 41.1336 16.3113 43.7496 16.1102 46.3642C16.0659 46.9402 16.1222 47.8163 15.3289 47.7856C14.4659 47.7523 14.7263 46.8669 14.7315 46.3082C14.7466 44.6896 14.7638 43.0669 14.8821 41.4549C15.1351 38.0016 14.4857 34.6829 13.5331 31.3949C12.3799 27.4122 9.60754 25.4669 5.61794 25.0496C4.28567 24.9096 2.94514 24.8563 1.61074 24.743C1.22527 24.711 0.821142 24.6683 0.472209 24.5189C0.257009 24.4283 -0.0252576 24.1043 0.0018091 23.9269C0.0440758 23.6536 0.273142 23.3056 0.517542 23.1936C0.853409 23.0389 1.27688 23.0456 1.66328 23.0389C2.83514 23.0189 4.00861 23.0563 5.17941 23.0176C8.63514 22.903 11.1222 21.3549 12.4231 18.0696C14.1529 13.7016 14.9154 9.17095 14.7383 4.47895C14.7029 3.53095 14.6482 2.58294 14.6466 1.63494C14.6451 1.25094 14.6575 0.800247 14.8513 0.502911C15.0285 0.233578 15.455 0.0149078 15.7821 0.000244141C15.9711 -0.00909042 16.2805 0.398945 16.3586 0.670944C16.4622 1.03361 16.3971 1.44427 16.3971 1.83494C16.3993 3.28694 16.3977 4.7376 16.3977 6.18826Z" fill="white"/>
</svg>
