<svg width="27" height="42" viewBox="0 0 27 42" fill="none" xmlns="http://www.w3.org/2000/svg">
<path d="M10.4496 29.4258C13.308 30.4903 16.5441 28.1887 17.2772 25.4327C17.3531 25.1489 16.9605 24.9944 16.8447 25.2725C16.3105 26.5604 15.6855 27.6713 14.4684 28.4288C13.1908 29.2237 11.9532 29.1542 10.5134 29.1458C10.3557 29.1445 10.2875 29.3653 10.4496 29.4258Z" fill="white"/>
<path d="M0.301702 0.187202C0.396958 10.4414 5.07417 20.4446 10.0706 29.1708C10.218 29.4282 10.6396 29.2313 10.4903 28.9712C5.36895 20.0358 1.27938 10.5579 0.573324 0.176266C0.562382 0.0237274 0.300414 0.0327339 0.301702 0.187202Z" fill="white"/>
<path d="M0.322289 0.365513C8.91786 6.38144 12.5118 16.4857 16.5976 25.6875C16.7392 26.0068 17.2199 25.7763 17.0867 25.4552C13.272 16.2913 9.27057 5.65802 0.553999 0.0346985C0.336455 -0.105612 0.10925 0.215549 0.322289 0.365513Z" fill="white"/>
<path d="M0.532712 3.90688C0.189661 5.93686 0.147825 7.97521 0.000435193 10.0219C-0.00986275 10.1706 0.164581 10.336 0.313258 10.2401C0.732256 9.97045 1.17505 9.95563 1.62945 9.81018C1.8708 9.73358 1.73888 9.31009 1.49173 9.38088C0.944011 9.53728 0.545595 9.54243 0.0776824 9.87583C0.196752 9.91831 0.31581 9.96143 0.43488 10.0046C0.290709 7.98229 0.672384 5.94459 0.780512 3.93006C0.789523 3.76851 0.559744 3.74984 0.532712 3.90688Z" fill="white"/>
<path d="M2.23583 4.38563C2.27445 4.94301 2.63294 5.4946 2.86915 5.99019C3.21799 6.72263 3.5694 7.45507 3.94335 8.17464C4.08237 8.44239 4.50072 8.24801 4.36877 7.97318C4.03023 7.26777 3.67045 6.57202 3.32804 5.86918C3.10792 5.41543 2.68441 4.80785 2.57757 4.32514C2.52865 4.10309 2.22039 4.16551 2.23583 4.38563Z" fill="white"/>
<path d="M3.22371 2.3242C4.14602 2.77409 5.07865 3.16668 5.93273 3.74466C6.71988 4.27693 7.28691 4.98363 7.99232 5.59314C8.1307 5.71285 8.31927 5.52234 8.25169 5.37431C7.49157 3.72342 4.99431 2.49282 3.33892 2.01268C3.13167 1.95282 3.03255 2.23151 3.22371 2.3242Z" fill="white"/>
<path d="M6.85564 6.26242C7.28623 6.10924 7.758 6.01076 8.15898 5.80673C8.27676 5.74687 8.27161 5.57181 8.14675 5.52354C7.70523 5.35427 7.07318 5.71726 6.70567 5.94832C6.51709 6.06739 6.64196 6.33837 6.85564 6.26242Z" fill="white"/>
<path d="M6.64006 22.7147C6.10328 25.6618 5.934 28.6843 5.91469 31.6758C5.91276 31.9455 6.33305 31.9867 6.33434 31.7157C6.3485 28.6997 6.63942 25.7391 6.92133 22.7411C6.93935 22.557 6.67224 22.5377 6.64006 22.7147Z" fill="white"/>
<path d="M5.98231 31.9817C8.04447 35.696 10.7785 39.2501 14.0958 41.9301C14.2805 42.0794 14.5553 41.7859 14.379 41.6192C11.2658 38.667 8.48083 35.5441 6.26612 31.8472C6.16443 31.6766 5.88319 31.8027 5.98231 31.9817Z" fill="white"/>
<path d="M9.93869 29.0923C10.5076 33.3641 12.0671 37.9248 13.7779 41.8611C13.9034 42.1508 14.3385 41.9416 14.2194 41.6513C13.1774 39.1077 12.2821 36.5403 11.5574 33.8867C11.1178 32.2763 10.8417 30.5514 10.1743 29.0177C10.1163 28.8851 9.92067 28.9565 9.93869 29.0923Z" fill="white"/>
<path d="M13.9529 19.1324C16.9155 20.2394 19.2724 22.2984 21.7555 24.2074C21.9345 24.3444 22.1977 24.0683 22.0272 23.9093C20.7232 22.6903 19.2049 21.6335 17.7252 20.6423C16.8544 20.0586 15.1359 18.6407 13.9754 18.8814C13.8499 18.9071 13.8293 19.0861 13.9529 19.1324Z" fill="white"/>
<path d="M16.9219 25.9077C19.8607 28.981 22.5259 32.2576 25.1912 35.5671C25.383 35.8046 25.7421 35.4996 25.5529 35.2601C22.916 31.9442 20.2308 28.6392 17.1987 25.6727C17.0346 25.5118 16.7585 25.7365 16.9219 25.9077Z" fill="white"/>
<path d="M21.733 23.8881C23.1412 27.8006 24.3455 31.7673 25.6089 35.7275C25.6842 35.9624 26.1013 35.8331 26.0273 35.5943C24.7941 31.618 23.5796 27.6147 22.0111 23.7555C21.9358 23.5701 21.6667 23.704 21.733 23.8881Z" fill="white"/>
<path d="M10.5784 21.4816C13.4077 27.2227 16.6111 33.1028 19.9656 38.5504C20.0827 38.7396 20.3589 38.6135 20.2797 38.4011C18.0791 32.483 14.2419 26.6659 10.8571 21.3496C10.7535 21.1881 10.4883 21.2988 10.5784 21.4816Z" fill="white"/>
<path d="M4.25425 10.0638C4.30832 10.6527 4.56705 11.3349 5.19587 11.5113C5.65477 11.6407 6.12654 11.4064 6.33443 10.9854C6.46508 10.7209 6.48825 10.4165 6.44706 10.1275C6.42325 9.96081 6.37886 9.7735 6.30677 9.61903C6.21216 9.41308 5.98687 9.3146 5.77962 9.23544C5.08708 8.97284 4.61725 9.58492 4.46085 10.2125C4.42739 10.345 4.56704 10.4628 4.68546 10.3689C5.04911 10.0818 5.05684 9.3558 5.65734 9.56498C5.83562 9.62677 5.98303 9.70464 6.06026 9.8797C6.11433 10.002 6.142 10.1545 6.1568 10.2878C6.17933 10.504 6.1555 10.7299 6.04222 10.9198C5.86909 11.212 5.51895 11.3433 5.19907 11.2217C4.72279 11.0389 4.5606 10.4763 4.49624 10.0213C4.47436 9.86297 4.23945 9.90803 4.25425 10.0638Z" fill="white"/>
<path d="M6.66839 12.8073C6.34465 13.1967 6.12584 13.6827 6.3215 14.1873C6.55707 14.7942 7.22834 15.0813 7.80567 15.2583C7.90929 15.2904 8.01873 15.246 8.06057 15.1418C8.19509 14.7993 8.34181 14.4357 8.32443 14.0611C8.31091 13.7773 8.19701 13.5134 8.12235 13.2424C8.08631 13.1137 8.07985 13.0043 7.96915 12.9238C7.82884 12.8215 7.53084 12.7964 7.36028 12.8009C7.03011 12.8099 6.68319 12.9599 6.45921 13.2012C6.35302 13.3139 6.4219 13.5031 6.58989 13.4806C6.76366 13.458 6.8866 13.3853 7.04429 13.3171C7.30302 13.2044 7.53278 13.2257 7.80246 13.2971C7.75934 13.245 7.71558 13.1922 7.67182 13.1401C7.74712 13.4143 7.86746 13.691 7.91123 13.9717C7.96658 14.3276 7.81404 14.679 7.68854 15.004C7.7735 14.9654 7.85782 14.9261 7.94278 14.8869C7.4916 14.7517 6.91941 14.5567 6.69608 14.0984C6.51329 13.7245 6.69092 13.292 6.89237 12.9637C6.9857 12.8131 6.78102 12.6722 6.66839 12.8073Z" fill="white"/>
<path d="M8.40617 17.1725C7.67116 18.0092 8.40875 18.9084 9.35551 18.9863C9.6696 19.0126 10.1066 18.9566 10.2386 18.6181C10.3268 18.3909 10.2212 18.0923 10.1742 17.8683C10.1189 17.6089 10.0532 17.3231 9.90517 17.0991C9.51964 16.5141 8.71191 16.76 8.2189 17.0644C7.98333 17.2105 8.13971 17.5548 8.40488 17.4564C8.83868 17.2948 9.39028 16.9279 9.65159 17.5021C9.75714 17.7331 9.88136 18.1334 9.8672 18.3877C9.86141 18.51 9.85626 18.5318 9.71981 18.5782C9.4186 18.6799 9.00025 18.5653 8.7486 18.3903C8.33668 18.1019 8.4731 17.6964 8.67327 17.3128C8.76016 17.1474 8.50979 17.0547 8.40617 17.1725Z" fill="white"/>
<path d="M0.86033 2.75904C1.45825 2.76805 2.10381 2.52348 2.51766 2.08003C2.66311 1.92363 2.46939 1.6739 2.29625 1.82C1.88112 2.16756 1.3971 2.41792 0.848733 2.45461C0.676243 2.46555 0.687839 2.75646 0.86033 2.75904Z" fill="white"/>
<path d="M0.732926 0.843125C0.686586 1.28079 0.515378 1.70943 0.455522 2.14966C0.589395 2.16254 0.723252 2.17477 0.857125 2.18764C0.882226 1.75191 0.879006 1.31424 0.886729 0.878511C0.740627 0.903612 0.593893 0.930013 0.447791 0.955758C0.718755 1.48482 1.15255 1.90702 1.5664 2.32473C1.65586 2.19729 1.74469 2.06986 1.83415 1.94242C1.68805 1.86905 1.54325 1.79439 1.39779 1.72037C1.27036 1.65537 1.13776 1.75899 1.08305 1.86519C1.00968 2.01 0.935651 2.15546 0.860991 2.30092C0.749644 2.51975 1.02383 2.67036 1.20147 2.6118C1.52328 2.50431 1.93071 2.34146 2.00408 1.97396C2.0221 1.88514 1.96418 1.79182 1.8966 1.74097C1.76208 1.63992 1.62176 1.61032 1.46149 1.66374C1.31153 1.7133 1.20017 1.88771 1.04892 1.91217C1.14611 2.02802 1.24201 2.14324 1.33855 2.25909C1.54966 1.62706 1.54129 1.15528 1.33855 0.521314C1.24909 0.650038 1.15899 0.778762 1.06888 0.907487C1.45891 0.942242 1.73054 1.43203 1.97576 1.69206C2.2197 1.95144 2.64382 1.59615 2.39924 1.33227C2.09288 1.00209 1.88244 0.632656 1.47567 0.404814C1.24847 0.277377 0.911854 0.485911 1.05603 0.759451C1.17703 0.98858 1.32764 1.19711 1.46215 1.41787C1.58444 1.61804 1.66166 1.83623 1.76722 2.04541C1.85153 2.2121 2.11476 2.21339 2.17784 2.02738C2.36771 1.47451 1.81164 0.96412 1.56963 0.515515C1.42932 0.633942 1.28966 0.751725 1.14999 0.870152C1.51299 1.06839 1.70029 1.40178 1.97576 1.69206C2.11672 1.57234 2.25829 1.45262 2.39924 1.33227C2.03431 0.951887 1.69707 0.414464 1.12039 0.368124C0.89512 0.350102 0.786979 0.56314 0.850054 0.753652C1.00967 1.2383 1.00388 1.59165 0.850054 2.07823C0.791485 2.26359 0.937587 2.46053 1.13968 2.42514C1.23558 2.4084 1.62562 2.17349 1.60502 2.15868C1.56833 2.08081 1.53294 2.00356 1.49754 1.92568C1.50913 1.85939 1.4628 1.94306 1.41131 1.97074C1.34694 2.00549 1.28451 2.03961 1.21822 2.06986C1.14292 2.10461 1.06632 2.13552 0.987798 2.16255C1.10108 2.26617 1.21434 2.36978 1.32762 2.47341C1.39906 2.32731 1.47117 2.18057 1.54261 2.03447C1.4377 2.08274 1.33276 2.13101 1.2285 2.17928C1.37395 2.25137 1.5207 2.3228 1.66681 2.39489C1.88113 2.50044 2.10126 2.17863 1.93456 2.01258C1.54517 1.62641 1.13584 1.24023 0.865516 0.756873C0.766398 0.579234 0.422041 0.586311 0.426546 0.834749C0.434913 1.29043 0.432354 1.74869 0.458099 2.20373C0.472902 2.46054 0.873873 2.39102 0.855208 2.13357C0.824314 1.70492 1.01483 1.29623 1.0174 0.869507C1.01869 0.688006 0.752235 0.657118 0.732926 0.843125Z" fill="white"/>
<path d="M0.759936 2.70394C0.890592 2.8391 0.981346 2.94916 1.18216 2.96074C1.34821 2.9704 1.51811 2.90346 1.65906 2.82237C2.02721 2.61126 2.43913 2.19933 2.55048 1.7842C2.59103 1.63488 2.43593 1.51968 2.30721 1.61365C2.00921 1.83248 1.44669 2.83395 0.962042 2.48253C0.826238 2.38406 0.639579 2.57843 0.759936 2.70394Z" fill="white"/>
<path d="M1.4158 2.28942C1.49561 2.21476 1.59474 2.12466 1.65524 2.03391C1.71188 1.95024 1.80069 1.98756 1.6488 1.92705C1.50591 1.86977 1.56125 1.9232 1.61853 2.01266C1.68933 2.12336 1.82708 2.11822 1.88758 2.00044C1.97704 1.82666 1.92103 1.55247 1.67774 1.5647C1.44861 1.57629 1.30637 1.92577 1.1828 2.07767C1.07016 2.21733 1.2845 2.41235 1.4158 2.28942Z" fill="white"/>
</svg>
