<svg width="493" height="495" viewBox="0 0 493 495" fill="none" xmlns="http://www.w3.org/2000/svg">
<g clip-path="url(#clip0_7_251)">
<path d="M219.111 1.19693C193.112 5.79156 183.914 7.83792 172.1 11.5832C158.692 15.7917 149.903 19.4211 131.303 28.4173L118.876 34.402L101.053 47.9156C83.6383 61.1204 83.066 61.6224 77.3429 67.6842C60.5417 85.5609 52.1206 96.1402 37.7313 117.453C35.115 121.353 32.744 124.866 32.4579 125.291C31.9673 125.986 32.0491 126.372 33.1937 128.38L34.4609 130.697L33.1937 129.577C32.4988 128.959 32.0082 128.303 32.1308 128.148C32.2535 127.955 32.0491 127.917 31.7221 128.032C30.2913 128.534 20.7256 149.886 15.7384 163.747C13.5309 169.77 10.5468 179.732 10.465 181.161C10.465 181.547 10.3424 181.855 10.2197 181.855C9.97446 181.855 9.85182 182.744 9.77007 184.442C9.72919 184.944 9.52479 185.215 9.3204 185.099C9.07512 184.944 8.99337 185.137 9.15688 185.639C9.3204 186.064 9.23864 186.527 8.99337 186.682C8.74809 186.836 8.66633 187.3 8.82985 187.724C8.99337 188.265 8.95249 188.419 8.62546 188.226C8.29842 188.033 8.21667 188.265 8.42106 188.96C8.58458 189.616 8.50282 189.964 8.21667 189.964C7.93051 189.964 7.84876 190.35 8.01227 190.968C8.21667 191.663 8.13491 191.933 7.88963 191.778C7.60348 191.624 7.43997 191.933 7.39909 192.473C7.35821 193.014 7.35821 193.863 7.31733 194.404C7.27645 194.944 7.15381 195.369 6.9903 195.369C6.70415 195.369 6.62239 195.833 6.49975 198.072C6.45887 198.69 6.29536 199.23 6.17272 199.23C5.92745 199.23 5.84569 199.694 5.68217 202.319C5.64129 202.937 5.47778 203.477 5.35514 203.477C5.10987 203.477 4.98723 204.674 4.86459 208.304C4.82371 210.234 4.78284 210.389 4.53756 209.269C4.33317 208.265 4.08789 209.346 3.51559 213.786C3.1068 216.991 2.9024 219.81 3.02504 220.041C3.18856 220.273 2.53449 221.547 1.63516 222.937L-0.0408783 225.408L0.817579 246.798C1.26725 258.536 1.75779 271.277 1.88043 275.1C2.08483 281.355 2.3301 283.015 4.12877 291.509C8.17579 310.544 11.8958 322.861 20.4395 345.564L24.5682 356.568L36.9137 376.452L49.2182 396.337L59.2745 407.148C64.7931 413.094 70.1482 418.924 71.1702 420.082C72.1513 421.241 74.0317 423.248 75.3399 424.523C76.6071 425.797 77.67 427.148 77.67 427.534C77.67 427.92 77.8335 428.152 78.0379 428.036C78.2423 427.882 79.4686 428.924 80.8176 430.314C82.1258 431.666 89.9337 437.882 98.1912 444.098L113.235 455.45L134.982 466.685L156.771 477.921L166.173 480.817C183.219 486.068 194.42 488.886 210.445 491.859L220.542 493.751L244.456 494.021L268.37 494.253L288.401 490.74L308.432 487.265L319.264 483.519C351.681 472.4 367.624 464.06 398.406 442.206L406.991 436.106L423.342 419.387C438.672 403.634 439.857 402.322 443.291 397.186C458.375 374.483 465.284 362.205 472.233 345.95C474.768 340.043 478.611 330.429 479.142 328.575C479.387 327.842 481.39 321.741 483.598 315.062C487.154 304.251 487.686 302.204 488.462 296.722C488.953 293.324 489.73 289.231 490.179 287.571C490.588 285.949 490.956 283.363 490.956 281.78C490.956 280.235 491.365 276.413 491.855 273.362C492.673 268.15 492.714 266.49 492.632 248.266C492.55 231.354 492.468 228.15 491.774 223.941C491.365 221.277 490.915 216.412 490.792 213.091C490.629 208.458 490.343 206.103 489.566 203.053C488.994 200.852 486.418 190.852 483.802 180.89L479.101 162.743L474.155 152.125C463.485 129.307 457.149 117.994 444.109 98.4182L438.835 90.5417L422.361 73.9391C409.443 60.8888 405.069 56.7188 401.922 54.518C366.97 29.5757 356.996 24.3632 317.18 10.2704L306.715 6.60239L284.967 3.28189L263.179 0L244.293 0.0386047L225.447 0.0772095L219.111 1.19693ZM250.588 4.28577V6.29352L247.399 6.10046C244.252 5.8688 240.94 4.94214 241.349 4.32437C241.431 4.16992 241.349 3.78381 241.104 3.47495C240.777 3.01163 240.736 3.01163 240.94 3.55215C241.267 4.59464 240.573 4.36298 240.041 3.28189L239.551 2.31662H245.069H250.588V4.28577ZM245.478 10.0387L246.663 11.1971H244.047H241.431L242.616 10.0387C243.271 9.38235 243.925 8.8804 244.047 8.8804C244.17 8.8804 244.824 9.38235 245.478 10.0387ZM250.506 10.3476C250.629 11.004 250.424 11.1971 249.811 11.1971C249.239 11.1971 248.953 10.9654 248.953 10.502C248.953 9.03485 250.302 8.91904 250.506 10.3476ZM239.06 12.6642C239.142 13.2048 238.978 13.5137 238.569 13.5137C237.793 13.5137 237.384 12.8573 237.67 12.1237C237.997 11.2743 238.896 11.6604 239.06 12.6642ZM312.56 19.1122L314.972 20.0388L313.092 20.0775C312.07 20.0775 310.312 20.1933 309.249 20.3477L307.287 20.5794L308.432 19.3825C309.086 18.6875 309.699 18.1469 309.862 18.1469C310.026 18.1469 311.211 18.5717 312.56 19.1122ZM323.761 25.9849V29.5757L321.227 29.3054C318.937 29.0351 314.523 28.0312 309.126 26.564L307.41 26.1007L312.397 25.0196C319.469 23.5524 319.101 23.4752 319.06 26.2552C319.06 27.5293 319.183 28.5718 319.346 28.5718C319.51 28.5718 319.959 28.0312 320.286 27.4135C320.654 26.7571 321.104 26.3324 321.308 26.4482C321.513 26.564 321.799 26.4482 321.962 26.2165C322.126 25.9077 322.085 25.869 321.799 26.0235C321.104 26.4096 321.186 25.7532 321.962 24.8652C322.535 24.2088 322.576 24.2088 322.371 24.8266C322.208 25.2513 322.29 25.4443 322.576 25.2899C322.821 25.1354 322.903 24.7493 322.78 24.4405C322.535 23.9385 323.148 22.3941 323.557 22.3941C323.679 22.3941 323.761 24.0157 323.761 25.9849ZM298.334 24.0157C298.253 24.5177 297.926 24.9038 297.599 24.9038C297.272 24.9038 296.945 24.5177 296.863 24.0157C296.74 23.3593 296.945 23.1663 297.599 23.1663C298.253 23.1663 298.457 23.3593 298.334 24.0157ZM332.673 28.6876C332.755 29.1123 332.55 29.344 331.978 29.344C331.038 29.344 330.547 28.7648 330.915 28.1471C331.324 27.5679 332.509 27.9154 332.673 28.6876ZM274.011 61.0818C275.32 62.7807 275.647 63.7073 274.911 63.7073C274.216 63.7073 272.254 61.3521 272.254 60.5027C272.254 59.4988 272.949 59.7305 274.011 61.0818ZM316.689 83.2443C316.812 83.5531 316.73 84.0165 316.444 84.2867C315.872 84.8273 314.523 83.7076 314.931 83.0512C315.34 82.4334 316.403 82.5493 316.689 83.2443ZM322.821 101.353L324.088 102.704H321.676H319.224L320.368 101.353C320.981 100.619 321.513 100.001 321.554 100.001C321.554 100.001 322.126 100.619 322.821 101.353ZM321.104 106.372C321.104 106.797 320.777 107.183 320.409 107.26C319.837 107.376 319.673 107.144 319.673 106.372C319.673 105.6 319.837 105.368 320.409 105.484C320.777 105.561 321.104 105.947 321.104 106.372ZM312.111 108.689C312.111 109.113 311.825 109.499 311.457 109.577C310.721 109.692 310.108 108.689 310.516 108.071C310.925 107.414 312.111 107.878 312.111 108.689ZM323.516 110.387C323.884 110.928 323.352 111.97 322.739 111.97C322.003 111.97 321.595 111.314 321.881 110.619C322.126 109.963 323.189 109.847 323.516 110.387ZM355.647 111.005C355.647 112.627 354.625 114.442 353.071 115.561C352.254 116.14 351.559 116.604 351.436 116.604C351.354 116.604 351.395 115.754 351.559 114.673C351.804 112.82 353.153 110.812 354.134 110.812C354.379 110.812 354.052 111.237 353.439 111.777C352.867 112.279 352.376 112.82 352.376 112.974C352.376 113.322 354.625 111.198 354.666 110.774C354.788 110.117 354.829 110.04 355.238 110.04C355.483 110.04 355.647 110.465 355.647 111.005ZM359.898 113.553C360.021 114.21 360.143 115.716 360.143 116.835V118.92H358.14H356.096L356.832 116.874C357.772 114.287 358.835 112.357 359.285 112.357C359.489 112.357 359.735 112.897 359.898 113.553ZM125.253 115.021C125.621 115.561 125.09 116.604 124.476 116.604C123.741 116.604 123.332 115.947 123.618 115.252C123.863 114.596 124.926 114.48 125.253 115.021ZM341.666 115.523C341.584 116.025 341.257 116.411 340.93 116.411C340.603 116.411 340.276 116.025 340.194 115.523C340.072 114.866 340.276 114.673 340.93 114.673C341.584 114.673 341.789 114.866 341.666 115.523ZM330.22 117.839C330.138 118.341 329.811 118.727 329.484 118.727C329.157 118.727 328.83 118.341 328.748 117.839C328.626 117.183 328.83 116.99 329.484 116.99C330.138 116.99 330.343 117.183 330.22 117.839ZM346.163 117.839C346.081 118.341 345.754 118.727 345.427 118.727C345.1 118.727 344.773 118.341 344.691 117.839C344.569 117.183 344.773 116.99 345.427 116.99C346.081 116.99 346.285 117.183 346.163 117.839ZM321.881 120.581C322.984 121.971 323.311 123.361 322.453 123.09C321.799 122.859 320.082 120.503 320.082 119.847C320.082 118.959 320.818 119.268 321.881 120.581ZM337.251 122.357C337.251 123.283 336.229 123.669 335.616 122.974C335.003 122.279 335.412 121.623 336.475 121.623C336.965 121.623 337.251 121.893 337.251 122.357ZM342.565 123.785C343.26 124.982 344.732 127.762 345.836 129.963L347.839 133.978L342.729 136.411L337.66 138.882V137.84C337.66 136.45 339.377 135.021 342.565 133.747C344.037 133.168 345.304 132.627 345.345 132.589C345.427 132.55 344.773 131.855 343.874 131.083C342.034 129.538 341.053 127.299 340.644 123.824C340.317 121.005 340.889 120.967 342.565 123.785ZM123.046 123.399C123.046 124.48 122.719 125.098 121.615 126.141C120.266 127.415 118.753 127.762 118.753 126.758C118.753 126.527 118.59 126.179 118.385 125.986C118.181 125.793 118.14 125.909 118.345 126.218C118.549 126.565 118.467 126.681 118.099 126.565C117.772 126.449 117.527 126.179 117.527 125.947C117.527 125.754 117.363 125.407 117.159 125.214C116.955 125.021 116.914 125.098 117.077 125.368C117.486 126.063 117.159 125.986 115.606 125.098L114.298 124.364L115.442 123.94C116.055 123.747 116.996 123.554 117.486 123.554C117.977 123.554 118.549 123.438 118.712 123.245C118.958 123.013 121.778 122.164 122.759 122.048C122.923 122.009 123.046 122.627 123.046 123.399ZM337.415 128.843C337.047 129.114 336.229 129.229 335.616 129.075C334.962 128.959 334.144 129.075 333.695 129.307C333.286 129.538 333.163 129.731 333.409 129.731C334.512 129.731 333.695 131.005 331.978 131.932C329.525 133.283 329.566 133.206 330.424 133.631C330.792 133.863 331.038 134.172 330.915 134.365C330.792 134.558 330.915 134.828 331.16 134.982C331.487 135.175 331.528 135.098 331.324 134.751C331.119 134.442 331.201 134.326 331.569 134.442C331.896 134.558 332.141 134.789 332.141 134.982C332.141 135.716 332.877 136.334 333.449 136.141C333.776 136.025 334.431 136.179 334.921 136.527C335.78 137.106 335.739 137.106 334.185 136.874C332.223 136.565 327.89 135.291 327.031 134.751C326.541 134.403 326.909 133.901 329.157 131.855C331.978 129.307 334.022 128.38 336.802 128.38C337.905 128.38 337.987 128.457 337.415 128.843ZM356.219 132.897C355.728 135.291 355.074 137.762 354.829 138.419C354.379 139.5 354.339 139.538 353.93 138.843C353.357 137.917 353.807 132.897 354.584 131.121C354.993 130.156 356.587 128.573 357.077 128.573C357.118 128.573 356.71 130.542 356.219 132.897ZM335.412 129.963C335.003 130.272 334.512 130.504 334.39 130.504C334.226 130.504 334.104 130.272 334.104 129.963C334.104 129.654 334.553 129.422 335.166 129.422C336.107 129.422 336.147 129.461 335.412 129.963ZM323.516 133.438C323.802 134.172 323.475 134.751 322.739 134.751C322.003 134.751 321.595 134.094 321.881 133.399C322.167 132.627 323.189 132.666 323.516 133.438ZM360.062 133.708C360.225 134.48 359.04 135.021 358.426 134.442C357.813 133.863 358.386 132.743 359.203 132.897C359.612 132.975 359.98 133.322 360.062 133.708ZM333.368 135.523C333.49 135.716 333.449 135.909 333.204 135.909C333 135.909 332.673 135.716 332.55 135.523C332.427 135.291 332.468 135.137 332.714 135.137C332.918 135.137 333.245 135.291 333.368 135.523ZM334.39 145.253C334.39 145.677 334.185 145.871 333.981 145.755C333.736 145.6 333.654 145.369 333.776 145.176C333.899 144.982 333.654 144.596 333.245 144.326C332.836 144.056 332.387 143.554 332.223 143.245C332.06 142.782 331.978 142.782 331.978 143.322C331.937 143.708 332.305 144.172 332.795 144.403C333.245 144.674 333.531 144.944 333.409 145.06C333.286 145.176 332.714 144.982 332.1 144.635C331.528 144.249 330.997 144.017 330.874 144.094C330.792 144.172 330.384 145.639 329.975 147.299L329.198 150.349L328.953 147.878C328.789 146.565 328.667 144.056 328.667 142.357V139.307L331.528 141.932C333.122 143.361 334.39 144.867 334.39 145.253ZM34.1339 145.369C34.1339 145.793 33.8478 146.179 33.4798 146.257C32.744 146.372 32.1308 145.369 32.5396 144.751C32.9484 144.094 34.1339 144.558 34.1339 145.369ZM26.8166 147.762C27.1027 148.149 27.348 148.612 27.348 148.844C27.348 149.037 27.1027 148.921 26.7757 148.535C26.2443 147.84 26.2034 147.84 25.7946 148.612C25.2223 149.577 25.2223 150.233 25.7946 149.307C26.1216 148.766 26.3669 148.689 26.8166 149.075C27.1436 149.307 27.3889 149.384 27.3889 149.191C27.4298 148.728 29.024 150.697 29.024 151.16C29.024 151.353 28.6153 151.122 28.1656 150.581L27.3071 149.616L27.8794 150.581C28.2473 151.122 28.7379 151.546 28.9832 151.546C29.7599 151.546 31.068 153.4 31.0271 154.442C31.0271 154.983 30.6183 157.492 30.0869 160.002L29.1876 164.635L28.2882 163.168C27.7568 162.357 27.4298 161.585 27.5524 161.508C27.6342 161.392 28.0021 161.817 28.3291 162.396L28.9014 163.438L29.1876 162.01C29.3511 161.199 29.392 160.427 29.2693 160.311C29.1467 160.195 29.024 160.465 29.024 160.929C29.024 161.817 28.4517 162.048 28.0021 161.392C27.8386 161.16 27.5933 161.083 27.4298 161.199C27.0619 161.392 25.8355 160.234 25.7946 159.654C25.7946 159.423 25.4676 159.23 25.0588 159.191C24.4456 159.114 24.4456 159.153 25.1405 159.423C25.8764 159.732 25.8764 159.809 25.2632 159.886C23.8733 160.002 23.7915 160.041 23.4236 160.388C23.2192 160.581 23.3419 160.62 23.6689 160.427C24.4047 160.041 24.4047 160.041 21.0527 165.948C19.4993 168.728 18.0276 170.89 17.8232 170.774C17.6188 170.658 17.5779 170.736 17.7006 170.929C17.8641 171.16 17.7006 171.933 17.3735 172.628L16.7604 173.94L17.0056 172.203C17.4553 169.23 18.6817 164.442 19.9898 160.813C21.2979 157.222 25.7946 147.106 26.1216 147.106C26.2034 147.106 26.5304 147.415 26.8166 147.762ZM325.069 153.94C325.682 154.519 326.214 155.06 326.214 155.176C326.214 155.291 325.151 155.407 323.802 155.407H321.431L322.453 154.133C322.984 153.477 323.557 152.898 323.679 152.898C323.802 152.898 324.456 153.361 325.069 153.94ZM205.13 168.072C205.294 168.844 204.109 169.384 203.536 168.844C202.964 168.303 203.577 167.106 204.354 167.261C204.722 167.338 205.049 167.685 205.13 168.072ZM25.0588 172.28C25.3041 173.014 24.9361 173.747 24.323 173.747C23.5871 173.747 23.1784 173.091 23.4645 172.396C23.7507 171.701 24.8135 171.624 25.0588 172.28ZM34.3383 178.188C34.3383 184.635 32.9893 191.624 31.1497 194.906C30.4139 196.18 30.4139 196.103 30.373 187.184C30.373 182.242 30.2504 177.84 30.1278 177.415C29.9234 176.798 30.2504 176.373 31.8038 175.408C32.8667 174.751 33.8478 174.172 34.0522 174.172C34.2157 174.133 34.3383 175.948 34.3383 178.188ZM435.115 174.481C435.483 175.021 434.952 176.064 434.339 176.064C433.603 176.064 433.194 175.408 433.48 174.713C433.725 174.056 434.788 173.94 435.115 174.481ZM25.7537 179.191L26.6531 181.933L25.0997 183.439C24.2821 184.249 23.4236 184.829 23.301 184.751C23.1375 184.635 22.7287 184.867 22.4425 185.253C21.9111 185.832 21.952 185.871 22.6061 185.369C23.5463 184.674 23.5054 185.176 22.4834 186.373C22.0337 186.913 21.3797 188.226 21.0527 189.307C20.3986 191.392 20.2351 194.983 20.7665 194.983C20.9709 194.983 21.1344 195.253 21.1344 195.562C21.1344 196.373 21.0935 196.334 18.559 194.481C16.3516 192.859 16.3516 192.859 16.5151 191.122C16.7195 189.423 18.5999 179.076 19.0087 177.299C19.2131 176.527 19.4584 176.45 22.0337 176.45H24.8544L25.7537 179.191ZM168.258 179.886C168.871 181.045 168.421 182.28 167.236 182.705C166.05 183.091 164.211 181.508 164.619 180.427C165.314 178.496 167.399 178.188 168.258 179.886ZM136.781 181.508C136.904 181.74 136.781 182.164 136.495 182.473C135.759 183.13 134.696 182.551 135.023 181.701C135.309 181.006 136.372 180.89 136.781 181.508ZM302.831 181.933C302.749 182.435 302.422 182.821 302.095 182.821C301.768 182.821 301.441 182.435 301.359 181.933C301.237 181.276 301.441 181.083 302.095 181.083C302.749 181.083 302.954 181.276 302.831 181.933ZM295.596 186.682L294.328 188.072V185.33V182.589L295.596 183.979L296.863 185.33L295.596 186.682ZM291.14 186.566L289.832 187.84V185.33V182.821L291.14 184.095L292.489 185.33L291.14 186.566ZM13.7353 183.825C13.858 184.056 13.7353 184.481 13.4492 184.79C12.7133 185.446 11.6505 184.867 11.9775 184.018C12.2637 183.323 13.3265 183.207 13.7353 183.825ZM307.737 183.863C308.595 184.674 308.268 185.099 307.328 184.327L306.388 183.593L307.164 184.442C307.573 184.944 308.064 185.215 308.227 185.137C308.432 185.022 308.922 185.523 309.331 186.218L310.108 187.454H307.941H305.774V185.678C305.774 184.713 305.897 183.786 306.061 183.67C306.469 183.245 307.205 183.361 307.737 183.863ZM287.052 187.184L286.888 189.423L289.505 190.118C296.74 192.01 296.372 191.817 296.372 193.168C296.372 196.026 295.514 196.759 293.388 195.717C292.039 195.06 290.649 193.748 290.894 193.361C291.017 193.168 290.894 193.091 290.567 193.13C290.281 193.207 290.077 193.014 290.159 192.744C290.2 192.435 290.118 192.319 289.913 192.435C289.709 192.551 288.401 191.508 286.97 190.157L284.354 187.647L285.744 186.296C286.52 185.562 287.134 184.944 287.134 184.944C287.175 184.944 287.134 185.948 287.052 187.184ZM446.561 186.913C446.439 187.107 445.989 187.261 445.54 187.261C444.681 187.261 444.436 185.91 445.294 185.601C445.867 185.408 446.889 186.45 446.561 186.913ZM435.197 189.153C434.788 189.771 433.725 189.655 433.439 188.96C433.112 188.11 434.175 187.531 434.911 188.188C435.197 188.497 435.32 188.921 435.197 189.153ZM439.857 188.651C439.857 189.385 438.713 189.809 438.14 189.269C437.813 188.96 437.813 188.69 438.181 188.265C438.754 187.608 439.857 187.879 439.857 188.651ZM173.163 200.736C172.754 201.315 170.792 201.277 169.934 200.659C169.484 200.35 168.912 198.535 168.217 194.983C167.645 192.126 167.113 189.346 166.95 188.805C166.827 188.265 168.258 190.659 170.097 194.095C171.937 197.493 173.286 200.504 173.163 200.736ZM120.593 190.543C121.124 191.161 120.838 191.894 119.98 191.894C119.244 191.894 118.835 191.238 119.121 190.543C119.407 189.809 119.939 189.809 120.593 190.543ZM27.0619 193.825C27.675 194.867 28.0838 195.987 27.9612 196.296C27.8386 196.605 27.9203 196.952 28.1656 197.107C28.4517 197.261 28.5335 197.068 28.37 196.643C28.1656 196.026 28.2065 196.026 28.7788 196.721C29.4737 197.493 29.4328 198.265 28.7379 198.265C28.4926 198.265 28.1247 198.419 27.9203 198.612C27.7159 198.806 27.8386 198.844 28.1656 198.651C28.5335 198.458 28.6561 198.535 28.5335 198.883C28.4109 199.192 28.1247 199.423 27.8794 199.423C27.675 199.423 27.3071 199.578 27.1027 199.771C26.8983 199.964 27.021 200.002 27.348 199.809C27.7159 199.616 27.8386 199.694 27.7159 200.041C27.5933 200.35 27.3071 200.582 27.0619 200.582C26.8575 200.582 26.4895 200.736 26.2852 200.929C26.0808 201.122 26.2034 201.161 26.5304 200.968C26.8983 200.775 27.021 200.852 26.8983 201.199C26.7757 201.508 26.4895 201.701 26.2443 201.663C26.0399 201.624 25.5902 201.856 25.2632 202.242C24.7726 202.821 24.8135 202.86 25.4676 202.358C25.8355 202.087 26.1625 202.01 26.1625 202.242C26.1625 202.705 25.1405 203.555 24.8544 203.284C24.7318 203.169 24.4047 203.4 24.0777 203.748C23.5463 204.365 23.5871 204.404 24.2412 203.902C25.2632 203.13 25.0997 203.979 24.0368 204.867C23.5463 205.253 23.301 205.369 23.4645 205.099C23.9142 204.365 23.5054 204.558 22.6469 205.485C22.0337 206.219 21.9929 206.257 22.6061 205.833C22.974 205.562 23.301 205.485 23.301 205.678C23.301 206.18 21.8702 207.416 21.5841 207.145C21.4614 207.03 21.0527 207.338 20.603 207.802L19.8263 208.69L20.7665 207.956C22.3199 206.682 21.7476 207.686 19.3766 210.35C17.3735 212.551 17.0874 212.744 17.3327 211.779C17.4553 211.122 17.8641 208.613 18.1911 206.18C18.5182 203.748 18.9269 201.161 19.0496 200.466L19.254 199.23H21.952C24.1595 199.23 24.5274 199.153 24.1595 198.728C23.9142 198.419 23.7915 198.111 23.9142 197.995C24.0368 197.879 23.7098 197.493 23.2192 197.068C22.4834 196.489 22.4017 196.45 22.8513 196.991C23.628 197.995 22.7696 197.84 21.8294 196.836C21.3388 196.334 21.2979 196.141 21.6658 196.334C22.1564 196.605 22.1973 196.566 21.8294 196.103C21.257 195.369 21.3388 194.52 22.0337 194.288C22.4017 194.172 22.4834 194.288 22.279 194.636C22.0746 194.944 22.1155 195.06 22.3199 194.867C22.5243 194.674 22.6878 194.327 22.6878 194.095C22.6878 193.902 22.9331 193.632 23.2601 193.516C23.628 193.4 23.7098 193.516 23.5054 193.863C23.301 194.172 23.3419 194.288 23.5463 194.095C23.7507 193.902 23.9142 193.593 23.9142 193.439C23.9142 193.091 25.3449 191.933 25.7537 191.894C25.8764 191.894 26.4487 192.782 27.0619 193.825ZM127.461 193.361C127.583 194.018 127.379 194.211 126.766 194.211C126.193 194.211 125.907 193.979 125.907 193.516C125.907 192.049 127.256 191.933 127.461 193.361ZM416.965 193.4C416.965 193.902 414.022 196.141 413.409 196.141C412.509 196.141 412.836 195.331 414.144 194.172C415.371 193.091 416.965 192.666 416.965 193.4ZM161.308 198.883L160.286 201.354V198.381C160.245 196.759 160.123 195.099 160 194.713C159.796 194.249 160.123 194.404 161.022 195.215L162.33 196.373L161.308 198.883ZM273.398 195.485C273.562 196.296 272.376 196.798 271.763 196.219C271.436 195.91 271.436 195.601 271.845 195.176C272.499 194.443 273.235 194.597 273.398 195.485ZM193.235 201.199L192.213 203.67L192.09 200.118L191.927 196.527L193.071 197.609L194.216 198.69L193.235 201.199ZM120.756 197.531C121.043 198.265 120.715 198.844 119.98 198.844C119.244 198.844 118.835 198.188 119.121 197.493C119.407 196.721 120.429 196.759 120.756 197.531ZM127.461 197.995C127.542 198.535 127.379 198.844 126.97 198.844C126.193 198.844 125.784 198.188 126.071 197.454C126.398 196.605 127.297 196.991 127.461 197.995ZM451.303 199.037V201.161H449.914C447.134 201.161 446.602 200.504 448.115 198.96C449.014 198.033 449.954 197.724 449.423 198.535C449.259 198.806 449.3 198.844 449.627 198.69C449.873 198.535 449.995 198.265 449.873 198.072C449.709 197.802 450.649 196.991 451.222 196.914C451.263 196.914 451.303 197.879 451.303 199.037ZM257.456 200.118C257.619 200.929 256.352 201.47 255.902 200.775C255.412 200.041 255.902 199.153 256.679 199.307C257.047 199.385 257.374 199.732 257.456 200.118ZM421.462 202.898C421.462 205.678 421.421 205.794 420.481 205.794C418.641 205.794 417.047 204.057 415.984 200.852C415.698 200.041 415.78 200.002 418.559 200.002H421.462V202.898ZM165.274 202.435C165.151 202.628 165.233 202.705 165.437 202.589C165.682 202.435 166.173 202.667 166.541 203.014C167.154 203.67 167.072 203.825 165.764 205.022L164.333 206.335V203.709C164.333 201.392 164.415 201.122 164.946 201.547C165.274 201.817 165.437 202.203 165.274 202.435ZM125.253 204.211C125.621 204.752 125.09 205.794 124.476 205.794C123.741 205.794 123.332 205.138 123.618 204.443C123.863 203.786 124.926 203.67 125.253 204.211ZM129.791 204.829C129.791 205.253 129.504 205.64 129.137 205.717C128.401 205.833 127.788 204.829 128.196 204.211C128.605 203.555 129.791 204.018 129.791 204.829ZM192.458 206.798L196.219 207.068L196.26 209.81C196.26 211.74 196.587 213.516 197.404 215.756L198.508 218.922L197.077 219.308C196.26 219.501 194.379 220.003 192.908 220.427L190.169 221.161L188.207 220.119C187.103 219.539 184.282 218.034 181.993 216.837L177.742 214.597L178.886 213.478C179.499 212.898 180.113 212.474 180.276 212.551C180.44 212.667 180.93 212.358 181.339 211.856L182.116 211.006L181.216 211.74C180.685 212.165 180.276 212.319 180.276 212.088C180.276 211.624 182.116 209.964 182.402 210.234C182.484 210.35 183.015 209.964 183.587 209.385C184.487 208.42 184.487 208.381 183.669 209.037C182.32 210.118 182.524 209.385 184.078 207.686C185.263 206.335 185.549 206.219 187.021 206.373C187.92 206.45 190.373 206.643 192.458 206.798ZM412.346 206.798C412.468 207.107 412.387 207.57 412.101 207.84C411.528 208.381 410.179 207.261 410.588 206.605C410.997 205.987 412.06 206.103 412.346 206.798ZM419.254 208.921C419.377 209.153 419.254 209.578 418.968 209.887C418.232 210.543 417.17 209.964 417.497 209.115C417.783 208.42 418.846 208.304 419.254 208.921ZM7.5626 215.871C9.15688 216.257 11.6505 216.875 13.163 217.261C15.4114 217.763 15.861 217.995 15.4931 218.42C14.9208 219.076 14.1441 219.076 14.5529 218.42C14.7164 218.149 14.6755 218.072 14.4711 218.265C14.2667 218.458 14.1032 218.729 14.1032 218.844C14.1032 219.346 13.4492 220.08 12.9995 220.08C12.7133 220.08 12.7542 219.848 13.0813 219.501C13.8988 218.574 13.2857 218.806 12.4272 219.771C11.9366 220.273 11.8958 220.466 12.2637 220.273C13.49 219.578 11.9366 221.045 10.0562 222.319C8.29842 223.516 8.21667 223.555 7.767 222.821C7.23557 221.817 7.23557 221.508 7.84876 221.856C8.13491 222.01 8.17579 221.972 8.01227 221.663C7.84876 221.431 7.5626 221.315 7.35821 221.431C7.15381 221.547 6.58151 220.968 6.09096 220.119C5.55954 219.192 4.90547 218.613 4.49668 218.651C4.08789 218.651 3.84262 218.883 3.96526 219.153C4.04702 219.424 3.92438 219.732 3.63823 219.925C3.27032 220.119 3.22944 219.771 3.43383 218.304C3.59735 217.261 3.84262 215.176 4.00614 213.709L4.29229 211.006L4.49668 213.091L4.70108 215.176L7.5626 215.871ZM120.797 213.902C120.797 214.211 120.388 214.52 119.898 214.597C119.162 214.713 118.958 214.52 118.958 213.902C118.958 213.284 119.162 213.091 119.898 213.207C120.388 213.284 120.797 213.593 120.797 213.902ZM154.522 218.729L153.092 220.08V217.377V214.674L154.522 216.026L155.953 217.377L154.522 218.729ZM432.704 225.331C432.704 225.717 432.376 226.103 432.009 226.18C431.273 226.296 430.946 225.138 431.559 224.559C432.049 224.134 432.704 224.559 432.704 225.331ZM30.4548 225.987C31.5177 226.837 31.9264 227.455 31.6812 227.763C31.4359 228.188 26.6122 230.505 25.999 230.505C25.8355 230.505 26.1216 229.771 27.7568 225.756C28.0021 225.176 28.3291 224.713 28.5335 224.713C28.7379 224.713 29.5963 225.292 30.4548 225.987ZM316.812 227.339C316.812 227.995 315.463 229.385 314.277 229.964C311.906 231.123 312.315 229.501 314.768 227.879C316.158 226.991 316.812 226.798 316.812 227.339ZM343.179 228.188C344.896 228.844 345.999 229.539 345.918 229.81C345.59 231.007 343.751 233.169 343.22 232.976C342.77 232.821 339.908 227.03 340.235 227.03C340.317 227.03 341.625 227.532 343.179 228.188ZM4.94635 231.084C4.94635 231.2 4.49668 231.856 3.92438 232.474L2.86153 233.671V231.084V228.497L3.92438 229.694C4.49668 230.312 4.94635 230.968 4.94635 231.084ZM168.421 229.926C168.421 230.891 167.481 231.277 166.99 230.505C166.582 229.887 167.072 228.96 167.808 228.96C168.176 228.96 168.421 229.308 168.421 229.926ZM173.245 234.482C173.408 235.254 172.223 235.794 171.61 235.215C170.997 234.636 171.569 233.516 172.386 233.671C172.795 233.748 173.163 234.096 173.245 234.482ZM341.748 243.555C341.748 244.482 341.421 244.791 340.685 244.52C339.786 244.211 339.99 242.86 340.93 242.86C341.462 242.86 341.748 243.13 341.748 243.555ZM259.826 250.93C259.663 251.161 259.172 251.354 258.723 251.354C257.864 251.354 257.619 250.003 258.477 249.694C259.132 249.463 260.154 250.389 259.826 250.93ZM448.769 250.505C448.892 251.161 448.687 251.354 448.074 251.354C447.502 251.354 447.216 251.123 447.216 250.659C447.216 249.192 448.565 249.076 448.769 250.505ZM184.364 252.32C184.895 252.937 184.609 253.671 183.751 253.671C183.015 253.671 182.606 253.015 182.892 252.32C183.178 251.586 183.71 251.586 184.364 252.32ZM35.9326 261.856L36.9137 262.938H34.3383H31.7221L33.1119 261.586C33.8886 260.853 34.6245 260.351 34.7471 260.505C34.8697 260.698 35.4012 261.277 35.9326 261.856ZM282.392 266.49C282.31 266.992 281.983 267.378 281.656 267.378C281.329 267.378 281.002 266.992 280.92 266.49C280.797 265.833 281.002 265.64 281.656 265.64C282.31 265.64 282.514 265.833 282.392 266.49ZM286.97 266.374C286.97 266.799 286.766 267.262 286.52 267.416C285.907 267.764 285.171 266.953 285.458 266.258C285.825 265.37 286.97 265.486 286.97 266.374ZM309.862 277.996C309.862 278.498 309.576 278.768 309.045 278.768C308.513 278.768 308.227 278.498 308.227 277.996C308.227 277.494 308.513 277.223 309.045 277.223C309.576 277.223 309.862 277.494 309.862 277.996ZM312.152 285.293C311.743 285.911 310.68 285.795 310.394 285.1C310.067 284.251 311.13 283.671 311.865 284.328C312.152 284.637 312.274 285.061 312.152 285.293ZM312.233 289.309C312.397 290.081 311.211 290.621 310.598 290.042C309.985 289.463 310.557 288.343 311.375 288.498C311.784 288.575 312.152 288.922 312.233 289.309ZM337.169 289.309C337.333 290.158 336.066 290.66 335.616 289.926C335.207 289.347 335.902 288.305 336.597 288.536C336.842 288.614 337.088 288.961 337.169 289.309ZM27.3889 303.054C27.3889 304.058 26.6939 304.444 25.9581 303.865C25.2223 303.286 25.6311 302.32 26.6122 302.32C27.1027 302.32 27.3889 302.591 27.3889 303.054ZM341.666 316.568C341.135 317.108 340.603 317.726 340.481 317.919C340.317 318.073 340.113 317.108 340.031 315.718L339.908 313.17L341.216 314.367L342.565 315.602L341.666 316.568ZM391.947 314.405C392.111 315.216 390.925 315.718 390.312 315.139C389.985 314.83 389.985 314.521 390.394 314.096C391.048 313.363 391.784 313.517 391.947 314.405ZM287.624 322.707C287.665 322.784 288.564 322.321 289.586 321.664C291.712 320.274 292.08 320.197 291.467 321.239C291.222 321.664 290.854 321.934 290.69 321.857C290.527 321.741 289.995 321.934 289.586 322.321C287.91 323.749 284.763 324.483 284.436 323.479C284.313 323.209 284.149 323.247 283.986 323.672C283.414 325.062 287.91 324.29 289.75 322.707C290.24 322.243 290.649 322.05 290.649 322.321C290.649 323.286 288.033 324.483 285.621 324.637C283.495 324.792 283.209 324.714 283.414 324.212C283.536 323.865 284.149 322.243 284.804 320.583L285.907 317.571L286.725 320.081C287.134 321.471 287.542 322.668 287.624 322.707ZM333.163 324.212C333.163 324.29 332.918 324.251 332.673 324.097C332.387 323.942 332.427 324.135 332.795 324.56C333.163 324.946 333.572 325.564 333.695 325.873C333.899 326.375 333.94 326.375 333.94 325.834C333.981 325.525 333.776 325.062 333.49 324.792C333.204 324.521 333.163 324.328 333.409 324.328C334.635 324.328 334.717 325.255 333.776 327.765C332.755 330.352 331.937 331.278 330.629 331.278C330.016 331.278 321.799 328.382 321.431 328.035C321.349 327.996 323.516 327.34 326.214 326.645C328.912 325.95 331.119 325.294 331.119 325.178C331.119 325.062 330.424 323.826 329.607 322.436L328.094 319.888L330.629 321.934C332.019 323.093 333.163 324.097 333.163 324.212ZM339.418 323.247C339.663 323.981 339.295 324.714 338.682 324.714C337.946 324.714 337.537 324.058 337.824 323.363C338.11 322.668 339.173 322.591 339.418 323.247ZM332.632 334.985C332.959 335.834 331.896 336.413 331.16 335.757C330.874 335.448 330.751 335.023 330.874 334.792C331.283 334.174 332.346 334.29 332.632 334.985ZM314.359 343.093V347.533L312.642 347.417C310.925 347.302 310.884 347.263 310.762 345.873C310.68 345.101 310.925 343.904 311.334 343.17C312.07 341.742 314.114 338.614 314.277 338.614C314.318 338.614 314.359 340.622 314.359 343.093ZM329.975 346.8L328.667 348.074V345.564V343.054L329.975 344.329L331.324 345.564L329.975 346.8ZM318.774 346.645C318.897 347.302 318.692 347.495 318.079 347.495C317.507 347.495 317.221 347.263 317.221 346.8C317.221 345.332 318.57 345.217 318.774 346.645ZM309.658 351.201C309.658 351.587 309.331 351.973 308.963 352.051C308.227 352.166 307.9 351.008 308.513 350.429C309.004 350.004 309.658 350.429 309.658 351.201ZM352.581 355.603L353.766 356.761H351.15H348.534L349.719 355.603C350.373 354.946 351.027 354.444 351.15 354.444C351.273 354.444 351.927 354.946 352.581 355.603ZM340.44 360.738C340.971 363.75 341.462 366.568 341.584 367.032C341.789 367.688 341.421 367.958 338.927 368.885C337.333 369.464 335.902 369.889 335.698 369.811C335.534 369.773 334.512 368.769 333.409 367.649L331.406 365.642L332.468 361.51C333.082 359.271 333.613 357.379 333.654 357.34C334.185 357.031 338.764 355.255 339.091 355.255C339.336 355.217 339.949 357.649 340.44 360.738ZM282.392 360.313C282.31 360.815 281.983 361.201 281.656 361.201C281.329 361.201 281.002 360.815 280.92 360.313C280.797 359.657 281.002 359.464 281.656 359.464C282.31 359.464 282.514 359.657 282.392 360.313ZM143.485 367.147C143.485 367.997 142.872 368.499 142.3 368.19C141.768 367.842 142.259 366.414 142.913 366.414C143.24 366.414 143.485 366.761 143.485 367.147ZM348.616 369.773C348.779 370.854 347.226 374.252 346.694 373.981C346.49 373.827 346.163 373.943 345.999 374.174C345.836 374.483 345.877 374.522 346.163 374.368C346.858 373.981 346.776 374.599 345.999 375.603C345.672 376.066 345.223 376.375 345.018 376.259C344.814 376.144 344.528 376.259 344.364 376.491C344.16 376.8 344.242 376.839 344.609 376.646C344.936 376.452 345.059 376.53 344.936 376.877C344.814 377.186 344.528 377.379 344.282 377.341C344.078 377.302 343.628 377.534 343.301 377.92C342.811 378.499 342.852 378.537 343.506 378.036C343.874 377.765 344.201 377.688 344.201 377.92C344.201 378.383 343.179 379.232 342.893 378.962C342.77 378.846 342.443 379.078 342.116 379.425C341.584 380.043 341.625 380.082 342.279 379.58C343.301 378.808 343.138 379.387 341.871 380.893C341.012 381.897 340.644 382.09 340.235 381.781C339.949 381.549 339.704 381.202 339.704 381.009C339.704 380.777 339.908 380.777 340.276 381.047C340.685 381.395 340.971 381.317 341.38 380.815C341.911 380.198 341.871 380.159 341.257 380.622C340.808 380.97 340.521 381.009 340.317 380.7C340.194 380.468 339.908 380.391 339.704 380.507C339.336 380.738 337.251 378.383 337.251 377.765C337.251 377.572 337.742 377.92 338.314 378.576L339.377 379.734L338.478 378.46C337.987 377.765 337.456 377.302 337.251 377.418C337.047 377.534 336.597 377.109 336.229 376.491C335.534 375.178 335.453 374.522 336.025 374.522C336.229 374.522 336.311 374.754 336.188 375.024C336.107 375.294 336.311 375.835 336.638 376.259C337.292 377.032 337.292 377.032 336.883 376.221C336.229 374.947 336.597 374.136 338.314 373.171C340.113 372.128 340.726 371.974 340.276 372.669C340.113 372.978 340.154 373.055 340.358 372.862C340.562 372.669 340.726 372.36 340.726 372.128C340.726 371.549 346.694 368.692 347.675 368.808C348.166 368.885 348.534 369.271 348.616 369.773ZM332.673 376.182C332.836 376.993 331.651 377.495 331.038 376.916C330.711 376.607 330.711 376.298 331.119 375.873C331.773 375.14 332.509 375.294 332.673 376.182ZM328.176 380.815C328.34 381.588 327.154 382.128 326.541 381.549C325.928 380.97 326.5 379.85 327.318 380.005C327.726 380.082 328.094 380.429 328.176 380.815ZM151.538 384.252C153.051 385.642 153.378 386.646 151.988 385.487L151.048 384.754L151.824 385.603C152.233 386.105 152.724 386.375 152.887 386.298C153.051 386.182 153.705 386.723 154.277 387.456L155.381 388.808H153.664H151.988L153.378 390.429C155.544 392.978 156.975 395.256 156.975 396.221C156.893 398.769 150.067 388.151 149.372 384.445C149.045 382.63 149.699 382.553 151.538 384.252ZM261.952 394.677C261.87 395.179 261.543 395.565 261.216 395.565C260.889 395.565 260.562 395.179 260.481 394.677C260.358 394.02 260.562 393.827 261.216 393.827C261.87 393.827 262.075 394.02 261.952 394.677ZM232.438 396.569C232.56 396.8 232.438 397.225 232.151 397.534C231.416 398.19 230.353 397.611 230.68 396.762C230.966 396.067 232.029 395.951 232.438 396.569ZM338.805 398.962L340.113 400.237H337.456H334.798L336.107 398.962C336.842 398.267 337.415 397.688 337.456 397.688C337.496 397.688 338.069 398.267 338.805 398.962ZM159.101 403.943L157.793 405.217V402.708V400.198L159.101 401.472L160.45 402.708L159.101 403.943ZM213.592 401.935C213.225 402.592 212.775 403.017 212.57 402.901C212.366 402.785 212.08 402.901 211.916 403.132C211.753 403.441 211.794 403.48 212.121 403.325C212.448 403.094 212.53 403.287 212.366 403.982C212.121 404.908 212.243 404.986 215.187 405.642C216.904 406.028 218.212 406.414 218.089 406.491C217.966 406.607 216.209 406.8 214.165 406.916L210.445 407.148L208.115 411.974L205.825 416.8L205.703 414.175L205.58 411.588H201.942C199.898 411.588 198.263 411.704 198.263 411.858C198.263 411.974 198.835 413.017 199.489 414.175L200.716 416.221H199.734C198.549 416.221 198.508 416.067 197.65 409.31C197.2 405.449 197.159 404.02 197.486 403.634C198.058 402.978 198.835 402.901 198.426 403.557C198.263 403.827 198.304 403.866 198.631 403.711C198.876 403.557 198.999 403.287 198.876 403.094C198.753 402.901 199.08 402.553 199.571 402.283C201.574 401.279 204.395 400.854 209.218 400.816L214.246 400.777L213.592 401.935ZM218.702 401.549C218.702 402.051 218.416 402.322 217.885 402.322C217.353 402.322 217.067 402.051 217.067 401.549C217.067 401.047 217.353 400.777 217.885 400.777C218.416 400.777 218.702 401.047 218.702 401.549ZM179.867 403.866C179.867 404.368 179.581 404.638 179.05 404.638C178.518 404.638 178.232 404.368 178.232 403.866C178.232 403.364 178.518 403.094 179.05 403.094C179.581 403.094 179.867 403.364 179.867 403.866ZM183.914 408.576L183.873 413.712L183.015 411.279C182.565 409.966 182.075 408.885 181.952 408.885C181.829 408.885 180.971 410.121 180.072 411.665C178.396 414.445 177.742 414.445 178.641 411.665C179.336 409.658 181.053 406.878 181.502 407.148C181.707 407.264 181.993 407.148 182.157 406.916C182.361 406.607 182.279 406.569 181.911 406.762C181.584 406.955 181.462 406.878 181.584 406.569C181.666 406.298 182.075 406.028 182.443 405.951C183.056 405.874 183.138 406.183 183.056 408.113C183.015 409.387 183.097 410.507 183.26 410.661C183.424 410.816 183.546 409.503 183.546 407.727C183.546 404.793 183.506 404.561 182.933 405.256C182.075 406.298 182.157 405.565 183.056 404.445C183.424 403.905 183.792 403.48 183.873 403.48C183.914 403.48 183.955 405.796 183.914 408.576ZM187.839 405.796C187.716 405.99 187.839 406.26 188.084 406.414C188.411 406.569 188.452 406.53 188.288 406.26C187.839 405.565 188.37 405.681 189.924 406.607L191.273 407.379L190.291 409.851C188.861 413.441 188.452 414.059 187.92 413.557C187.266 412.939 186.98 404.831 187.593 405.179C187.839 405.333 187.961 405.603 187.839 405.796ZM205.13 419.812C205.294 420.584 204.109 421.125 203.495 420.546C202.882 419.967 203.454 418.847 204.272 419.001C204.681 419.078 205.049 419.426 205.13 419.812ZM170.792 426.723C170.71 427.225 170.383 427.611 170.056 427.611C169.729 427.611 169.402 427.225 169.321 426.723C169.198 426.067 169.402 425.874 170.056 425.874C170.71 425.874 170.915 426.067 170.792 426.723ZM179.377 426.337C180.153 427.071 179.949 428.847 179.009 429.465C177.905 430.237 176.638 429.851 176.147 428.654C175.371 426.762 177.905 424.947 179.377 426.337ZM159.346 429.04C159.264 429.542 158.937 429.928 158.61 429.928C158.283 429.928 157.956 429.542 157.874 429.04C157.752 428.384 157.956 428.191 158.61 428.191C159.264 428.191 159.469 428.384 159.346 429.04ZM157.22 433.944C156.852 434.484 155.871 434.484 155.544 433.982C155.381 433.75 155.503 433.287 155.79 432.978C156.239 432.476 156.362 432.476 156.893 432.978C157.22 433.287 157.343 433.712 157.22 433.944ZM154.849 438.152C154.972 438.808 154.768 439.002 154.154 439.002C153.582 439.002 153.296 438.77 153.296 438.307C153.296 436.839 154.645 436.723 154.849 438.152ZM164.047 460.778C164.333 461.473 164.006 461.782 163.025 461.782C162.576 461.782 162.289 461.511 162.289 461.009C162.289 460.121 163.72 459.928 164.047 460.778ZM164.047 468.191C163.72 469.002 162.289 468.886 162.289 467.998C162.289 467.573 162.535 467.187 162.821 467.071C163.516 466.84 164.333 467.535 164.047 468.191Z" fill="#D1D1D1"/>
<path d="M249.77 4.20852C249.77 5.17378 249.566 5.36684 248.667 5.52128C247.604 5.67572 247.604 5.67572 248.871 5.75294C250.097 5.79155 250.179 5.71433 250.179 4.44018C250.179 3.70659 250.097 3.08882 249.975 3.08882C249.852 3.08882 249.77 3.59075 249.77 4.20852Z" fill="#D1D1D1"/>
<path d="M243.434 5.01939C243.884 5.21245 244.62 5.32828 245.069 5.32828C245.723 5.32828 245.682 5.25106 244.865 5.01939C243.475 4.59468 242.412 4.59468 243.434 5.01939Z" fill="#D1D1D1"/>
<path d="M243.557 10.6951C244.047 10.7723 244.783 10.7723 245.192 10.6951C245.56 10.5793 245.151 10.5021 244.252 10.5407C243.352 10.5407 243.025 10.6179 243.557 10.6951Z" fill="#D1D1D1"/>
<path d="M249.361 10.1932C249.361 10.5407 249.566 10.8109 249.77 10.8109C250.016 10.8109 250.179 10.6565 250.179 10.4634C250.179 10.2318 250.016 9.96151 249.77 9.84568C249.566 9.72985 249.361 9.88429 249.361 10.1932Z" fill="#D1D1D1"/>
<path d="M238.161 12.3167C237.997 12.587 237.956 12.8959 238.079 13.0117C238.447 13.3592 238.856 12.8573 238.651 12.3167C238.488 11.892 238.406 11.892 238.161 12.3167Z" fill="#D1D1D1"/>
<path d="M309.331 19.228C308.718 19.8458 308.799 19.8844 310.598 19.73C311.661 19.6528 312.233 19.4983 311.906 19.3825C311.579 19.3053 311.007 19.0736 310.639 18.8805C310.189 18.6489 309.74 18.7647 309.331 19.228Z" fill="#D1D1D1"/>
<path d="M318.038 26.0235C318.038 27.3363 317.875 27.761 317.343 27.8768C316.73 27.9926 316.771 28.0699 317.548 28.2629C318.406 28.4946 318.447 28.3788 318.447 26.4096C318.447 25.2513 318.365 24.3246 318.242 24.3246C318.12 24.3246 318.038 25.0969 318.038 26.0235Z" fill="#D1D1D1"/>
<path d="M314.768 25.0968C313.95 25.3285 313.909 25.4057 314.563 25.4057C315.013 25.4057 315.749 25.2899 316.199 25.0968C317.221 24.6721 316.158 24.6721 314.768 25.0968Z" fill="#D1D1D1"/>
<path d="M312.233 25.7532C312.519 25.869 312.887 25.8304 313.01 25.7146C313.173 25.5987 312.928 25.4829 312.479 25.5215C312.029 25.5215 311.906 25.6373 312.233 25.7532Z" fill="#D1D1D1"/>
<path d="M310.68 26.4482C312.601 27.1432 313.051 27.1432 312.07 26.4482C311.661 26.1393 310.843 25.9077 310.271 25.9077C309.372 25.9077 309.413 25.9849 310.68 26.4482Z" fill="#D1D1D1"/>
<path d="M314.155 27.4135C314.604 27.6065 315.258 27.761 315.585 27.761C315.953 27.761 315.912 27.6065 315.381 27.4135C314.931 27.2204 314.277 27.066 313.95 27.066C313.582 27.066 313.623 27.2204 314.155 27.4135Z" fill="#D1D1D1"/>
<path d="M321.431 28.842C321.799 28.9193 322.371 28.9193 322.657 28.842C322.903 28.7262 322.617 28.649 321.922 28.649C321.268 28.649 321.022 28.7262 321.431 28.842Z" fill="#D1D1D1"/>
<path d="M297.19 23.9385C297.19 24.1316 297.394 24.3246 297.599 24.3246C297.844 24.3246 298.007 24.1316 298.007 23.9385C298.007 23.7068 297.844 23.5524 297.599 23.5524C297.394 23.5524 297.19 23.7068 297.19 23.9385Z" fill="#D1D1D1"/>
<path d="M331.528 28.5718C331.528 28.7648 331.733 28.9579 331.937 28.9579C332.182 28.9579 332.346 28.7648 332.346 28.5718C332.346 28.3401 332.182 28.1857 331.937 28.1857C331.733 28.1857 331.528 28.3401 331.528 28.5718Z" fill="#D1D1D1"/>
<path d="M272.662 60.5413C272.662 60.6957 273.112 61.4293 273.684 62.1629C274.911 63.746 275.033 63.3212 273.848 61.5452C272.989 60.2324 272.662 59.9621 272.662 60.5413Z" fill="#D1D1D1"/>
<path d="M315.708 83.5918C315.708 83.9007 315.871 84.0551 316.076 83.9393C316.239 83.8234 316.403 83.5918 316.403 83.3601C316.403 83.1671 316.239 83.0126 316.076 83.0126C315.871 83.0126 315.708 83.2829 315.708 83.5918Z" fill="#D1D1D1"/>
<path d="M320.695 101.546C319.959 102.318 320 102.318 321.513 102.318C323.025 102.318 323.066 102.318 322.33 101.546C321.922 101.121 321.554 100.773 321.513 100.773C321.472 100.773 321.104 101.121 320.695 101.546ZM321.922 101.546C322.044 101.739 321.881 101.932 321.513 101.932C321.145 101.932 320.981 101.739 321.104 101.546C321.227 101.314 321.431 101.16 321.513 101.16C321.595 101.16 321.799 101.314 321.922 101.546Z" fill="#D1D1D1"/>
<path d="M320.082 106.411C320.082 106.719 320.286 106.874 320.491 106.758C320.736 106.604 320.818 106.333 320.695 106.14C320.327 105.6 320.082 105.716 320.082 106.411Z" fill="#D1D1D1"/>
<path d="M310.925 108.457C310.762 108.65 310.843 108.92 311.048 109.036C311.252 109.191 311.538 109.113 311.661 108.92C311.824 108.727 311.743 108.457 311.538 108.341C311.334 108.187 311.048 108.264 310.925 108.457Z" fill="#D1D1D1"/>
<path d="M322.126 110.774C322.126 111.005 322.29 111.237 322.453 111.353C322.657 111.469 322.821 111.314 322.821 111.005C322.821 110.696 322.657 110.426 322.453 110.426C322.29 110.426 322.126 110.581 322.126 110.774Z" fill="#D1D1D1"/>
<path d="M354.42 112.704C354.42 112.859 354.011 113.515 353.521 114.133L352.622 115.214L352.335 114.249C352.049 113.322 352.049 113.322 352.008 114.364C351.968 115.754 352.458 115.716 353.766 114.249C354.747 113.167 355.115 112.357 354.625 112.357C354.502 112.357 354.42 112.511 354.42 112.704Z" fill="#D1D1D1"/>
<path d="M358.181 114.982C357.65 116.14 357.323 117.144 357.404 117.26C357.527 117.337 357.813 116.835 358.099 116.063C358.345 115.33 358.753 114.673 358.999 114.596C359.244 114.519 359.367 114.094 359.244 113.708C359.162 113.167 358.835 113.515 358.181 114.982Z" fill="#D1D1D1"/>
<path d="M359.448 116.797C359.448 117.839 359.53 118.264 359.612 117.646C359.694 117.067 359.694 116.218 359.612 115.716C359.53 115.252 359.448 115.716 359.448 116.797Z" fill="#D1D1D1"/>
<path d="M124.068 115.407C123.945 115.6 124.027 115.87 124.272 116.025C124.476 116.14 124.681 115.986 124.681 115.677C124.681 114.982 124.435 114.866 124.068 115.407Z" fill="#D1D1D1"/>
<path d="M340.521 115.445C340.521 115.638 340.726 115.832 340.93 115.832C341.176 115.832 341.339 115.638 341.339 115.445C341.339 115.214 341.176 115.059 340.93 115.059C340.726 115.059 340.521 115.214 340.521 115.445Z" fill="#D1D1D1"/>
<path d="M329.075 117.762C329.075 117.955 329.28 118.148 329.484 118.148C329.729 118.148 329.893 117.955 329.893 117.762C329.893 117.53 329.729 117.376 329.484 117.376C329.28 117.376 329.075 117.53 329.075 117.762Z" fill="#D1D1D1"/>
<path d="M345.018 117.762C345.018 117.955 345.223 118.148 345.427 118.148C345.672 118.148 345.836 117.955 345.836 117.762C345.836 117.53 345.672 117.376 345.427 117.376C345.223 117.376 345.018 117.53 345.018 117.762Z" fill="#D1D1D1"/>
<path d="M320.491 119.847C320.491 120.233 322.126 122.781 322.371 122.781C322.78 122.781 322.453 122.048 321.513 120.851C320.94 120.117 320.491 119.693 320.491 119.847Z" fill="#D1D1D1"/>
<path d="M336.025 122.395C336.025 122.588 336.229 122.781 336.434 122.781C336.679 122.781 336.842 122.588 336.842 122.395C336.842 122.164 336.679 122.009 336.434 122.009C336.229 122.009 336.025 122.164 336.025 122.395Z" fill="#D1D1D1"/>
<path d="M341.012 123.168C341.012 123.708 341.176 124.557 341.339 125.098C341.666 126.063 341.666 126.063 341.707 125.175C341.748 124.673 341.911 124.403 342.157 124.519C342.402 124.635 342.443 124.48 342.279 124.133C342.116 123.631 341.952 123.592 341.707 123.978C341.503 124.287 341.339 124.056 341.216 123.322C341.094 122.395 341.053 122.357 341.012 123.168Z" fill="#D1D1D1"/>
<path d="M342.565 125.446C342.565 125.677 342.729 125.947 342.974 126.063C343.22 126.179 343.26 126.025 343.138 125.716C342.852 125.021 342.565 124.905 342.565 125.446Z" fill="#D1D1D1"/>
<path d="M343.383 126.99C343.383 127.222 343.547 127.492 343.792 127.608C344.037 127.724 344.078 127.569 343.955 127.26C343.669 126.565 343.383 126.449 343.383 126.99Z" fill="#D1D1D1"/>
<path d="M344.201 128.534C344.201 128.766 344.364 129.036 344.609 129.152C344.855 129.268 344.896 129.114 344.773 128.805C344.487 128.11 344.201 127.994 344.201 128.534Z" fill="#D1D1D1"/>
<path d="M342.974 129.693C343.179 130.117 343.587 130.581 343.833 130.735C344.078 130.851 343.955 130.542 343.587 129.963C342.77 128.805 342.361 128.612 342.974 129.693Z" fill="#D1D1D1"/>
<path d="M345.263 130.465C345.468 131.121 345.386 131.276 345.018 131.083C344.65 130.89 344.568 130.928 344.773 131.237C344.936 131.469 345.263 131.585 345.468 131.469C345.672 131.314 345.836 131.585 345.836 132.009C345.836 132.434 345.509 132.975 345.141 133.168C344.732 133.399 344.609 133.554 344.814 133.554C345.059 133.554 345.55 133.361 345.917 133.09C346.531 132.627 346.531 132.473 345.795 131.044C345.386 130.233 345.141 129.963 345.263 130.465Z" fill="#D1D1D1"/>
<path d="M346.572 133.554C346.367 134.094 338.886 137.492 338.478 137.26C338.232 137.106 338.069 137.299 338.069 137.608C338.069 138.071 339.173 137.724 342.565 136.102C345.059 134.944 347.062 133.785 347.062 133.592C347.062 133.129 346.776 133.09 346.572 133.554Z" fill="#D1D1D1"/>
<path d="M341.339 134.751C340.971 134.982 340.93 135.137 341.216 135.137C341.462 135.137 341.83 134.944 341.952 134.751C342.279 134.287 342.116 134.287 341.339 134.751Z" fill="#D1D1D1"/>
<path d="M121.002 123.013L119.571 123.554L120.92 123.322C122.024 123.129 122.228 123.245 122.228 123.824C122.228 124.21 121.942 124.982 121.574 125.484L120.92 126.449L121.778 125.523C122.269 125.021 122.637 124.133 122.637 123.515C122.637 122.897 122.596 122.395 122.555 122.434C122.473 122.434 121.778 122.704 121.002 123.013Z" fill="#D1D1D1"/>
<path d="M115.279 124.48C115.279 124.558 115.565 124.751 115.933 124.866C116.26 124.982 116.423 124.944 116.301 124.712C116.055 124.326 115.279 124.171 115.279 124.48Z" fill="#D1D1D1"/>
<path d="M329.321 132.395L327.358 134.287L328.299 134.751C329.157 135.137 329.198 135.098 328.585 134.635C327.931 134.133 327.972 134.017 329.035 133.052C329.689 132.434 330.384 131.971 330.588 132.009C330.751 132.048 330.915 131.932 330.915 131.739C330.915 131.585 331.078 131.237 331.242 130.967C331.855 130.079 331.324 130.504 329.321 132.395Z" fill="#D1D1D1"/>
<path d="M330.302 135.523C330.629 135.716 331.119 135.909 331.324 135.909C331.569 135.909 331.446 135.716 331.119 135.523C330.792 135.33 330.343 135.137 330.097 135.137C329.893 135.137 329.975 135.33 330.302 135.523Z" fill="#D1D1D1"/>
<path d="M355.524 130.195C355.442 130.465 355.483 131.044 355.647 131.469C355.892 132.125 355.974 132.048 356.137 130.967C356.301 129.77 355.933 129.229 355.524 130.195Z" fill="#D1D1D1"/>
<path d="M354.298 134.172C353.889 136.527 353.93 138.921 354.42 138.226C354.625 137.917 354.706 136.951 354.625 136.102C354.461 135.06 354.502 134.789 354.747 135.33C355.074 135.948 355.156 135.909 355.361 134.751C355.524 134.056 355.565 133.399 355.442 133.283C355.32 133.168 355.238 133.399 355.197 133.824C355.156 134.365 355.074 134.326 354.87 133.592C354.584 132.704 354.543 132.782 354.298 134.172Z" fill="#D1D1D1"/>
<path d="M322.412 133.477C322.003 133.824 322.044 134.365 322.453 134.365C322.657 134.365 322.821 134.094 322.821 133.785C322.821 133.129 322.78 133.09 322.412 133.477Z" fill="#D1D1D1"/>
<path d="M358.753 133.554C358.59 133.747 358.672 134.017 358.876 134.133C359.081 134.287 359.367 134.21 359.489 134.017C359.653 133.824 359.571 133.554 359.367 133.438C359.162 133.283 358.876 133.361 358.753 133.554Z" fill="#D1D1D1"/>
<path d="M329.116 141.585C329.157 142.28 329.239 142.434 329.362 141.971C329.525 141.392 329.648 141.353 330.22 141.778C330.711 142.125 330.711 142.009 330.138 141.392C329.157 140.311 329.075 140.311 329.116 141.585Z" fill="#D1D1D1"/>
<path d="M331.119 142.473C331.119 142.666 331.324 142.859 331.569 142.859C331.773 142.859 331.855 142.666 331.733 142.473C331.61 142.241 331.406 142.087 331.283 142.087C331.201 142.087 331.119 142.241 331.119 142.473Z" fill="#D1D1D1"/>
<path d="M329.729 144.596C329.607 144.944 329.484 145.523 329.525 145.87C329.525 146.218 329.729 146.025 329.934 145.407C330.302 144.172 330.179 143.554 329.729 144.596Z" fill="#D1D1D1"/>
<path d="M32.9484 145.137C32.7849 145.33 32.8667 145.6 33.0711 145.716C33.2755 145.871 33.5616 145.793 33.6842 145.6C33.8478 145.407 33.766 145.137 33.5616 145.021C33.3572 144.867 33.0711 144.944 32.9484 145.137Z" fill="#D1D1D1"/>
<path d="M24.7726 150.851C24.5274 151.392 24.5682 151.43 24.977 151.083C25.2632 150.813 25.3858 150.504 25.2632 150.388C25.1405 150.272 24.8953 150.465 24.7726 150.851Z" fill="#D1D1D1"/>
<path d="M23.9551 152.318C23.5871 153.322 23.6689 153.554 24.1594 152.782C24.4047 152.396 24.5274 151.971 24.4047 151.894C24.323 151.778 24.1186 151.971 23.9551 152.318Z" fill="#D1D1D1"/>
<path d="M23.1375 154.326C22.8922 154.867 22.9331 154.905 23.3419 154.558C23.628 154.288 23.7507 153.979 23.628 153.863C23.5054 153.747 23.2601 153.94 23.1375 154.326Z" fill="#D1D1D1"/>
<path d="M30.2913 154.288C30.2913 154.712 30.4139 154.828 30.5366 154.519C30.6592 154.249 30.6183 153.901 30.4957 153.786C30.373 153.631 30.2504 153.863 30.2913 154.288Z" fill="#D1D1D1"/>
<path d="M22.3199 156.257C22.0746 156.797 22.1155 156.836 22.5243 156.488C22.8104 156.218 22.9331 155.909 22.8104 155.793C22.6878 155.678 22.4425 155.871 22.3199 156.257Z" fill="#D1D1D1"/>
<path d="M29.6372 157.531C29.4737 158.419 29.4328 159.191 29.5555 159.307C29.6372 159.423 29.8416 158.766 30.0051 157.878C30.1687 156.99 30.2095 156.18 30.0869 156.102C30.0051 156.025 29.8007 156.643 29.6372 157.531Z" fill="#D1D1D1"/>
<path d="M20.6847 160.041C20.3168 161.044 20.3986 161.276 20.8891 160.504C21.1344 160.118 21.257 159.693 21.1344 159.616C21.0527 159.5 20.8483 159.693 20.6847 160.041Z" fill="#D1D1D1"/>
<path d="M20.0716 161.662C20.0307 161.894 19.908 162.434 19.7854 162.821C19.581 163.477 19.581 163.477 20.0307 162.821C20.276 162.434 20.3986 161.932 20.276 161.662C20.1533 161.315 20.0716 161.315 20.0716 161.662Z" fill="#D1D1D1"/>
<path d="M22.0746 162.55C21.8293 162.975 21.7476 163.322 21.8293 163.322C21.952 163.322 22.2381 162.975 22.4834 162.55C22.7287 162.126 22.8104 161.778 22.7287 161.778C22.606 161.778 22.3199 162.126 22.0746 162.55Z" fill="#D1D1D1"/>
<path d="M19.0496 165.099C18.8861 165.639 18.8452 166.18 18.9269 166.295C19.0496 166.373 19.254 165.987 19.3766 165.407C19.5401 164.867 19.581 164.326 19.4992 164.211C19.3766 164.133 19.1722 164.519 19.0496 165.099Z" fill="#D1D1D1"/>
<path d="M20.6439 164.905C20.4803 165.137 20.4395 165.369 20.5621 165.485C20.6439 165.6 20.8483 165.407 20.9709 165.06C21.257 164.404 21.0118 164.288 20.6439 164.905Z" fill="#D1D1D1"/>
<path d="M19.5401 166.99C19.254 167.608 18.9678 167.801 18.8043 167.531C18.6408 167.299 18.3546 167.763 18.232 168.535C18.0685 169.307 17.9867 170.041 18.0685 170.118C18.1502 170.195 18.7225 169.307 19.3357 168.149C19.9489 166.99 20.3168 166.025 20.2351 166.025C20.1124 166.025 19.7854 166.45 19.5401 166.99Z" fill="#D1D1D1"/>
<path d="M322.944 154.249C322.494 154.751 322.617 154.828 323.761 154.828C324.906 154.828 325.028 154.751 324.579 154.249C324.293 153.94 323.925 153.67 323.761 153.67C323.598 153.67 323.23 153.94 322.944 154.249Z" fill="#D1D1D1"/>
<path d="M203.986 168.187C203.986 168.496 204.19 168.651 204.395 168.535C204.64 168.38 204.722 168.11 204.599 167.917C204.231 167.377 203.986 167.492 203.986 168.187Z" fill="#D1D1D1"/>
<path d="M23.7098 172.55C23.7098 172.782 23.8733 173.014 24.0368 173.13C24.2412 173.245 24.4047 173.091 24.4047 172.782C24.4047 172.473 24.2412 172.203 24.0368 172.203C23.8733 172.203 23.7098 172.357 23.7098 172.55Z" fill="#D1D1D1"/>
<path d="M32.0082 175.794C30.7818 176.566 30.6592 176.798 30.741 178.574L30.8227 180.504L30.9453 178.651C31.1089 177.068 31.3133 176.72 32.6214 175.871C33.439 175.33 33.9295 174.906 33.7251 174.944C33.4798 174.944 32.7031 175.33 32.0082 175.794Z" fill="#D1D1D1"/>
<path d="M32.9075 185.524C32.7849 186.72 32.7031 187.802 32.8258 187.879C32.9484 187.995 33.1528 187.107 33.3163 185.91C33.439 184.713 33.5207 183.632 33.3981 183.554C33.2754 183.439 33.071 184.327 32.9075 185.524Z" fill="#D1D1D1"/>
<path d="M31.2315 187.068C31.2315 188.96 31.2724 189.809 31.3541 188.921C31.4359 188.033 31.4359 186.45 31.3541 185.446C31.2724 184.442 31.2315 185.137 31.2315 187.068Z" fill="#D1D1D1"/>
<path d="M32.3352 189.423C32.3352 189.848 32.4579 189.964 32.5805 189.655C32.7031 189.385 32.6623 189.037 32.5396 188.921C32.417 188.767 32.2943 188.998 32.3352 189.423Z" fill="#D1D1D1"/>
<path d="M31.3133 192.473C30.9454 193.477 31.0271 193.709 31.5177 192.937C31.7629 192.551 31.8856 192.126 31.7629 192.049C31.6812 191.933 31.4768 192.126 31.3133 192.473Z" fill="#D1D1D1"/>
<path d="M433.93 174.867C433.807 175.06 433.889 175.33 434.134 175.485C434.339 175.601 434.543 175.446 434.543 175.137C434.543 174.442 434.298 174.326 433.93 174.867Z" fill="#D1D1D1"/>
<path d="M20.7665 177.106C21.4614 177.184 22.6878 177.184 23.4236 177.106C24.1186 177.029 23.5463 176.952 22.0746 176.952C20.603 176.952 20.0307 177.029 20.7665 177.106Z" fill="#D1D1D1"/>
<path d="M19.0496 179.577C18.8861 180.466 18.8452 181.276 18.9678 181.354C19.0496 181.431 19.254 180.813 19.4175 179.925C19.581 179.037 19.6219 178.265 19.4992 178.149C19.4175 178.033 19.2131 178.689 19.0496 179.577Z" fill="#D1D1D1"/>
<path d="M24.5274 178.187C24.5274 178.381 24.7318 178.844 24.9361 179.153C25.1405 179.462 25.3449 179.539 25.3449 179.346C25.3449 179.114 25.1405 178.689 24.9361 178.381C24.7318 178.072 24.5274 177.956 24.5274 178.187Z" fill="#D1D1D1"/>
<path d="M24.8953 182.512L23.9142 183.593L25.0588 182.666C25.672 182.126 26.1625 181.662 26.1625 181.585C26.1625 181.276 25.8355 181.547 24.8953 182.512Z" fill="#D1D1D1"/>
<path d="M18.232 184.018C18.0685 184.79 18.0276 185.485 18.1094 185.562C18.232 185.678 18.4364 185.137 18.559 184.327C18.7225 183.554 18.7634 182.859 18.6817 182.782C18.559 182.666 18.3546 183.207 18.232 184.018Z" fill="#D1D1D1"/>
<path d="M21.0526 187.3C20.6847 187.956 20.4395 188.574 20.5212 188.651C20.6439 188.728 21.0118 188.188 21.3797 187.454C22.2381 185.794 21.9111 185.639 21.0526 187.3Z" fill="#D1D1D1"/>
<path d="M17.4144 188.458C17.2509 189.346 17.21 190.157 17.3327 190.234C17.4144 190.311 17.6188 189.693 17.7823 188.805C17.9459 187.917 17.9867 187.145 17.8641 187.029C17.7823 186.913 17.5779 187.57 17.4144 188.458Z" fill="#D1D1D1"/>
<path d="M19.8672 190.041C19.7445 190.543 19.6219 191.701 19.6219 192.628C19.6219 194.172 19.581 194.249 18.9269 193.786C18.3955 193.4 18.3955 193.477 19.0087 194.172L19.8263 195.06L20.0715 192.242C20.3577 189.192 20.2759 188.612 19.8672 190.041Z" fill="#D1D1D1"/>
<path d="M16.8012 191.74C16.8012 192.203 17.0874 192.821 17.4962 193.091C18.1094 193.555 18.1502 193.555 17.7415 193.053C17.4553 192.744 17.1691 192.126 17.0465 191.701C16.883 190.968 16.8421 190.968 16.8012 191.74Z" fill="#D1D1D1"/>
<path d="M165.437 179.384C165.274 179.539 165.151 179.925 165.151 180.272C165.192 180.813 165.233 180.774 165.601 180.195C165.805 179.848 166.377 179.539 166.786 179.539C167.399 179.539 167.604 179.809 167.604 180.659C167.604 181.276 167.399 181.894 167.195 181.971C166.95 182.087 166.99 182.126 167.277 182.087C167.604 182.01 167.808 181.431 167.808 180.659C167.808 179.539 167.644 179.346 166.786 179.23C166.214 179.153 165.601 179.23 165.437 179.384Z" fill="#D1D1D1"/>
<path d="M165.151 181.431C165.151 181.817 165.928 182.396 166.173 182.203C166.214 182.126 166.05 181.817 165.723 181.547C165.396 181.276 165.151 181.238 165.151 181.431Z" fill="#D1D1D1"/>
<path d="M135.309 181.856C135.309 182.049 135.514 182.242 135.718 182.242C135.963 182.242 136.127 182.049 136.127 181.856C136.127 181.624 135.963 181.469 135.718 181.469C135.514 181.469 135.309 181.624 135.309 181.856Z" fill="#D1D1D1"/>
<path d="M301.686 181.856C301.686 182.049 301.891 182.242 302.095 182.242C302.341 182.242 302.504 182.049 302.504 181.856C302.504 181.624 302.341 181.469 302.095 181.469C301.891 181.469 301.686 181.624 301.686 181.856Z" fill="#D1D1D1"/>
<path d="M295.309 184.442C296.086 185.292 296.086 185.369 295.309 186.18L294.574 187.068L295.555 186.18L296.536 185.33L295.555 184.442L294.574 183.593L295.309 184.442Z" fill="#D1D1D1"/>
<path d="M290.363 185.33C290.363 186.296 290.445 186.682 290.527 186.18C290.608 185.717 290.608 184.944 290.527 184.442C290.445 183.979 290.363 184.365 290.363 185.33Z" fill="#D1D1D1"/>
<path d="M12.2637 184.211C12.2637 184.404 12.4681 184.481 12.6725 184.365C12.9178 184.249 13.0813 184.056 13.0813 183.94C13.0813 183.863 12.9178 183.786 12.6725 183.786C12.4681 183.786 12.2637 183.979 12.2637 184.211Z" fill="#D1D1D1"/>
<path d="M306.224 185.794C306.183 186.798 306.306 186.875 307.737 186.798C309.208 186.759 309.208 186.759 307.941 186.605C307.001 186.489 306.592 186.219 306.469 185.601C306.306 184.906 306.265 184.944 306.224 185.794Z" fill="#D1D1D1"/>
<path d="M285.744 187.107C285.294 187.57 285.335 187.802 285.866 188.342C286.52 188.921 286.561 188.883 286.561 187.724C286.561 186.334 286.48 186.257 285.744 187.107Z" fill="#D1D1D1"/>
<path d="M287.706 190.427C287.91 190.62 288.36 190.736 288.646 190.659C288.973 190.543 288.769 190.388 288.237 190.234C287.542 190.08 287.379 190.118 287.706 190.427Z" fill="#D1D1D1"/>
<path d="M290.24 191.122C290.567 191.315 291.14 191.47 291.467 191.47C291.876 191.47 291.794 191.354 291.262 191.122C290.159 190.659 289.505 190.659 290.24 191.122Z" fill="#D1D1D1"/>
<path d="M294.247 192.165C294.533 192.28 294.901 192.242 295.023 192.126C295.187 192.01 294.941 191.894 294.492 191.933C294.042 191.933 293.92 192.049 294.247 192.165Z" fill="#D1D1D1"/>
<path d="M295.432 193.014C295.269 193.67 295.309 193.825 295.636 193.516C295.841 193.323 295.963 192.898 295.882 192.628C295.759 192.319 295.596 192.512 295.432 193.014Z" fill="#D1D1D1"/>
<path d="M293.061 194.983C294.328 195.987 295.391 195.987 295.677 194.867C295.923 194.018 295.923 194.018 295.309 194.79C294.737 195.524 294.655 195.524 293.388 194.867L292.08 194.211L293.061 194.983Z" fill="#D1D1D1"/>
<path d="M445.172 186.489C445.172 186.682 445.376 186.875 445.58 186.875C445.826 186.875 445.989 186.682 445.989 186.489C445.989 186.257 445.826 186.103 445.58 186.103C445.376 186.103 445.172 186.257 445.172 186.489Z" fill="#D1D1D1"/>
<path d="M433.725 188.805C433.725 188.998 433.93 189.191 434.134 189.191C434.379 189.191 434.543 188.998 434.543 188.805C434.543 188.574 434.379 188.419 434.134 188.419C433.93 188.419 433.725 188.574 433.725 188.805Z" fill="#D1D1D1"/>
<path d="M438.631 188.805C438.631 188.998 438.835 189.191 439.04 189.191C439.285 189.191 439.448 188.998 439.448 188.805C439.448 188.574 439.285 188.419 439.04 188.419C438.835 188.419 438.631 188.574 438.631 188.805Z" fill="#D1D1D1"/>
<path d="M168.462 193.053C168.503 193.593 168.626 194.443 168.789 194.983L169.075 195.948L169.321 194.906C169.443 194.249 169.361 193.941 169.116 194.095C168.871 194.249 168.789 194.095 168.912 193.748C169.075 193.439 168.994 192.937 168.789 192.628C168.544 192.242 168.462 192.358 168.462 193.053Z" fill="#D1D1D1"/>
<path d="M169.443 198.265C169.648 199.925 170.506 200.813 171.855 200.736C172.427 200.697 172.305 200.582 171.405 200.35C170.302 200.041 170.015 199.732 169.688 198.342L169.239 196.721L169.443 198.265Z" fill="#D1D1D1"/>
<path d="M171.691 198.651C171.691 198.844 171.896 199.307 172.1 199.616C172.305 199.925 172.509 200.002 172.509 199.809C172.509 199.578 172.305 199.153 172.1 198.844C171.896 198.535 171.691 198.419 171.691 198.651Z" fill="#D1D1D1"/>
<path d="M119.366 191.122C119.366 191.315 119.571 191.508 119.816 191.508C120.021 191.508 120.102 191.315 119.98 191.122C119.857 190.89 119.653 190.736 119.53 190.736C119.448 190.736 119.366 190.89 119.366 191.122Z" fill="#D1D1D1"/>
<path d="M24.6909 193.091C24.4865 193.4 24.5682 193.439 24.9361 193.246C25.2632 193.053 25.7537 193.284 26.2852 193.863L27.0619 194.79L26.4895 193.863C25.7946 192.744 25.1405 192.435 24.6909 193.091Z" fill="#D1D1D1"/>
<path d="M19.6219 199.925C19.6219 200.08 20.3986 200.157 21.3797 200.08C24.2412 199.887 24.4865 199.694 21.9929 199.655C20.6847 199.655 19.6219 199.732 19.6219 199.925Z" fill="#D1D1D1"/>
<path d="M19.0496 203.516C18.8861 204.597 18.8452 205.562 18.9269 205.678C19.0496 205.755 19.254 204.945 19.4175 203.864C19.581 202.782 19.6219 201.817 19.4992 201.701C19.4175 201.585 19.2131 202.435 19.0496 203.516Z" fill="#D1D1D1"/>
<path d="M18.2729 209.037C18.1094 210.08 18.0276 210.968 18.0685 211.006C18.1503 211.045 18.6408 210.543 19.2131 209.887C19.7445 209.23 19.908 208.921 19.5401 209.192C18.9269 209.655 18.8452 209.578 18.7226 208.42C18.5999 207.261 18.559 207.338 18.2729 209.037Z" fill="#D1D1D1"/>
<path d="M126.316 193.439C126.316 193.632 126.52 193.825 126.725 193.825C126.97 193.825 127.133 193.632 127.133 193.439C127.133 193.207 126.97 193.053 126.725 193.053C126.52 193.053 126.316 193.207 126.316 193.439Z" fill="#D1D1D1"/>
<path d="M414.676 194.365C414.022 194.906 413.736 195.369 414.022 195.369C414.308 195.369 414.635 195.099 414.758 194.79C414.921 194.481 415.166 194.288 415.33 194.404C415.739 194.636 416.352 193.863 416.025 193.593C415.902 193.477 415.289 193.825 414.676 194.365Z" fill="#D1D1D1"/>
<path d="M160.695 197.338C160.695 198.265 160.818 198.767 160.94 198.458C161.063 198.149 161.308 197.609 161.513 197.261C161.758 196.836 161.676 196.45 161.267 196.141C160.736 195.717 160.654 195.91 160.695 197.338Z" fill="#D1D1D1"/>
<path d="M272.376 195.562C272.376 195.871 272.54 196.141 272.744 196.141C272.908 196.141 273.071 195.987 273.071 195.794C273.071 195.562 272.908 195.331 272.744 195.215C272.54 195.099 272.376 195.253 272.376 195.562Z" fill="#D1D1D1"/>
<path d="M192.581 199.655C192.581 200.582 192.703 201.084 192.826 200.775C192.949 200.466 193.194 199.925 193.398 199.578C193.643 199.153 193.562 198.767 193.153 198.458C192.622 198.033 192.54 198.226 192.581 199.655Z" fill="#D1D1D1"/>
<path d="M119.653 197.57C119.244 197.917 119.285 198.458 119.694 198.458C119.898 198.458 120.061 198.188 120.061 197.879C120.061 197.223 120.021 197.184 119.653 197.57Z" fill="#D1D1D1"/>
<path d="M126.316 197.879C126.316 198.188 126.52 198.458 126.725 198.458C126.97 198.458 127.133 198.188 127.133 197.879C127.133 197.57 126.97 197.3 126.725 197.3C126.52 197.3 126.316 197.57 126.316 197.879Z" fill="#D1D1D1"/>
<path d="M447.992 200.504C448.197 200.697 448.973 200.775 449.709 200.697C451.058 200.582 451.058 200.543 449.382 200.389C448.442 200.273 447.788 200.311 447.992 200.504Z" fill="#D1D1D1"/>
<path d="M256.311 200.234C256.311 200.543 256.515 200.697 256.72 200.582C256.965 200.427 257.047 200.157 256.924 199.964C256.556 199.423 256.311 199.539 256.311 200.234Z" fill="#D1D1D1"/>
<path d="M416.597 201.045C416.597 201.47 416.72 201.547 416.842 201.238C416.965 200.968 417.783 200.775 418.846 200.775H420.644V202.898C420.644 204.134 420.481 205.022 420.195 205.022C419.295 205.022 418.273 204.211 417.783 203.091C417.496 202.435 417.169 201.972 417.088 202.087C416.761 202.396 418.191 204.597 418.968 205.022C420.726 205.91 421.053 205.562 421.053 202.898V200.389H418.805C416.924 200.389 416.556 200.504 416.597 201.045Z" fill="#D1D1D1"/>
<path d="M165.519 204.134C164.987 204.752 165.028 204.79 165.682 204.288C166.336 203.786 166.541 203.477 166.214 203.477C166.132 203.477 165.805 203.786 165.519 204.134Z" fill="#D1D1D1"/>
<path d="M124.068 204.597C123.945 204.79 124.027 205.06 124.272 205.215C124.476 205.331 124.681 205.176 124.681 204.867C124.681 204.172 124.435 204.057 124.068 204.597Z" fill="#D1D1D1"/>
<path d="M128.769 204.867C128.769 205.176 128.973 205.331 129.177 205.215C129.423 205.06 129.504 204.79 129.382 204.597C129.014 204.057 128.769 204.172 128.769 204.867Z" fill="#D1D1D1"/>
<path d="M184.936 207.416L184.16 208.304L185.1 207.57C185.958 206.875 186.204 206.566 185.877 206.566C185.795 206.566 185.386 206.952 184.936 207.416Z" fill="#D1D1D1"/>
<path d="M188.37 207.223C188.861 207.3 189.678 207.3 190.21 207.223C190.7 207.145 190.291 207.068 189.269 207.068C188.247 207.068 187.839 207.145 188.37 207.223Z" fill="#D1D1D1"/>
<path d="M192.254 207.609C192.867 207.686 193.766 207.686 194.298 207.609C194.788 207.531 194.298 207.454 193.153 207.454C192.049 207.454 191.6 207.531 192.254 207.609Z" fill="#D1D1D1"/>
<path d="M195.483 211.972C195.483 212.512 195.565 212.705 195.687 212.435C195.769 212.203 195.769 211.74 195.687 211.47C195.565 211.238 195.483 211.431 195.483 211.972Z" fill="#D1D1D1"/>
<path d="M195.851 213.748C195.851 214.173 195.974 214.288 196.096 213.979C196.219 213.709 196.178 213.362 196.055 213.246C195.933 213.091 195.81 213.323 195.851 213.748Z" fill="#D1D1D1"/>
<path d="M179.091 214.057C178.682 214.52 178.764 214.713 179.54 215.061C180.358 215.447 180.399 215.447 179.786 214.945C179.254 214.559 179.172 214.327 179.54 213.979C179.826 213.709 179.908 213.516 179.786 213.516C179.663 213.516 179.336 213.748 179.091 214.057Z" fill="#D1D1D1"/>
<path d="M196.26 215.061C196.26 215.369 196.423 215.91 196.628 216.219C197.118 216.914 197.118 216.296 196.628 215.254C196.382 214.752 196.26 214.674 196.26 215.061Z" fill="#D1D1D1"/>
<path d="M180.685 215.601C180.685 215.678 180.971 215.871 181.339 215.987C181.666 216.103 181.829 216.064 181.707 215.833C181.462 215.447 180.685 215.292 180.685 215.601Z" fill="#D1D1D1"/>
<path d="M182.32 216.373C182.32 216.489 182.892 216.837 183.546 217.184C184.241 217.532 184.773 217.686 184.773 217.609C184.773 217.493 184.241 217.146 183.546 216.798C182.892 216.451 182.32 216.296 182.32 216.373Z" fill="#D1D1D1"/>
<path d="M197.036 217.532C197.036 217.841 197.2 218.188 197.404 218.304C197.609 218.458 197.691 218.188 197.568 217.763C197.323 216.875 197.036 216.759 197.036 217.532Z" fill="#D1D1D1"/>
<path d="M185.999 218.304C185.999 218.42 186.367 218.69 186.817 218.922C187.266 219.153 187.634 219.23 187.634 219.153C187.634 219.037 187.266 218.767 186.817 218.535C186.367 218.304 185.999 218.227 185.999 218.304Z" fill="#D1D1D1"/>
<path d="M192.54 219.694C191.804 220.157 192.458 220.157 193.562 219.694C194.093 219.462 194.175 219.346 193.766 219.346C193.439 219.346 192.867 219.501 192.54 219.694Z" fill="#D1D1D1"/>
<path d="M190.005 220.35C190.251 220.427 190.741 220.427 191.027 220.35C191.273 220.234 191.068 220.157 190.496 220.157C189.924 220.157 189.719 220.234 190.005 220.35Z" fill="#D1D1D1"/>
<path d="M411.365 207.145C411.365 207.454 411.528 207.609 411.733 207.493C411.896 207.377 412.06 207.145 412.06 206.914C412.06 206.721 411.896 206.566 411.733 206.566C411.528 206.566 411.365 206.837 411.365 207.145Z" fill="#D1D1D1"/>
<path d="M417.783 209.269C417.783 209.462 418.069 209.655 418.437 209.655C418.764 209.655 418.927 209.462 418.805 209.269C418.682 209.037 418.396 208.883 418.151 208.883C417.946 208.883 417.783 209.037 417.783 209.269Z" fill="#D1D1D1"/>
<path d="M5.23251 216.103C5.51866 216.219 5.88657 216.18 6.00921 216.064C6.17273 215.949 5.92745 215.833 5.47778 215.871C5.02812 215.871 4.90548 215.987 5.23251 216.103Z" fill="#D1D1D1"/>
<path d="M7.35821 216.605C7.68524 216.798 8.25755 216.952 8.58458 216.952C8.99337 216.952 8.91161 216.837 8.38018 216.605C7.27645 216.142 6.62239 216.142 7.35821 216.605Z" fill="#D1D1D1"/>
<path d="M10.4241 217.377C10.8738 217.57 11.5279 217.725 11.8549 217.725C12.2228 217.725 12.1819 217.57 11.6505 217.377C11.2008 217.184 10.5468 217.03 10.2197 217.03C9.85182 217.03 9.8927 217.184 10.4241 217.377Z" fill="#D1D1D1"/>
<path d="M6.13184 219.308C6.37712 219.732 6.66327 220.08 6.78591 220.08C6.86766 220.08 6.78591 219.732 6.54063 219.308C6.29536 218.883 6.00921 218.536 5.88657 218.536C5.80481 218.536 5.88657 218.883 6.13184 219.308Z" fill="#D1D1D1"/>
<path d="M9.64743 221.663C8.78898 222.281 8.21667 222.783 8.42107 222.783C8.66634 222.783 9.44304 222.281 10.2197 221.624C12.0593 220.196 11.7323 220.196 9.64743 221.663Z" fill="#D1D1D1"/>
<path d="M119.366 213.902C119.366 214.095 119.571 214.288 119.775 214.288C120.021 214.288 120.184 214.095 120.184 213.902C120.184 213.671 120.021 213.516 119.775 213.516C119.571 213.516 119.366 213.671 119.366 213.902Z" fill="#D1D1D1"/>
<path d="M153.705 217.377C153.705 218.613 153.746 218.651 154.4 218.034C155.054 217.416 155.054 217.339 154.4 216.721C153.746 216.103 153.705 216.142 153.705 217.377Z" fill="#D1D1D1"/>
<path d="M431.681 225.485C431.681 225.678 431.886 225.871 432.09 225.871C432.336 225.871 432.499 225.678 432.499 225.485C432.499 225.254 432.336 225.099 432.09 225.099C431.886 225.099 431.681 225.254 431.681 225.485Z" fill="#D1D1D1"/>
<path d="M28.0838 225.949C27.7568 227.068 27.9203 227.184 28.5335 226.258C28.7788 225.871 28.8605 225.447 28.6561 225.331C28.4517 225.215 28.2065 225.485 28.0838 225.949Z" fill="#D1D1D1"/>
<path d="M29.4328 225.987C29.4328 226.065 29.8825 226.489 30.4548 226.953C31.0271 227.416 31.4768 227.648 31.4768 227.455C31.4768 227.261 31.0271 226.837 30.4548 226.489C29.8825 226.142 29.4328 225.91 29.4328 225.987Z" fill="#D1D1D1"/>
<path d="M29.6372 228.188C29.5146 228.42 29.6781 228.458 30.0051 228.343C30.741 228.072 30.8636 227.802 30.2913 227.802C30.046 227.802 29.7599 227.956 29.6372 228.188Z" fill="#D1D1D1"/>
<path d="M26.8166 229.231C26.6531 229.578 26.9392 229.578 27.8386 229.269C29.3102 228.806 29.3511 228.651 28.0021 228.729C27.4298 228.729 26.8983 228.96 26.8166 229.231Z" fill="#D1D1D1"/>
<path d="M314.931 228.343C314.522 228.651 314.277 228.999 314.4 229.115C314.522 229.231 314.972 228.999 315.381 228.574C316.239 227.686 316.076 227.57 314.931 228.343Z" fill="#D1D1D1"/>
<path d="M341.216 228.42C341.298 228.69 341.666 228.806 341.993 228.69C342.77 228.42 342.729 228.304 341.789 228.072C341.257 227.956 341.053 228.034 341.216 228.42Z" fill="#D1D1D1"/>
<path d="M343.26 228.999C343.547 229.269 343.874 229.385 343.996 229.269C344.119 229.153 343.914 228.922 343.506 228.806C342.933 228.574 342.892 228.613 343.26 228.999Z" fill="#D1D1D1"/>
<path d="M341.748 229.539C341.748 229.733 341.952 230.196 342.157 230.505C342.361 230.814 342.565 230.891 342.565 230.698C342.565 230.466 342.361 230.041 342.157 229.733C341.952 229.424 341.748 229.308 341.748 229.539Z" fill="#D1D1D1"/>
<path d="M344.814 229.733C344.936 229.926 345.141 230.119 345.263 230.119C345.345 230.119 345.427 229.926 345.427 229.733C345.427 229.501 345.223 229.346 344.977 229.346C344.773 229.346 344.691 229.501 344.814 229.733Z" fill="#D1D1D1"/>
<path d="M343.914 231.509C343.383 232.049 343.179 232.435 343.465 232.358C343.874 232.204 345.304 230.505 344.977 230.505C344.896 230.505 344.405 230.968 343.914 231.509Z" fill="#D1D1D1"/>
<path d="M3.3112 231.045C3.27032 232.513 3.27032 232.551 4.0879 231.856C4.78284 231.277 4.8646 230.505 4.25141 230.505C4.12878 230.505 4.12878 230.659 4.29229 230.852C4.41493 231.045 4.33317 231.316 4.12878 231.431C3.92438 231.586 3.63823 231.2 3.55647 230.621C3.43384 229.771 3.39296 229.887 3.3112 231.045Z" fill="#D1D1D1"/>
<path d="M167.399 229.694C167.277 229.887 167.358 230.157 167.604 230.312C167.808 230.428 168.012 230.273 168.012 229.964C168.012 229.269 167.767 229.153 167.399 229.694Z" fill="#D1D1D1"/>
<path d="M171.937 234.327C171.773 234.52 171.855 234.791 172.059 234.906C172.264 235.061 172.55 234.984 172.673 234.791C172.836 234.597 172.754 234.327 172.55 234.211C172.346 234.057 172.059 234.134 171.937 234.327Z" fill="#D1D1D1"/>
<path d="M340.521 243.632C340.521 243.825 340.726 244.018 340.93 244.018C341.176 244.018 341.339 243.825 341.339 243.632C341.339 243.401 341.176 243.246 340.93 243.246C340.726 243.246 340.521 243.401 340.521 243.632Z" fill="#D1D1D1"/>
<path d="M258.355 250.582C258.355 250.775 258.559 250.968 258.805 250.968C259.009 250.968 259.091 250.775 258.968 250.582C258.845 250.351 258.641 250.196 258.518 250.196C258.437 250.196 258.355 250.351 258.355 250.582Z" fill="#D1D1D1"/>
<path d="M447.624 250.582C447.624 250.775 447.829 250.968 448.033 250.968C448.278 250.968 448.442 250.775 448.442 250.582C448.442 250.351 448.278 250.196 448.033 250.196C447.829 250.196 447.624 250.351 447.624 250.582Z" fill="#D1D1D1"/>
<path d="M183.138 252.899C183.138 253.092 183.342 253.285 183.587 253.285C183.792 253.285 183.873 253.092 183.751 252.899C183.628 252.667 183.424 252.513 183.301 252.513C183.219 252.513 183.138 252.667 183.138 252.899Z" fill="#D1D1D1"/>
<path d="M33.7251 261.779C32.9893 262.551 33.0302 262.551 34.5427 262.551C36.0552 262.551 36.0961 262.551 35.3603 261.779C34.9515 261.355 34.5836 261.007 34.5427 261.007C34.5018 261.007 34.1339 261.355 33.7251 261.779ZM34.9515 261.779C35.0741 261.972 34.9106 262.165 34.5427 262.165C34.1748 262.165 34.0113 261.972 34.1339 261.779C34.2565 261.548 34.4609 261.393 34.5427 261.393C34.6245 261.393 34.8288 261.548 34.9515 261.779Z" fill="#D1D1D1"/>
<path d="M281.247 266.606C281.247 266.914 281.451 267.185 281.656 267.185C281.901 267.185 282.065 266.914 282.065 266.606C282.065 266.297 281.901 266.026 281.656 266.026C281.451 266.026 281.247 266.297 281.247 266.606Z" fill="#D1D1D1"/>
<path d="M285.744 266.374C285.744 266.606 285.948 266.876 286.153 266.992C286.398 267.108 286.561 266.953 286.561 266.644C286.561 266.297 286.398 266.026 286.153 266.026C285.948 266.026 285.744 266.181 285.744 266.374Z" fill="#D1D1D1"/>
<path d="M308.636 277.996C308.636 278.189 308.84 278.382 309.045 278.382C309.29 278.382 309.453 278.189 309.453 277.996C309.453 277.764 309.29 277.61 309.045 277.61C308.84 277.61 308.636 277.764 308.636 277.996Z" fill="#D1D1D1"/>
<path d="M310.884 284.946C311.048 285.177 311.334 285.254 311.538 285.139C312.111 284.791 311.988 284.559 311.252 284.559C310.925 284.559 310.762 284.753 310.884 284.946Z" fill="#D1D1D1"/>
<path d="M310.925 289.154C310.762 289.347 310.843 289.617 311.048 289.733C311.252 289.888 311.538 289.81 311.661 289.617C311.824 289.424 311.743 289.154 311.538 289.038C311.334 288.884 311.048 288.961 310.925 289.154Z" fill="#D1D1D1"/>
<path d="M336.147 289.386C336.147 289.695 336.311 289.965 336.515 289.965C336.679 289.965 336.842 289.81 336.842 289.617C336.842 289.386 336.679 289.154 336.515 289.038C336.311 288.922 336.147 289.077 336.147 289.386Z" fill="#D1D1D1"/>
<path d="M26.3669 303.093C26.4896 303.286 26.6939 303.479 26.8166 303.479C26.8983 303.479 26.9801 303.286 26.9801 303.093C26.9801 302.861 26.7757 302.706 26.5304 302.706C26.326 302.706 26.2443 302.861 26.3669 303.093Z" fill="#D1D1D1"/>
<path d="M340.562 315.602C340.521 316.876 340.603 317.031 341.135 316.606C341.462 316.336 341.748 315.911 341.748 315.68C341.748 315.448 341.584 315.486 341.38 315.795C341.094 316.22 340.971 316.066 340.808 315.216C340.685 314.251 340.644 314.328 340.562 315.602Z" fill="#D1D1D1"/>
<path d="M390.598 314.676C390.762 314.907 391.048 314.985 391.252 314.869C391.825 314.521 391.702 314.29 390.966 314.29C390.639 314.29 390.476 314.483 390.598 314.676Z" fill="#D1D1D1"/>
<path d="M285.58 319.888C285.212 320.892 285.294 321.124 285.785 320.351C286.03 319.965 286.152 319.541 286.03 319.463C285.948 319.348 285.744 319.541 285.58 319.888Z" fill="#D1D1D1"/>
<path d="M286.153 321.046C286.153 321.239 286.357 321.703 286.561 322.012C286.766 322.321 286.97 322.398 286.97 322.205C286.97 321.973 286.766 321.548 286.561 321.239C286.357 320.931 286.153 320.815 286.153 321.046Z" fill="#D1D1D1"/>
<path d="M284.763 321.819C284.395 322.822 284.476 323.054 284.967 322.282C285.212 321.896 285.335 321.471 285.212 321.394C285.131 321.278 284.926 321.471 284.763 321.819Z" fill="#D1D1D1"/>
<path d="M330.384 322.784C330.67 323.209 331.078 323.556 331.283 323.556C331.487 323.556 331.324 323.209 330.915 322.784C330.506 322.359 330.097 322.012 330.016 322.012C329.934 322.012 330.097 322.359 330.384 322.784Z" fill="#D1D1D1"/>
<path d="M331.365 324.444C331.487 324.83 331.733 325.023 331.855 324.907C331.978 324.792 331.855 324.483 331.569 324.212C331.16 323.865 331.119 323.904 331.365 324.444Z" fill="#D1D1D1"/>
<path d="M329.689 326.259C329.157 326.49 329.075 326.606 329.484 326.606C329.811 326.606 330.383 326.452 330.71 326.259C331.446 325.795 330.792 325.795 329.689 326.259Z" fill="#D1D1D1"/>
<path d="M326.827 327.031C326.296 327.224 326.255 327.379 326.623 327.379C326.95 327.379 327.604 327.224 328.053 327.031C328.585 326.838 328.626 326.684 328.258 326.684C327.931 326.684 327.277 326.838 326.827 327.031Z" fill="#D1D1D1"/>
<path d="M332.468 328.575C331.978 329.657 331.692 330.506 331.773 330.506C332.06 330.506 333.654 326.992 333.49 326.799C333.409 326.722 332.918 327.533 332.468 328.575Z" fill="#D1D1D1"/>
<path d="M323.761 327.765C323.066 327.958 322.903 328.112 323.271 328.344C323.516 328.498 324.17 328.344 324.66 328.035C325.642 327.379 325.437 327.34 323.761 327.765Z" fill="#D1D1D1"/>
<path d="M325.396 329.116C325.396 329.193 325.764 329.348 326.214 329.463C326.664 329.579 326.95 329.502 326.786 329.309C326.582 328.962 325.396 328.807 325.396 329.116Z" fill="#D1D1D1"/>
<path d="M328.258 330.12C328.585 330.313 329.075 330.506 329.28 330.506C329.525 330.506 329.402 330.313 329.075 330.12C328.748 329.927 328.299 329.734 328.053 329.734C327.849 329.734 327.931 329.927 328.258 330.12Z" fill="#D1D1D1"/>
<path d="M338.273 323.517C338.151 323.711 338.232 323.981 338.478 324.135C338.682 324.251 338.886 324.097 338.886 323.788C338.886 323.093 338.641 322.977 338.273 323.517Z" fill="#D1D1D1"/>
<path d="M331.528 335.139C331.528 335.332 331.733 335.525 331.937 335.525C332.182 335.525 332.346 335.332 332.346 335.139C332.346 334.908 332.182 334.753 331.937 334.753C331.733 334.753 331.528 334.908 331.528 335.139Z" fill="#D1D1D1"/>
<path d="M313.501 340.236C313.501 340.506 313.501 342.089 313.541 343.711C313.582 346.684 313.582 346.722 312.56 346.722C311.824 346.722 311.497 346.491 311.375 345.834C311.252 345.101 311.211 345.101 311.252 345.95C311.293 346.761 311.538 346.954 312.642 347.031L313.95 347.147V343.479C313.95 341.433 313.868 339.772 313.746 339.772C313.623 339.772 313.541 340.004 313.501 340.236Z" fill="#D1D1D1"/>
<path d="M329.075 345.332C329.075 346.607 329.157 346.761 329.689 346.336C330.424 345.757 330.506 345.41 329.811 345.796C329.525 345.989 329.443 345.873 329.566 345.487C329.729 345.178 329.648 344.676 329.443 344.367C329.198 343.981 329.075 344.29 329.075 345.332Z" fill="#D1D1D1"/>
<path d="M317.629 346.722C317.629 346.915 317.834 347.108 318.038 347.108C318.283 347.108 318.447 346.915 318.447 346.722C318.447 346.491 318.283 346.336 318.038 346.336C317.834 346.336 317.629 346.491 317.629 346.722Z" fill="#D1D1D1"/>
<path d="M308.636 351.124C308.636 351.471 308.84 351.742 309.045 351.742C309.29 351.742 309.453 351.587 309.453 351.394C309.453 351.163 309.29 350.892 309.045 350.776C308.84 350.661 308.636 350.815 308.636 351.124Z" fill="#D1D1D1"/>
<path d="M350.128 355.603C349.392 356.375 349.433 356.375 351.15 356.375C352.867 356.375 352.908 356.375 352.172 355.603C351.763 355.178 351.314 354.831 351.15 354.831C350.986 354.831 350.537 355.178 350.128 355.603ZM351.763 355.603C351.886 355.796 351.641 355.989 351.15 355.989C350.659 355.989 350.414 355.796 350.537 355.603C350.659 355.371 350.946 355.217 351.15 355.217C351.354 355.217 351.641 355.371 351.763 355.603Z" fill="#D1D1D1"/>
<path d="M338.968 356.375C338.968 356.916 339.05 357.109 339.172 356.838C339.254 356.607 339.254 356.143 339.172 355.873C339.05 355.641 338.968 355.834 338.968 356.375Z" fill="#D1D1D1"/>
<path d="M335.207 357.186C334.103 357.611 333.572 358.228 333.613 359.078C333.613 359.387 333.776 359.271 333.981 358.769C334.185 358.306 334.839 357.726 335.412 357.533C335.984 357.34 336.434 357.07 336.434 356.954C336.434 356.722 336.474 356.722 335.207 357.186Z" fill="#D1D1D1"/>
<path d="M339.377 359.464C339.377 360.004 339.459 360.197 339.581 359.927C339.663 359.696 339.663 359.232 339.581 358.962C339.459 358.73 339.377 358.923 339.377 359.464Z" fill="#D1D1D1"/>
<path d="M333 361.24C332.836 361.78 332.795 362.321 332.877 362.437C333 362.514 333.204 362.128 333.327 361.549C333.49 361.008 333.531 360.468 333.449 360.352C333.327 360.275 333.122 360.661 333 361.24Z" fill="#D1D1D1"/>
<path d="M339.786 361.394C339.786 361.935 339.867 362.128 339.99 361.858C340.072 361.626 340.072 361.163 339.99 360.892C339.867 360.661 339.786 360.854 339.786 361.394Z" fill="#D1D1D1"/>
<path d="M332.182 364.329C332.019 364.869 331.978 365.41 332.06 365.526C332.182 365.603 332.387 365.217 332.509 364.638C332.673 364.097 332.714 363.557 332.632 363.441C332.509 363.363 332.305 363.75 332.182 364.329Z" fill="#D1D1D1"/>
<path d="M340.194 364.097C340.194 364.638 340.276 364.831 340.399 364.56C340.481 364.329 340.481 363.865 340.399 363.595C340.276 363.363 340.194 363.557 340.194 364.097Z" fill="#D1D1D1"/>
<path d="M340.603 366.028C340.603 366.568 340.685 366.761 340.808 366.491C340.889 366.259 340.889 365.796 340.808 365.526C340.685 365.294 340.603 365.487 340.603 366.028Z" fill="#D1D1D1"/>
<path d="M334.471 368.151C335.33 369.001 336.066 369.58 336.147 369.464C336.229 369.387 335.534 368.73 334.635 367.997L332.959 366.645L334.471 368.151Z" fill="#D1D1D1"/>
<path d="M339.295 367.958C338.968 368.151 338.886 368.344 339.091 368.344C339.336 368.344 339.786 368.151 340.113 367.958C340.44 367.765 340.562 367.572 340.317 367.572C340.113 367.572 339.622 367.765 339.295 367.958Z" fill="#D1D1D1"/>
<path d="M337.251 368.73C336.924 368.923 336.842 369.116 337.047 369.116C337.292 369.116 337.742 368.923 338.069 368.73C338.396 368.537 338.518 368.344 338.273 368.344C338.069 368.344 337.578 368.537 337.251 368.73Z" fill="#D1D1D1"/>
<path d="M281.247 360.197C281.247 360.429 281.451 360.699 281.656 360.815C281.901 360.931 282.065 360.777 282.065 360.468C282.065 360.12 281.901 359.85 281.656 359.85C281.451 359.85 281.247 360.004 281.247 360.197Z" fill="#D1D1D1"/>
<path d="M346.449 369.541C345.754 369.85 345.795 369.85 346.735 369.696C347.471 369.58 347.88 369.696 348.002 370.082C348.166 370.545 348.207 370.506 348.125 370.043C348.084 369.232 347.512 369.078 346.449 369.541Z" fill="#D1D1D1"/>
<path d="M344.609 370.275C344.241 370.506 344.201 370.661 344.487 370.661C344.732 370.661 345.1 370.468 345.223 370.275C345.55 369.811 345.386 369.811 344.609 370.275Z" fill="#D1D1D1"/>
<path d="M342.361 371.433C341.707 371.858 341.339 372.205 341.543 372.205C341.952 372.205 344.16 370.7 343.792 370.661C343.669 370.661 343.056 371.008 342.361 371.433Z" fill="#D1D1D1"/>
<path d="M346.858 372.63C346.694 372.862 346.653 373.093 346.776 373.209C346.858 373.325 347.062 373.132 347.185 372.784C347.471 372.128 347.226 372.012 346.858 372.63Z" fill="#D1D1D1"/>
<path d="M338.641 373.595C337.905 374.136 337.905 374.174 338.805 373.75C339.295 373.518 339.704 373.248 339.704 373.171C339.704 372.862 339.5 372.939 338.641 373.595Z" fill="#D1D1D1"/>
<path d="M331.528 376.452C331.528 376.646 331.733 376.839 331.937 376.839C332.182 376.839 332.346 376.646 332.346 376.452C332.346 376.221 332.182 376.066 331.937 376.066C331.733 376.066 331.528 376.221 331.528 376.452Z" fill="#D1D1D1"/>
<path d="M326.868 380.661C326.704 380.854 326.786 381.124 326.991 381.24C327.195 381.395 327.481 381.317 327.604 381.124C327.767 380.931 327.685 380.661 327.481 380.545C327.277 380.391 326.991 380.468 326.868 380.661Z" fill="#D1D1D1"/>
<path d="M149.658 383.827C149.658 384.136 149.821 384.715 149.985 385.101C150.271 385.835 150.312 385.835 150.516 385.024C150.68 384.561 150.516 384.02 150.189 383.75C149.74 383.402 149.617 383.441 149.658 383.827Z" fill="#D1D1D1"/>
<path d="M150.434 386.298C150.434 386.491 150.639 386.955 150.843 387.263C151.048 387.572 151.252 387.65 151.252 387.456C151.252 387.225 151.048 386.8 150.843 386.491C150.639 386.182 150.434 386.066 150.434 386.298Z" fill="#D1D1D1"/>
<path d="M153.255 387.418C153.664 387.843 153.582 387.997 153.01 388.151C152.56 388.267 152.724 388.345 153.46 388.383C154.604 388.422 154.645 388.422 153.909 387.65C153.092 386.761 152.519 386.568 153.255 387.418Z" fill="#D1D1D1"/>
<path d="M153.337 391.781C154.032 392.901 154.768 393.827 154.972 393.827C155.176 393.827 155.299 393.943 155.258 394.097C155.176 394.291 155.463 394.831 155.871 395.372C156.239 395.874 156.566 396.144 156.566 395.912C156.566 395.41 154.522 392.437 153.132 390.931C152.111 389.85 152.151 389.928 153.337 391.781Z" fill="#D1D1D1"/>
<path d="M260.808 394.599C260.808 394.792 261.012 394.986 261.216 394.986C261.462 394.986 261.625 394.792 261.625 394.599C261.625 394.368 261.462 394.213 261.216 394.213C261.012 394.213 260.808 394.368 260.808 394.599Z" fill="#D1D1D1"/>
<path d="M230.966 396.916C230.966 397.109 231.17 397.302 231.375 397.302C231.62 397.302 231.784 397.109 231.784 396.916C231.784 396.684 231.62 396.53 231.375 396.53C231.17 396.53 230.966 396.684 230.966 396.916Z" fill="#D1D1D1"/>
<path d="M337.619 398.615C338.028 399.078 337.946 399.194 337.169 399.349C336.474 399.464 336.638 399.542 337.619 399.58C338.968 399.619 339.009 399.619 338.273 398.847C337.415 397.959 336.883 397.765 337.619 398.615Z" fill="#D1D1D1"/>
<path d="M158.201 402.515C158.201 403.905 158.242 403.982 158.856 403.403C159.469 402.823 159.469 402.708 158.856 401.897C158.201 401.009 158.201 401.009 158.201 402.515Z" fill="#D1D1D1"/>
<path d="M207.174 401.433C208.319 401.511 210.281 401.511 211.467 401.433C212.611 401.356 211.671 401.318 209.3 401.318C206.929 401.318 205.989 401.356 207.174 401.433Z" fill="#D1D1D1"/>
<path d="M203.087 401.82C203.373 401.935 203.741 401.897 203.863 401.781C204.027 401.665 203.781 401.549 203.332 401.588C202.882 401.588 202.759 401.704 203.087 401.82Z" fill="#D1D1D1"/>
<path d="M201.451 402.206C201.738 402.322 202.105 402.283 202.228 402.167C202.392 402.051 202.146 401.935 201.697 401.974C201.247 401.974 201.124 402.09 201.451 402.206Z" fill="#D1D1D1"/>
<path d="M212.775 405.796C213.429 406.067 213.265 406.144 211.957 406.221C210.608 406.298 210.526 406.337 211.508 406.453C212.121 406.569 213.143 406.491 213.756 406.376C214.737 406.105 214.778 406.067 214.001 405.796C212.897 405.333 211.712 405.372 212.775 405.796Z" fill="#D1D1D1"/>
<path d="M197.895 406.376C197.895 406.8 197.977 408.074 198.099 409.156L198.385 411.202L202.105 411.125L205.825 411.047L202.31 410.932L198.753 410.777L198.345 408.19C198.14 406.762 197.936 405.951 197.895 406.376Z" fill="#D1D1D1"/>
<path d="M208.973 408.306C208.278 409.735 208.401 410.044 209.137 408.769C209.505 408.152 209.709 407.573 209.586 407.495C209.505 407.418 209.218 407.766 208.973 408.306Z" fill="#D1D1D1"/>
<path d="M207.869 410.468C207.706 410.7 207.665 410.932 207.788 411.048C207.869 411.163 208.074 410.97 208.196 410.623C208.483 409.966 208.237 409.851 207.869 410.468Z" fill="#D1D1D1"/>
<path d="M207.093 412.167C206.725 413.171 206.807 413.403 207.297 412.63C207.542 412.244 207.665 411.82 207.542 411.742C207.461 411.627 207.256 411.82 207.093 412.167Z" fill="#D1D1D1"/>
<path d="M206.071 413.596C206.071 414.793 206.193 415.024 206.398 414.522C206.684 413.827 206.52 411.974 206.193 411.974C206.112 411.974 206.03 412.708 206.071 413.596Z" fill="#D1D1D1"/>
<path d="M198.917 414.677C199.203 415.758 199.407 416.028 199.653 415.797C199.734 415.719 199.571 415.217 199.244 414.677L198.631 413.712L198.917 414.677Z" fill="#D1D1D1"/>
<path d="M217.476 401.549C217.476 401.742 217.68 401.935 217.885 401.935C218.13 401.935 218.293 401.742 218.293 401.549C218.293 401.318 218.13 401.163 217.885 401.163C217.68 401.163 217.476 401.318 217.476 401.549Z" fill="#D1D1D1"/>
<path d="M178.641 403.866C178.641 404.059 178.845 404.252 179.05 404.252C179.295 404.252 179.459 404.059 179.459 403.866C179.459 403.634 179.295 403.48 179.05 403.48C178.845 403.48 178.641 403.634 178.641 403.866Z" fill="#D1D1D1"/>
<path d="M180.44 408.924C179.99 409.812 179.949 410.082 180.317 409.966C180.767 409.812 181.666 407.727 181.257 407.727C181.175 407.727 180.808 408.268 180.44 408.924Z" fill="#D1D1D1"/>
<path d="M179.254 411.241C178.845 412.399 179.254 412.515 179.786 411.395C180.031 410.854 180.072 410.43 179.867 410.43C179.663 410.43 179.377 410.777 179.254 411.241Z" fill="#D1D1D1"/>
<path d="M189.106 410.623C188.738 411.627 188.82 411.858 189.31 411.086C189.556 410.7 189.678 410.275 189.556 410.198C189.474 410.082 189.269 410.275 189.106 410.623Z" fill="#D1D1D1"/>
<path d="M188.043 412.553C188.043 412.862 188.125 413.132 188.207 413.132C188.288 413.132 188.452 412.862 188.615 412.553C188.738 412.244 188.656 411.974 188.452 411.974C188.207 411.974 188.043 412.244 188.043 412.553Z" fill="#D1D1D1"/>
<path d="M203.822 419.658C203.659 419.851 203.741 420.121 203.945 420.237C204.149 420.391 204.436 420.314 204.558 420.121C204.722 419.928 204.64 419.658 204.436 419.542C204.231 419.387 203.945 419.465 203.822 419.658Z" fill="#D1D1D1"/>
<path d="M169.648 426.646C169.648 426.839 169.852 427.032 170.056 427.032C170.302 427.032 170.465 426.839 170.465 426.646C170.465 426.414 170.302 426.26 170.056 426.26C169.852 426.26 169.648 426.414 169.648 426.646Z" fill="#D1D1D1"/>
<path d="M176.801 426.646C176.638 426.878 176.638 427.187 176.76 427.302C176.883 427.457 177.006 427.341 177.006 427.109C177.006 426.839 177.455 426.646 178.028 426.646C178.886 426.646 179.05 426.839 179.05 427.766C179.05 428.384 178.845 429.001 178.641 429.079C178.396 429.194 178.437 429.233 178.723 429.194C179.05 429.117 179.254 428.538 179.254 427.766C179.254 426.646 179.091 426.453 178.15 426.337C177.578 426.26 176.965 426.414 176.801 426.646Z" fill="#D1D1D1"/>
<path d="M176.597 428.538C176.597 428.924 177.374 429.503 177.619 429.31C177.66 429.233 177.496 428.924 177.169 428.654C176.842 428.384 176.597 428.345 176.597 428.538Z" fill="#D1D1D1"/>
<path d="M158.201 428.963C158.201 429.156 158.406 429.349 158.61 429.349C158.856 429.349 159.019 429.156 159.019 428.963C159.019 428.731 158.856 428.577 158.61 428.577C158.406 428.577 158.201 428.731 158.201 428.963Z" fill="#D1D1D1"/>
<path d="M155.749 433.596C155.749 433.789 155.953 433.982 156.158 433.982C156.403 433.982 156.566 433.789 156.566 433.596C156.566 433.364 156.403 433.21 156.158 433.21C155.953 433.21 155.749 433.364 155.749 433.596Z" fill="#D1D1D1"/>
<path d="M153.705 438.229C153.705 438.422 153.909 438.615 154.114 438.615C154.359 438.615 154.522 438.422 154.522 438.229C154.522 437.998 154.359 437.843 154.114 437.843C153.909 437.843 153.705 437.998 153.705 438.229Z" fill="#D1D1D1"/>
<path d="M162.698 461.009C162.698 461.203 162.903 461.396 163.107 461.396C163.352 461.396 163.516 461.203 163.516 461.009C163.516 460.778 163.352 460.623 163.107 460.623C162.903 460.623 162.698 460.778 162.698 461.009Z" fill="#D1D1D1"/>
<path d="M162.698 467.959C162.698 468.152 162.903 468.345 163.107 468.345C163.352 468.345 163.516 468.152 163.516 467.959C163.516 467.728 163.352 467.573 163.107 467.573C162.903 467.573 162.698 467.728 162.698 467.959Z" fill="#D1D1D1"/>
</g>
<defs>
<clipPath id="clip0_7_251">
<rect width="493" height="494.215" fill="white"/>
</clipPath>
</defs>
</svg>
