<svg width="108" height="167" viewBox="0 0 108 167" fill="none" xmlns="http://www.w3.org/2000/svg">
<path d="M0.856308 137.027C1.73117 136.596 2.27977 136.219 2.88436 135.46C3.57025 134.604 4.31104 133.791 5.08092 133.005C6.51461 131.546 8.04845 130.189 9.50421 128.747C10.1966 128.068 10.9223 127.39 11.4747 126.588C12.0529 125.742 12.6106 124.892 13.1673 124.036C14.2866 122.318 15.4113 120.601 16.6721 118.98C18.9947 116 23.1762 115.699 25.9849 113.318C28.4555 111.223 29.8375 108.24 30.9698 105.273C31.6212 103.565 32.3189 101.85 32.8934 100.116C33.5416 98.1599 33.8974 96.1211 34.1171 94.0764C34.3367 92.0284 34.4213 89.9696 34.5295 87.9136C34.6366 85.8801 35.4727 83.9452 35.5201 81.9129C35.5664 79.8972 34.9774 77.9472 34.8918 75.9418C34.8498 74.9619 34.3707 74.1409 34.0622 73.2197C33.7257 72.2162 33.5243 71.1163 33.4474 70.0616C33.3747 69.0586 33.1232 68.1176 32.9418 67.1259C32.7292 65.9689 32.5725 64.8028 32.3733 63.6431C32.1973 62.6159 31.9862 61.5951 31.6928 60.5938C31.3924 59.5676 30.9342 58.6045 30.5784 57.5972C27.7632 49.6282 28.9928 41.0206 29.1727 32.7679C29.2157 30.7834 29.2066 28.7968 29.072 26.8156C29.0451 26.4226 29.0219 26.0522 28.8997 25.6764C28.7748 25.2958 28.4668 24.8371 28.4642 24.4306C28.4588 23.6134 29.4262 23.2984 30.0782 23.1891C34.0186 22.5269 36.7557 26.07 37.9907 29.3578C39.2893 32.8131 39.369 36.5812 39.6661 40.2174C39.7426 41.1509 39.77 42.0958 39.8912 43.0239C40.0306 44.0899 40.2869 45.1354 40.5055 46.1863C40.6982 47.1086 40.8683 48.0389 40.9308 48.9805C40.9964 49.963 41.0616 50.8244 41.4842 51.7348C41.9295 52.6926 42.4797 53.6041 42.9303 54.5624C43.3847 55.5287 43.8046 56.5107 44.2014 57.5024C44.9901 59.4777 45.6825 61.4891 46.3705 63.5015C46.7108 64.4954 46.9756 65.5764 47.416 66.5304C47.5695 66.861 47.7977 67.1555 47.9986 67.457C48.3151 67.9329 48.5326 68.4357 48.7604 68.9563C49.1361 69.8134 49.5291 70.6937 49.7332 71.6073C49.9916 72.7675 50.0595 73.9584 50.0638 75.1444C50.0686 76.1873 50.0142 77.2301 50.018 78.2729C50.0218 79.2075 50.2296 80.119 50.4971 81.0105C50.7642 81.8994 51.2519 82.7382 51.6746 83.5624C52.1037 84.4018 52.5494 85.2325 53.0027 86.0584C54.8327 89.3887 56.8117 92.6405 58.4705 96.0619C60.1265 99.48 61.4278 103.075 61.9376 106.854C62.5185 111.158 61.9775 115.53 60.5438 119.621C60.2062 120.579 59.8487 121.527 59.327 122.405C58.7704 123.341 58.1851 124.262 57.6435 125.204C57.1606 126.049 56.724 126.911 56.3455 127.804C55.917 128.817 55.3107 129.721 54.6663 130.609C53.357 132.418 51.8506 134.082 50.3889 135.767C48.8879 137.501 47.3756 139.223 45.8838 140.962C43.0853 144.225 40.6131 147.784 37.273 150.524C35.7333 151.789 34.1101 152.947 32.5397 154.174C30.8788 155.472 29.4305 156.92 28.0604 158.524C26.7171 160.091 25.4267 161.717 23.9187 163.133C22.5604 164.414 20.8376 165.706 18.9543 166.013C18.5823 166.072 18.2313 166.078 17.8722 166.164C17.6794 166.212 17.4162 166.293 17.238 166.158C16.6624 165.722 17.3704 163.972 17.5594 163.488C18.2722 161.647 19.5993 160.112 20.8855 158.653C26.4668 152.306 33.2471 147.218 39.6069 141.705C42.8996 138.857 46.581 136.424 50.39 134.313C54.1646 132.219 58.212 130.502 61.7885 128.068C63.6685 126.792 65.5 125.446 67.3203 124.084C68.9882 122.835 70.4402 121.355 71.8502 119.826C73.2666 118.29 74.6104 116.69 75.937 115.076C77.2921 113.428 78.8324 111.963 80.3403 110.455C83.5098 107.285 86.4821 103.924 89.6418 100.741C91.1331 99.2399 92.7423 97.8374 94.1351 96.2492C94.7085 95.5946 95.3341 94.9776 95.7949 94.2336C96.2886 93.4357 96.5783 92.5129 96.9675 91.6623C98.7016 87.8759 100.883 84.3156 102.876 80.6649C103.791 78.9884 104.562 77.236 105.473 75.5606C106.268 74.0994 107.307 72.7363 107.802 71.1292C108.608 68.5186 106.863 65.5608 104.195 64.9315C102.023 64.4189 99.8403 65.654 98.1649 66.9105C96.1352 68.432 94.3817 70.3233 92.7612 72.2652C92.0128 73.1616 91.2957 74.0537 90.6895 75.054C89.5907 76.8672 88.6001 78.7435 87.5147 80.5648C86.4638 82.3269 85.3574 84.2903 83.7461 85.604C82.9423 86.2597 81.9409 86.636 81.0036 87.064C80.0555 87.4963 79.1085 87.9271 78.175 88.3895C78.3193 88.3906 78.4636 88.3917 78.6084 88.3927C78.4135 88.2953 78.2186 88.1984 78.0237 88.1004C78.1567 88.2522 78.2897 88.404 78.4226 88.5564C78.1276 87.2815 78.1233 85.9663 77.9451 84.6753C77.8875 84.2543 76.934 83.9129 77.0099 84.4637C77.1456 85.4462 77.1785 86.4395 77.3157 87.4215C77.4288 88.2323 77.5015 88.6285 78.2407 88.978C78.9325 89.3042 79.4639 88.8164 80.1153 88.5117C81.1199 88.0412 82.1369 87.597 83.1372 87.1179C85.1437 86.1563 86.3578 84.3436 87.5266 82.5185C88.7212 80.652 89.7614 78.6939 90.8715 76.7779C92.2093 74.4709 93.8498 72.4429 95.691 70.5149C97.4493 68.6732 99.5517 66.6607 102.037 65.8763C103.045 65.5576 104.152 65.4865 105.099 66.0265C106.518 66.8362 107.327 68.5407 107.019 70.1392C106.678 71.9255 105.464 73.42 104.612 74.9851C103.661 76.7348 102.852 78.562 101.893 80.3117C99.8947 83.9549 97.7185 87.5157 96.0059 91.3075C95.6232 92.1544 95.333 93.0675 94.8129 93.8433C94.2896 94.6255 93.6032 95.2915 92.9916 96.0032C92.2632 96.8485 91.3996 97.5828 90.6001 98.3624C89.792 99.1495 88.9931 99.9468 88.2017 100.752C85.0032 104.003 81.9581 107.4 78.7327 110.625C77.9763 111.382 77.2199 112.138 76.463 112.895C75.6586 113.699 74.9754 114.627 74.2481 115.502C72.8505 117.181 71.4211 118.835 69.8991 120.402C69.1174 121.209 68.3243 122.044 67.442 122.738C66.5343 123.454 65.5883 124.127 64.6569 124.811C62.7893 126.184 60.9131 127.541 58.8974 128.687C54.9915 130.905 50.8008 132.688 47.0392 135.153C45.2006 136.359 43.3045 137.479 41.5375 138.793C39.7603 140.117 38.1382 141.651 36.4466 143.078C33.2067 145.813 29.9129 148.483 26.765 151.326C23.6818 154.109 20.5113 157.065 18.0789 160.451C17.5551 161.184 17.0932 161.954 16.747 162.788C16.4213 163.563 16.046 164.554 16.1268 165.41C16.242 166.632 17.309 167.187 18.4245 166.944C19.1368 166.794 19.8669 166.767 20.5743 166.514C21.4793 166.185 22.3095 165.684 23.0842 165.119C24.7569 163.902 26.147 162.368 27.4822 160.801C28.8776 159.159 30.2252 157.437 31.8548 156.015C33.4398 154.637 35.1885 153.442 36.8472 152.15C38.4478 150.906 39.9924 149.587 41.3448 148.069C42.8587 146.373 44.2106 144.521 45.6803 142.787C48.6597 139.266 51.8539 135.902 54.7148 132.284C55.3759 131.444 56.0101 130.561 56.5641 129.651C57.0965 128.774 57.4249 127.81 57.8928 126.9C58.8312 125.075 60.134 123.422 60.9077 121.522C62.5374 117.513 63.3422 113.185 63.0542 108.859C62.5282 100.946 58.4075 94.1367 54.6206 87.3962C53.6396 85.6503 52.683 83.8898 51.8135 82.0841C50.8471 80.0775 50.9763 78.0662 50.9973 75.8998C51.0075 74.809 50.9833 73.7145 50.8196 72.634C50.6554 71.5556 50.3066 70.6081 49.9012 69.6051C49.5722 68.7921 49.2481 67.99 48.7609 67.2578C48.1493 66.3388 47.8629 65.3045 47.5065 64.2639C46.7883 62.1674 46.0803 60.0678 45.2738 58.0036C44.4539 55.9045 43.4504 53.9362 42.449 51.9249C41.9968 51.0161 41.9321 50.1789 41.8665 49.1915C41.7981 48.1654 41.6016 47.1538 41.3884 46.1497C41.1827 45.1823 40.9545 44.217 40.8263 43.235C40.6955 42.232 40.6632 41.208 40.583 40.1985C40.2863 36.488 40.1631 32.6645 38.788 29.1554C38.1355 27.4902 37.1805 25.7432 35.8448 24.5275C34.6086 23.4018 32.8977 22.3773 31.1862 22.2938C30.1003 22.241 28.4787 22.3283 27.789 23.3129C27.3756 23.9041 27.5586 24.4565 27.7971 25.0794C28.1745 26.0657 28.1772 27.0746 28.217 28.1244C28.3818 32.4481 28.0431 36.768 27.8956 41.0868C27.7524 45.2544 27.7675 49.4666 28.5977 53.5701C29.0165 55.637 29.7057 57.5584 30.4669 59.5165C31.3149 61.6969 31.5205 64.09 31.9119 66.3786C32.0793 67.3568 32.397 68.3485 32.4869 69.3284C32.5838 70.3825 32.7076 71.386 32.9591 72.4176C33.1798 73.3242 33.6622 74.1447 33.8856 75.0421C34.0218 75.5891 33.9766 76.2018 34.0396 76.7622C34.1036 77.3394 34.1984 77.9117 34.2894 78.485C34.4444 79.4633 34.5963 80.4485 34.5887 81.4423C34.5796 82.63 34.2372 83.7902 33.983 84.9439C33.5179 87.057 33.5324 89.2019 33.3849 91.3565C33.2379 93.4971 33.0107 95.6414 32.5181 97.7341C32.0659 99.6572 31.2874 101.467 30.6128 103.319C29.4392 106.541 28.16 109.97 25.5634 112.341C24.1394 113.641 22.415 114.399 20.6631 115.15C19.0905 115.825 17.4749 116.527 16.2964 117.812C14.8654 119.374 13.7305 121.274 12.5783 123.04C12.026 123.89 11.4757 124.741 10.9083 125.576C10.2413 126.561 9.44337 127.385 8.59489 128.219C7.21019 129.581 5.76196 130.873 4.39449 132.251C3.68384 132.967 2.99527 133.71 2.34922 134.486C2.0262 134.873 1.74032 135.347 1.33977 135.659C0.980133 135.934 0.531127 136.122 0.126269 136.322C-0.301201 136.532 0.46168 137.221 0.856308 137.027" fill="white"/>
<path d="M77.9166 84.9558C77.9214 84.2247 78.0011 83.4941 77.9769 82.7635C77.9537 82.0723 77.817 81.3966 77.6409 80.7296C77.2711 79.3298 76.8097 77.9763 76.5959 76.5388C76.4872 75.812 76.428 75.0809 76.4 74.3471C76.3731 73.6338 76.1706 73.0141 75.9876 72.3304C75.8013 71.6343 75.7932 70.9258 75.7851 70.2103C75.7771 69.5066 75.6877 68.8331 75.5289 68.1472C75.2479 66.9316 75.039 65.6701 74.2433 64.6628C73.8696 64.1891 73.4212 63.8849 72.921 63.5597C72.3444 63.1855 71.7597 62.7629 71.0873 62.5777C70.7847 62.4937 70.4364 62.5524 70.1451 62.4496C69.862 62.3505 69.6353 62.1002 69.3543 61.9812C68.7271 61.7163 68.0213 61.544 67.3601 61.3852C65.9049 61.0353 64.4125 60.9545 62.9201 60.9416C61.4773 60.9287 60.0178 60.8942 58.5798 61.032C57.8535 61.1015 57.1515 61.2447 56.4193 61.235C56.0494 61.2296 55.6833 61.2189 55.3162 61.2738C54.9716 61.326 54.6405 61.4299 54.3002 61.5026C53.5912 61.6539 52.8186 61.5833 52.0983 61.5688C51.5249 61.5564 50.958 61.5516 50.3868 61.5909C49.8759 61.6253 49.338 61.6851 48.8303 61.5871C48.2877 61.4827 48.1945 61.0697 47.9959 60.6094C47.8909 60.3655 47.7655 60.162 47.5846 59.9666C47.4166 59.7862 47.1996 59.6285 47.0742 59.4142C46.7834 58.9157 46.848 58.1006 46.8384 57.5423C46.8152 56.1969 46.9751 54.8806 47.1285 53.5476C47.4823 50.4686 47.5808 47.3966 47.5808 44.2999C47.5808 42.7171 47.5808 41.1348 47.5808 39.552C47.5808 38.8106 47.5873 38.0698 47.5523 37.329C47.5189 36.6264 47.472 35.9179 47.5485 35.2164C47.7127 33.7214 48.2608 32.2941 48.6344 30.8454C49.0102 29.388 49.2745 27.8854 49.5798 26.4108C49.7305 25.6818 49.8656 24.948 49.9539 24.2083C50.0417 23.4702 50.0196 22.7477 50.0078 22.0069C49.9949 21.2709 50.1375 20.5888 50.2355 19.8641C50.333 19.1433 50.3276 18.4251 50.3405 17.6999C50.369 16.1919 50.5881 14.6947 50.6409 13.1878C50.6947 11.6389 50.649 10.083 50.6458 8.53297C50.6441 7.91115 50.6075 7.29417 50.5941 6.67342C50.5822 6.16035 50.6221 5.61553 50.9892 5.22037C51.8436 4.30136 53.3866 4.25558 54.5457 4.34064C56.3703 4.47524 57.1978 6.58298 57.6575 8.07643C57.9423 9.00244 58.1432 9.9516 58.3682 10.8938C58.7208 12.3711 59.095 13.8435 59.4008 15.3316C59.7088 16.832 59.9537 18.3535 60.0178 19.8857C60.0819 21.4157 60.0409 22.9555 60.0565 24.4866C60.0721 26.0581 60.0883 27.6307 60.0452 29.2022C60.0049 30.6742 59.7281 32.117 59.7298 33.5938C59.7319 35.182 59.741 36.7702 59.726 38.3589C59.7114 39.8459 59.8719 41.3168 60.119 42.7811C60.3747 44.294 60.7171 45.7923 60.9476 47.3094C61.1844 48.8632 61.2523 50.4352 61.354 52.0013C61.4019 52.7411 61.4601 53.4792 61.5398 54.2162C61.6173 54.9425 61.5538 55.6666 61.5198 56.3934C61.4859 57.1148 61.5204 57.8056 61.6571 58.5141C61.7761 59.1343 61.796 59.7922 61.9597 60.4011C62.083 60.8587 62.3818 61.4859 62.8911 61.6033C63.3885 61.7174 63.9 61.4767 63.9905 60.9588C64.0319 60.7246 63.7099 60.5556 63.5226 60.5443C62.8022 60.5028 62.0954 60.6961 61.3788 60.6622C60.5443 60.6229 60.7446 59.5741 60.6908 58.9717C60.5766 57.706 60.2864 56.4645 60.1599 55.2004C60.0285 53.8873 60.0231 52.5532 60.049 51.2342C60.0991 48.6317 60.2773 45.9667 60.7936 43.4121C61.3093 40.8613 61.746 38.2976 62.2203 35.7387C63.1936 30.4949 64.1293 25.243 64.1686 19.8932C64.188 17.2105 64.0529 14.5315 63.9818 11.851C63.9468 10.5239 63.9275 9.19679 63.9506 7.87023C63.9727 6.59751 63.9829 5.28873 64.1676 4.02732C64.3479 2.79606 65.008 1.60194 66.2441 1.18416C67.3623 0.805681 68.5898 1.12063 69.568 1.72146C70.1478 2.07678 70.6571 2.55486 71.0593 3.10346C71.546 3.76674 71.8006 4.48279 72.0575 5.25428C72.4289 6.37248 72.9323 7.44061 73.3619 8.53621C73.7948 9.64095 74.0489 10.7274 74.2249 11.8973C74.4198 13.1905 74.773 14.4368 74.8091 15.7526C74.8441 17.0221 74.7456 18.2899 74.7445 19.5583C74.7413 22.2739 74.78 24.9922 74.7418 27.7072C74.7057 30.2968 74.2131 32.84 73.7479 35.3785C73.6327 36.0073 73.5105 36.6356 73.3388 37.252C73.1735 37.8421 73.0018 38.4133 72.9097 39.0217C72.8166 39.6408 72.7643 40.2648 72.6771 40.8855C72.5915 41.4971 72.4742 42.1028 72.4026 42.7171C72.1075 45.2512 72.2087 47.8187 72.4413 50.3539C72.6841 52.9973 72.998 55.6375 73.3269 58.2718C73.4949 59.6102 73.6446 60.9561 73.875 62.2854C73.9907 62.9497 74.1264 63.6179 74.1383 64.2951C74.1501 64.9331 74.1076 65.5711 74.1119 66.2096C74.1216 67.5071 74.3956 68.7534 74.5986 70.0294C74.7009 70.6743 74.7504 71.3107 74.745 71.9643C74.7407 72.4386 74.7692 72.9043 74.941 73.3511C75.1402 73.8674 75.482 74.3207 75.5671 74.8769C75.6328 75.3081 75.6371 75.7684 75.9407 76.1135C76.1491 76.352 76.8355 76.5189 76.9206 76.0656C77.2291 74.429 77.2705 72.7638 77.3276 71.1045C77.3874 69.3629 77.5914 67.6352 77.7465 65.9011C78.0598 62.4038 77.8993 58.8866 77.9182 55.3807C77.9273 53.6208 77.9672 51.8598 77.8595 50.1014C77.7561 48.4082 77.4127 46.7915 77.0536 45.1387C76.6896 43.4643 76.5265 41.7555 76.2422 40.0661C75.9547 38.3568 75.6484 36.6528 75.327 34.9499C75.2322 34.4514 75.1924 34.1914 75.2274 33.6966C75.2635 33.183 75.3205 32.671 75.3798 32.1596C75.4794 31.2879 75.6301 30.4131 75.6861 29.5371C75.7162 29.0628 74.689 28.9358 74.6589 29.4015C74.5582 30.973 74.1404 32.5461 74.1781 34.1252C74.1937 34.7524 74.3859 35.3914 74.5033 36.0046C74.6659 36.8547 74.8134 37.7064 74.9598 38.5587C75.2538 40.2685 75.481 41.9843 75.7507 43.6964C76.0113 45.354 76.5098 46.9654 76.7128 48.6322C76.9281 50.3991 76.9152 52.1876 76.9012 53.9643C76.8732 57.4702 77.0417 60.997 76.8188 64.4986C76.6961 66.4271 76.4231 68.3437 76.3278 70.2743C76.2352 72.1651 76.2455 74.0613 75.8939 75.93C76.2202 75.9133 76.547 75.8971 76.8737 75.881C76.5615 75.5256 76.6519 75.0002 76.533 74.5684C76.3779 74.0047 75.9914 73.5358 75.8492 72.9662C75.713 72.4197 75.7932 71.8448 75.7615 71.2875C75.7238 70.6415 75.6226 70.0035 75.5084 69.3666C75.3911 68.7103 75.2619 68.0551 75.1913 67.3908C75.1192 66.713 75.1364 66.0303 75.1509 65.3498C75.1644 64.6946 75.1698 64.0513 75.0826 63.3998C74.9878 62.6956 74.8419 61.999 74.745 61.2942C74.3708 58.5684 74.043 55.8357 73.7463 53.0996C73.4562 50.4255 73.1767 47.7477 73.2688 45.0531C73.3135 43.7395 73.4901 42.4603 73.6839 41.1623C73.7765 40.5437 73.8287 39.9197 73.9159 39.2995C74.0053 38.668 74.1695 38.0736 74.3445 37.462C74.7111 36.1801 74.9038 34.8417 75.1369 33.5308C75.3722 32.2058 75.579 30.8739 75.6872 29.5323C75.7975 28.1675 75.7717 26.7984 75.7717 25.4309C75.7722 24.0301 75.7717 22.6303 75.7712 21.2295C75.7712 19.8959 75.7986 18.5677 75.832 17.2347C75.8638 15.941 75.797 14.6855 75.5407 13.415C75.292 12.1837 75.18 10.9131 74.8112 9.71093C74.4613 8.56796 73.9525 7.48368 73.5084 6.37678C73.1417 5.46262 72.9172 4.48385 72.4553 3.6106C72.1081 2.95163 71.6316 2.3535 71.0738 1.85981C69.1282 0.138086 65.6325 -0.495025 63.9065 1.87813C63.4811 2.46334 63.2443 3.18099 63.1398 3.89165C62.9519 5.17944 62.9428 6.51514 62.9223 7.8137C62.8771 10.6019 63.0171 13.3886 63.094 16.1741C63.171 18.9284 63.1662 21.6801 62.9158 24.4258C62.6687 27.1381 62.2391 29.83 61.7605 32.51C61.2819 35.1917 60.7564 37.8636 60.309 40.5512C60.0942 41.8358 59.7637 43.0993 59.565 44.3876C59.3588 45.7228 59.2393 47.0795 59.1445 48.4271C58.955 51.1082 58.8953 53.8528 59.3141 56.5151C59.4143 57.1536 59.5284 57.7894 59.6108 58.4306C59.6845 59.0115 59.6414 59.6274 59.7583 60.1992C59.9128 60.9567 60.5971 61.3088 61.3169 61.3572C62.0265 61.4046 62.7253 61.1973 63.4311 61.2377C63.2755 61.0999 63.1194 60.9615 62.9632 60.8237C62.9433 60.9373 63.0025 60.919 62.9121 60.9195C63.0741 60.9712 63.2373 61.0229 63.3998 61.0746C62.9158 60.6676 62.9158 60.0037 62.8372 59.4261C62.7419 58.7278 62.5455 58.0441 62.5315 57.3361C62.5164 56.6238 62.5993 55.9148 62.6068 55.2031C62.6149 54.4859 62.5072 53.7764 62.4485 53.0636C62.3231 51.5211 62.2757 49.9722 62.1126 48.4319C61.95 46.9008 61.6248 45.3944 61.3416 43.8821C61.0606 42.386 60.8044 40.8747 60.7581 39.3501C60.7096 37.7753 60.7629 36.193 60.7591 34.6172C60.757 33.8538 60.7333 33.0861 60.7925 32.3243C60.8485 31.6034 60.9616 30.8879 61.0251 30.1681C61.1618 28.624 61.1047 27.0504 61.0918 25.502C61.0665 22.4602 61.1661 19.4221 60.6337 16.4148C60.3688 14.9181 60.0119 13.4403 59.6544 11.9646C59.3879 10.8631 59.1504 9.75186 58.8543 8.65734C58.401 6.97869 57.72 5.0357 56.1286 4.11131C55.2122 3.57939 54.1188 3.5783 53.09 3.64076C51.9588 3.70967 50.5348 4.0634 49.8823 5.08685C49.6083 5.51701 49.5555 6.03976 49.5663 6.53775C49.5814 7.18488 49.6169 7.82824 49.6185 8.47644C49.6223 10 49.667 11.529 49.6131 13.0526C49.5598 14.5854 49.3337 16.1079 49.3122 17.6428C49.302 18.3416 49.3025 19.0345 49.2083 19.7285C49.1103 20.4526 48.9676 21.1352 48.9806 21.8712C48.9935 22.6389 49.0123 23.3851 48.9176 24.1491C48.826 24.8888 48.6893 25.6215 48.5364 26.351C48.229 27.8251 47.969 29.3282 47.5883 30.7845C47.2158 32.2069 46.6828 33.6115 46.5218 35.0813C46.4427 35.8065 46.4949 36.5398 46.5288 37.2666C46.5627 38.0101 46.5541 38.7536 46.5541 39.497C46.5541 42.618 46.6316 45.7503 46.4793 48.868C46.4034 50.4126 46.2704 51.954 46.0922 53.491C45.9382 54.8203 45.7842 56.1334 45.8128 57.4745C45.8251 58.064 45.7993 58.7666 45.9942 59.3297C46.1686 59.8358 46.6241 60.0732 46.8965 60.505C47.1856 60.9631 47.2292 61.4988 47.6766 61.8595C48.0691 62.1766 48.6053 62.2854 49.0963 62.3204C49.6223 62.3586 50.1467 62.3236 50.671 62.2881C51.26 62.2477 51.8474 62.2644 52.4375 62.2762C53.1546 62.2913 53.8948 62.3338 54.6028 62.1982C54.9226 62.1368 55.2332 62.0302 55.5541 61.9747C55.9493 61.9053 56.3557 61.9392 56.7547 61.9414C57.4815 61.9457 58.1873 61.7852 58.9093 61.7233C59.6156 61.6619 60.3246 61.6485 61.0326 61.6463C62.539 61.6409 64.0556 61.6027 65.5549 61.7755C66.3001 61.8611 67.0269 62.007 67.7451 62.2229C68.0552 62.3155 68.3701 62.3947 68.6781 62.497C69.0076 62.6068 69.2466 62.8318 69.5529 62.9847C69.842 63.1279 70.1425 63.1629 70.459 63.1872C70.8181 63.2141 71.1083 63.3417 71.42 63.5188C71.9568 63.823 72.571 64.1632 73.0238 64.5848C73.9778 65.4736 74.1743 66.7776 74.4624 67.9814C74.6352 68.7044 74.7509 69.4027 74.7585 70.1467C74.7665 70.8466 74.7703 71.5557 74.9356 72.2399C75.103 72.935 75.3496 73.5643 75.376 74.2879C75.4013 74.9856 75.4551 75.6828 75.5493 76.3741C75.7491 77.8396 76.2008 79.2183 76.5879 80.6402C76.7709 81.3115 76.9351 82.0017 76.9513 82.7006C76.968 83.4074 76.8942 84.1132 76.8888 84.8201C76.8856 85.2971 77.9128 85.415 77.9166 84.9558" fill="white"/>
</svg>
