<svg width="51" height="83" viewBox="0 0 51 83" fill="none" xmlns="http://www.w3.org/2000/svg">
<path d="M46.4804 1.55337C44.9001 2.39213 42.8457 3.70271 41.8975 4.43663C40.4753 5.53752 39.5798 5.74721 36.8406 5.74721C27.6749 5.74721 15.8228 11.5137 9.39626 19.1675C5.9723 23.1517 2.07425 30.5433 0.810019 35.3662C-0.243507 39.5601 -0.296184 49.4156 0.810019 54.4482C1.23143 56.5452 2.60101 60.3196 3.81257 62.7835C5.60356 66.4531 6.86779 68.1307 10.5551 71.8003C14.2952 75.5223 16.0335 76.7805 20.6163 79.0871C24.1456 80.8695 26.2 81.6558 26.3053 81.2888C26.4634 80.817 26.7794 80.8695 27.4115 81.4461C28.4651 82.3897 33.1533 83.4382 33.522 82.8091C33.68 82.5994 34.8389 82.547 36.1031 82.6518C38.8423 82.9664 41.3708 82.4946 40.8967 81.7606C40.686 81.4461 41.2654 81.2364 42.1609 81.2364C44.0573 81.2364 46.533 80.2404 46.1116 79.6113C45.9536 79.3492 44.9528 79.1395 43.8466 79.1395C42.793 79.1395 40.4753 78.8774 38.7896 78.5628C29.9927 76.9377 24.6197 70.6994 28.4124 66.4007C29.3079 65.4047 28.9392 64.7232 27.2008 64.3038C26.6214 64.1465 26.9901 64.0417 28.0963 63.9892C30.2561 63.9368 31.2569 63.0456 29.7293 62.5738C26.5161 61.5253 22.0912 58.9566 21.0904 57.5412L19.8788 55.9161L22.5653 56.283C25.4625 56.65 26.9375 56.3355 26.9375 55.287C26.9375 54.92 25.1991 52.8755 23.0921 50.7786C18.4566 46.113 17.4557 43.8588 17.087 36.6768C16.8763 32.483 16.9816 31.1724 17.9825 28.2891C20.7217 20.1636 26.9375 12.5098 33.4166 9.46925C35.4183 8.52563 37.1567 7.89656 37.3674 8.05383C37.5254 8.26352 37.0513 9.04986 36.3138 9.83621C25.1991 21.7887 23.7769 42.7579 33.1533 56.4403C35.7344 60.2148 41.1074 65.195 44.7421 67.187L47.3759 68.6549L47.6919 67.3443C48.166 65.4571 49.2195 65.6668 48.7981 67.554C48.5874 68.55 48.6928 69.1267 49.1669 69.284C49.6936 69.4937 49.799 68.1831 49.6936 62.7311C49.5883 57.5412 49.6936 55.8112 50.2204 55.4967C50.7472 55.1297 50.6945 55.0249 50.0624 55.0249C49.6409 55.0249 48.6928 54.3958 47.9553 53.6619L46.6911 52.2465L48.1133 52.6134C48.8508 52.7707 49.9043 53.0328 50.4838 53.2425C51.2212 53.4522 51.1686 53.3998 50.3257 52.8231C49.6936 52.4562 49.3249 51.8271 49.4302 51.4601C49.5883 51.1456 49.9043 50.9359 50.1677 51.0932C50.4311 51.2504 49.4302 50.202 48.008 48.7341C46.533 47.2663 45.3742 45.8509 45.3742 45.5887C45.3742 45.3266 46.7438 45.2218 48.4294 45.379C50.0624 45.4839 50.9052 45.379 50.3257 45.1694C49.4829 44.9072 49.3249 44.5403 49.5883 43.7539C49.8517 43.02 49.3776 42.024 47.6919 40.0319C43.7939 35.209 42.0029 27.7649 43.2144 21.1596C43.7939 18.1191 46.533 11.7234 48.4294 8.99744C49.1142 8.0014 49.4829 6.53356 49.5356 4.22694C49.5883 2.33971 49.7463 0.662174 49.9043 0.400059C50.3784 -0.386287 49.3776 -0.0193258 46.4804 1.55337ZM34.1541 8.05383C28.0437 10.5701 22.6707 15.9697 19.036 23.3089C16.4022 28.6561 15.6647 32.116 16.0335 37.4632C16.5076 43.8588 17.9298 47.1614 22.2493 51.4601C24.251 53.4522 25.8839 55.1822 25.8839 55.3918C25.8839 55.7588 20.6163 55.1822 19.3521 54.7103C17.8245 54.1337 18.4039 55.9685 20.4583 58.2227C21.5118 59.376 23.7242 61.0535 25.3045 61.8399C28.149 63.3077 28.2017 63.3602 26.5687 63.4126C25.6206 63.4126 23.8822 63.0456 22.7234 62.5738C19.9315 61.4205 19.4048 62.0496 21.5645 63.9892C22.8287 65.1425 23.7769 65.5095 25.4099 65.5095C27.3062 65.5095 27.4642 65.6143 26.9375 66.5055C26.2527 67.8685 26.2527 71.0663 26.9901 72.4818C27.3062 73.1108 28.2017 74.2641 28.9392 75.0505L30.2561 76.4659L28.9918 76.1514C27.7276 75.8368 27.7276 75.8368 28.7285 76.9901C29.3079 77.6192 31.4149 78.9298 33.4166 79.9258C35.4183 80.9219 36.6299 81.7606 36.0505 81.7606C34.8389 81.7606 29.0972 78.458 27.8856 77.0426C26.8321 75.7844 26.4107 75.732 26.4107 76.8853C26.4107 77.3571 27.3589 78.6153 28.5178 79.7686C29.7293 80.8695 30.3614 81.7606 29.94 81.7606C28.7811 81.7606 26.7268 79.9258 25.6206 77.8813C25.0411 76.8329 24.409 75.9941 24.1983 75.9941C23.6189 75.9941 23.6715 77.9862 24.3036 79.1919C24.8304 80.0831 24.7777 80.1355 23.5135 79.5589C22.5653 79.1395 22.1966 78.5628 22.1966 77.462C22.1966 75.732 21.5118 75.5223 20.827 77.095C20.3529 78.1435 20.1422 78.091 16.1915 75.4699C-2.98268 62.6787 -4.56296 33.0596 13.0309 16.7561C18.72 11.4613 28.7285 6.95294 34.8389 6.8481L37.2093 6.79567L34.1541 8.05383ZM38.6843 28.1319C38.0522 28.2367 36.8933 29.0755 36.1558 29.9142C34.7336 31.6442 34.3121 30.8579 35.6817 28.9182C36.2612 28.0794 36.946 27.7649 38.1575 27.8173C39.3691 27.8697 39.5271 27.9746 38.6843 28.1319ZM41.0547 32.0636C40.844 33.4266 39.4744 34.3178 38.3155 33.8984C37.2093 33.479 37.2093 31.12 38.3682 30.4385C39.6851 29.757 41.2654 30.7006 41.0547 32.0636ZM25.5152 64.3038C25.1465 64.4086 24.409 64.4086 23.9349 64.3038C23.4082 64.1465 23.7242 64.0417 24.567 64.0417C25.4625 64.0417 25.8313 64.1465 25.5152 64.3038ZM38.2102 79.4016C40.5279 79.9258 40.9494 80.1355 39.7378 80.1355C37.8415 80.188 32.9426 78.5104 31.3623 77.3047C30.7828 76.8329 31.3623 76.9377 32.6792 77.5668C33.9434 78.1959 36.4192 79.0346 38.2102 79.4016Z" fill="white"/>
</svg>
