<svg width="300" height="300" viewBox="0 0 300 300" fill="none" xmlns="http://www.w3.org/2000/svg">
<path d="M285.659 206.118C285.07 206.269 284.65 206.755 284.179 207.108C283.736 207.44 283.271 207.742 282.806 208.041C281.686 208.759 280.533 209.411 279.389 210.087C277.176 211.397 275.018 212.72 272.678 213.803C268.035 215.947 263.136 217.743 258.237 219.216C253.389 220.671 248.369 221.743 243.309 221.975C240.767 222.09 238.256 222.063 235.741 221.613C233.224 221.166 230.794 220.312 228.403 219.418C225.683 218.401 222.984 217.329 220.316 216.173C217.569 214.981 214.852 213.903 211.921 213.245C217.756 211.21 223.778 210.495 229.867 209.665C236.146 208.81 242.334 207.624 248.483 206.118C254.454 204.654 260.069 202.646 265.614 199.987C271.105 197.348 276.292 194.321 281.23 190.743C283.875 188.827 286.694 186.886 288.913 184.468C291.08 182.104 292.547 179.221 294.368 176.601C292.499 186.72 289.577 196.603 285.659 206.118ZM279.914 218.301C279.872 218.377 279.823 218.449 279.784 218.525C278.48 219.521 277.176 220.475 275.697 221.205C274.049 222.023 272.096 222.407 270.496 222.606C270.396 222.618 270.296 222.633 270.2 222.645C268.594 222.89 266.218 223.044 264.325 223.297C262.318 223.563 260.347 223.874 258.421 224.514C256.567 225.127 254.777 225.923 252.951 226.612C251.052 227.327 249.175 227.858 247.188 228.275C245.205 228.692 243.216 229.166 241.208 229.461C239.255 229.751 237.251 229.7 235.276 229.673C231.102 229.609 226.86 229.395 222.734 228.716C218.728 228.058 214.816 226.932 210.831 226.171C206.807 225.404 202.789 224.822 198.696 224.625C194.584 224.426 190.539 224.816 186.47 225.35C184.505 225.607 182.54 225.827 180.59 226.195C178.661 226.56 176.732 227.131 174.769 227.315C170.136 227.747 165.876 225.914 161.602 224.465C157.409 223.047 153.053 221.851 148.679 221.121C150.252 220.912 151.83 220.728 153.415 220.659C154.801 220.605 156.171 220.713 157.548 220.722C163.416 222.775 169.776 223.69 175.898 223.608C180.798 223.542 185.549 222.66 190.286 221.441C194.995 220.233 199.426 218.319 203.894 216.439C203.764 216.493 203.637 216.547 203.508 216.602C204.138 216.336 204.772 216.076 205.406 215.817C206.095 215.533 206.421 215.434 207.148 215.557C208.591 215.805 210.028 216.076 211.45 216.421C214.121 217.064 216.612 218.06 219.126 219.143C224.122 221.302 229.336 223.672 234.712 224.686C245.676 226.757 256.86 223.279 267.057 219.542C269.883 218.507 272.696 217.411 275.398 216.076C278.121 214.73 280.705 213.091 283.295 211.503C282.226 213.8 281.094 216.064 279.914 218.301ZM239.817 266.084C234.893 269.879 229.737 273.378 224.382 276.541C223.766 276.906 223.147 277.266 222.522 277.622C222.19 277.812 221.849 278.002 221.514 278.189C221.393 278.256 221.215 278.404 221.079 278.431C220.832 278.485 220.811 278.392 220.557 278.367C219.317 278.265 218.106 279.246 217.034 279.838C215.881 280.475 214.616 281.181 213.361 281.573C211.942 282.017 210.505 282.388 209.104 282.868C207.58 283.385 206.04 283.478 204.455 283.647C202.973 283.807 201.567 284.151 200.163 284.649C197.247 285.682 194.458 286.624 191.363 286.965C185.063 287.662 178.645 287.116 172.321 287.079C169.118 287.061 165.916 287.143 162.719 286.868C159.61 286.6 156.549 286.032 153.491 285.44C150.327 284.831 147.172 284.16 143.967 283.81C140.885 283.472 137.685 283.786 134.657 284.408C128.74 285.618 123.264 288.794 118.015 291.641C117.414 291.967 116.702 292.537 116.05 292.712C115.391 292.887 114.344 292.42 113.662 292.244C112.146 291.864 110.637 291.457 109.134 291.022C106.133 290.156 103.166 289.187 100.226 288.127C88.4646 283.883 77.2471 278.114 66.9473 271.023C65.6885 270.157 64.4418 269.269 63.2072 268.367C69.8211 270.688 77.3135 271.811 84.2898 270.682C91.1754 269.571 97.8075 266.25 103.769 262.746C110.082 259.036 116.306 255.232 122.742 251.733C125.722 250.112 128.798 248.546 131.952 247.287C135.191 245.998 138.506 244.978 141.863 244.057C145.141 243.157 148.47 242.581 151.854 242.282C155.471 241.962 159 241.971 162.538 242.892C165.837 243.752 169.019 245.138 171.986 246.813C175.038 248.543 177.821 250.677 180.795 252.536C186.799 256.295 193.162 259.54 199.952 261.623C203.194 262.619 206.529 263.283 209.901 263.627C213.463 263.995 217.104 264.17 220.633 263.449C227.588 262.03 233.963 258.429 240.39 255.561C243.611 254.124 246.856 252.73 250.15 251.456C253.537 250.143 256.51 248.431 259.399 246.227C260.815 245.15 262.203 244.039 263.586 242.916C256.54 251.477 248.559 259.265 239.817 266.084ZM169.843 295.468C157.068 297.159 144.084 297.207 131.294 295.619C127.732 295.176 124.191 294.566 120.674 293.85C120.931 293.712 121.19 293.573 121.444 293.434C122.452 293.259 123.461 293.105 124.487 293.017C127.397 292.761 130.319 292.791 133.193 293.355C139.004 294.499 144.733 296.271 150.722 295.873C153.639 295.68 156.376 294.919 159.229 294.361C162.13 293.796 165.07 293.552 168.023 293.467C171.123 293.376 174.223 293.392 177.32 293.458C178.461 293.482 179.611 293.5 180.759 293.512C177.145 294.288 173.511 294.961 169.843 295.468ZM194.258 289.736C191.563 290.433 188.737 290.847 185.969 291.103C183.029 291.378 180.058 291.248 177.112 291.191C174.108 291.134 171.099 291.125 168.098 291.215C165.182 291.303 162.287 291.532 159.413 292.048C156.549 292.558 153.783 293.407 150.87 293.612C145.014 294.025 139.445 292.293 133.76 291.179C131.451 290.729 129.151 290.59 126.829 290.651C129.244 289.491 131.723 288.468 134.307 287.81C136.562 287.233 138.883 286.932 141.21 286.88C143.755 286.82 146.315 287.33 148.806 287.798C153.856 288.746 158.9 289.908 164.044 290.186C169.019 290.451 174.027 290.334 179.011 290.415C184.176 290.5 189.353 290.599 194.439 289.679C194.379 289.697 194.319 289.721 194.258 289.736ZM53.0461 260.059C52.05 259.455 51.1836 258.498 50.3293 257.704C50.0335 257.43 49.7467 257.155 49.4539 256.88C49.8313 257.016 50.1935 257.176 50.5799 257.297C54.5133 258.523 58.67 259.063 62.7574 259.479C67.047 259.917 71.4211 260.222 75.7318 260.071C79.9338 259.92 84.1328 259.256 88.2201 258.299C96.3133 256.4 104.08 253.348 111.965 250.737C117.74 248.826 123.503 246.559 129.422 245.02C123.608 247.525 118.033 250.556 112.527 253.747C104.316 258.504 96.3978 264.107 87.1606 266.742C78.032 269.348 68.0431 267.343 59.6541 263.328C57.4626 262.281 55.126 261.321 53.0461 260.059ZM22.5935 212.077C26.2491 214.356 30.107 215.44 34.3574 215.941C42.6739 216.925 50.8667 214.688 58.6579 212.004C63.2917 210.407 68.0824 208.312 72.3991 206.513C76.7581 204.687 81.1232 202.882 85.4701 201.037C89.2495 199.437 93.2614 197.765 97.3819 196.355C95.2266 197.478 93.1074 198.665 90.8796 199.688C89.008 200.548 87.1092 201.336 85.3342 202.393C83.4505 203.513 81.6152 204.726 79.7617 205.894C76.1423 208.167 72.4776 210.365 68.8642 212.647C65.3474 214.869 61.4171 216.611 57.4716 217.927C53.3088 219.313 49.2094 220.426 44.8232 220.783C40.5336 221.133 36.3286 220.858 32.193 219.633C28.2053 218.452 24.0817 216.695 20.6464 214.326C19.8193 213.755 19.0314 213.148 18.2767 212.49C17.5281 211.835 16.9032 211.032 16.1848 210.356C15.1977 208.174 14.2467 205.976 13.3743 203.742C15.9463 206.948 19.0948 209.897 22.5935 212.077ZM106.061 202.981C106.293 202.951 106.529 202.924 106.764 202.897C107.353 202.83 107.941 202.77 108.53 202.716C109.825 202.598 111.126 202.507 112.424 202.45C114.906 202.344 117.387 202.435 119.865 202.562C124.626 202.803 129.543 203.114 134.083 204.693C135.11 205.049 136.127 205.448 137.105 205.919C137.126 205.928 137.153 205.937 137.172 205.949C139.42 208.427 141.754 210.848 144.274 213.025C142.288 213.402 140.235 213.483 138.219 213.511C133.845 213.559 129.595 212.566 125.311 211.76C121.055 210.96 116.765 210.268 112.451 209.846C107.546 209.363 102.631 209.146 97.7049 209.043C93.201 208.949 88.4194 208.777 84.16 209.363C83.9366 209.393 83.7102 209.426 83.4868 209.456C83.2363 209.487 82.7381 209.562 82.4 209.613C86.107 208.412 89.805 207.171 93.5149 205.955C97.1555 204.762 100.769 203.691 104.576 203.172C104.563 203.175 105.261 203.081 105.475 203.051C104.98 203.123 106.133 202.972 106.061 202.981ZM114.021 193.324C116.137 193.056 118.283 193.074 120.415 193.074C121.012 193.074 121.61 193.098 122.208 193.113C122.54 193.183 122.884 193.204 123.204 193.297C127.421 194.508 130.023 197.922 132.825 201.067C133.199 201.49 133.576 201.916 133.951 202.338C129.8 201.031 125.335 200.572 121.024 200.364C115.579 200.098 110.248 200.159 104.835 200.889C105.179 200.835 104.545 200.926 104.452 200.938C104.307 200.956 104.071 200.989 103.972 201.001C103.567 201.058 103.063 201.134 102.61 201.206C101.527 201.381 100.443 201.593 99.3712 201.846C97.2792 202.341 95.2295 203.024 93.1829 203.691C89.1891 204.998 85.1984 206.314 81.2047 207.636C83.7223 206.054 86.1976 204.319 88.8842 203.042C91.592 201.759 94.2847 200.551 96.9049 199.087C102.161 196.144 108.035 194.137 114.021 193.324ZM144.646 218.265C142.095 218.374 139.556 218.742 137.005 218.784C131.958 218.866 126.89 218.582 121.861 218.153C111.733 217.29 101.753 215.467 91.7218 213.903C86.2278 213.049 80.7277 213.145 75.2005 213.523C78.0531 212.629 81.0628 212.031 84.0181 211.636C83.4445 211.708 84.3773 211.588 84.3894 211.588C84.8422 211.527 85.3011 211.467 85.7569 211.413C86.9191 211.271 88.0813 211.177 89.2495 211.156C91.5015 211.114 93.7564 211.195 96.0084 211.253C100.437 211.361 104.844 211.479 109.26 211.82C113.607 212.155 117.939 212.708 122.229 213.471C124.448 213.864 126.657 214.289 128.87 214.697C131.013 215.086 133.16 215.597 135.342 215.714C137.516 215.835 139.728 215.793 141.896 215.624C142.94 215.539 143.982 215.421 145.011 215.21C145.431 215.123 146.034 215.053 146.602 214.917C147.885 215.889 149.234 216.771 150.635 217.577C150.019 217.655 148.993 217.8 148.214 217.909C147.025 218.075 145.844 218.214 144.646 218.265ZM18.7356 215.699C20.586 217.009 22.5905 218.117 24.6311 219.071C28.4467 220.858 32.4345 222.352 36.6305 222.908C40.9442 223.481 45.4149 223.189 49.6833 222.425C51.8055 222.044 53.8461 221.45 55.9018 220.801C56.8527 220.499 57.87 220.004 58.8451 219.826C59.3401 219.735 59.7205 219.844 60.2549 219.678C60.7922 219.515 61.3205 219.309 61.8457 219.122C65.8515 217.71 70.0777 216.236 74.325 215.847C78.6931 215.452 83.1065 215.316 87.4836 215.675C91.8396 216.034 96.1412 216.961 100.464 217.598C109.137 218.869 117.746 220.224 126.509 220.734C128.665 220.858 130.82 220.988 132.978 221.018C128.339 221.251 123.774 220.463 119.153 220.451C114.592 220.439 110.148 220.87 105.72 221.966C103.582 222.497 101.481 223.098 99.3108 223.484C97.1283 223.877 94.9157 224.13 92.7271 224.502C88.2111 225.274 83.7736 226.518 79.3482 227.692C74.9378 228.861 70.5184 230.162 65.9723 230.687C61.5287 231.2 56.9976 231.182 52.53 231.085C48.0442 230.986 43.5161 230.678 39.1148 229.76C34.789 228.861 30.8134 226.926 26.9676 224.81C25.1684 223.822 23.4296 222.775 22.0259 221.248C21.7331 220.931 21.383 220.408 20.9905 220.001C20.2147 218.582 19.4631 217.145 18.7356 215.699ZM159.501 228.426C157.062 228.163 154.227 227.898 152.039 227.563C151.939 227.548 151.839 227.532 151.74 227.52C152.386 227.602 151.296 227.451 151.281 227.451C151.061 227.418 150.84 227.385 150.62 227.351C150.067 227.267 149.512 227.182 148.963 227.104C147.8 226.935 146.638 226.79 145.47 226.675C143.103 226.443 140.737 226.237 138.364 226.102C133.634 225.833 128.873 225.549 124.134 225.501C119.494 225.453 114.625 225.413 110.091 226.512C105.674 227.581 101.696 229.64 97.6174 231.553C93.2855 233.579 88.8299 235.438 84.2294 236.752C79.9006 237.989 75.4087 238.961 70.9592 239.653C66.2651 240.383 61.6646 240.797 56.9131 240.631C52.3368 240.468 47.857 239.77 43.4738 238.436C39.0877 237.099 34.6743 235.74 30.8798 233.084C29.1531 231.876 27.4717 230.4 26.2491 228.674C26.0378 228.375 25.7963 228.015 25.5095 227.744C25.1261 227.131 24.7488 226.512 24.3715 225.893C25.6725 226.681 27.0098 227.412 28.3561 228.097C32.1748 230.038 36.0841 231.596 40.3374 232.269C44.8444 232.984 49.3724 233.31 53.9307 233.362C58.3621 233.413 62.8539 233.404 67.2492 232.767C71.8044 232.109 76.2057 230.853 80.6432 229.676C85.0898 228.498 89.5393 227.306 94.0795 226.548C96.2892 226.18 98.526 225.954 100.724 225.507C102.933 225.057 105.089 224.42 107.28 223.907C111.648 222.884 116.176 222.549 120.662 222.727C125.323 222.914 129.878 223.548 134.557 223.167C135.581 223.083 136.601 222.977 137.618 222.869C138.131 222.814 138.566 222.751 139.046 222.841C139.538 222.932 140.015 222.932 140.525 222.932C142.826 222.923 145.171 222.878 147.459 223.186C151.891 223.78 156.373 225.087 160.606 226.497C162.707 227.197 164.762 228.067 166.897 228.671C164.436 228.689 161.952 228.692 159.501 228.426ZM186.968 232.716C190.566 233.845 194.101 235.152 197.672 236.356C201.25 237.564 204.893 238.469 208.6 239.176C215.923 240.573 223.196 242.318 230.718 241.533C234.455 241.144 237.945 240.181 241.462 238.883C244.951 237.597 248.417 236.284 252.042 235.429C255.761 234.554 259.559 234.708 263.299 234.032C264.959 233.73 266.668 233.422 268.217 232.719C269.412 232.178 270.493 231.439 271.555 230.669C271.105 231.04 270.653 231.424 270.197 231.75C269.074 232.553 267.945 233.346 266.758 234.059C264.337 235.511 262.11 237.295 259.622 238.614C257.138 239.93 254.484 241.047 251.789 241.871C248.984 242.726 246.228 242.816 243.333 242.523C240.393 242.228 237.598 242.022 234.642 242.297C228.678 242.843 222.83 244.92 216.823 244.854C211.078 244.79 205.234 244.492 199.574 243.447C193.839 242.391 188.369 240.123 182.688 238.831C176.973 237.53 171.069 236.13 165.194 235.931C162.302 235.834 159.359 235.843 156.479 236.106C153.536 236.374 150.665 237.072 147.752 237.527C144.76 237.995 141.814 237.775 138.802 237.838C138.168 237.85 137.603 237.935 136.951 237.893C136.199 237.844 135.448 237.79 134.699 237.742C133.244 237.648 131.786 237.573 130.328 237.567C127.352 237.561 124.348 237.573 121.39 237.941C118.446 238.306 115.57 239.049 112.681 239.686C109.934 240.293 107.214 240.963 104.518 241.778C101.753 242.614 99.0542 243.649 96.2801 244.461C85.2044 247.7 73.7243 250.955 62.0751 250.429C59.1832 250.3 56.3064 249.955 53.4356 249.596C61.0005 249.72 68.2906 248.162 75.5718 246.273C79.2938 245.307 83.025 244.392 86.6836 243.209C90.2578 242.049 93.8017 240.803 97.388 239.686C104.639 237.419 111.995 235.541 119.585 234.898C127.161 234.255 134.766 233.983 142.367 233.953C146.222 233.935 150.085 234.035 153.934 233.905C157.819 233.772 161.557 233.187 165.324 232.239C168.946 231.327 172.62 230.536 176.369 230.412C180.046 230.292 183.503 231.629 186.968 232.716ZM182.467 248.171C185.815 249.487 189.087 250.81 192.586 251.67C195.952 252.494 199.321 253.385 202.729 254.022C206.324 254.695 209.98 255.22 213.632 255.413C217.191 255.597 220.654 255.247 224.152 254.598C231.219 253.285 238.108 251.22 245.129 249.708C245.757 249.572 246.385 249.427 247.013 249.282C246.059 249.66 245.105 250.037 244.163 250.438C239.503 252.434 234.926 254.607 230.299 256.672C226.163 258.516 221.725 260.43 217.146 260.684C207.655 261.206 198.445 258.278 190.038 254.124C185.172 251.721 180.762 248.546 176.173 245.699C178.295 246.484 180.39 247.353 182.467 248.171ZM155.432 238.856C155.006 238.792 154.577 238.735 154.149 238.668C157.05 238.182 160.002 238.164 162.939 238.152C165.937 238.146 168.868 238.421 171.826 238.931C177.689 239.942 183.472 241.259 189.175 242.958C191.988 243.794 194.817 244.712 197.678 245.355C200.573 246.004 203.559 246.251 206.502 246.571C209.433 246.888 212.358 247.045 215.308 247.085C218.293 247.124 221.098 246.864 224.038 246.333C229.644 245.319 235.331 243.876 241.066 244.531C243.952 244.857 246.793 245.177 249.679 244.67C252.474 244.178 255.149 243.136 257.739 242.01C260.292 240.905 262.511 239.484 264.802 237.938C264.03 238.515 263.254 239.088 262.502 239.689C262.04 240.063 261.563 240.419 261.098 240.794C260.899 240.899 260.697 240.999 260.498 241.105C258.964 241.892 257.455 242.729 255.912 243.498C252.721 245.095 249.546 246.424 246.056 247.211C239.201 248.763 232.415 250.58 225.541 252.029C222.085 252.757 218.637 253.297 215.096 253.21C211.398 253.122 207.713 252.624 204.075 251.975C200.619 251.356 197.217 250.484 193.808 249.654C190.274 248.79 186.962 247.559 183.59 246.206C180.354 244.911 177.07 243.568 173.752 242.496C172.092 241.956 170.365 241.618 168.648 241.322C168.18 241.24 167.712 241.165 167.244 241.089C166.728 240.884 166.224 240.658 165.698 240.48C162.372 239.348 158.918 238.871 155.432 238.856ZM44.1259 251.573C44.0414 251.507 43.9599 251.435 43.8723 251.368C43.6339 251.118 43.3893 250.873 43.1538 250.623C42.6739 250.112 42.2241 249.578 41.7532 249.062C47.377 251.58 53.8854 252.023 59.9439 252.564C65.5406 253.077 71.2369 252.594 76.7521 251.598C82.2129 250.61 87.6225 249.346 92.9475 247.776C98.36 246.179 103.679 244.229 109.146 242.822C114.332 241.488 119.663 240.142 125.024 239.897C131.228 239.619 137.395 240.268 143.589 240.323C143.266 240.395 142.943 240.474 142.617 240.549C142.282 240.594 141.802 240.652 141.506 240.694C141.721 240.664 141.53 240.691 141.446 240.703C141.488 240.697 141.527 240.691 141.57 240.685C141.678 240.67 141.186 240.739 141.38 240.712C141.334 240.718 141.117 240.745 141.223 240.733C140.993 240.763 140.169 240.878 140.196 240.872C140.1 240.887 140 240.899 139.9 240.914C140.257 240.857 139.306 240.987 139.185 241.002C138.796 241.05 138.403 241.099 138.011 241.147C137.168 241.253 136.329 241.358 135.49 241.482C133.887 241.717 132.305 242.028 130.739 242.427C127.59 243.224 124.541 244.202 121.447 245.18C115.271 247.142 109.164 249.309 103.024 251.389C96.6665 253.545 90.3875 255.778 83.7494 256.926C77.3286 258.036 70.9622 257.913 64.4871 257.384C57.6195 256.823 49.6653 255.969 44.1259 251.573ZM34.9672 241.123C34.8162 240.878 34.6562 240.649 34.4419 240.48C34.2729 240.265 34.0887 240.057 33.9166 239.84C32.8873 238.499 31.879 237.141 30.8889 235.764C31.9666 236.435 33.0714 237.05 34.2155 237.564C38.1791 239.342 42.532 240.73 46.7733 241.66C55.8445 243.649 65.0576 243.034 74.1167 241.373C78.7293 240.528 83.4597 239.52 87.8911 237.974C92.1837 236.477 96.425 234.675 100.497 232.652C104.53 230.648 108.762 228.788 113.272 228.218C117.876 227.638 122.591 227.659 127.222 227.828C131.843 227.994 136.486 228.172 141.096 228.538C145.678 228.9 150.191 229.627 154.755 230.141C157.02 230.394 159.277 230.711 161.554 230.829C157.261 231.753 152.845 231.692 148.48 231.692C144.193 231.692 139.906 231.662 135.623 231.771C127.128 231.991 118.434 232.281 110.094 233.974C101.834 235.653 93.8862 238.475 85.8957 241.095C81.905 242.406 77.7995 243.372 73.7364 244.425C69.5524 245.506 65.3927 246.457 61.0971 246.967C57.043 247.447 52.8862 247.528 48.8169 247.139C46.7461 246.94 44.7296 246.502 42.7464 245.886C40.9442 245.328 38.9337 244.709 37.3972 243.589C36.9172 243.239 36.4342 242.813 35.9905 242.372C35.6524 241.956 35.3022 241.545 34.9672 241.123ZM273.505 229.307C273.466 229.326 273.424 229.313 273.388 229.335C273.219 229.431 273.065 229.573 272.899 229.685C273.155 229.489 273.403 229.283 273.656 229.081C273.608 229.157 273.557 229.232 273.505 229.307ZM276.944 223.572C276.923 223.587 276.901 223.587 276.883 223.602C276.249 224.076 275.649 224.653 275.015 225.145C272.464 227.113 269.995 229.567 266.973 230.808C263.643 232.175 259.873 232.106 256.356 232.444C252.809 232.782 249.331 233.712 245.966 234.853C242.582 236 239.306 237.458 235.847 238.358C232.445 239.239 229.007 239.523 225.502 239.423C221.961 239.32 218.459 238.934 214.991 238.204C211.344 237.434 207.646 236.812 204.036 235.888C196.085 233.851 188.553 230.388 180.556 228.495C186.008 227.403 191.798 226.672 197.371 226.82C203.025 226.971 208.621 227.892 214.127 229.153C216.802 229.769 219.467 230.449 222.184 230.898C224.946 231.354 227.727 231.565 230.519 231.738C233.29 231.907 236.085 232.021 238.86 231.904C241.634 231.786 244.32 231.17 247.028 230.605C250.032 229.984 252.83 229.096 255.677 227.952C258.523 226.811 261.563 225.899 264.404 225.543C264.504 225.528 264.603 225.516 264.706 225.504C268.247 224.964 272.491 225.127 275.978 223.56C276.47 223.34 276.907 223.059 277.366 222.805C277.224 223.059 277.079 223.312 276.944 223.572ZM9.28397 191.866C9.12398 191.528 9.05762 191.106 8.95498 190.746C8.71952 189.944 8.49311 189.141 8.26973 188.332C7.80787 186.629 7.37921 184.917 6.98376 183.2C10.9202 188.6 17.1447 191.836 23.3723 193.814C26.6838 194.867 30.1222 195.561 33.5574 196.029C36.9746 196.497 40.4431 196.79 43.8844 196.422C50.6131 195.694 57.1607 193.442 63.4818 191.118C70.1773 188.655 76.7098 185.769 83.4475 183.426C90.3755 181.014 97.3638 178.801 104.467 176.957C107.905 176.067 111.34 175.119 114.809 174.358C118.139 173.63 121.689 173.241 125.051 173.981C128.532 174.744 131.732 176.091 134.901 177.688C137.999 179.245 141.02 180.897 143.958 182.735C149.898 186.463 155.54 190.665 161.255 194.728C164.189 196.817 167.205 198.764 170.229 200.72C173.112 202.583 176.019 204.391 179.128 205.858C182.301 207.355 185.595 208.593 188.982 209.511C192.326 210.419 195.707 210.733 199.13 211.171C200.836 211.391 202.478 211.95 204.117 212.448C203.809 212.741 203.773 212.955 203.414 213.182C203.142 213.351 202.786 213.447 202.49 213.571C201.772 213.873 201.056 214.175 200.338 214.48C192.441 217.788 183.856 220.592 175.186 220.387C166.67 220.185 157.928 218.549 150.656 213.876C147.061 211.564 144.081 208.521 141.165 205.42C138.125 202.19 135.239 198.822 132.218 195.576C129.29 192.434 125.969 190.267 121.643 189.684C117.351 189.11 112.804 189.563 108.545 190.233C98.686 191.788 89.5001 195.872 80.3715 199.733C80.5013 199.679 80.6281 199.624 80.7579 199.57C69.4438 204.27 58.1236 209.867 46.0246 212.243C40.4491 213.336 34.3181 213.357 28.8844 211.57C23.5353 209.813 19.0223 205.65 15.5448 201.345C13.4256 198.713 11.7774 195.673 9.94505 192.839C9.73676 192.516 9.44397 192.205 9.28397 191.866ZM6.05397 175.082C5.85172 174.793 5.43517 174.732 5.25405 174.5C5.11519 174.322 5.1061 173.685 5.07289 173.467C4.8163 171.901 4.5899 170.331 4.39066 168.755C4.45707 168.84 4.52648 168.93 4.58987 169.012C5.57699 170.283 6.64259 171.499 7.75649 172.661C12.0068 177.093 17.7001 180.302 23.3964 182.475C29.4157 184.769 35.9029 185.723 42.3207 185.923C45.6443 186.025 48.9649 186.025 52.2643 185.578C55.5366 185.138 58.8028 184.558 62.0298 183.873C68.3721 182.521 74.5394 180.42 80.8334 178.862C83.8641 178.11 86.8859 177.111 89.977 176.634C92.8116 176.196 95.7639 175.291 98.6106 174.618C101.352 173.975 104.065 173.437 106.837 173.027C106.507 173.114 106.178 173.205 105.849 173.289C98.0098 175.324 90.291 177.654 82.6446 180.323C75.1039 182.958 67.7926 186.191 60.2669 188.872C53.1488 191.405 45.8284 193.678 38.2002 193.294C34.3211 193.098 30.3998 192.38 26.6415 191.426C22.9165 190.478 19.2125 189.119 15.9855 187.009C14.5667 186.083 13.2596 185.083 11.9827 183.985C9.936 181.911 8.2063 179.62 6.87505 177.011C6.57016 176.408 6.44339 175.632 6.05397 175.082ZM11.7925 147.295C15.8436 150.13 20.6494 151.805 25.5095 152.56C30.6957 153.366 36.0327 153.468 41.2641 153.84C46.5408 154.217 51.9111 154.434 57.1969 154.157C60.8193 153.964 64.4116 153.508 67.9978 153.01C67.699 153.079 67.4001 153.164 67.1013 153.236C62.549 154.284 57.9697 155.265 53.3933 156.194C48.8562 157.112 44.31 157.924 39.6853 158.226C37.4183 158.371 35.1332 158.314 32.8631 158.268C30.59 158.223 28.2837 158.12 26.0378 157.731C22.3218 157.085 18.7929 155.69 15.5478 153.779C13.5071 152.575 11.696 151.093 9.99944 149.442C8.21237 147.703 6.47658 145.879 5.13325 143.766C4.45404 142.695 3.91974 141.572 3.62994 140.331C3.60277 140.225 3.59375 140.084 3.58167 139.96C3.66318 138.716 3.73559 137.472 3.84728 136.235C5.4472 140.561 7.95576 144.609 11.7925 147.295ZM5.48944 124.109C5.74603 122.684 6.02375 121.259 6.32261 119.84C6.92937 116.942 7.62068 114.065 8.39649 111.207C10.7933 102.389 14.0536 93.8129 18.0866 85.6141C19.1009 89.9338 22.2191 93.7706 25.6514 96.4995C29.2678 99.3764 33.5997 101.71 37.8621 103.47C42.1849 105.257 46.5801 106.95 51.1021 108.149C55.8445 109.404 60.6624 110.355 65.4833 111.261C74.965 113.042 84.5766 114.572 94.2062 115.209C103.754 115.84 113.336 115.804 122.842 114.714C127.741 114.153 132.586 113.344 137.401 112.278C142.213 111.21 147.043 110.162 151.915 109.395C161.454 107.889 171.21 106.54 180.894 106.896C190.286 107.24 199.384 109.332 207.981 113.157C212.431 115.14 216.627 117.519 220.859 119.916C225.125 122.328 229.477 124.561 233.809 126.847C235.904 127.954 237.969 129.153 240.124 130.14C242.295 131.136 244.541 131.839 246.868 132.353C251.574 133.391 256.643 133.947 261.461 133.953C266.17 133.956 270.713 132.395 275.009 130.611C277.221 129.693 279.41 128.709 281.608 127.755C283.76 126.819 285.964 125.986 288.077 124.963C290.169 123.952 292.076 122.593 293.954 121.229C295.137 127.167 295.949 133.168 296.381 139.208C296.49 140.745 296.574 142.281 296.638 143.818C296.668 144.587 296.692 145.357 296.713 146.127C296.731 146.824 296.93 147.667 296.463 148.18C295.566 149.158 294.238 149.937 293.181 150.737C291.974 151.654 290.763 152.569 289.547 153.472C284.835 156.97 279.983 160.384 274.942 163.4C269.829 166.464 264.316 168.68 258.813 170.941C253.301 173.205 247.704 175.339 241.933 176.857C239.068 177.612 236.218 178.249 233.266 178.515C230.289 178.786 227.295 178.644 224.322 178.436C218.52 178.035 212.832 176.818 207.453 174.584C202.056 172.345 196.936 169.389 191.867 166.503C186.724 163.572 181.942 160.082 176.895 157.003C171.793 153.894 166.35 151.44 160.82 149.2C155.471 147.036 149.862 145.083 144.136 144.183C138.524 143.301 132.897 143.35 127.231 143.564C121.16 143.797 115.075 144.156 109.016 144.636C103.036 145.107 97.1072 146.015 91.1543 146.764C85.0505 147.525 78.9406 148.27 72.8459 149.109C66.8205 149.937 60.8163 150.9 54.7215 150.999C48.6479 151.099 42.6256 150.688 36.5731 150.278C30.6323 149.876 24.7186 149.692 19.0797 147.558C13.8452 145.578 9.77303 141.946 7.4939 136.811C6.35585 134.239 5.49246 131.29 5.41397 128.465C5.39586 127.797 5.55586 127.034 5.42304 126.379C5.34757 126.007 5.22386 125.865 5.25102 125.482C5.28423 125.026 5.41095 124.555 5.48944 124.109ZM24.8092 82.7311C26.1917 84.2616 27.5623 85.8555 29.0958 87.235C32.2956 90.1148 36.2652 92.0922 40.4763 92.9465C44.8142 93.831 49.1219 94.3321 53.5413 94.5495C58.2595 94.7849 62.9777 94.9298 67.6929 95.2166C77.223 95.7962 86.7379 96.0407 96.2861 96.1222C99.5101 96.1494 102.737 96.1704 105.967 96.1583C101.05 97.4473 96.1291 98.7032 91.1694 99.8201C88.0933 100.514 84.9901 101.112 81.8869 101.667C78.8078 102.223 75.7317 102.751 72.5983 102.845C66.5669 103.026 60.3877 102.591 54.5012 101.23C48.5724 99.8624 42.5471 98.2775 37.1195 95.4762C34.3966 94.0664 31.722 92.5269 29.141 90.8666C26.7804 89.3482 24.4862 87.6486 22.6991 85.4661C21.7965 84.3673 21.0449 83.1357 20.3898 81.8738C20.3234 81.7501 20.26 81.6233 20.1936 81.5025C20.8909 80.1954 21.6003 78.8943 22.3308 77.6054C22.6327 79.6702 23.4206 81.1976 24.8092 82.7311ZM25.4552 72.371C25.7571 71.8819 26.068 71.396 26.3759 70.91C27.0582 69.8444 27.7494 68.7847 28.4588 67.7372C29.7478 65.8264 31.076 63.9458 32.4525 62.1013C34.4056 59.4871 36.4584 56.9544 38.5926 54.4851C38.7194 54.3402 38.8643 54.0565 39.0394 53.975C39.2869 53.8573 39.2235 53.984 39.5103 54.0142C39.8424 54.0534 40.108 54.1169 40.4551 54.0686C41.3094 53.9448 42.1577 53.6791 43.0029 53.5191C44.5968 53.2142 46.2571 53.1539 47.8721 53.2837C54.785 53.8512 61.4985 56.3115 67.9887 58.6027C71.5961 59.8766 75.4389 61.3617 78.7776 62.8016C85.301 65.5637 91.7611 68.7243 98.2543 71.6736C105.212 74.8342 112.466 77.2582 119.729 79.6098C126.866 81.9221 134.104 84.0201 141.515 85.2578C148.851 86.4804 156.307 86.6555 163.676 85.6714C171.062 84.6873 178.057 81.9464 185.314 80.3495C192.631 78.7375 200.133 78.2062 207.61 78.6771C215.196 79.1571 222.655 80.129 229.788 82.8428C233.281 84.1711 236.713 85.7831 240.007 87.546C243.167 89.2395 246.111 91.3073 249.25 93.037C255.722 96.5991 262.985 98.2775 270.336 98.7213C273.946 98.9416 277.514 98.7937 281.055 98.0089C281.915 97.8187 282.77 97.6044 283.627 97.3991C284.496 97.1848 285.484 96.7621 286.377 96.7139C286.7 96.6927 286.61 96.59 286.821 96.7923C286.96 96.9281 286.999 97.2571 287.071 97.4473C287.237 97.882 287.4 98.3167 287.566 98.7544C287.911 99.6842 288.246 100.617 288.575 101.553C289.187 103.316 289.77 105.088 290.323 106.872C289.36 106.848 288.243 107.871 287.425 108.309C286.329 108.894 285.233 109.486 284.122 110.038C281.937 111.128 279.676 111.943 277.345 112.668C272.826 114.071 268.06 115.188 263.323 115.451C258.686 115.704 253.875 114.944 249.47 113.504C247.261 112.779 245.093 111.925 242.887 111.198C240.65 110.461 238.389 109.806 236.155 109.057C227.099 106.017 218.565 101.674 209.539 98.5493C204.987 96.9735 200.383 95.4761 195.659 94.5041C190.874 93.52 186.002 92.9736 181.142 92.4967C176.282 92.0227 171.428 91.5457 166.546 91.4159C161.689 91.2861 156.826 91.3224 151.966 91.3134C142.083 91.3013 132.239 91.4642 122.377 92.1767C117.725 92.5117 113.055 92.9163 108.388 92.9344C103.48 92.9586 98.5713 92.9223 93.6629 92.88C83.8007 92.8046 73.993 92.2733 64.1459 91.7933C59.3643 91.5608 54.5706 91.4642 49.795 91.108C47.4464 90.936 45.1493 90.5677 42.8339 90.1361C40.5306 89.7014 38.2968 89.173 36.1716 88.1467C34.2789 87.226 32.4706 86.0095 30.9311 84.5636C30.2096 83.8874 29.5576 83.1296 28.8844 82.4051C28.0633 81.5176 27.1366 80.6603 26.4091 79.6943C25.7661 78.84 25.5669 77.7382 25.428 76.6997C25.3586 76.1896 25.3284 75.6704 25.25 75.1633C25.2198 74.952 25.1956 74.7497 25.1141 74.5535C25.0386 74.3693 24.5617 73.9437 24.5496 73.838C24.5194 73.5331 25.3073 72.6095 25.4552 72.371ZM49.8192 42.8118C50.2267 42.7907 50.6523 42.6518 51.0146 42.5854C51.7089 42.4526 52.4062 42.3529 53.1036 42.2473C54.5103 42.033 55.9169 41.8398 57.3357 41.7069C59.9439 41.4594 62.6728 41.1967 65.2931 41.3688C67.8861 41.5409 70.4853 42.2986 73.0089 42.8842C75.6261 43.4879 78.2252 44.1642 80.7911 44.9641C86.0799 46.6214 91.2449 48.6318 96.4521 50.5185C101.502 52.3448 106.456 54.5213 111.582 56.1212C114.054 56.891 116.632 57.1718 119.092 57.8359C119.681 57.9929 120.378 57.9415 120.982 58.02C121.686 58.1106 122.383 58.2283 123.083 58.3369C124.481 58.5573 125.888 58.7113 127.297 58.8502C132.616 59.3724 137.95 59.5445 143.281 59.8796C145.926 60.0456 148.558 60.118 151.208 60.0033C152.491 59.952 153.768 59.8584 155.045 59.6984C156.286 59.5415 157.545 59.5083 158.761 59.2275C163.694 58.0744 168.732 57.5371 173.782 57.2503C179.141 56.9484 184.508 56.876 189.869 56.6918C195.279 56.5047 200.77 56.396 206.167 56.9061C211.462 57.4042 216.711 58.9196 221.831 60.2901C227.192 61.724 232.572 62.9104 238.029 63.9246C240.692 64.4197 243.367 64.8513 246.011 65.443C248.571 66.0135 251.058 66.8165 253.594 67.4656C256.087 68.1025 258.668 68.4467 261.213 68.8029C263.897 69.1803 266.635 69.2556 269.324 68.8753C270.034 68.7726 271.096 68.6519 271.887 68.3078C273.216 70.285 274.489 72.2895 275.718 74.3271C274.142 73.8139 272.31 73.2977 270.683 72.863C263.399 70.9189 256.169 68.7999 248.794 67.206C241.226 65.5729 233.77 63.6922 226.027 63.0795C218.227 62.4636 210.387 62.201 202.569 62.5149C194.82 62.8259 187.101 63.3541 179.37 63.8975C171.727 64.4318 164.129 65.4099 156.476 65.8476C148.854 66.2853 141.292 65.7841 133.769 64.5163C126.153 63.2273 118.531 61.718 111.132 59.457C107.473 58.3371 103.827 57.1235 100.222 55.8225C96.6212 54.5214 93.1316 52.9366 89.5152 51.6597C85.9652 50.4039 82.3488 49.2567 78.6599 48.4748C74.9258 47.6839 71.1101 47.3639 67.3035 47.2371C63.4969 47.1134 59.6934 47.2131 55.8959 47.373C53.9307 47.4576 51.9715 47.5482 50.0124 47.672C48.2374 47.7806 46.4442 47.9647 44.6632 47.8953C46.3446 46.1625 48.0593 44.4631 49.8192 42.8118ZM63.02 33.4025C64.1822 33.2546 65.3504 33.1278 66.5247 33.0826C68.6499 33.001 70.5879 33.4086 72.5983 34.0757C76.6041 35.4009 80.2688 37.3842 83.9788 39.3584C87.6556 41.3145 91.4109 43.1681 95.3654 44.4963C99.2807 45.8124 103.244 47.0018 107.232 48.0704C114.305 49.9661 122.024 51.5086 129.383 51.0347C138.068 50.4732 146.01 47.0501 154.185 44.3785C162.106 41.7885 170.857 40.0315 179.21 40.9039C182.715 41.2722 186.198 42.1115 189.612 43.0443C189.28 43.0262 188.951 42.9899 188.616 42.9809C186.597 42.9084 184.574 42.9658 182.552 42.9749C178.286 43.002 174.069 43.7234 169.882 44.4932C161.472 46.0327 153.267 48.327 145.307 51.4574C143.1 52.3238 140.903 53.1901 138.66 53.9508C137.606 54.31 136.556 54.6723 135.49 54.9863C134.512 55.2761 133.027 55.6594 132.348 55.7741C129.688 56.239 127.047 56.2088 124.363 55.9884C121.498 55.756 118.609 55.4662 115.79 54.8987C109.97 53.7305 104.497 51.0528 98.9426 49.0333C93.2433 46.9595 87.5771 44.777 81.7963 42.9325C78.9678 42.033 76.1091 41.2843 73.2172 40.6201C70.4007 39.9742 67.545 39.1864 64.6441 39.0807C61.5378 38.9691 58.2957 39.2679 55.2167 39.6845C54.4318 39.7901 53.6499 39.926 52.8651 40.0437C55.2438 37.9306 57.6739 35.8687 60.1824 33.9096C60.7741 33.4568 62.2623 33.4991 63.02 33.4025ZM75.4208 23.5705C84.2234 18.3421 93.5934 14.0768 103.299 10.8196C115.419 6.75641 128.037 4.28409 140.8 3.51129C154.417 2.68417 168.116 3.69235 181.444 6.60843C194.252 9.40979 206.629 13.9288 218.224 20.0417C229.831 26.1606 240.574 33.795 250.156 42.7605C251.342 43.8684 252.507 44.9974 253.657 46.1445C247.436 47.4606 241.365 49.2839 234.953 49.4348C231.757 49.5073 228.539 49.2235 225.366 48.8401C222.187 48.4597 218.987 48.013 215.854 47.3338C212.69 46.6486 209.608 45.6131 206.526 44.632C203.492 43.666 200.447 42.7605 197.386 41.9002C191.137 40.1463 184.888 38.1509 178.386 37.6046C172.143 37.0823 165.831 38.1388 159.748 39.461C153.43 40.8345 147.423 43.4125 141.28 45.3807C135.146 47.3458 129.018 48.2425 122.582 47.6599C116.629 47.1195 110.779 45.761 105.037 44.1219C101.91 43.2284 98.7977 42.2804 95.7247 41.2118C92.7241 40.1674 89.8744 38.7969 87.0549 37.3358C81.585 34.5073 76.1513 31.2592 70.0233 30.0547C68.5804 29.7679 67.0982 29.8073 65.6372 29.9189C68.8189 27.6851 72.0791 25.5568 75.4208 23.5705ZM254.512 49.2477C254.913 49.1571 255.321 49.0816 255.722 48.97C256.033 48.8824 256.102 48.8039 256.356 48.9276C256.555 49.0242 256.782 49.3745 256.933 49.5345C257.624 50.271 258.309 51.0106 258.985 51.7562C259.831 52.689 260.64 53.655 261.461 54.6059C260.951 54.6813 260.44 54.7689 259.927 54.8172C256.308 55.1674 252.637 55.2127 249.002 55.3002C242.053 55.4663 235.337 54.5425 228.463 53.6913C224.738 53.2324 221.01 52.8128 217.309 52.1819C213.699 51.5631 210.115 50.7329 206.478 50.2771C202.901 49.8303 199.227 49.951 195.635 50.1653C191.886 50.3857 188.151 50.8022 184.435 51.3305C177.221 52.3599 170.244 54.5152 163.108 55.9914C159.676 56.7038 156.201 57.4464 152.697 57.6819C148.963 57.9324 145.247 57.7604 141.521 57.5249C139.644 57.4072 137.766 57.2985 135.889 57.217C142.035 55.4269 147.834 52.6708 153.943 50.7841C156.953 49.8513 159.951 48.9096 163.018 48.1761C164.56 47.8108 166.109 47.4938 167.666 47.1919C168.466 47.0379 169.263 46.8871 170.06 46.7361C170.501 46.6516 170.945 46.5671 171.385 46.4856C171.497 46.4644 172.659 46.2681 172.176 46.3436C172.24 46.3346 172.3 46.3226 172.364 46.3136C179.95 44.7951 187.647 45.0668 195.303 45.7853C195.411 45.7943 195.909 45.8456 195.912 45.8456C196.193 45.8757 196.477 45.9121 196.758 45.9483C197.374 46.0268 197.989 46.1173 198.602 46.2139C199.81 46.4041 201.02 46.6002 202.228 46.8025C202.726 46.89 203.218 47.0078 203.713 47.1135C203.897 47.1708 204.081 47.2191 204.265 47.2765C208.334 48.5383 212.346 49.9238 216.536 50.7328C220.69 51.5328 224.937 52.0943 229.151 52.4475C233.507 52.8128 237.794 52.6589 242.108 51.9676C246.289 51.2944 250.379 50.1714 254.512 49.2477ZM270.544 66.2912C270.441 66.3305 270.336 66.3788 270.236 66.409C269.572 66.6022 268.893 66.6807 268.21 66.7501C266.816 66.889 265.406 66.9071 264.005 66.8377C261.434 66.7109 258.825 66.2128 256.29 65.7569C253.781 65.3041 251.375 64.4469 248.903 63.822C243.581 62.4757 238.129 61.6817 232.75 60.6161C227.536 59.5868 222.453 58.0743 217.306 56.7944C212.044 55.4843 206.858 54.5576 201.434 54.3915C196.148 54.2315 190.874 54.4096 185.592 54.5636C182.944 54.639 180.3 54.7418 177.655 54.8414C181.172 53.9479 184.813 53.501 188.411 53.0602C192.127 52.6074 195.873 52.3358 199.613 52.2664C203.332 52.1999 206.891 52.5441 210.547 53.2143C214.118 53.8693 217.668 54.5575 221.264 55.0405C224.919 55.5326 228.581 55.9491 232.234 56.4623C235.445 56.9121 238.691 57.3016 241.936 57.4707C249.011 57.8359 256.172 57.4706 263.196 56.6072C265.793 59.7225 268.229 62.9616 270.544 66.2912ZM282.142 94.4256C280.705 94.5494 279.265 94.5946 277.822 94.5735C275.797 94.5433 273.777 94.5494 271.757 94.3562C267.519 93.9517 263.423 93.1819 259.405 91.7541C255.592 90.4017 252.051 88.5814 248.613 86.4592C245.099 84.2918 241.278 82.4957 237.562 80.7026C235.454 79.6883 233.372 78.6136 231.195 77.7563C228.979 76.8809 226.755 76.0357 224.524 75.2116C232.665 76.8055 240.77 78.511 248.773 80.7116C252.749 81.8014 256.718 82.8882 260.655 84.1107C264.516 85.3092 268.322 86.8396 272.274 87.7361C274.29 88.192 276.385 88.3702 278.45 88.349C279.425 88.337 280.403 88.2795 281.372 88.1708C281.813 88.1225 282.465 88.1014 283.05 87.9807C283.087 88.0592 283.129 88.1406 283.168 88.2221C283.995 90.0001 284.795 91.7933 285.544 93.6045C284.403 93.8339 283.274 94.1298 282.142 94.4256ZM181.737 77.9706C181.393 77.8317 180.967 77.8469 180.565 77.9193C179.666 78.0823 178.772 78.2725 177.873 78.4415C176.119 78.7706 174.398 78.8703 172.617 78.8733C168.747 78.8763 164.895 78.6439 161.065 78.1367C153.536 77.1405 146.037 75.77 138.614 74.1972C135.031 73.4365 131.511 72.4253 128.016 71.3386C124.499 70.2488 121.193 68.8209 117.837 67.3176C116.201 66.584 114.564 65.8535 112.94 65.0959C118.791 67.0188 124.602 68.7787 130.618 70.113C136.628 71.4442 142.762 72.1264 148.902 72.5098C155.106 72.8992 161.342 72.6125 167.546 72.3891C173.882 72.1657 180.209 71.8155 186.545 71.58C189.703 71.4623 192.87 71.4291 196.027 71.58C196.794 71.6193 197.564 71.6645 198.333 71.7189C198.684 71.743 199.049 71.7401 199.399 71.7974C199.761 71.8548 199.903 72.0058 200.238 72.1356C200.8 72.3559 201.597 72.2744 202.197 72.2955C202.904 72.3227 203.607 72.3167 204.314 72.3378C207.287 72.4404 210.221 73.2856 213.11 73.9437C216.068 74.6229 218.924 75.4289 221.75 76.5367C223.295 77.1465 224.85 77.7292 226.404 78.3148C222.679 77.2069 218.861 76.5971 214.997 76.1413C206.529 75.1451 197.98 74.9187 189.537 76.2772C186.905 76.7028 184.315 77.3035 181.737 77.9706ZM77.2169 54.2043C84.4498 56.0789 91.4501 58.4456 98.3901 61.1987C105.255 63.9245 111.932 67.0702 118.643 70.1492C125.371 73.2344 132.592 75.2599 139.831 76.7481C147.163 78.2544 154.568 79.6039 162 80.5125C164.72 80.8445 167.461 80.9894 170.202 81.0558C167.479 81.732 164.741 82.3237 161.949 82.6889C154.448 83.7244 146.007 83.0119 138.4 81.409C130.195 79.6792 122.229 77.0922 114.287 74.4357C110.335 73.1105 106.375 71.7159 102.547 70.0586C98.7916 68.4315 95.0967 66.6656 91.3958 64.9147C83.8853 61.3587 76.1936 58.0381 68.339 55.3182C63.992 53.8149 59.6209 52.2784 55.1321 51.2551C53.3722 50.8566 51.6032 50.5367 49.8282 50.3163C51.8387 50.1261 53.8522 49.9843 55.8596 49.9239C59.5002 49.8152 63.0773 50.6422 66.5821 51.5448C70.12 52.4565 73.679 53.2836 77.2169 54.2043ZM91.9029 54.9198C92.2803 55.0677 92.6576 55.2187 93.0349 55.3726C93.7866 55.6745 94.5383 55.9824 95.29 56.2903C96.6846 56.8578 98.0823 57.4193 99.498 57.9385C102.372 58.9951 105.294 59.94 108.21 60.8788C114.133 62.7836 120.116 64.2205 126.22 65.4069C132.317 66.5902 138.418 67.6798 144.622 68.0844C150.704 68.4798 156.739 68.0513 162.806 67.683C168.871 67.3147 174.899 66.4542 180.961 66.0407C187.161 65.6181 193.347 65.1321 199.556 64.8876C205.817 64.64 212.038 64.5737 218.299 64.8423C224.485 65.111 230.667 65.588 236.737 66.8407C248.616 69.298 260.344 72.3015 272.026 75.5496C272.678 75.7307 273.318 75.9452 273.967 76.1354C274.338 76.2471 274.713 76.3465 275.084 76.4613C275.259 76.5126 276.264 76.8749 275.6 76.6153C276.264 76.8719 276.925 77.0982 277.559 77.4092C279.129 80.1502 280.581 82.9516 281.97 85.7892C281.65 85.8616 281.342 85.9309 281.091 85.9581C279.087 86.1785 277.046 86.1333 275.042 85.928C271.051 85.5235 267.154 83.8541 263.365 82.6164C259.36 81.3033 255.309 80.1501 251.245 79.0453C243.285 76.8779 235.291 75.109 227.213 73.4577C223.268 72.6517 219.335 71.7068 215.35 71.1212C211.208 70.5114 207.039 70.2639 202.877 69.8474C185.899 68.1539 168.871 70.8737 151.861 70.3998C143.559 70.1704 135.384 68.9538 127.312 67.058C119.219 65.1592 111.337 62.2402 103.522 59.4479C102.52 59.0917 101.518 58.7325 100.518 58.3702C100.072 58.2103 99.6278 58.0471 99.1841 57.8841C98.9637 57.8026 98.7403 57.7212 98.52 57.6397C98.5441 57.6488 97.4573 57.2381 98.0158 57.4555C97.9252 57.4193 97.8347 57.3831 97.7442 57.3529C94.2304 56.0851 90.3272 54.3523 86.5689 53.1599C82.5782 51.8981 78.4908 50.908 74.4035 50.0265C77.3286 50.4099 80.1873 51.0951 83.0189 51.9222C85.6935 52.704 88.8511 53.7365 91.1302 54.6179C91.2208 54.6542 91.3113 54.6904 91.4049 54.7236C91.0275 54.5908 91.7973 54.8775 91.9029 54.9198ZM292.236 113.905C291.919 114.053 291.627 114.201 291.403 114.298C289.909 114.935 288.469 115.659 286.948 116.239C285.257 116.885 283.533 117.446 281.834 118.071C277.744 119.577 273.741 121.274 269.539 122.475C265.388 123.662 261.252 123.897 256.957 123.653C248.32 123.161 239.826 120.987 231.748 117.975C229.532 117.15 227.316 116.323 225.124 115.442C223.971 114.977 222.833 114.467 221.695 113.966C221.161 113.73 220.624 113.492 220.086 113.259C219.815 113.142 219.549 113.027 219.28 112.909C219.169 112.861 218.245 112.471 218.601 112.619C217.037 111.958 215.151 111.195 213.653 110.564C213.765 110.612 212.189 109.951 212.92 110.256C212.645 110.141 212.377 110.023 212.105 109.909C212.684 110.153 211.661 109.727 211.709 109.746C211.272 109.564 210.837 109.386 210.396 109.208C209.521 108.855 208.642 108.514 207.764 108.173C206.107 107.533 204.452 106.899 202.78 106.301C201.111 105.7 199.42 105.175 197.721 104.662C196.078 104.167 194.367 103.889 192.743 103.376C189.395 102.31 186.12 101.293 182.657 100.647C179.05 99.974 175.443 99.2827 171.823 98.691C176.179 98.4556 180.559 98.202 184.921 98.4284C189.344 98.6548 193.848 98.7696 198.237 99.3734C198.379 99.3945 198.898 99.4668 198.871 99.4608C199.097 99.494 199.327 99.5302 199.556 99.5664C200.13 99.657 200.7 99.7536 201.274 99.8502C202.529 100.058 203.794 100.225 205.05 100.448C205.101 100.457 205.153 100.478 205.21 100.487C205.696 100.647 206.182 100.801 206.668 100.961C215.573 103.898 223.95 108.137 232.768 111.282C237.097 112.825 241.522 114.053 245.842 115.614C247.991 116.39 250.116 117.144 252.362 117.621C254.629 118.104 256.933 118.412 259.245 118.611C263.785 118.995 268.358 118.195 272.781 117.22C277.164 116.257 281.52 114.908 285.55 112.915C287.449 111.976 289.456 111.032 291.192 109.809C291.578 111.164 291.886 112.541 292.236 113.905ZM90.7529 104.559C93.7504 104.741 96.7208 105.118 99.6701 105.701C102.74 106.31 105.795 106.965 108.925 107.186C111.914 107.397 115.014 107.503 118.003 107.24C121.121 106.968 124.218 106.25 127.27 105.565C133.344 104.2 139.345 102.552 145.446 101.308C148.507 100.686 151.492 100.24 154.623 100.203C157.668 100.167 160.72 100.074 163.769 100.188C170.069 100.43 176.237 101.689 182.416 102.881C184.318 103.246 186.219 103.711 188.103 104.245C187.844 104.212 187.59 104.167 187.33 104.14C177.68 103.077 167.926 103.898 158.345 105.218C153.536 105.882 148.742 106.633 143.982 107.581C139.251 108.523 134.569 109.733 129.809 110.524C125.06 111.312 120.243 111.922 115.431 112.203C110.625 112.48 105.807 112.405 100.992 112.266C96.1624 112.124 91.3083 111.94 86.5116 111.312C81.6454 110.675 76.7913 109.942 71.9433 109.178C67.1013 108.417 62.2623 107.424 57.4716 106.386C53.0643 105.426 48.7505 104.218 44.5274 102.64C42.3086 101.806 40.0536 100.988 37.8892 100.013C35.7339 99.0472 33.657 97.8428 31.6284 96.6444C28.4135 94.7487 25.3616 92.3005 23.2304 89.1792C25.0658 90.8425 27.1306 92.2763 29.2225 93.5713C31.7884 95.1592 34.4238 96.6776 37.1346 98.0058C42.5501 100.659 48.5694 102.19 54.4287 103.527C57.3448 104.194 60.3424 104.596 63.3249 104.819C64.9067 104.94 66.4915 105.009 68.0823 105.057C69.5706 105.103 71.1645 104.973 72.6285 105.16C75.5506 105.531 78.6659 104.792 81.5911 104.514C84.6581 104.221 87.6828 104.378 90.7529 104.559ZM119.292 95.615C121.012 95.4882 122.733 95.3554 124.457 95.2377C133.8 94.6098 143.139 94.5132 152.503 94.5313C157.164 94.5374 161.825 94.4951 166.483 94.6249C171.18 94.7517 175.859 95.1924 180.532 95.6513C182.171 95.8143 183.804 96.0044 185.435 96.1946C183.231 96.101 181.027 96.0587 178.827 96.1312C169.303 96.4361 159.773 96.9401 150.321 98.1778C140.67 99.4426 131.382 102.655 121.824 104.406C116.714 105.341 111.313 105.387 106.166 104.638C103.597 104.267 101.077 103.642 98.523 103.207C95.8333 102.748 93.1346 102.446 90.4117 102.286C96.4914 100.964 102.517 99.4307 108.524 97.8217C112.086 96.8648 115.669 96.1372 119.292 95.615ZM293.248 117.875C293.069 117.941 292.3 118.494 292.707 118.18C290.932 119.532 289.04 120.827 287.062 121.866C284.982 122.961 282.761 123.767 280.614 124.715C276.219 126.653 271.739 128.893 267.042 129.986C262.333 131.082 257.642 130.668 252.888 130.092C248.215 129.524 243.771 128.489 239.578 126.291C235.364 124.084 231.129 121.89 226.948 119.62C225.668 118.922 224.403 118.201 223.132 117.482C222.827 116.861 221.988 116.583 221.414 116.281C232.632 121.253 244.659 125.201 256.978 125.92C260.012 126.098 263.073 126.071 266.076 125.579C269.074 125.084 271.96 124.124 274.818 123.127C277.713 122.119 280.536 120.918 283.419 119.879C286.193 118.883 288.925 117.905 291.599 116.655C291.892 116.517 292.348 116.372 292.819 116.193C292.952 116.755 293.121 117.31 293.248 117.875ZM256.573 200.388C255.194 200.581 253.718 201.218 252.408 201.647C251.366 201.985 250.322 202.329 249.274 202.658C245.48 203.667 241.622 204.476 237.773 205.176C237.211 205.251 236.65 205.327 236.088 205.405C235.759 205.451 235.424 205.499 235.092 205.547C235.08 205.547 235.023 205.556 234.996 205.559C234.304 205.134 233.423 205.342 232.644 205.399C231.582 205.481 230.513 205.565 229.45 205.653C227.425 205.816 225.393 205.909 223.371 206.091C223.189 206.109 223.008 206.142 222.821 206.16C214.444 205.897 206.007 204.379 197.878 202.369C194.907 201.635 191.934 200.923 189.018 199.993C186.096 199.054 183.521 197.572 180.792 196.201C178.06 194.828 175.313 193.451 172.674 191.912C170.124 190.424 167.814 188.561 165.291 187.027C162.29 185.201 159.271 183.408 156.334 181.476C153.506 179.61 150.581 177.829 147.849 175.831C153.014 177.476 158.082 179.475 163.141 181.416C165.605 182.358 168.005 183.444 170.501 184.308C173.07 185.195 175.651 186.022 178.187 186.988C180.638 187.918 183.092 188.845 185.462 189.968C187.889 191.121 190.28 192.343 192.743 193.427C197.642 195.582 202.831 197.161 208.039 198.387C213.315 199.634 218.667 200.446 224.092 200.533C229.562 200.621 234.987 199.727 240.297 198.471C245.386 197.27 250.385 195.715 255.2 193.675C260.205 191.556 265.153 189.334 270.188 187.281C272.941 186.161 275.652 184.99 278.269 183.571C280.85 182.176 283.253 180.495 285.674 178.841C287.799 177.392 289.936 175.913 291.998 174.367C291.509 175.076 291.011 175.78 290.534 176.498C288.952 178.874 287.684 181.31 285.556 183.272C283.389 185.271 280.961 187 278.556 188.703C276.144 190.417 273.668 192.072 271.099 193.548C266.499 196.183 261.584 198.577 256.573 200.388ZM3.86541 163.871C3.7024 162.099 3.56956 160.321 3.46692 158.543C3.55748 158.673 3.64204 158.809 3.73261 158.932C5.51968 161.384 7.67805 163.669 9.99038 165.628C12.348 167.626 15.107 169.211 17.8028 170.702C20.592 172.242 23.49 173.546 26.5269 174.518C32.7937 176.525 39.3805 176.978 45.913 177.286C52.5511 177.594 59.2919 176.839 65.7519 175.273C72.2119 173.706 78.6961 171.973 85.0323 169.966C88.1446 168.979 91.2569 168.01 94.327 166.902C97.3759 165.8 100.44 164.758 103.625 164.115C109.94 162.836 116.536 162.356 122.972 162.34C129.613 162.328 136.055 163.793 142.391 165.664C145.573 166.603 148.706 167.638 151.767 168.903C154.78 170.15 157.78 171.421 160.862 172.48C163.935 173.534 167.087 174.439 170.272 175.07C173.444 175.704 176.683 175.861 179.91 175.873C183.225 175.885 186.521 175.36 189.836 175.245C193.265 175.125 196.486 175.529 199.831 176.233C202.596 176.815 205.307 177.651 208.072 178.207C208.177 178.246 208.283 178.294 208.392 178.334C201.968 178.626 195.541 178.693 189.135 179.26C182.534 179.846 175.72 179.894 169.161 178.826C162.758 177.781 156.539 175.59 150.396 173.555C144.314 171.545 138.424 168.785 132.13 167.463C125.975 166.168 119.633 166.467 113.432 167.125C110.248 167.463 107.069 167.841 103.945 168.571C100.938 169.274 98.1457 170.467 95.4319 171.94C94.1247 172.652 92.7935 173.253 91.4351 173.866C90.0887 174.473 88.5311 174.639 87.0911 174.953C83.9245 175.635 80.7941 176.54 77.6486 177.328C71.258 178.934 65.0395 181.044 58.5523 182.273C55.3705 182.874 52.1617 183.45 48.9287 183.65C45.6715 183.852 42.3418 183.755 39.0877 183.508C32.845 183.034 26.5812 181.724 20.9151 178.986C15.2852 176.266 10.2349 172.71 6.40109 167.711C5.95131 167.122 5.53474 166.503 5.12721 165.884C4.72572 165.278 4.36652 164.408 3.86541 163.871ZM191.484 169.999C193.603 171.179 195.728 172.381 197.878 173.534C195.976 173.202 194.059 172.975 192.127 172.957C188.348 172.93 184.61 173.492 180.84 173.609C173.405 173.842 166.26 172.139 159.335 169.546C155.863 168.245 152.494 166.693 149.011 165.426C145.539 164.158 141.95 163.11 138.37 162.193C134.766 161.266 131.05 160.581 127.34 160.252C123.527 159.913 119.654 160.119 115.841 160.366C112.092 160.608 108.349 161 104.645 161.643C100.953 162.283 97.403 163.394 93.8862 164.665C86.7289 167.249 79.4297 169.271 72.0912 171.258C64.7799 173.235 57.3207 175.146 49.6864 175.143C45.919 175.14 42.1336 174.88 38.3874 174.527C34.6623 174.18 30.9915 173.564 27.4143 172.444C23.9398 171.354 20.6796 169.782 17.5341 167.955C14.4037 166.138 11.4696 164.182 8.95498 161.556C7.73844 160.288 6.50676 158.969 5.50153 157.526C11.2069 161.897 17.6458 165.208 24.6915 166.763C32.2443 168.432 39.9329 168.924 47.6397 168.321C55.3645 167.72 63.0079 166.37 70.603 164.897C74.3069 164.179 77.8992 163.089 81.5699 162.229C85.3372 161.347 89.1499 160.71 92.9172 159.814C100.31 158.054 108.029 157.037 115.639 157.299C119.434 157.429 123.204 158.057 126.953 158.643C130.751 159.234 134.479 159.901 138.21 160.825C141.847 161.728 145.464 162.965 149.165 163.563C152.953 164.17 156.781 164.257 160.6 164.505C164.307 164.746 167.947 165.136 171.63 165.604C173.399 165.827 175.168 166.057 176.934 166.322C178.724 166.597 180.577 166.733 182.298 167.339C184.97 168.284 187.774 168.692 190.509 169.404C190.841 169.594 191.149 169.812 191.484 169.999ZM296.345 161.215C296.339 161.215 296.336 161.212 296.33 161.212C295.569 161.284 294.983 162.235 294.395 162.673C292.792 163.874 290.92 164.855 289.118 165.724C285.372 167.53 281.321 168.692 277.421 170.126C273.478 171.572 269.819 173.401 266.161 175.457C262.493 177.519 259.085 179.994 255.459 182.128C251.882 184.235 247.994 185.702 244.061 187C236.052 189.636 227.515 189.325 219.226 188.606C210.882 187.879 202.913 184.703 194.774 182.895C192.764 182.451 190.76 181.995 188.752 181.539C192.326 181.225 195.87 181.002 199.453 180.942C203.006 180.884 206.544 180.613 210.094 180.507C211.945 180.453 213.801 180.426 215.655 180.447C221.816 181.832 228.201 182.282 234.446 181.615C244.8 180.51 254.663 176.097 264.193 172.169C268.983 170.192 273.605 168.019 278.015 165.281C282.383 162.57 286.631 159.618 290.754 156.551C292.765 155.056 294.784 153.565 296.752 152.01C296.71 155.084 296.571 158.154 296.345 161.215ZM295.533 168.091C295.337 168.248 295.029 168.272 294.82 168.468C294.588 168.68 294.461 168.909 294.371 169.208C294.301 169.441 294.253 169.673 294.202 169.905C293.773 170.253 293.326 170.579 292.873 170.917C291.291 172.088 289.716 173.238 288.086 174.373C284.3 177.005 280.608 179.746 276.539 181.938C272.554 184.084 268.274 185.618 264.099 187.347C259.819 189.122 255.653 191.163 251.336 192.845C247.098 194.493 242.561 195.703 238.117 196.654C233.556 197.632 228.985 198.342 224.312 198.287C214.912 198.185 205.397 195.915 196.637 192.588C191.837 190.768 187.385 188.19 182.612 186.303C177.692 184.356 172.623 182.825 167.715 180.857C168.744 181.044 169.78 181.186 170.821 181.307C171.325 181.364 171.829 181.419 172.333 181.47C172.889 181.524 173.656 181.464 174.187 181.633C174.579 181.757 174.827 181.929 175.28 181.941C175.826 181.959 176.378 181.938 176.922 181.944C177.957 181.956 178.975 182.08 180.001 182.228C184.269 182.859 188.447 183.797 192.655 184.733C196.842 185.66 200.951 186.807 205.092 187.912C209.243 189.023 213.418 190.257 217.704 190.71C226.112 191.604 234.978 191.984 243.185 189.627C247.08 188.507 251.1 187.052 254.684 185.15C258.366 183.197 261.705 180.685 265.282 178.563C268.838 176.45 272.452 174.445 276.313 172.951C280.309 171.406 284.421 170.153 288.378 168.511C290.241 167.741 291.989 166.787 293.728 165.77C294.494 165.32 295.255 164.858 295.952 164.3C295.992 164.269 296.037 164.233 296.079 164.203C296.025 164.774 295.986 165.35 295.922 165.924C295.865 166.494 295.913 167.789 295.533 168.091ZM84.8634 151.404C87.1364 151.008 89.3793 150.498 91.6765 150.254C94.016 150.006 96.3585 149.84 98.7011 149.641C103.205 149.257 107.703 148.856 112.21 148.439C116.427 148.05 120.668 147.476 124.855 146.906C128.559 146.722 132.263 146.577 135.964 146.652C140.948 146.761 145.784 147.591 150.562 149.01C157.792 151.156 164.868 154.048 171.527 157.655C170.024 157.278 168.512 156.928 166.981 156.674C162.055 155.859 157.068 155.702 152.09 155.548C149.578 155.473 147.073 155.307 144.579 155.017C142.068 154.73 139.713 154.13 137.304 153.381C132.583 151.908 127.844 150.743 122.881 150.531C118.021 150.32 113.13 150.314 108.279 150.767C105.729 151.005 103.169 151.343 100.657 151.863C98.3086 152.346 96.0265 153.079 93.7021 153.656C88.8601 154.863 83.8913 155.28 78.9587 155.962C74.0926 156.641 69.1932 157.076 64.2878 157.39C61.8638 157.544 59.4398 157.631 57.0158 157.731C61.6525 156.735 66.3315 155.826 70.9139 154.613C75.5386 153.393 80.1481 152.219 84.8634 151.404ZM19.0887 158.036C21.3497 158.981 23.7134 159.675 26.1465 160.007C27.3449 160.17 28.5494 160.303 29.7508 160.399C30.9221 160.496 32.0481 160.71 33.2525 160.771C38.1912 161.021 43.172 160.614 48.1106 160.345C57.9486 159.802 67.8076 159.735 77.5913 158.41C82.1284 157.794 86.7289 157.387 91.2237 156.511C93.696 156.028 96.099 155.337 98.5321 154.685C100.977 154.027 103.462 153.592 105.973 153.269C111.051 152.614 116.176 152.59 121.287 152.72C126.304 152.847 131.101 153.788 135.889 155.289C138.134 155.992 140.335 156.699 142.675 157.028C145.138 157.372 147.622 157.601 150.11 157.725C155.13 157.981 160.123 157.994 165.119 158.661C167.528 158.981 169.9 159.527 172.249 160.161C174.585 160.792 177.088 161.335 179.246 162.458C179.681 162.685 180.119 162.911 180.553 163.143C181.788 163.955 183.02 164.771 184.257 165.574C183.285 165.254 182.319 164.924 181.311 164.725C179.448 164.351 177.535 164.134 175.654 163.874C174.788 163.753 173.918 163.642 173.052 163.533C172.59 163.476 172.128 163.415 171.663 163.358C171.434 163.328 171.201 163.3 170.972 163.27C170.884 163.261 170.166 163.162 170.573 163.222C170.474 163.207 170.371 163.192 170.272 163.183C170.637 163.228 169.656 163.092 169.535 163.074C169.128 163.014 168.723 162.956 168.318 162.899C167.446 162.781 166.574 162.676 165.698 162.606C164.047 162.476 162.393 162.371 160.738 162.262C157.484 162.051 154.221 161.969 150.982 161.562C147.809 161.163 144.748 160.2 141.666 159.388C138.563 158.57 135.448 157.764 132.284 157.218C125.77 156.089 119.135 154.917 112.506 155.041C105.919 155.165 99.3501 156.01 92.9293 157.502C89.811 158.226 86.6897 158.851 83.5532 159.494C80.3473 160.146 77.226 161.091 74.0503 161.864C67.6567 163.418 61.0699 164.49 54.5405 165.32C41.5902 166.965 27.9577 166.989 15.901 161.347C12.9608 159.971 10.2711 158.229 7.64484 156.336C6.5249 155.53 5.39894 154.676 4.49937 153.625C4.17939 153.251 3.75673 152.442 3.24958 151.887C3.23147 150.543 3.21637 149.203 3.2375 147.86C3.24957 146.966 3.29789 146.076 3.32807 145.182C4.86158 147.585 6.99581 149.683 8.99419 151.585C11.714 154.181 14.8716 156.237 18.331 157.719C18.4971 157.797 18.6782 157.867 18.8412 157.936C18.9288 157.972 19.5083 158.214 19.0887 158.036ZM130.724 172.29C130.404 172.037 129.963 171.94 129.567 171.816C126.642 170.92 123.693 170.144 120.623 169.975C117.357 169.794 113.985 169.863 110.74 170.24C107.688 170.594 104.591 170.914 101.587 171.572C106.1 170.035 111.005 169.531 115.733 169.163C118.175 168.973 120.626 168.921 123.077 168.9C125.347 168.879 127.65 169.006 129.797 169.748C130.286 169.917 130.796 169.911 131.3 170.026C131.855 170.15 132.399 170.316 132.948 170.467C134.135 170.796 135.348 171.077 136.492 171.532C138.602 172.366 140.616 173.552 142.533 174.753C144.477 175.973 146.213 177.485 148.114 178.765C150.01 180.039 151.954 181.241 153.85 182.521C157.822 185.201 162.031 187.504 166.021 190.149C167.902 191.392 169.683 192.772 171.633 193.907C173.746 195.133 175.923 196.256 178.099 197.361C180.257 198.456 182.371 199.679 184.565 200.702C186.639 201.671 188.825 202.305 191.016 202.933C195.641 204.249 200.347 205.312 205.074 206.19C208.283 206.788 211.471 207.361 214.677 207.793C213.838 208.047 212.998 208.318 212.165 208.626C210.463 209.251 208.528 210.211 206.677 209.825C204.818 209.438 203.043 208.696 201.186 208.285C199.269 207.86 197.316 207.778 195.375 207.534C193.422 207.286 191.508 206.854 189.606 206.347C185.866 205.354 182.186 203.899 178.76 202.103C175.283 200.28 172.013 198.067 168.729 195.93C162.112 191.628 155.848 186.819 149.31 182.409C146.037 180.202 142.699 178.122 139.194 176.299C136.441 174.862 133.649 173.374 130.724 172.29ZM298.135 126.382C296.943 118.907 295.189 111.521 292.894 104.306C288.243 89.6953 281.269 75.8093 272.379 63.3209C270.167 60.2116 267.842 57.1778 265.409 54.2346C264.165 52.7312 262.892 51.2551 261.587 49.8001C260.975 49.1179 260.356 48.4417 259.728 47.7685C259.393 47.4063 258.934 47.047 258.668 46.6395C258.439 46.3013 258.394 45.8909 258.065 45.592C257.82 45.3717 257.542 45.3595 257.283 45.2056C256.921 44.9973 256.552 44.4661 256.253 44.1642C255.604 43.5152 254.949 42.8691 254.285 42.2292C252.924 40.91 251.535 39.618 250.122 38.3532C247.342 35.8597 244.465 33.4688 241.507 31.1867C229.378 21.8347 215.872 14.3636 201.494 9.08987C186.53 3.60187 170.7 0.601227 154.777 0.07901C138.907 -0.437195 122.914 1.57932 107.676 6.05304C93.0017 10.3637 78.9618 16.9837 66.2862 25.5387C53.4477 34.2054 41.9705 44.8374 32.362 56.9816C22.9104 68.9266 15.3003 82.236 9.85757 96.4662C4.35447 110.838 1.10329 126.01 0.239942 141.376C-0.647558 157.154 0.928234 173.042 4.94613 188.328C8.77989 202.921 14.8837 216.958 22.9255 229.727C26.7381 235.786 30.9975 241.56 35.6343 247.012C37.9708 249.759 40.4038 252.422 42.9274 254.994C43.5131 255.591 44.1017 256.183 44.6964 256.772C44.9923 257.061 45.3183 257.336 45.593 257.647C45.9643 258.07 46.1092 258.598 46.4141 259.075C47.371 260.584 49.0886 261.472 50.5708 262.368C52.1285 263.307 53.493 264.817 54.9057 265.976C56.406 267.207 57.9274 268.409 59.476 269.583C62.5279 271.898 65.6673 274.093 68.8823 276.17C75.2729 280.296 81.9684 283.919 88.9144 287.016C103.018 293.304 118.012 297.388 133.362 299.082C148.649 300.766 164.171 300.141 179.258 297.138C194.27 294.152 208.799 288.857 222.205 281.477C235.494 274.159 247.656 264.823 258.167 253.889C263.317 248.534 268.057 242.792 272.349 236.733C274.411 233.823 276.578 230.935 278.338 227.828C280.222 224.502 282.094 221.148 283.829 217.74C290.911 203.83 295.786 188.778 298.18 173.356C300.592 157.803 300.61 141.925 298.135 126.382Z" fill="white"/>
<path d="M18.3303 157.719C18.2943 157.698 18.2463 157.689 18.2104 157.665C18.2523 157.683 18.2943 157.701 18.3303 157.719Z" fill="white"/>
<path d="M140.094 240.887C140.181 240.875 139.888 240.914 140.094 240.887V240.887Z" fill="white"/>
</svg>
