<svg width="105" height="169" viewBox="0 0 105 169" fill="none" xmlns="http://www.w3.org/2000/svg">
<path d="M95.5994 168.388C94.7145 167.651 93.9011 166.833 93.0638 166.043C92.1314 165.163 91.1371 164.43 90.0858 163.698C88.0354 162.28 86.1468 160.672 84.2249 159.093C82.2412 157.466 80.2241 155.877 78.207 154.293C76.1377 152.656 74.0017 151.191 71.7991 149.74C69.6992 148.356 67.6261 146.929 65.5295 145.54C63.4188 144.141 61.239 142.852 59.1302 141.45C56.9557 140.003 54.7402 138.692 52.4006 137.527C50.2071 136.437 47.975 135.405 45.9194 134.063C41.7592 131.35 38.2555 127.894 34.8075 124.356C33.0721 122.574 31.7776 120.47 30.5879 118.299C29.4214 116.172 28.2097 114.138 27.4167 111.833C26.5685 109.37 25.6028 106.878 25.2089 104.294C25.032 103.129 24.9116 101.955 24.8359 100.779C24.7489 99.4165 24.8121 98.0388 24.6832 96.6806C24.5676 95.459 24.4339 94.2797 24.4396 93.0485C24.4453 91.7612 24.4568 90.4744 24.4478 89.1866C24.4283 86.5473 24.6751 83.9475 24.7955 81.3163C24.8493 80.1446 25.0495 78.9862 25.168 77.8202C25.3117 76.4097 25.3007 74.9896 25.3469 73.5739C25.3911 72.2229 25.3906 70.829 25.638 69.4975C25.7289 69.006 25.8616 68.5232 25.9515 68.0313C26.078 67.3396 26.1028 66.6455 26.3278 65.9738C26.7236 64.7931 27.1613 63.6742 27.4729 62.4625C27.7906 61.2285 28.2354 60.0292 28.5818 58.8023C29.2449 56.4546 30.7173 54.4937 31.4951 52.1965C31.8238 51.2265 32.1853 50.2155 32.2962 49.1937C32.4384 47.8826 32.5954 46.5853 32.7557 45.2757C33.0554 42.829 33.3856 40.4357 33.3922 37.9681C33.3956 36.7683 33.5059 35.5158 33.3128 34.3274C33.1087 33.0715 32.5978 31.8808 32.2976 30.6477C31.6958 28.1721 31.0921 25.5313 31.1668 22.9729C31.2315 20.7518 31.6963 18.554 32.1558 16.3861C32.5435 14.5546 32.9465 12.7035 33.5645 10.9339C33.8385 10.1494 34.2024 9.39585 34.5112 8.62423C34.9422 7.54625 35.5672 5.75135 36.8626 5.46069C37.286 5.36554 37.9806 5.37887 38.2988 5.71615C38.5486 5.98161 38.6542 6.53582 38.7641 6.86502C39.1708 8.08334 39.0671 9.33164 39.2503 10.5852C39.4729 12.1098 39.6427 13.6417 39.8606 15.1673C40.1451 17.1553 40.6722 19.122 41.2293 21.0486C41.5718 22.2313 41.8872 23.3925 42.0903 24.6089C42.2915 25.812 42.4481 27.0246 42.7444 28.2092C43.0299 29.3504 43.3514 30.4108 43.4109 31.5935C43.4761 32.8893 43.6997 34.1661 43.812 35.4582C44.0332 38.0062 43.9699 40.5679 43.9333 43.1221C43.9152 44.3789 43.8472 45.6596 43.9494 46.9136C44.0432 48.0643 44.3709 49.1728 44.6273 50.2931C45.7795 55.3205 45.3847 60.493 46.2909 65.5437C46.739 68.0413 47.5193 70.4541 48.1134 72.9169C48.7266 75.4587 48.9426 78.0585 49.4759 80.6127C50.2366 84.2562 51.3108 87.7813 52.4306 91.3207C52.6418 91.9876 52.8425 92.6636 52.9767 93.3515C53.0276 93.6117 53.0799 93.8791 53.0875 94.1455C53.089 94.2035 53.0576 94.4219 53.0828 94.4685C53.1784 94.6459 52.7341 94.6212 53.2293 94.4542C53.3511 94.4523 53.4729 94.45 53.5951 94.4481C52.8996 93.8149 52.7836 92.8796 52.4439 92.0447C52.0015 90.9558 51.6171 89.8926 51.3493 88.7432C50.8469 86.5891 50.6119 84.3861 50.3326 82.1959C49.7627 77.7265 49.2903 73.2728 49.1429 68.7658C49.0696 66.5204 49.0135 64.2588 49.1082 62.0129C49.2014 59.7851 49.5401 57.5754 49.6343 55.3481C49.7313 53.0547 49.6372 50.7483 49.6372 48.453C49.6372 46.1258 49.6372 43.7981 49.6372 41.4704C49.6372 39.2078 49.8193 36.8563 49.6091 34.6038C49.4159 32.5273 48.876 30.4279 48.3503 28.4152C47.3594 24.6222 46.7329 20.6661 46.6244 16.7434C46.5778 15.0721 46.5907 13.3962 46.6882 11.7269C46.7933 9.92629 47.2328 8.26934 47.5792 6.50822C47.8841 4.95595 47.8889 3.32897 46.8142 2.06261C45.6877 0.73582 44.37 0.471327 42.8077 1.21393C41.5623 1.8062 40.138 2.72387 39.3502 3.88082C38.9163 4.51829 38.7617 5.18573 38.775 5.94974C38.7941 7.06816 38.697 8.12759 38.5905 9.23935C38.4458 10.7536 38.5163 12.3001 38.5072 13.8205C38.4996 15.2677 38.4834 16.7158 38.5005 18.1629C38.5267 20.3579 38.7403 22.5414 38.9429 24.7255C39.1542 27.0008 39.2878 29.2829 39.52 31.5573C39.9795 36.0467 40.6984 40.5066 41.5789 44.9322C42.4742 49.4287 43.6007 53.8729 44.6906 58.3247C45.7857 62.7988 46.7533 67.2934 47.6377 71.8142C48.514 76.2941 49.2366 80.8206 50.2275 85.2762C50.6604 87.2233 51.5505 88.9873 52.3882 90.7821C53.1822 92.4833 53.8307 94.6136 55.1517 95.9846C56.489 97.3737 58.359 98.3618 60.0526 99.2386C62.004 100.249 63.9269 101.253 65.8207 102.371C69.7202 104.671 73.6449 106.931 77.5506 109.217C79.4344 110.319 81.2897 111.452 83.1022 112.676C84.7672 113.802 86.5226 114.791 88.3779 115.566C90.2999 116.368 92.3074 116.908 94.2246 117.743C96.1084 118.565 97.9875 119.327 99.957 119.928C100.728 120.163 101.494 120.399 102.274 120.605C102.859 120.759 103.877 120.964 103.872 121.733C103.934 121.628 103.996 121.523 104.058 121.418C103.116 122.18 101.256 121.946 100.128 121.759C98.5869 121.501 97.1645 120.787 95.7469 120.162C92.8497 118.889 90.1476 117.339 87.3932 115.794C84.5579 114.202 81.9272 112.449 79.3773 110.429C76.8845 108.453 74.544 106.296 72.0702 104.305C69.6484 102.357 67.03 100.648 64.4097 98.985C61.8313 97.348 59.1235 95.821 56.1854 94.9338C53.1218 94.0085 49.8983 93.7578 46.7866 93.0385C43.5598 92.2926 40.343 91.3639 37.1566 90.4587C33.9798 89.5562 30.8386 88.5153 27.8886 87.014C25.0267 85.5573 22.3822 83.7272 19.7633 81.879C16.1193 79.3078 12.3278 76.6956 7.91169 75.6642C6.17055 75.2579 4.23297 75.119 2.5865 75.9401C0.790176 76.8369 -0.314944 78.6884 0.079904 80.6959C0.486645 82.7596 1.92617 84.5645 3.39615 86.0007C5.09114 87.6571 6.74382 89.2865 8.25138 91.1247C9.94305 93.1874 11.5248 95.3453 12.9767 97.5835C14.3344 99.6743 15.3653 102.012 17.0027 103.906C18.6078 105.761 20.6286 107.195 22.1776 109.106C23.189 110.355 24.011 111.751 24.9021 113.085C25.6975 114.275 26.4101 115.662 27.5185 116.591C27.9767 116.975 28.3834 117.333 28.7839 117.777C29.0865 118.113 29.3534 118.314 29.8096 118.357C30.1383 118.389 30.7182 117.768 30.1859 117.718C29.6654 117.668 29.0146 116.673 28.596 116.336C27.871 115.751 27.3796 115.133 26.8596 114.36C25.7874 112.768 24.7765 111.122 23.6623 109.558C21.9488 107.154 19.514 105.5 17.634 103.257C16.6611 102.096 15.9694 100.788 15.2183 99.4826C14.509 98.25 13.7397 97.0517 12.9386 95.8766C11.2246 93.3606 9.36595 90.9268 7.32749 88.6638C5.61823 86.7647 3.51031 85.1939 2.10028 83.0426C1.39288 81.9637 0.777292 80.6931 0.82201 79.3715C0.870058 77.942 1.86908 76.6989 3.21014 76.2398C5.55734 75.4359 8.37885 76.4363 10.5477 77.3497C12.7455 78.2759 14.8315 79.4719 16.7868 80.8344C19.8395 82.9604 22.8294 85.201 26.0971 86.9964C29.3662 88.7917 32.8727 90.0143 36.4492 91.0367C40.0804 92.0747 43.7682 93.1879 47.4721 93.9252C51.1699 94.6617 54.9134 95.0322 58.3876 96.5964C61.7 98.0873 64.7541 100.158 67.7459 102.201C70.8048 104.289 73.5307 106.744 76.3708 109.109C79.2156 111.48 82.127 113.765 85.3524 115.599C88.5397 117.412 91.6889 119.246 95.0523 120.725C97.6069 121.849 100.556 123.181 103.411 122.309C104.181 122.073 105.247 121.442 104.353 120.631C103.577 119.925 102.05 119.771 101.084 119.48C97.6402 118.442 94.4529 116.802 91.0325 115.716C87.5787 114.619 84.7482 112.652 81.7226 110.742C78.5258 108.727 75.2385 106.815 71.9656 104.933C68.6921 103.052 65.4635 101.051 62.0911 99.3565C60.5436 98.5792 59.0198 97.7862 57.5893 96.8062C56.9309 96.3547 56.2444 95.8919 55.7193 95.2825C55.1384 94.6069 54.7707 93.725 54.3877 92.9286C53.6323 91.3563 52.8787 89.7727 52.1713 88.1785C51.3878 86.4131 50.9897 84.6206 50.6262 82.7334C49.1472 75.0482 47.7761 67.3377 45.9417 59.7266C44.1488 52.284 42.2687 44.8813 41.1241 37.3026C40.5438 33.4526 40.2293 29.5959 39.8939 25.7197C39.6061 22.3954 39.3183 19.1034 39.3278 15.7643C39.3359 13.0874 39.2698 10.4072 39.5481 7.74319C39.638 6.87833 39.5329 6.01585 39.6095 5.15765C39.6884 4.27852 40.2208 3.60395 40.8801 3.05925C41.44 2.59685 42.0803 2.1768 42.7202 1.83285C43.7582 1.27531 44.692 1.27435 45.5802 2.07784C48.1643 4.41554 46.2348 7.91159 45.9532 10.793C45.6872 13.5103 45.6901 16.2962 45.8861 19.0183C46.1377 22.5091 46.7995 25.9757 47.6805 29.3571C48.1196 31.0435 48.4869 32.7828 48.7295 34.5101C48.9859 36.3407 48.8061 38.2892 48.8066 40.1355C48.807 44.1163 48.7685 48.0986 48.8161 52.0789C48.8398 54.0327 48.8156 55.9627 48.6353 57.9098C48.4588 59.8075 48.2666 61.7004 48.2476 63.608C48.171 71.1772 48.8579 78.7117 49.9825 86.1919C50.228 87.8265 50.5325 89.4725 51.0667 91.0405C51.3369 91.8325 51.7113 92.5813 51.9682 93.3786C52.1794 94.0323 52.3854 94.5408 52.9015 95.0104C52.9929 95.0931 53.1727 95.036 53.2683 95.0042C54.2473 94.674 53.8949 93.3753 53.725 92.6436C53.4382 91.4077 53.0153 90.2051 52.5952 89.0096C51.845 86.8746 51.334 84.6487 50.8103 82.4499C50.2009 79.8934 49.8898 77.3164 49.4093 74.7375C48.9165 72.0939 48.0687 69.5388 47.4717 66.92C46.8727 64.2931 46.6734 61.6348 46.5083 58.9522C46.3452 56.31 46.1416 53.7354 45.6915 51.1227C45.4865 49.9344 45.1273 48.7803 44.9161 47.5939C44.6906 46.327 44.7387 45.0359 44.7515 43.7548C44.7801 41.0389 44.879 38.3178 44.6806 35.6052C44.4979 33.1139 44.2882 30.5707 43.6478 28.1602C43.3229 26.9352 43.1502 25.6812 42.9461 24.4329C42.7383 23.1637 42.4176 21.9539 42.0603 20.7209C41.4747 18.6995 40.9405 16.6401 40.6517 14.5531C40.4334 12.9761 40.1927 11.3901 40.0209 9.80735C39.8887 8.5857 39.9163 7.44588 39.5067 6.26704C39.2665 5.57725 39.1194 5.00876 38.3421 4.85368C36.5558 4.49784 35.2604 5.66097 34.445 7.13238C33.5112 8.8169 32.8005 10.7712 32.2838 12.6284C31.7886 14.408 31.3994 16.2182 31.0422 18.0302C30.5584 20.4854 30.1231 23.0162 30.4271 25.5228C30.7463 28.154 31.3785 30.7481 32.142 33.2799C32.5231 34.5463 32.5749 35.7432 32.5683 37.0571C32.5621 38.3644 32.6183 39.6888 32.5012 40.9923C32.2681 43.6016 31.6725 46.1852 31.5198 48.8007C31.368 51.4067 30.1165 53.7349 28.9514 56.0084C28.3863 57.1106 27.9862 58.2253 27.6451 59.4136C27.2911 60.6457 26.8573 61.8483 26.5471 63.0933C26.2374 64.3321 25.629 65.4819 25.3483 66.7192C25.2156 67.3049 25.2008 67.9119 25.079 68.5013C24.9558 69.1002 24.7993 69.6915 24.7232 70.2986C24.3835 73.0087 24.6028 75.7603 24.3022 78.4729C24.0087 81.1203 23.7451 83.7924 23.6423 86.455C23.5401 89.1224 23.5586 91.8306 23.6134 94.4999C23.639 95.7463 23.8897 96.9698 23.9045 98.2186C23.9211 99.6077 23.9758 100.996 24.1052 102.381C24.3474 104.961 24.9577 107.334 25.7917 109.779C26.618 112.203 27.4082 114.528 28.6722 116.768C29.9195 118.98 31.0902 121.248 32.6454 123.265C33.3594 124.192 34.2019 125.006 35.0244 125.834C35.8955 126.711 36.7214 127.63 37.6133 128.487C39.4782 130.28 41.4842 131.957 43.575 133.482C45.6535 134.999 47.8813 136.202 50.1837 137.339C52.5566 138.51 54.8986 139.696 57.1193 141.141C59.329 142.58 61.5687 143.97 63.7784 145.406C66.0229 146.867 68.2469 148.356 70.4575 149.869C72.6268 151.348 74.8199 152.728 76.8845 154.359C79.0253 156.043 81.1708 157.727 83.283 159.454C85.2905 161.096 87.2552 162.78 89.3912 164.264C90.4045 164.963 91.3655 165.667 92.2646 166.509C93.1399 167.328 93.9819 168.184 94.9048 168.95C95.157 169.164 95.8991 168.641 95.5994 168.388" fill="white"/>
<path d="M31.6508 52.2412C31.6931 52.2412 32.0371 52.2388 31.9743 52.1446C31.9053 52.0413 31.509 52.0642 31.4134 52.0642C31.3716 52.0642 31.0276 52.0661 31.0904 52.1603C31.1594 52.264 31.5556 52.2412 31.6508 52.2412" fill="white"/>
<path d="M50.2209 76.8336C50.1319 76.8202 50.2075 76.8374 50.1899 76.8302C50.1243 76.8017 50.1666 76.8226 50.1543 76.8117C50.0934 76.7579 50.0605 76.6989 50.0467 76.6675C49.974 76.4991 49.9568 76.3079 49.9516 76.1266C49.9345 75.5429 50.0653 74.9459 50.1943 74.3793C50.5572 72.7837 51.0957 71.2253 51.6547 69.6892C52.0752 68.5341 52.52 67.3877 52.9877 66.2507C53.3606 65.344 53.7146 64.4306 54.0714 63.5172C54.353 62.7965 54.6413 62.0772 54.9609 61.3717C55.2621 60.7085 55.6098 60.0677 55.9005 59.3998C56.1992 58.7148 56.469 58.0169 56.7968 57.3447C57.1065 56.7087 57.5022 56.1197 57.8191 55.487C58.1545 54.8167 58.4275 54.1103 58.5769 53.3739C58.723 52.6513 58.6911 51.932 58.6915 51.1998C58.692 49.6114 58.8319 47.9821 58.6207 46.4031C58.4242 44.9327 57.9252 43.5241 57.4694 42.1193C57.2454 41.428 57.0275 40.7344 56.8553 40.028C56.6693 39.2664 56.5656 38.4938 56.4647 37.717C56.2578 36.1309 56.0746 34.5391 55.7435 32.9726C55.5813 32.2057 55.323 31.4574 55.1879 30.6863C55.0504 29.9066 55.0404 29.1116 54.9757 28.3248C54.8515 26.8215 54.401 25.3787 54.3634 23.8616C54.3449 23.129 54.3948 22.393 54.3025 21.6633C54.2198 21.0082 53.9938 20.4178 53.7093 19.8265C53.5309 19.4564 53.3364 19.0535 53.0157 18.7852C52.7117 18.5311 52.3345 18.4203 51.9468 18.3746C51.3916 18.3085 50.8155 18.3309 50.257 18.348C49.6705 18.3661 49.0768 18.4274 48.5316 18.6577C47.3237 19.1681 46.848 20.3608 46.6972 21.5867C46.6239 22.1818 46.6135 22.7826 46.6116 23.3816C46.6111 23.6442 47.4993 23.4948 47.5002 23.1613C47.504 21.993 47.4926 20.5696 48.2071 19.5777C48.8679 18.6615 50.1124 18.7971 51.1162 18.8204C51.4896 18.8289 51.8864 18.8665 52.1866 19.111C52.501 19.367 52.6837 19.759 52.8535 20.1162C53.1389 20.7175 53.3525 21.3165 53.4258 21.9825C53.5019 22.6799 53.4572 23.3821 53.4743 24.0819C53.4924 24.8045 53.5781 25.5223 53.7046 26.233C53.8383 26.9856 54.0162 27.7235 54.0823 28.4865C54.1484 29.2553 54.1584 30.0298 54.2802 30.7924C54.4034 31.5654 54.6646 32.3128 54.8301 33.0782C55.1603 34.6048 55.3458 36.1571 55.5461 37.7046C55.6422 38.4505 55.7297 39.1988 55.8929 39.9338C56.0504 40.6412 56.2597 41.3362 56.4799 42.026C56.9205 43.4042 57.42 44.7738 57.6678 46.2038C57.9299 47.7199 57.8196 49.287 57.8062 50.8183C57.7991 51.5951 57.8633 52.3882 57.7472 53.1584C57.6412 53.8648 57.4128 54.5479 57.1193 55.1973C56.821 55.8586 56.4209 56.458 56.086 57.0988C55.7621 57.7177 55.4966 58.3632 55.2259 59.0064C54.6536 60.3651 53.9634 61.6643 53.4154 63.0353C52.9915 64.0971 52.5914 65.1684 52.1542 66.2259C51.7275 67.2573 51.3212 68.2972 50.9335 69.3438C50.3726 70.8566 49.8375 72.387 49.4369 73.9512C49.2775 74.5739 49.131 75.209 49.0791 75.8517C49.0487 76.2304 49.0068 76.7256 49.249 77.0519C49.3489 77.1861 49.5035 77.2669 49.6671 77.2912C49.8736 77.3226 50.1357 77.2807 50.2956 77.1356C50.4216 77.021 50.4159 76.8631 50.2209 76.8336" fill="white"/>
</svg>
