<svg width="300" height="450" viewBox="0 0 300 450" fill="none" xmlns="http://www.w3.org/2000/svg">
<rect width="300" height="450" fill="white"/>
<ellipse cx="277.5" cy="99.345" rx="3.5" ry="3.535" transform="rotate(-180 277.5 99.345)" fill="black"/>
<ellipse cx="235.5" cy="60.965" rx="1.5" ry="1.515" transform="rotate(-180 235.5 60.965)" fill="black"/>
<ellipse cx="167" cy="38.24" rx="3" ry="3.03" transform="rotate(-180 167 38.24)" fill="black"/>
<ellipse cx="187.5" cy="84.195" rx="5.5" ry="5.555" transform="rotate(-180 187.5 84.195)" fill="black"/>
<ellipse cx="284.5" cy="50.865" rx="1.5" ry="1.515" transform="rotate(-180 284.5 50.865)" fill="black"/>
<ellipse cx="238.5" cy="113.485" rx="1.5" ry="1.515" transform="rotate(-180 238.5 113.485)" fill="black"/>
<ellipse cx="221.5" cy="18.545" rx="4.5" ry="4.545" transform="rotate(-180 221.5 18.545)" fill="black"/>
<ellipse rx="3.5" ry="3.535" transform="matrix(1 0 0 -1 17.5 104.345)" fill="black"/>
<ellipse rx="1.5" ry="1.515" transform="matrix(1 0 0 -1 59.5 65.965)" fill="black"/>
<ellipse rx="3" ry="3.03" transform="matrix(1 0 0 -1 128 43.24)" fill="black"/>
<ellipse rx="5.5" ry="5.555" transform="matrix(1 0 0 -1 107.5 89.195)" fill="black"/>
<ellipse rx="1.5" ry="1.515" transform="matrix(1 0 0 -1 10.5 55.865)" fill="black"/>
<ellipse rx="1.5" ry="1.515" transform="matrix(1 0 0 -1 56.5 118.485)" fill="black"/>
<ellipse rx="4.5" ry="4.545" transform="matrix(1 0 0 -1 73.5 23.545)" fill="black"/>
<circle cx="29.5" cy="320.5" r="3.5" fill="black"/>
<circle cx="71.5" cy="358.5" r="1.5" fill="black"/>
<circle cx="140" cy="381" r="3" fill="black"/>
<circle cx="119.5" cy="335.5" r="5.5" fill="black"/>
<circle cx="22.5" cy="368.5" r="1.5" fill="black"/>
<circle cx="68.5" cy="306.5" r="1.5" fill="black"/>
<circle cx="85.5" cy="400.5" r="4.5" fill="black"/>
<circle cx="279.5" cy="391.5" r="3.5" transform="rotate(-180 279.5 391.5)" fill="black"/>
<circle cx="237.5" cy="353.5" r="1.5" transform="rotate(-180 237.5 353.5)" fill="black"/>
<circle cx="169" cy="331" r="3" transform="rotate(-180 169 331)" fill="black"/>
<circle cx="189.5" cy="376.5" r="5.5" transform="rotate(-180 189.5 376.5)" fill="black"/>
<circle cx="286.5" cy="343.5" r="1.5" transform="rotate(-180 286.5 343.5)" fill="black"/>
<circle cx="240.5" cy="405.5" r="1.5" transform="rotate(-180 240.5 405.5)" fill="black"/>
<circle cx="223.5" cy="311.5" r="4.5" transform="rotate(-180 223.5 311.5)" fill="black"/>
<path d="M246.355 269.283C246.165 272.393 244.801 275.298 242.52 277.417C240.263 279.513 237.352 280.812 234.407 281.618C228.199 283.317 221.604 283.306 215.232 282.797C208.765 282.281 202.351 281.147 196.035 279.68C189.848 278.242 183.738 276.473 177.711 274.471C171.683 272.469 165.732 270.233 159.862 267.812C153.969 265.381 148.159 262.752 142.43 259.954C136.753 257.182 131.303 254.326 125.856 251.266C120.356 248.177 114.944 244.928 109.641 241.509C104.39 238.122 99.2413 234.576 94.234 230.838C89.2663 227.129 84.4397 223.229 79.8116 219.104C79.2559 218.609 78.7037 218.11 78.1543 217.609C77.8799 217.357 77.6064 217.106 77.3329 216.853C77.1871 216.72 77.0413 216.585 76.8965 216.45C76.8616 216.417 76.7485 216.318 76.8652 216.42C71.6949 211.578 66.758 206.425 62.5048 200.75C60.434 197.988 58.5199 195.1 56.9314 192.03C55.3465 188.968 54.0527 185.706 53.5861 182.273C53.1152 178.806 53.6793 175.205 55.8454 172.377C57.9819 169.586 61.1866 167.9 64.4814 166.853C67.9507 165.752 71.648 165.312 75.2731 165.168C79.0007 165.017 82.7465 165.205 86.4564 165.572C93.7709 166.297 101.014 167.741 108.122 169.593C108.993 169.82 109.862 170.054 110.73 170.29C110.057 170.733 109.39 171.184 108.734 171.65C108.592 171.75 108.533 171.805 108.371 171.793C108.23 171.785 108.062 171.709 107.926 171.67C107.555 171.562 107.183 171.466 106.809 171.374C105.229 170.984 103.692 170.533 102.078 170.298C101.331 170.19 100.578 170.11 99.8408 169.95C99.0523 169.78 98.2731 169.569 97.4824 169.402C95.9299 169.077 94.3699 168.706 92.8001 168.476C91.2361 168.248 89.6611 168.132 88.1007 167.872C86.4808 167.601 84.8804 167.46 83.2403 167.398C81.6147 167.336 79.998 167.258 78.3756 167.158C76.7752 167.061 75.2111 167.338 73.6361 167.584C72.0985 167.825 70.5288 168.076 69.0673 168.629C67.6455 169.169 66.2267 169.837 64.9017 170.581C64.2757 170.933 63.6413 171.297 63.109 171.785C62.585 172.262 62.1225 172.792 61.6918 173.354C60.7621 174.566 59.9913 175.821 59.5647 177.297C59.3689 177.973 59.2793 178.685 59.296 179.39C59.3121 180.109 59.2986 180.881 59.4668 181.582C59.5934 182.106 59.8116 182.869 60.5199 182.68C61.2949 182.473 60.9382 181.712 60.8298 181.193C60.7533 180.832 60.7699 180.45 60.7559 180.082C60.7413 179.685 60.6949 179.289 60.7241 178.893C60.7793 178.133 60.9762 177.42 61.2689 176.721C61.8402 175.356 62.8069 174.08 63.8496 173.037C64.9121 171.974 66.4137 171.374 67.7548 170.754C69.1736 170.098 70.5695 169.569 72.1121 169.28C73.6376 168.992 75.1971 168.702 76.7465 168.589C78.3179 168.474 79.9111 168.701 81.4851 168.742C82.3032 168.765 83.122 168.801 83.9397 168.837C85.3184 168.89 86.8641 169.11 88.3028 169.345C89.8455 169.598 91.4085 169.682 92.9491 169.942C94.5023 170.204 96.0528 170.541 97.5908 170.878C98.3184 171.037 99.0392 171.233 99.7689 171.384C100.506 171.537 101.257 171.612 102 171.725C103.714 171.982 105.364 172.468 107.041 172.893C106.807 173.069 106.575 173.249 106.344 173.429C106.13 173.597 105.897 173.856 105.654 173.976C105.483 174.06 105.631 174.049 105.389 174.03C105.243 174.018 105.079 173.954 104.937 173.921C104.584 173.837 104.232 173.753 103.879 173.672C102.721 173.4 101.559 173.144 100.395 172.904C98.0923 172.429 95.7767 172.013 93.4485 171.689C88.6955 171.026 83.834 170.677 79.0517 171.234C74.7455 171.736 69.8105 173.214 67.6903 177.356C65.5913 181.456 67.3173 186.35 69.3173 190.13C71.3668 194.002 74.1127 197.496 77.0137 200.761C80.0985 204.233 83.4501 207.456 86.922 210.538C93.9507 216.776 101.516 222.402 109.32 227.63C117.164 232.885 125.279 237.725 133.584 242.21C141.893 246.7 150.391 250.837 159.076 254.546C167.909 258.317 176.937 261.68 186.171 264.33C190.723 265.634 195.329 266.777 199.987 267.638C204.713 268.512 209.521 269.125 214.335 269.101C218.727 269.078 223.751 268.618 227.428 265.968C229.1 264.764 230.375 263.074 230.905 261.066C231.5 258.821 231.183 256.409 230.489 254.225C229.117 249.905 226.471 246.043 223.673 242.526C221.013 239.181 218.049 236.072 214.955 233.126C214.375 232.574 213.795 232.028 213.205 231.486C213.041 231.336 213.04 231.352 213.012 231.144C212.995 231.005 213.037 230.824 213.048 230.682C213.067 230.428 213.084 230.172 213.1 229.914C213.139 229.301 213.168 228.685 213.191 228.07C215.639 230.097 218.024 232.258 220.101 234.669C222.221 237.128 224.269 239.658 226.437 242.074C228.556 244.435 230.525 246.88 232.313 249.5C232.783 250.186 233.229 250.88 233.635 251.607C233.828 251.954 234.016 252.304 234.201 252.656C234.368 252.971 234.497 253.416 234.852 253.565C235.553 253.861 236.001 253.106 235.723 252.516C235.388 251.806 234.997 251.109 234.6 250.431C232.745 247.266 230.397 244.373 227.951 241.65C227.18 240.777 226.153 239.578 225.308 238.574C224.219 237.282 223.085 236.026 222.003 234.729C220.961 233.48 219.837 232.308 218.721 231.128C217.613 229.96 216.344 228.922 215.135 227.861C214.787 227.557 214.435 227.258 214.079 226.962C213.816 226.745 213.279 226.462 213.233 226.138C213.172 225.697 213.239 225.2 213.231 224.752C213.223 224.27 213.209 223.788 213.192 223.308C214.861 224.673 216.516 226.056 218.145 227.469C218.956 228.172 219.759 228.881 220.556 229.598C220.973 229.973 221.389 230.35 221.804 230.73C222.029 230.937 222.255 231.144 222.48 231.352C222.592 231.456 222.705 231.561 222.817 231.665C222.855 231.7 223.164 231.998 222.975 231.809C228.148 236.654 233.084 241.816 237.339 247.498C238.48 249.023 239.54 250.597 240.588 252.186C240.576 252.173 240.779 252.489 240.807 252.533C240.907 252.695 241.007 252.859 241.107 253.023C241.307 253.352 241.501 253.682 241.695 254.014C242.08 254.678 242.452 255.35 242.808 256.031C243.507 257.371 244.141 258.745 244.687 260.154C245.812 263.058 246.541 266.153 246.355 269.283V269.283ZM182.497 279.966C182.34 279.93 182.193 279.904 182.092 279.882C181.407 279.728 180.718 279.543 180.023 279.444C179.312 279.342 178.625 279.288 177.937 279.065C176.573 278.623 175.253 278.106 173.987 277.43C172.651 276.719 171.376 275.923 170.07 275.158C168.791 274.407 167.481 273.709 166.174 273.009C164.828 272.288 163.423 271.747 161.984 271.242C160.592 270.756 159.188 270.297 157.852 269.669C156.539 269.052 155.251 268.343 154.015 267.581C152.831 266.852 151.65 266.105 150.51 265.305C150.937 265.498 151.36 265.698 151.788 265.89C158.653 268.95 165.632 271.756 172.718 274.262C176.777 275.697 180.873 277.03 185.005 278.238C184.182 278.834 183.344 279.407 182.497 279.966V279.966ZM176.781 283.319C176.493 283.382 176.747 283.377 176.556 283.266C176.409 283.181 176.343 283.086 176.168 283.045C175.673 282.926 175.145 282.901 174.643 282.812C173.773 282.654 172.872 282.573 172.016 282.352C171.124 282.121 170.234 281.87 169.351 281.607C167.497 281.054 165.604 280.552 163.781 279.902C162.075 279.294 160.543 278.29 159.026 277.321C157.42 276.295 155.706 275.483 154.062 274.53C152.403 273.569 150.804 272.471 149.236 271.369C147.701 270.289 146.257 269.098 144.685 268.07C143.892 267.553 143.078 267.064 142.237 266.629C141.44 266.221 140.588 265.871 139.856 265.35C138.99 264.733 138.261 263.969 137.539 263.193C136.808 262.407 136.073 261.623 135.378 260.806C134.008 259.197 132.856 257.397 131.369 255.89C133.05 256.785 134.737 257.666 136.432 258.533C136.435 258.537 136.44 258.541 136.443 258.543C136.645 258.768 136.84 258.998 137.034 259.229C137.863 260.219 138.6 261.278 139.468 262.237C140.293 263.152 141.187 263.998 142.14 264.778C144.112 266.393 146.232 267.833 148.473 269.049C149.583 269.65 150.738 270.161 151.897 270.659C153.089 271.171 154.286 271.613 155.376 272.329C157.506 273.728 159.341 275.538 161.511 276.88C162.58 277.54 163.776 277.969 164.949 278.406C165.328 278.547 166.016 278.957 166.289 278.442C166.592 277.871 165.844 277.677 165.467 277.537C164.326 277.112 163.128 276.719 162.09 276.071C161.042 275.417 160.074 274.645 159.101 273.886C158.109 273.112 157.14 272.305 156.091 271.606C155.055 270.916 153.955 270.447 152.812 269.966C150.407 268.957 148.102 267.813 145.932 266.356C143.847 264.954 141.832 263.398 140.158 261.514C139.618 260.906 139.12 260.269 138.62 259.63C141.135 260.894 143.662 262.133 146.209 263.33C146.713 263.7 147.213 264.076 147.708 264.458C150.086 266.292 152.593 268.007 155.242 269.431C156.559 270.14 157.876 270.823 159.282 271.343C160.687 271.862 162.118 272.313 163.513 272.859C164.92 273.413 166.232 274.164 167.558 274.883C168.871 275.598 170.145 276.364 171.423 277.138C172.683 277.902 174.011 278.642 175.378 279.2C176.671 279.728 178.007 280.218 179.402 280.37C180.046 280.441 180.662 280.583 181.29 280.726C180.736 281.073 180.187 281.429 179.623 281.759C179.602 281.771 179.581 281.782 179.561 281.793C178.102 281.665 176.666 280.917 175.373 280.314C173.846 279.604 172.238 279.15 170.581 278.861C170.176 278.79 169.774 278.716 169.375 278.619C169.078 278.546 168.753 278.556 168.636 278.902C168.374 279.673 169.816 279.735 170.265 279.814C171.958 280.109 173.576 280.569 175.135 281.298C176.011 281.707 176.897 282.123 177.823 282.407C177.964 282.453 178.111 282.477 178.254 282.514C177.854 282.734 177.459 282.965 177.055 283.177C176.993 283.209 176.859 283.301 176.781 283.319V283.319ZM171.778 285.623C171.54 285.566 171.287 285.534 171.109 285.482C170.135 285.204 169.178 284.846 168.216 284.529C166.214 283.87 164.257 283.069 162.239 282.458C160.209 281.845 158.162 281.243 156.209 280.409C154.132 279.521 152.146 278.589 150.397 277.141C149.527 276.419 148.727 275.629 147.954 274.806C147.141 273.941 146.406 273.002 145.568 272.158C145.757 272.346 145.357 271.942 145.32 271.905C145.214 271.8 145.105 271.697 144.993 271.598C144.739 271.371 144.474 271.158 144.205 270.952C143.667 270.537 143.119 270.133 142.565 269.741C141.476 268.973 140.412 268.18 139.356 267.366C137.141 265.662 134.957 263.918 132.897 262.025C131.454 260.697 130.089 259.311 128.802 257.831C127.552 256.394 126.555 254.78 125.424 253.253C125.154 252.889 124.877 252.529 124.592 252.177C124.838 252.316 125.084 252.454 125.331 252.593C125.609 252.749 125.797 252.942 126.047 253.14C126.568 253.556 127.089 253.971 127.603 254.398C128.612 255.231 129.596 256.097 130.513 257.031C131.419 257.957 132.169 259.038 132.959 260.064C133.78 261.128 134.653 262.146 135.56 263.137C136.45 264.109 137.328 265.128 138.338 265.978C139.325 266.809 140.49 267.342 141.631 267.918C142.763 268.49 143.831 269.174 144.867 269.901C145.978 270.68 147.035 271.53 148.135 272.323C149.233 273.117 150.373 273.85 151.505 274.593C153.72 276.046 156.123 277.153 158.354 278.573C159.447 279.269 160.545 279.964 161.7 280.552C162.888 281.154 164.167 281.528 165.44 281.902C166.725 282.283 168.002 282.683 169.287 283.066C170.507 283.428 171.735 283.798 172.998 283.964C173.619 284.046 174.229 284.185 174.847 284.282C173.838 284.764 172.809 285.194 171.778 285.623V285.623ZM166.804 287.478C165.578 287.338 164.434 286.985 163.252 286.646C162.01 286.289 160.737 286.059 159.493 285.71C157.036 285.019 154.79 283.797 152.557 282.59C150.331 281.388 148.073 280.223 145.901 278.926C143.836 277.695 141.895 276.21 140.39 274.323C139.633 273.374 139 272.338 138.206 271.417C137.4 270.481 136.513 269.657 135.558 268.874C133.577 267.25 131.539 265.733 129.663 263.981C127.821 262.262 126.079 260.441 124.39 258.573C122.766 256.78 121.328 254.847 119.523 253.228C117.618 251.516 115.676 249.847 113.792 248.114C111.919 246.388 110.112 244.595 108.307 242.8C107.856 242.35 107.404 241.901 106.952 241.454C111.519 244.446 116.165 247.314 120.886 250.057C121.052 250.153 121.219 250.246 121.386 250.343C121.954 250.804 122.499 251.29 122.983 251.831C124.274 253.27 125.339 254.864 126.45 256.441C128.645 259.558 131.51 262.213 134.399 264.677C136.07 266.101 137.815 267.434 139.554 268.774C140.429 269.447 141.328 270.077 142.225 270.721C142.674 271.043 143.118 271.371 143.557 271.707C143.897 271.968 144.409 272.383 144.601 272.581C144.631 272.613 144.663 272.644 144.695 272.676C144.562 272.542 144.869 272.852 144.898 272.881C145.123 273.104 145.521 273.561 145.803 273.882C146.172 274.302 146.532 274.731 146.91 275.144C147.609 275.905 148.331 276.654 149.101 277.343C150.675 278.758 152.412 279.789 154.33 280.664C156.226 281.526 158.156 282.237 160.141 282.861C162.174 283.498 164.185 284.159 166.192 284.871C167.16 285.214 168.136 285.53 169.107 285.862C169.485 285.992 169.863 286.121 170.242 286.245C169.106 286.682 167.965 287.106 166.804 287.478V287.478ZM158.367 289.577C157.488 289.733 156.493 290.021 155.601 289.942C154.701 289.861 153.835 289.742 152.948 289.568C152.031 289.386 151.094 289.294 150.188 289.065C149.282 288.834 148.386 288.531 147.492 288.259C146.631 287.998 145.749 287.759 144.938 287.361C144.111 286.954 143.302 286.535 142.438 286.205C140.686 285.531 138.857 285.131 137.185 284.257C135.52 283.388 133.982 282.3 132.318 281.423C130.662 280.55 128.972 279.74 127.359 278.788C125.72 277.823 124.254 276.681 122.836 275.418C121.454 274.189 120.142 272.889 118.679 271.754C117.209 270.617 115.63 269.644 114.096 268.6C111.086 266.553 108.33 264.066 105.992 261.278C104.793 259.847 103.718 258.338 102.712 256.769C101.779 255.314 100.736 253.9 99.2892 252.918C98.5767 252.435 97.7725 252.176 97.0397 251.74C96.3537 251.333 95.7813 250.689 95.2351 250.118C93.9605 248.783 92.8485 247.317 91.8209 245.786C89.7272 242.665 87.7012 239.454 85.8564 236.178C84.9501 234.572 84.1313 232.908 83.3695 231.228C82.9996 230.412 82.6747 229.572 82.2991 228.764C82.1299 228.4 82.1908 227.852 82.1804 227.433C82.1673 226.913 82.16 226.394 82.1595 225.874C82.158 224.94 82.1752 224.004 82.2132 223.068C82.61 223.406 83.008 223.745 83.408 224.081C88.6641 228.498 94.1376 232.652 99.7611 236.588C99.9089 236.692 100.122 236.801 100.204 236.948C100.285 237.089 100.276 237.213 100.394 237.348C100.656 237.646 101.008 237.896 101.305 238.16C101.918 238.706 102.509 239.277 103.127 239.818C104.453 240.983 105.705 242.217 106.956 243.461C109.432 245.923 111.919 248.371 114.521 250.7C115.797 251.841 117.091 252.957 118.367 254.094C118.966 254.629 119.555 255.176 120.109 255.756C120.704 256.38 121.211 257.086 121.769 257.741C124.021 260.382 126.423 262.909 128.968 265.268C130.18 266.392 131.431 267.469 132.745 268.471C134.11 269.513 135.476 270.562 136.659 271.811C137.771 272.983 138.585 274.392 139.626 275.621C140.686 276.874 141.912 277.913 143.231 278.882C144.58 279.876 146.069 280.68 147.54 281.476C149.106 282.325 150.667 283.181 152.235 284.026C153.734 284.835 155.237 285.661 156.821 286.29C158.356 286.901 159.937 287.281 161.539 287.665C162.349 287.858 163.144 288.093 163.941 288.33C162.104 288.831 160.242 289.243 158.367 289.577V289.577ZM144.474 290.514C144.409 290.345 144.249 290.223 144.058 290.158C143.619 290.01 143.162 289.909 142.719 289.77C141.92 289.518 141.143 289.197 140.394 288.823C138.838 288.042 137.36 287.109 135.855 286.237C134.309 285.343 132.709 284.535 131.042 283.892C129.375 283.246 127.714 282.617 126.09 281.864C124.488 281.121 122.823 280.468 121.354 279.474C119.951 278.525 118.566 277.502 117.362 276.307C115.985 274.944 114.775 273.421 113.397 272.057C113.037 271.701 112.671 271.345 112.287 271.016C111.986 270.759 111.445 270.723 111.376 271.241C111.324 271.63 111.785 271.897 112.031 272.123C112.369 272.431 112.693 272.754 113.016 273.08C113.057 273.123 113.19 273.258 113.203 273.271C113.291 273.364 113.38 273.456 113.467 273.549C113.659 273.752 113.85 273.957 114.039 274.165C114.419 274.578 114.792 274.997 115.169 275.413C117.195 277.658 119.518 279.694 122.195 281.135C123.518 281.847 124.927 282.426 126.294 283.049C127.722 283.697 129.182 284.245 130.646 284.805C132.215 285.406 133.766 286.176 135.201 287C136.785 287.912 138.335 288.9 139.969 289.719C140.418 289.945 140.879 290.144 141.346 290.328C140.321 290.241 139.299 290.134 138.28 290.001C135.216 289.578 132.178 288.93 129.197 288.085C128.987 287.988 128.777 287.892 128.57 287.788C128.391 287.698 128.214 287.606 128.038 287.51C127.963 287.471 127.466 287.186 127.759 287.359C126.376 286.564 124.949 285.853 123.667 284.894C122.411 283.953 121.19 282.961 119.99 281.95C117.591 279.923 115.409 277.689 112.717 276.033C111.213 275.109 109.786 274.177 108.442 273.025C107.297 272.043 106.226 270.978 105.237 269.84C104.239 268.69 103.359 267.445 102.381 266.278C101.404 265.114 100.441 263.935 99.4501 262.782C98.4632 261.633 97.4288 260.525 96.4408 259.378C95.4397 258.216 94.4397 257.062 93.396 255.937C92.8637 255.364 92.3595 254.766 91.8585 254.165C91.6756 253.946 91.4767 253.588 91.1788 253.519C90.898 253.457 90.6256 253.654 90.5835 253.935C90.5387 254.231 90.7913 254.437 90.9632 254.641C91.2163 254.944 91.4689 255.245 91.7247 255.545C92.2023 256.102 92.7007 256.638 93.2012 257.176C94.2381 258.286 95.198 259.465 96.1955 260.612C98.2236 262.942 100.276 265.243 102.215 267.65C103.173 268.838 104.076 270.062 105.113 271.182C106.133 272.288 107.221 273.317 108.379 274.273C109.519 275.214 110.738 275.971 111.992 276.747C113.259 277.531 114.461 278.4 115.59 279.37C116.754 280.373 117.856 281.444 119.027 282.438C120.209 283.442 121.414 284.413 122.64 285.359C123.143 285.747 123.665 286.088 124.192 286.419C123.355 286.105 122.511 285.804 121.69 285.453C120.455 284.923 119.238 284.352 118.037 283.752C117.512 283.383 116.99 283.014 116.466 282.671C114.86 281.617 113.342 280.45 111.979 279.095C111.956 279.07 111.791 278.907 111.777 278.894C111.688 278.801 111.597 278.709 111.508 278.617C111.311 278.413 111.113 278.21 110.915 278.009C110.52 277.604 110.122 277.2 109.716 276.805C108.455 275.577 107.148 274.41 105.797 273.282C105.133 272.726 104.49 272.142 103.821 271.593C103.505 271.333 103.178 271.085 102.852 270.837C102.609 270.65 102.287 270.292 101.97 270.254C101.653 270.218 101.383 270.494 101.424 270.809C101.471 271.168 101.932 271.386 102.189 271.582C102.838 272.081 103.466 272.594 104.083 273.13C105.381 274.259 106.714 275.338 107.972 276.513C109.148 277.612 110.255 278.773 111.394 279.906C109.942 278.953 108.515 277.958 107.148 276.886C102.977 273.613 99.1985 269.843 95.9173 265.678C92.4439 261.271 89.5777 256.377 87.3537 251.23C85.8455 247.737 84.6991 244.092 83.8444 240.382C84.1017 240.907 84.3585 241.435 84.6543 241.944C85.022 242.574 85.4137 243.189 85.8304 243.79C87.5695 246.316 89.4195 248.837 91.4371 251.146C92.4537 252.312 93.5179 253.452 94.6387 254.517C95.7496 255.571 96.958 256.529 98.0356 257.619C99.1351 258.731 100.063 260.01 101.054 261.216C102.05 262.428 103.027 263.658 104.061 264.838C105.055 265.973 106.141 267.028 107.277 268.021C107.864 268.534 108.474 269.018 109.083 269.505C109.306 269.681 109.571 269.993 109.879 269.983C110.153 269.974 110.365 269.746 110.356 269.473C110.346 269.156 110.033 268.99 109.812 268.814C109.495 268.565 109.18 268.314 108.868 268.061C108.289 267.589 107.726 267.101 107.177 266.595C106.045 265.553 105.003 264.437 104.017 263.256C103 262.035 101.989 260.809 100.995 259.57C100.033 258.373 99.0761 257.209 97.9419 256.168C96.8392 255.157 95.6865 254.201 94.6376 253.131C93.5392 252.013 92.4627 250.864 91.4689 249.65C90.4772 248.438 89.5475 247.178 88.6121 245.925C87.6865 244.682 86.7444 243.444 85.9225 242.129C85.1272 240.856 84.4641 239.507 83.8913 238.121C83.6075 237.432 83.3277 236.741 83.0819 236.038C83.0132 235.844 82.9512 235.645 82.8865 235.448C82.8537 235.23 82.8043 235.016 82.7731 234.798C82.6756 234.118 82.5971 233.436 82.5256 232.752C83.8485 235.534 85.3423 238.194 86.972 240.807C88.5829 243.394 90.1433 246.043 91.9851 248.474C92.896 249.677 93.8887 250.841 94.9799 251.883C95.4689 252.35 95.9919 252.805 96.5965 253.118C97.2272 253.444 97.8903 253.671 98.4799 254.078C99.6168 254.864 100.477 255.946 101.227 257.09C102.041 258.331 102.846 259.566 103.749 260.746C105.589 263.149 107.69 265.288 109.99 267.247C112.274 269.194 114.859 270.68 117.262 272.462C119.697 274.27 121.731 276.542 124.152 278.366C126.568 280.189 129.335 281.433 131.989 282.853C133.307 283.559 134.54 284.397 135.837 285.133C137.105 285.853 138.393 286.368 139.781 286.801C141.206 287.246 142.585 287.741 143.912 288.433C145.221 289.114 146.663 289.501 148.075 289.906C148.747 290.101 149.406 290.337 150.087 290.495C148.218 290.582 146.344 290.585 144.474 290.514ZM112.559 170.808C112.756 170.754 112.679 170.717 112.82 170.886C112.893 170.974 112.966 171.065 113.039 171.153C113.4 171.605 113.726 172.074 114.014 172.574C114.552 173.504 115.083 174.426 115.698 175.306C116.947 177.097 118.39 178.669 120.005 180.133C121.657 181.632 123.382 183.053 124.928 184.664C126.466 186.269 127.779 188.07 129.203 189.773C130.62 191.469 132.179 193.033 133.815 194.518C135.421 195.978 137.067 197.302 138.942 198.406C140.859 199.537 142.89 200.5 144.718 201.778C145.601 202.396 146.436 203.05 147.197 203.814C147.979 204.6 148.649 205.482 149.33 206.354C150.675 208.077 152.011 209.786 153.576 211.316C156.748 214.416 160.661 216.505 164.414 218.797C168.239 221.134 171.954 223.688 175.969 225.697C178.005 226.716 180.116 227.597 182.201 228.508C184.31 229.428 186.457 230.23 188.587 231.098C190.633 231.934 192.545 233.01 194.447 234.126C195.399 234.686 196.357 235.229 197.381 235.645C198.391 236.056 199.424 236.352 200.481 236.606C202.644 237.124 204.765 237.812 206.904 238.421C207.916 238.709 208.947 238.944 209.972 239.182C210.032 239.197 210.363 239.229 210.395 239.276C210.424 239.319 210.325 239.595 210.312 239.658C210.251 239.94 210.188 240.219 210.123 240.5C209.993 241.058 209.856 241.617 209.712 242.173C209.155 244.321 208.479 246.438 207.699 248.516C207.297 249.588 206.871 250.65 206.405 251.695C206.352 251.814 206.299 251.934 206.245 252.053C206.144 252.277 206.2 252.313 205.972 252.289C205.744 252.266 205.475 252.119 205.259 252.047C204.705 251.868 204.144 251.716 203.584 251.562C201.416 250.965 199.208 250.462 197.128 249.6C195.083 248.75 193.045 247.842 191.092 246.798C187.117 244.676 183.24 242.343 179.438 239.926C177.574 238.741 175.916 237.322 174.154 236.001C172.388 234.676 170.536 233.621 168.447 232.893C166.329 232.152 164.209 231.48 162.199 230.464C160.233 229.472 158.404 228.297 156.617 227.014C154.82 225.725 153.139 224.266 151.455 222.836C149.717 221.356 147.977 219.881 146.204 218.444C144.456 217.026 142.685 215.637 140.859 214.322C139.05 213.02 137.23 211.746 135.525 210.309C132.101 207.421 129.326 203.893 126.071 200.83C124.42 199.276 122.695 197.798 120.973 196.324C119.285 194.878 117.516 193.512 115.881 192.008C114.305 190.557 112.837 189.013 111.692 187.193C110.518 185.326 109.527 183.357 108.297 181.522C107.74 180.692 107.143 179.889 106.487 179.134C106.143 178.741 105.792 178.356 105.415 177.994C105.092 177.684 104.683 177.121 104.241 177.012C105.213 176.153 106.209 175.316 107.237 174.524C108.721 173.357 110.277 172.277 111.862 171.252C112.062 171.122 112.331 170.869 112.559 170.808V170.808ZM114.326 169.732C114.588 169.578 114.855 169.438 115.118 169.289C115.204 169.682 115.782 170.012 116.036 170.245C116.494 170.668 116.937 171.106 117.366 171.556C118.263 172.494 119.097 173.49 119.965 174.454C120.839 175.428 121.711 176.404 122.526 177.426C123.338 178.446 124.066 179.526 124.862 180.558C126.438 182.597 128.18 184.494 129.845 186.46C131.479 188.388 133.128 190.276 135.05 191.926C136.042 192.778 137.092 193.556 138.165 194.301C138.686 194.665 139.211 195.018 139.738 195.369C139.992 195.538 140.247 195.705 140.5 195.873C140.724 196.02 140.986 196.274 141.271 196.24C141.719 196.188 141.873 195.586 141.49 195.334C139.331 193.914 137.158 192.496 135.228 190.769C133.341 189.08 131.743 187.145 130.102 185.228C128.41 183.25 126.662 181.326 125.105 179.238C124.356 178.233 123.64 177.21 122.844 176.24C122.028 175.242 121.154 174.296 120.302 173.329C119.44 172.348 118.58 171.366 117.661 170.438C117.223 169.996 116.77 169.569 116.299 169.161C116.191 169.066 116.052 168.946 115.904 168.853C116.919 168.297 117.942 167.756 118.987 167.254C119.389 167.061 119.798 166.882 120.204 166.697C120.325 166.757 120.446 166.813 120.546 166.868C120.927 167.08 121.307 167.297 121.667 167.545C123.05 168.493 124.295 169.737 125.453 170.945C126.594 172.134 127.521 173.472 128.378 174.876C128.591 175.225 128.8 175.576 129.013 175.925C129.133 176.121 129.255 176.318 129.379 176.513C129.434 176.601 129.49 176.686 129.546 176.773C129.567 176.805 129.672 176.961 129.673 176.964C129.974 177.412 130.276 177.858 130.597 178.292C131.633 179.686 132.787 180.973 133.933 182.277C135.092 183.594 136.264 184.901 137.503 186.145C139.945 188.596 142.821 190.569 145.708 192.454C148.596 194.338 151.775 195.696 154.725 197.472C155.485 197.929 156.237 198.4 156.987 198.876C157.364 199.114 158.464 200.113 158.777 199.316C158.914 198.968 158.653 198.757 158.394 198.592C158.007 198.344 157.62 198.098 157.232 197.852C156.498 197.389 155.761 196.929 155.015 196.486C152.032 194.716 148.855 193.321 145.944 191.421C143.039 189.525 140.191 187.502 137.77 185.002C136.586 183.78 135.459 182.504 134.331 181.229C133.225 179.98 132.115 178.728 131.145 177.366C130.152 175.97 129.337 174.462 128.388 173.038C127.44 171.617 126.326 170.354 125.084 169.184C123.915 168.081 122.742 166.98 121.341 166.177C121.757 165.998 122.176 165.824 122.597 165.654C122.68 165.621 122.856 165.517 122.951 165.513C123.153 165.506 122.897 165.486 123.138 165.578C123.292 165.638 123.419 165.692 123.591 165.682C123.587 165.985 123.792 166.181 123.987 166.389C124.259 166.677 124.527 166.97 124.782 167.277C125.263 167.852 125.706 168.456 126.142 169.066C127.075 170.37 127.974 171.702 128.958 172.968C130.886 175.45 133.066 177.733 135.315 179.922C137.573 182.122 139.898 184.269 142.373 186.225C144.797 188.141 147.286 190.09 149.957 191.654C151.412 192.508 152.948 193.216 154.464 193.95C156.023 194.705 157.533 195.506 159.018 196.396C160.854 197.63 162.542 198.996 164.179 200.485C165.844 202.002 167.484 203.565 169.275 204.932C171.002 206.252 172.831 207.429 174.601 208.69C176.459 210.016 178.293 211.374 180.136 212.721C182.026 214.101 183.909 215.498 185.853 216.802C187.664 218.017 189.499 219.233 191.448 220.214C193.472 221.232 195.543 221.938 197.705 222.589C199.831 223.229 201.835 224.058 203.869 224.938C206.135 225.918 208.445 226.856 210.817 227.546C211.047 227.614 211.436 227.654 211.64 227.778C211.687 227.788 211.732 227.798 211.779 227.809C211.776 227.913 211.772 228.017 211.769 228.121C211.763 228.277 211.757 228.433 211.751 228.589C211.729 229.094 211.696 229.598 211.664 230.104C207.945 228.725 204.144 227.45 200.301 226.482C198.32 225.982 196.407 225.334 194.553 224.468C192.705 223.605 191.032 222.492 189.341 221.357C187.639 220.217 186.011 218.969 184.257 217.905C182.484 216.829 180.625 215.901 178.857 214.814C177.135 213.756 175.469 212.596 173.809 211.442C172.162 210.296 170.597 209.05 169.171 207.634C167.686 206.162 166.201 204.677 164.617 203.306C163.86 202.652 163.059 202.046 162.251 201.457C161.849 201.165 161.441 200.878 161.027 200.604C160.724 200.401 160.321 200.045 159.977 200.389C159.704 200.661 159.859 201.001 160.118 201.196C160.526 201.504 160.974 201.768 161.391 202.064C162.19 202.626 162.97 203.22 163.724 203.844C165.303 205.15 166.763 206.629 168.211 208.077C171.113 210.981 174.577 213.305 178.044 215.481C179.776 216.566 181.603 217.486 183.359 218.529C185.151 219.594 186.805 220.846 188.529 222.013C190.229 223.162 191.927 224.302 193.777 225.196C195.596 226.072 197.464 226.752 199.413 227.277C203.353 228.337 207.293 229.497 211.109 230.95C211.252 231.004 211.419 231.086 211.587 231.148C211.552 231.592 211.516 232.034 211.472 232.478C211.44 232.788 211.407 233.098 211.371 233.409C211.359 233.522 211.344 233.636 211.331 233.75C211.315 233.696 211.289 233.641 211.251 233.585C211.037 233.272 210.417 233.112 210.077 232.946C209.584 232.708 209.093 232.462 208.599 232.228C206.663 231.308 204.601 230.737 202.559 230.108C198.38 228.818 194.12 227.694 190.413 225.288C188.379 223.964 186.407 222.556 184.349 221.268C184.083 221.101 183.818 220.936 183.552 220.77C183.338 220.636 183.097 220.416 182.842 220.368C182.417 220.289 182.094 220.772 182.336 221.133C182.478 221.345 182.789 221.465 183.002 221.598C183.264 221.762 183.527 221.925 183.79 222.089C184.359 222.445 184.926 222.802 185.487 223.172C187.324 224.374 189.089 225.694 190.983 226.812C192.883 227.932 194.96 228.726 197.041 229.437C201.111 230.822 205.327 231.732 209.209 233.616C209.671 233.84 210.143 234.142 210.627 234.308C210.889 234.398 211.173 234.281 211.291 234.073C211.275 234.205 211.256 234.344 211.264 234.294C211.256 234.345 211.253 234.365 211.252 234.37C211.251 234.382 211.252 234.378 211.249 234.398C211.257 234.336 211.248 234.405 211.248 234.416V234.414C211.248 234.414 211.247 234.422 211.247 234.424C211.247 234.866 211.112 235.35 211.043 235.788C211.029 235.872 211.013 235.954 211 236.037C208.523 235.437 206.047 234.804 203.573 234.185C202.312 233.869 201.045 233.58 199.847 233.065C198.643 232.548 197.493 231.86 196.355 231.213C194.061 229.91 191.889 228.409 189.615 227.078C187.34 225.748 184.936 224.646 182.576 223.477C177.757 221.088 172.74 218.898 168.34 215.77C167.287 215.021 166.279 214.222 165.364 213.31C164.417 212.368 163.531 211.37 162.559 210.453C160.614 208.614 158.443 207.037 156.333 205.398C154.234 203.765 152.233 201.965 149.959 200.574C148.842 199.892 147.699 199.256 146.553 198.622C145.95 198.29 145.337 197.976 144.739 197.636C144.37 197.425 143.774 196.821 143.326 197.057C143.132 197.158 143.027 197.377 143.071 197.593C143.129 197.868 143.412 197.993 143.627 198.128C144.151 198.457 144.7 198.74 145.244 199.036C146.433 199.682 147.628 200.329 148.789 201.025C151.062 202.39 153.078 204.082 155.151 205.728C157.25 207.393 159.445 208.942 161.425 210.753C163.321 212.486 164.942 214.457 167 216.016C171.221 219.212 176.12 221.378 180.838 223.721C183.209 224.897 185.643 225.993 187.959 227.274C190.285 228.562 192.508 230.046 194.777 231.433C197.028 232.81 199.353 234.129 201.921 234.793C203.207 235.126 204.501 235.418 205.792 235.73C207.083 236.042 208.359 236.413 209.652 236.713C209.953 236.784 210.255 236.846 210.552 236.934C210.636 236.958 210.731 236.99 210.828 237.02C210.776 237.306 210.731 237.596 210.676 237.882C208.756 237.458 206.851 236.965 204.967 236.4C204.011 236.114 203.061 235.802 202.096 235.55C201.115 235.293 200.12 235.084 199.151 234.786C197.257 234.204 195.588 233.144 193.889 232.156C192.204 231.176 190.461 230.305 188.644 229.596C184.897 228.133 181.186 226.582 177.541 224.878C173.89 223.17 170.545 220.932 167.13 218.81C163.76 216.717 160.198 214.85 157.049 212.426C155.579 211.294 154.179 210.042 152.967 208.632C151.677 207.13 150.524 205.52 149.264 203.993C148.036 202.502 146.59 201.308 144.976 200.256C143.309 199.17 141.532 198.278 139.815 197.278C136.487 195.338 133.643 192.608 131.06 189.769C129.753 188.333 128.612 186.746 127.356 185.265C126.092 183.776 124.718 182.428 123.264 181.125C121.782 179.8 120.247 178.526 118.89 177.068C117.575 175.654 116.48 174.034 115.526 172.36C115.044 171.516 114.535 170.726 113.907 169.984C114.047 169.9 114.185 169.812 114.326 169.732V169.732ZM124.662 164.858C126.224 164.304 127.791 163.781 129.385 163.329C130.388 163.044 131.399 162.786 132.415 162.554C132.873 162.45 133.332 162.35 133.792 162.256C133.897 162.234 134.068 162.165 134.175 162.178C134.297 162.194 134.291 162.229 134.39 162.328C134.559 162.498 134.771 162.637 134.957 162.79C136.485 164.042 137.827 165.424 139.145 166.892C140.386 168.273 141.703 169.548 143.292 170.524C144.909 171.516 146.699 172.137 148.399 172.957C150.037 173.748 151.639 174.71 153.053 175.853C154.524 177.041 155.792 178.484 157.305 179.612C158.053 180.169 158.87 180.641 159.719 181.029C160.578 181.422 161.5 181.649 162.412 181.886C164.264 182.366 166.091 182.749 167.722 183.797C169.256 184.784 170.68 185.929 171.833 187.345C174.289 190.358 176.607 193.544 180.071 195.48C181.785 196.437 183.578 197.221 185.375 198.006C187.213 198.808 189.047 199.617 190.945 200.264C192.803 200.898 194.661 201.57 196.54 202.133C198.429 202.698 200.32 203.128 202.071 204.074C203.8 205.01 205.479 206.061 207.135 207.12C207.5 207.352 207.873 207.57 208.257 207.772C208.603 207.952 209.299 208.145 209.483 208.457C209.592 208.644 209.619 208.948 209.675 209.16C209.741 209.408 209.805 209.658 209.868 209.908C209.995 210.408 210.115 210.91 210.228 211.413C211.116 215.353 211.628 219.366 211.768 223.401C211.803 224.385 211.815 225.369 211.805 226.353C208.429 225.484 205.251 223.946 202.045 222.602C200.413 221.917 198.723 221.422 197.029 220.913C195.332 220.404 193.712 219.768 192.129 218.969C188.945 217.364 186.016 215.237 183.131 213.154C180.163 211.01 177.242 208.801 174.233 206.714C172.782 205.708 171.315 204.721 169.915 203.644C168.531 202.58 167.254 201.365 165.965 200.19C164.693 199.032 163.429 197.861 162.066 196.806C160.726 195.769 159.286 194.846 157.796 194.037C154.702 192.353 151.401 191.092 148.514 189.042C145.573 186.954 142.706 184.772 140.012 182.372C137.37 180.02 134.808 177.549 132.442 174.918C131.24 173.581 130.118 172.182 129.065 170.725C128.052 169.322 127.104 167.86 125.997 166.526C125.737 166.213 125.468 165.906 125.192 165.608C124.953 165.346 124.724 165.004 124.341 164.981C124.449 164.941 124.555 164.9 124.662 164.858V164.858ZM136.49 161.745C136.505 161.773 136.507 161.802 136.527 161.828C136.728 162.078 137.183 162.161 137.467 162.284C137.833 162.441 138.18 162.629 138.52 162.838C139.968 163.729 141.089 164.977 142.292 166.158C143.505 167.349 144.887 168.338 146.347 169.205C147.792 170.064 149.326 170.76 150.779 171.6C152.227 172.436 153.565 173.432 154.839 174.509C155.119 174.744 155.533 175.264 155.903 175.334C156.261 175.401 156.586 175.045 156.467 174.693C156.349 174.344 155.839 174.061 155.568 173.832C155.198 173.517 154.826 173.208 154.446 172.905C152.952 171.714 151.337 170.746 149.641 169.874C148.144 169.105 146.684 168.286 145.294 167.336C143.905 166.386 142.763 165.233 141.583 164.044C140.563 163.014 139.394 162.117 138.083 161.493C139.685 161.264 141.309 161.136 142.918 161.036C143.536 160.998 144.153 160.97 144.771 160.95C145.093 160.938 145.415 160.93 145.736 160.924C145.897 160.921 146.057 160.92 146.218 160.917C146.487 160.914 146.532 160.994 146.747 161.166C147.813 162.012 148.581 163.124 149.523 164.093C150.455 165.053 151.514 165.926 152.615 166.686C153.773 167.484 155.012 168.165 156.209 168.9C157.36 169.606 158.44 170.364 159.466 171.244C161.461 172.954 163.015 175.132 165.261 176.554C166.406 177.28 167.697 177.716 168.909 178.309C170.106 178.897 171.169 179.65 172.237 180.441C173.332 181.25 174.454 181.922 175.747 182.368C176.997 182.8 178.323 182.99 179.563 183.442C182.057 184.349 183.839 186.469 186.145 187.728C188.508 189.016 191.092 189.652 193.644 190.444C194.988 190.86 196.325 191.313 197.659 191.765C198.94 192.2 200.173 192.773 201.477 193.133C201.953 193.265 202.616 193.586 203.007 193.114C203.597 194.121 204.155 195.146 204.688 196.182C204.624 196.16 204.56 196.133 204.499 196.11C201.901 195.113 199.304 194.146 196.651 193.306C195.329 192.888 193.999 192.476 192.711 191.962C191.441 191.454 190.316 190.83 189.164 190.101C188.925 189.95 188.651 189.854 188.419 190.085C188.237 190.266 188.236 190.557 188.391 190.753C188.593 191.009 188.999 191.181 189.275 191.356C189.612 191.57 189.952 191.785 190.305 191.974C191.651 192.704 193.132 193.194 194.577 193.682C197.197 194.569 199.868 195.328 202.432 196.374C203.035 196.62 203.644 196.844 204.252 197.078C204.555 197.194 204.855 197.313 205.152 197.44C205.209 197.464 205.273 197.497 205.337 197.53C205.717 198.313 206.095 199.096 206.443 199.893C206.32 199.832 206.2 199.774 206.101 199.72C205.699 199.493 205.291 199.276 204.875 199.074C203.252 198.292 201.572 197.622 199.872 197.028C198.891 196.682 197.896 196.389 196.892 196.118C196.529 196.02 195.919 195.704 195.585 195.997C195.313 196.236 195.389 196.738 195.761 196.84C199.205 197.79 202.667 198.9 205.787 200.681C206.055 200.836 206.395 201.149 206.731 201.045C206.787 201.026 206.831 200.992 206.875 200.957C207.173 201.677 207.479 202.397 207.752 203.128C207.639 203.076 207.532 203.028 207.448 202.989C207.32 202.928 207.185 202.924 207.065 202.88C206.884 202.812 206.697 202.65 206.532 202.553C206.135 202.316 205.727 202.098 205.313 201.896C204.484 201.488 203.631 201.142 202.773 200.802C201.048 200.121 199.36 199.346 197.597 198.765C195.836 198.185 194.032 197.742 192.28 197.138C190.503 196.525 188.821 195.697 187.105 194.937C185.345 194.158 183.663 193.328 182.058 192.26C180.531 191.244 179.151 190.113 177.903 188.766C176.641 187.405 175.476 185.958 174.206 184.605C172.997 183.317 171.63 182.065 170.102 181.165C168.541 180.246 166.797 179.637 165.101 179.024C164.229 178.709 163.35 178.409 162.474 178.102C162.185 178.001 161.859 178.222 161.828 178.522C161.78 178.98 162.273 179.085 162.604 179.201C163.469 179.505 164.336 179.804 165.197 180.118C166.899 180.738 168.646 181.366 170.16 182.384C173.265 184.464 175.328 187.641 177.949 190.234C179.245 191.517 180.692 192.59 182.232 193.564C183.804 194.557 185.484 195.3 187.18 196.052C188.888 196.809 190.561 197.629 192.34 198.209C194.128 198.792 195.951 199.258 197.732 199.865C199.48 200.461 201.175 201.226 202.888 201.917C203.739 202.26 204.588 202.612 205.396 203.048C205.785 203.257 206.163 203.489 206.537 203.724C206.711 203.832 206.88 203.946 207.055 204.052C207.292 204.194 207.416 204.153 207.653 204.218C207.936 204.296 208.084 204.548 208.292 204.706C208.499 205.305 208.719 205.898 208.907 206.502C207.64 205.84 206.465 205.005 205.232 204.282C203.985 203.553 202.768 202.761 201.435 202.194C200.084 201.621 198.669 201.266 197.261 200.865C195.847 200.462 194.471 199.941 193.075 199.482C191.671 199.02 190.272 198.55 188.904 197.985C187.543 197.421 186.2 196.806 184.85 196.218C183.563 195.656 182.282 195.077 181.051 194.402C179.839 193.74 178.783 192.938 177.756 192.017C175.614 190.097 174.117 187.638 172.159 185.561C171.192 184.536 170.078 183.694 168.918 182.901C167.74 182.096 166.555 181.536 165.183 181.15C163.782 180.757 162.326 180.488 160.953 180.004C159.75 179.58 158.576 178.877 157.61 178.046C156.543 177.129 155.587 176.094 154.497 175.2C153.437 174.33 152.347 173.549 151.163 172.854C149.966 172.153 148.743 171.532 147.468 170.984C146.18 170.429 144.885 169.882 143.704 169.116C141.279 167.541 139.643 165.114 137.559 163.161C137.066 162.698 136.547 162.265 136.027 161.834C136.175 161.808 136.334 161.77 136.49 161.745V161.745ZM155.724 161.486C164.539 162.705 173.052 165.706 180.655 170.336C182.756 171.614 184.795 173.01 186.733 174.525C186.493 174.345 186.943 174.69 186.993 174.732C187.131 174.84 187.268 174.949 187.404 175.058C187.716 175.308 188.025 175.562 188.333 175.817C188.928 176.313 189.515 176.818 190.092 177.334C191.227 178.346 192.329 179.398 193.392 180.485C195.525 182.666 197.511 185.002 199.305 187.468C200.347 188.897 201.329 190.368 202.256 191.873C201.229 191.586 200.263 191.198 199.265 190.833C198.265 190.465 197.251 190.145 196.241 189.806C194.256 189.144 192.253 188.558 190.255 187.94C188.261 187.324 186.444 186.354 184.765 185.122C183.99 184.554 183.266 183.916 182.479 183.362C181.684 182.804 180.782 182.354 179.861 182.048C177.969 181.416 175.972 181.198 174.251 180.113C173.391 179.569 172.61 178.916 171.775 178.34C170.912 177.744 169.992 177.258 169.044 176.814C168.131 176.386 167.176 176.044 166.306 175.529C165.446 175.02 164.659 174.377 163.936 173.688C162.426 172.25 161.074 170.697 159.442 169.385C157.61 167.91 155.467 166.9 153.526 165.589C152.58 164.95 151.691 164.225 150.873 163.428C150.068 162.642 149.386 161.748 148.613 160.934C150.99 160.992 153.365 161.176 155.724 161.486V161.486ZM116.068 227.189C114.476 225.71 112.638 224.572 111.177 222.949C109.638 221.18 108.175 219.342 106.68 217.534C105.159 215.693 103.744 213.786 102.297 211.888C100.857 210.001 99.2428 208.288 97.5673 206.613C95.948 204.994 94.2673 203.358 93.0319 201.417C92.3641 200.366 91.7908 199.257 91.3589 198.089C91.1413 197.502 90.9851 196.896 90.808 196.294C90.6616 195.796 90.5908 194.997 89.9501 194.909C91.2392 192.53 92.6647 190.216 94.2548 188.024C94.1856 188.384 94.4627 188.75 94.6141 189.061C94.796 189.429 94.9813 189.796 95.1699 190.161C95.5345 190.868 95.908 191.57 96.284 192.272C97.0267 193.654 97.8408 194.998 98.7663 196.268C100.645 198.842 102.761 201.204 105.032 203.437C107.33 205.696 109.805 207.761 112.129 209.99C114.397 212.166 116.191 214.734 118.28 217.068C119.437 218.361 120.662 219.624 121.977 220.757C123.329 221.922 124.804 222.868 126.302 223.829C128.026 224.986 129.657 226.252 131.222 227.617C132.773 228.968 134.211 230.444 135.688 231.872C137.201 233.336 138.707 234.81 140.254 236.236C141.81 237.672 143.477 238.938 145.219 240.135C146.949 241.326 148.726 242.446 150.453 243.638C152.179 244.83 153.797 246.156 155.479 247.404C157.141 248.637 158.842 249.761 160.8 250.473C161.691 250.797 162.606 251.046 163.489 251.393C164.439 251.766 165.318 252.28 166.172 252.835C168.141 254.117 170.104 255.402 172.052 256.717C174.031 258.05 176.143 259.147 178.198 260.356C172.326 258.38 166.536 256.156 160.825 253.749C155.201 251.381 149.657 248.825 144.19 246.114C141.062 244.562 137.959 242.958 134.88 241.309C133.136 240.37 131.417 239.417 129.805 238.261C128.206 237.113 126.692 235.845 125.094 234.694C123.483 233.533 121.789 232.477 120.266 231.196C118.781 229.946 117.487 228.508 116.068 227.189ZM109.271 225.844C109.151 225.74 109.036 225.645 108.954 225.566C108.049 224.673 107.115 223.81 106.196 222.932C104.351 221.165 102.558 219.369 101.055 217.292C100.326 216.286 99.7089 215.205 99.0179 214.173C98.3267 213.141 97.5829 212.142 96.7923 211.185C95.2012 209.257 93.2283 207.658 91.7965 205.602C91.0856 204.581 90.4871 203.488 89.9731 202.357C89.4423 201.19 88.9485 200.016 88.7537 198.742C88.7127 198.473 88.6955 198.022 88.5023 197.784C88.7611 197.244 89.0111 196.701 89.2845 196.169C89.622 197.296 89.9189 198.43 90.4028 199.506C90.8725 200.55 91.4147 201.568 92.0501 202.521C93.2736 204.357 94.8965 205.938 96.4471 207.496C98.0548 209.112 99.6413 210.734 101.02 212.554C102.425 214.408 103.801 216.276 105.282 218.069C106.11 219.072 106.949 220.066 107.774 221.07C108.18 221.566 108.582 222.066 108.991 222.56C109.177 222.785 109.365 223.008 109.553 223.229C109.649 223.34 109.743 223.45 109.839 223.561C109.874 223.601 110.19 223.962 110.084 223.844C110.126 223.892 110.168 223.94 110.209 223.986C111.529 225.516 113.445 226.736 115.012 228.146C116.662 229.632 118.113 231.297 119.859 232.682C116.275 230.49 112.754 228.196 109.271 225.844V225.844ZM96.6949 216.782C95.8304 215.914 95.0204 214.945 94.3532 213.928C93.5965 212.776 92.8761 211.602 92.0752 210.481C91.2419 209.316 90.2632 208.285 89.3689 207.172C88.4204 205.992 87.6173 204.69 87.1496 203.246C87.0517 202.944 86.9975 202.426 86.7641 202.193C86.7189 202.148 86.6507 202.149 86.5919 202.125C86.6127 202.072 86.6308 202.018 86.6517 201.965C87.0236 201.017 87.4241 200.082 87.8433 199.156C88.0501 200.216 88.3851 201.225 88.8204 202.217C89.8184 204.489 91.0865 206.592 92.8184 208.381C94.5564 210.177 96.2532 211.952 97.6933 214.004C98.0501 214.51 98.4043 215.022 98.7351 215.548C100.057 217.65 101.493 219.684 103.257 221.446C103.573 221.76 103.899 222.064 104.218 222.373C101.673 220.562 99.1616 218.7 96.6949 216.782V216.782ZM85.2012 206.042C85.3621 205.538 85.5288 205.037 85.7012 204.537C85.8408 204.134 85.9971 203.737 86.1449 203.338C86.2496 203.669 86.3532 204.001 86.4741 204.326C87.4365 206.932 89.6559 208.813 91.2371 211.02C91.9491 212.014 92.6043 213.052 93.284 214.069C92.9304 213.782 92.5715 213.501 92.2199 213.21C89.7971 211.206 87.4204 209.142 85.1225 206.996C85.1528 207.022 85.1491 207.018 85.1141 206.986C85.1147 206.989 84.9679 206.886 84.9543 206.837C84.91 206.672 85.1485 206.209 85.2012 206.042V206.042ZM86.7637 198.105C85.6252 200.588 84.6356 203.136 83.808 205.738C79.4365 201.533 75.2585 197.022 71.9808 191.897C70.2157 189.082 68.5641 185.92 68.2241 182.566C68.06 180.945 68.2523 179.246 69.048 177.8C69.8288 176.384 71.0851 175.306 72.4971 174.55C75.4564 172.964 79.0157 172.502 82.3308 172.404C85.8548 172.298 89.3799 172.57 92.8699 173.042C96.6736 173.556 100.459 174.302 104.18 175.192C96.7991 181.46 90.8028 189.298 86.7637 198.105ZM198.072 265.641C198.004 265.518 197.88 265.418 197.741 265.343C197.359 265.137 196.967 264.947 196.583 264.742C195.083 263.946 193.695 263.016 192.299 262.049C190.876 261.062 189.492 260.014 188.019 259.101C186.573 258.206 185.125 257.395 183.771 256.357C181.101 254.309 178.813 251.777 175.715 250.34C174.185 249.628 172.577 249.114 171.064 248.356C169.532 247.588 168.047 246.676 166.677 245.646C165.305 244.614 163.977 243.526 162.607 242.493C161.232 241.456 159.774 240.566 158.253 239.761C157.537 239.38 156.823 239.034 156.026 238.859C155.74 238.797 155.439 238.754 155.27 239.057C155.081 239.395 155.325 239.706 155.649 239.793C157.219 240.221 158.636 241.038 160.011 241.902C162.916 243.733 165.386 246.164 168.325 247.946C169.797 248.84 171.316 249.617 172.906 250.28C173.69 250.607 174.505 250.871 175.277 251.226C176.032 251.573 176.743 252.002 177.431 252.466C178.86 253.433 180.101 254.598 181.401 255.723C182.656 256.809 184 257.87 185.423 258.728C186.875 259.601 188.312 260.459 189.707 261.425C191.112 262.4 192.5 263.394 193.916 264.35C194.415 264.688 194.935 264.98 195.461 265.262C193.755 264.881 192.057 264.454 190.367 264.009C190.281 263.916 190.161 263.847 190.036 263.785C187.98 262.723 186.151 261.268 183.969 260.45C182.837 260.025 181.946 259.341 180.995 258.607C180.076 257.9 179.195 257.157 178.369 256.342C177.52 255.504 176.649 254.745 175.672 254.057C174.67 253.349 173.636 252.69 172.625 252.001C170.624 250.633 168.542 249.27 166.273 248.389C165.16 247.956 164.031 247.574 162.949 247.069C162.403 246.814 161.894 246.525 161.411 246.162C161.25 246.04 161.101 245.883 160.883 245.882C160.619 245.881 160.394 246.092 160.383 246.356C160.364 246.811 161.044 247.138 161.367 247.346C161.852 247.658 162.378 247.909 162.904 248.144C164.053 248.656 165.256 249.028 166.414 249.518C168.599 250.445 170.563 251.809 172.518 253.13C173.667 253.907 174.841 254.649 175.95 255.483C177.003 256.277 177.866 257.288 178.855 258.153C179.856 259.029 180.929 259.894 182.041 260.623C182.584 260.981 183.162 261.206 183.767 261.434C184.425 261.68 185.052 262.002 185.669 262.337C186.029 262.542 186.377 262.768 186.728 262.988C185.692 262.69 184.649 262.413 183.618 262.098C183.582 261.498 182.906 261.377 182.463 261.153C181.89 260.862 181.328 260.556 180.774 260.233C179.623 259.562 178.488 258.866 177.33 258.21C176.197 257.566 175.047 256.961 173.944 256.269C172.82 255.565 171.742 254.789 170.638 254.054C169.55 253.33 168.434 252.649 167.349 251.919C166.297 251.212 165.211 250.533 164.023 250.076C162.83 249.617 161.583 249.307 160.416 248.782C159.231 248.246 158.164 247.598 157.109 246.838C154.974 245.3 152.946 243.623 150.765 242.145C148.613 240.686 146.412 239.302 144.312 237.766C142.211 236.229 140.368 234.393 138.494 232.593C136.576 230.75 134.704 228.852 132.739 227.061C130.82 225.31 128.761 223.742 126.58 222.334C125.47 221.617 124.345 220.924 123.339 220.061C122.376 219.234 121.458 218.364 120.576 217.452C120.136 216.997 119.705 216.534 119.275 216.07C117.665 214.208 116.193 212.232 114.524 210.417C112.794 208.54 110.845 206.878 108.956 205.166C105.195 201.757 101.531 198.124 98.8121 193.804C98.0699 192.624 97.4173 191.394 96.7663 190.162C96.4455 189.556 96.1247 188.948 95.8236 188.33C95.5923 187.853 95.2819 187.168 94.622 187.516C97.1611 183.984 100.142 180.717 103.366 177.796C103.433 178.244 103.965 178.574 104.27 178.864C104.658 179.232 105.03 179.61 105.381 180.013C106.056 180.789 106.656 181.624 107.227 182.48C108.387 184.214 109.342 186.066 110.428 187.845C112.596 191.4 115.946 193.921 119.071 196.57C122.362 199.361 125.58 202.189 128.519 205.353C129.95 206.893 131.371 208.432 132.904 209.87C134.464 211.337 136.128 212.678 137.864 213.932C139.619 215.198 141.382 216.444 143.091 217.773C144.761 219.072 146.395 220.417 148.014 221.78C151.282 224.529 154.463 227.422 158.07 229.733C159.762 230.816 161.519 231.797 163.37 232.58C165.335 233.409 167.424 233.916 169.379 234.768C171.268 235.589 172.894 236.797 174.491 238.078C176.151 239.412 177.879 240.63 179.683 241.759C183.279 244.01 186.935 246.192 190.676 248.19C192.535 249.182 194.487 250.023 196.425 250.843C198.412 251.683 200.507 252.194 202.584 252.758C203.567 253.025 204.551 253.289 205.515 253.621C203.892 257.005 201.997 260.243 199.821 263.302C199.724 263.438 199.62 263.566 199.524 263.701C199.203 263.564 198.868 263.458 198.559 263.283C197.877 262.897 197.229 262.425 196.583 261.981C195.215 261.04 193.905 260.014 192.539 259.069C191.207 258.149 189.912 257.165 188.732 256.053C187.648 255.03 186.667 253.905 185.593 252.873C183.256 250.623 180.425 249.077 177.461 247.811C175.936 247.158 174.388 246.557 172.916 245.788C171.514 245.056 170.344 243.99 169.13 242.99C167.893 241.97 166.573 241.038 165.25 240.135C164.609 239.7 163.959 239.274 163.309 238.849C162.661 238.425 161.981 237.968 161.244 237.71C160.609 237.488 160.219 238.278 160.823 238.613C161.132 238.783 161.476 238.893 161.786 239.068C162.165 239.285 162.529 239.528 162.895 239.766C164.25 240.647 165.58 241.561 166.883 242.518C168.18 243.471 169.382 244.535 170.655 245.519C171.857 246.45 173.252 247.098 174.641 247.698C177.677 249.01 180.716 250.21 183.362 252.245C184.647 253.234 185.765 254.429 186.884 255.598C187.996 256.762 189.192 257.83 190.471 258.806C191.767 259.797 193.132 260.701 194.448 261.666C195.685 262.57 196.941 263.566 198.308 264.27C198.445 264.341 198.657 264.459 198.887 264.558C198.633 264.897 198.391 265.242 198.129 265.573C198.107 265.604 198.091 265.619 198.072 265.641V265.641ZM212.952 233.174C216.017 236.073 218.988 239.078 221.684 242.328C224.353 245.542 226.859 249.017 228.479 252.892C229.287 254.821 229.875 256.905 229.783 259.014C229.687 261.228 228.665 263.182 226.937 264.556C225.32 265.841 223.297 266.547 221.301 266.986C219.125 267.464 216.889 267.656 214.667 267.68C209.576 267.735 204.484 267.064 199.495 266.106C205.165 258.749 209.241 250.252 211.413 241.219C212.059 238.531 212.529 235.808 212.831 233.061C212.871 233.098 212.912 233.136 212.952 233.174V233.174ZM247.284 263.769C246.333 259.417 244.243 255.331 241.883 251.589C239.495 247.804 236.745 244.257 233.799 240.892C228.169 234.462 221.861 228.632 215.283 223.189C214.777 222.77 214.268 222.353 213.757 221.938C213.648 221.849 213.531 221.73 213.404 221.665C213.345 221.633 213.14 221.621 213.105 221.589C213.085 221.569 213.085 221.278 213.085 221.278C213.043 220.657 212.992 220.036 212.933 219.416C212.715 217.138 212.384 214.87 211.937 212.625C211.112 208.473 209.867 204.405 208.248 200.494C204.972 192.586 200.171 185.334 194.161 179.238C188.189 173.178 181.049 168.278 173.238 164.904C165.078 161.382 156.231 159.528 147.341 159.484C138.191 159.44 129.043 161.284 120.651 164.937C118.583 165.837 116.557 166.833 114.591 167.938C114.145 168.188 113.702 168.445 113.263 168.705C113.075 168.817 112.888 168.93 112.701 169.045C112.617 169.097 112.438 169.257 112.341 169.268C112.242 169.28 111.988 169.17 111.891 169.142C110.742 168.825 109.59 168.513 108.435 168.216C104.203 167.12 99.9288 166.176 95.6225 165.418C86.6788 163.845 77.2699 162.869 68.2605 164.485C64.2335 165.208 60.1606 166.558 56.9559 169.182C53.6512 171.889 51.9616 175.922 52.0007 180.16C52.0418 184.637 53.7314 189.013 55.7939 192.925C57.8626 196.849 60.4262 200.51 63.1986 203.966C65.9501 207.397 68.9423 210.63 72.0517 213.738C73.6621 215.349 75.3105 216.92 76.9903 218.458C77.8116 219.21 78.6397 219.954 79.4741 220.692C79.6824 220.877 79.8913 221.061 80.1012 221.244C80.2949 221.413 80.5767 221.586 80.7308 221.792C80.8433 221.945 80.8433 221.924 80.8319 222.121C80.8252 222.249 80.8179 222.377 80.8116 222.505C80.7944 222.837 80.7793 223.17 80.7673 223.502C80.4408 232.605 82.0423 241.781 85.4147 250.241C88.6075 258.25 93.3876 265.612 99.3799 271.811C105.126 277.754 112.016 282.63 119.543 286.056C123.571 287.888 127.781 289.306 132.089 290.3C132.23 290.346 132.372 290.392 132.511 290.442C132.752 290.528 133.014 290.657 133.261 290.543C137.297 291.4 141.41 291.897 145.539 291.985C150.02 292.081 154.51 291.718 158.919 290.914C161.151 290.509 163.364 289.993 165.542 289.357C166.05 289.209 166.628 288.933 167.151 288.925C167.597 288.918 168.127 289.061 168.414 288.617C168.518 288.454 168.469 288.47 168.638 288.371C168.751 288.305 168.917 288.276 169.04 288.231C169.264 288.152 169.487 288.071 169.709 287.99C170.242 287.794 170.774 287.593 171.302 287.383C175.222 285.831 178.992 283.9 182.547 281.631C183.425 281.071 184.29 280.492 185.141 279.89C185.567 279.589 185.989 279.285 186.408 278.974C186.681 278.771 186.692 278.725 187.027 278.818C187.327 278.902 187.625 278.986 187.924 279.068C190.169 279.689 192.424 280.271 194.691 280.811C203.519 282.91 212.607 284.492 221.705 284.501C226.203 284.505 230.771 284.149 235.104 282.888C239.185 281.698 243.265 279.595 245.631 275.925C247.979 272.281 248.195 267.912 247.284 263.769" fill="#4D4D4D"/>
<path d="M211.252 234.37C211.26 234.3 211.249 234.386 211.252 234.37Z" fill="#4D4D4D"/>
<path d="M88.6272 220.36C88.6548 220.377 88.7423 220.445 88.769 220.464C88.7215 220.429 88.6747 220.396 88.6272 220.36ZM113.604 236.696C111.48 235.314 109.395 233.864 107.288 232.454C105.203 231.061 103.225 229.528 101.185 228.069C99.1152 226.59 97.11 225.056 95.109 223.486C94.0174 222.629 92.9138 221.788 91.8028 220.957C91.2267 220.525 90.6466 220.1 90.0674 219.674C89.8366 219.504 89.6075 219.333 89.3804 219.16C89.3116 219.106 89.2414 219.052 89.1699 219.001C89.1736 219.004 88.9611 218.85 89.0862 218.945C89.0695 218.933 88.958 218.849 88.9934 218.877C86.6528 217.126 84.4163 215.229 82.2106 213.313C79.9616 211.36 77.7236 209.385 75.5788 207.318C74.5346 206.312 73.5747 205.229 72.6023 204.154C71.6152 203.064 70.584 202.013 69.6242 200.9C67.7195 198.69 65.8835 196.328 64.4137 193.805C63.685 192.556 63.084 191.24 62.5048 189.916C62.2059 189.233 61.896 188.546 61.6814 187.832C61.5288 187.325 61.5491 186.385 60.9918 186.141C60.7491 186.036 60.4684 186.066 60.26 186.233C59.9642 186.465 59.9793 186.792 60.0502 187.128C60.1981 187.83 60.3887 188.51 60.6585 189.176C61.2106 190.537 61.8017 191.896 62.4694 193.205C63.7871 195.79 65.5528 198.125 67.3652 200.381C69.2002 202.662 71.2215 204.801 73.2179 206.942C75.2256 209.094 77.472 211.046 79.6808 212.988C81.9032 214.941 84.1507 216.862 86.4668 218.704C87.0346 219.154 87.607 219.6 88.1882 220.032C88.1376 219.994 88.0866 219.956 88.0356 219.918C88.0799 219.952 88.1247 219.985 88.169 220.017C88.1428 219.998 88.396 220.186 88.2111 220.049C88.6038 220.42 89.1064 220.717 89.5408 221.037C90.0684 221.428 90.5991 221.816 91.1256 222.208C92.2116 223.017 93.2866 223.844 94.3471 224.686C96.4824 226.384 98.6632 227.994 100.876 229.588C103.066 231.165 105.208 232.785 107.464 234.266C109.724 235.752 111.914 237.349 114.216 238.768C115.503 239.561 116.809 240.323 118.101 241.111C118.427 241.307 118.753 241.507 119.078 241.706C119.338 241.866 119.561 242.019 119.875 241.926C120.481 241.745 120.552 240.95 120.027 240.623C117.893 239.304 115.709 238.064 113.604 236.696" fill="#4D4D4D"/>
<path d="M235.212 270.954C234.793 270.964 234.447 271.406 234.155 271.658C233.791 271.97 233.444 272.241 232.997 272.426C232.135 272.785 231.216 273.012 230.32 273.269C228.468 273.8 226.513 274.149 224.6 274.369C222.557 274.605 220.5 274.664 218.449 274.807C216.419 274.952 214.4 275.019 212.363 274.995C210.371 274.97 208.413 274.656 206.437 274.441C204.436 274.225 202.436 273.924 200.447 273.613C198.441 273.297 196.417 273.033 194.427 272.621C192.444 272.21 190.463 271.741 188.51 271.201C186.615 270.677 184.749 270.033 182.865 269.465C180.938 268.885 179.03 268.243 177.113 267.631C173.278 266.41 169.559 264.909 165.82 263.429C162.417 262.082 159.023 260.698 155.649 259.277C151.96 257.723 148.233 256.194 144.655 254.394C141.076 252.593 137.552 250.701 133.997 248.856C132.229 247.938 130.484 246.981 128.752 245.998C127.886 245.507 127.02 245.013 126.17 244.497C125.794 244.268 125.424 244.03 125.06 243.784C124.713 243.546 124.277 243.088 123.858 243.01C123.5 242.942 123.14 243.176 123.043 243.521C122.908 244.009 123.281 244.262 123.628 244.506C124.403 245.05 125.186 245.57 126.003 246.052C127.737 247.072 129.49 248.062 131.26 249.017C134.764 250.909 138.294 252.756 141.844 254.56C148.975 258.182 156.424 261.21 163.852 264.17C167.311 265.549 170.763 266.973 174.284 268.192C178.117 269.518 182.02 270.629 185.88 271.87C189.696 273.097 193.611 274.007 197.576 274.59C201.561 275.177 205.532 275.788 209.536 276.234C213.571 276.684 217.663 276.305 221.696 276.037C223.701 275.902 225.681 275.701 227.655 275.312C229.52 274.944 231.403 274.546 233.187 273.872C233.552 273.733 233.933 273.59 234.267 273.384C234.673 273.129 235.031 272.776 235.391 272.461C235.668 272.221 235.973 272.017 235.933 271.611C235.897 271.241 235.589 270.946 235.212 270.954" fill="#4D4D4D"/>
<path d="M158.891 177.55C159.242 177.79 160.023 178.572 160.414 177.973C160.789 177.398 159.847 177.002 159.499 176.762C159.138 176.513 158.39 175.709 157.954 176.241C157.487 176.814 158.539 177.308 158.891 177.55Z" fill="#4D4D4D"/>
<path d="M188.76 194.126C188.755 194.124 188.759 194.126 188.784 194.14C188.777 194.136 188.769 194.132 188.763 194.128C188.824 194.157 188.777 194.134 188.761 194.126C188.76 194.126 188.759 194.125 188.757 194.125C188.739 194.117 188.721 194.109 188.701 194.1C188.737 194.117 188.745 194.12 188.76 194.126Z" fill="#4D4D4D"/>
<path d="M175.045 183.904C177.493 185.254 179.278 187.494 181.396 189.265C183.669 191.166 186.09 192.83 188.758 194.125C189.223 194.346 189.689 194.564 190.159 194.777C190.5 194.933 191.051 195.35 191.436 195.162C191.674 195.041 191.781 194.736 191.659 194.494C191.528 194.236 191.132 194.136 190.89 194.024C190.239 193.725 189.587 193.429 188.942 193.121C187.848 192.601 186.815 191.984 185.804 191.32C184.588 190.518 183.425 189.664 182.303 188.733C181.2 187.822 180.204 186.793 179.144 185.834C178.102 184.892 177.063 183.926 175.841 183.216C175.471 183.002 174.693 182.377 174.271 182.732C173.614 183.285 174.687 183.706 175.045 183.904" fill="#4D4D4D"/>
<path d="M146.222 196.481C148.656 198.077 151.185 199.53 153.729 200.942C156.281 202.356 158.912 203.724 161.318 205.38C161.973 205.832 162.601 206.324 163.226 206.816C163.547 207.069 163.867 207.326 164.183 207.585C164.342 207.716 164.5 207.845 164.656 207.977C164.716 208.026 164.774 208.076 164.833 208.125C164.83 208.122 165.183 208.429 165.009 208.273C166.3 209.397 167.575 210.673 168.932 211.774C170.403 212.965 171.946 214.06 173.517 215.114C173.793 215.298 174.104 215.554 174.423 215.289C174.698 215.064 174.623 214.704 174.379 214.494C174.047 214.21 173.628 213.989 173.267 213.741C172.856 213.461 172.448 213.177 172.042 212.89C170.526 211.81 169.076 210.661 167.718 209.389C164.969 206.816 162.05 204.52 158.778 202.65C155.44 200.742 152.058 198.91 148.768 196.92C147.141 195.934 145.546 194.881 143.992 193.785C142.466 192.706 141.059 191.506 139.664 190.265C136.814 187.732 133.925 185.144 131.511 182.18C130.324 180.724 129.259 179.172 128.266 177.577C127.283 175.998 126.305 174.344 125.089 172.929C124.815 172.612 123.786 171.325 123.432 172.253C123.286 172.637 123.635 172.861 123.876 173.098C124.205 173.422 124.501 173.765 124.778 174.134C125.929 175.669 126.9 177.313 127.938 178.921C129.981 182.085 132.417 184.854 135.139 187.448C137.906 190.084 140.726 192.752 143.883 194.918C144.657 195.449 145.438 195.966 146.222 196.481" fill="#4D4D4D"/>
<path d="M175.903 217.133C176.359 217.398 176.828 217.642 177.286 217.908C177.724 218.164 178.154 218.433 178.583 218.704C178.893 218.9 179.312 219.23 179.626 218.844C179.907 218.497 179.62 218.182 179.325 217.997C178.885 217.718 178.445 217.438 177.997 217.174C177.553 216.913 177.1 216.673 176.653 216.42C176.349 216.246 175.951 215.929 175.628 216.252C175.288 216.59 175.589 216.953 175.903 217.133" fill="#4D4D4D"/>
<path d="M134.259 225.542C132.037 223.606 129.559 221.968 127.153 220.276C124.843 218.652 122.514 216.904 120.77 214.656C119.871 213.497 119.105 212.236 118.223 211.064C117.351 209.901 116.439 208.774 115.454 207.706C114.489 206.658 113.477 205.706 112.359 204.824C111.192 203.902 109.975 203.046 108.851 202.072C107.792 201.154 106.734 200.177 105.903 199.044C105.662 198.714 105.211 197.766 104.698 198.366C104.305 198.826 105.08 199.624 105.361 199.969C107.201 202.236 109.589 203.897 111.859 205.692C112.413 206.13 112.956 206.585 113.471 207.069C115.575 209.161 117.385 211.504 119.055 213.949C119.859 215.126 120.724 216.193 121.74 217.194C122.779 218.217 123.909 219.129 125.076 220.001C127.448 221.774 129.94 223.38 132.28 225.198C132.874 225.66 133.447 226.146 134.009 226.646C134.27 226.878 134.518 227.118 134.762 227.369C134.966 227.578 135.192 227.929 135.465 228.049C135.714 228.158 136.008 228.041 136.116 227.792C136.259 227.462 136.014 227.245 135.805 227.025C135.312 226.508 134.798 226.012 134.259 225.542" fill="#4D4D4D"/>
<path d="M147.811 237.332C145.841 236.026 144.195 234.273 142.511 232.633C142.766 232.88 142.396 232.517 142.347 232.468C142.226 232.348 142.106 232.228 141.985 232.106C141.778 231.898 141.571 231.689 141.364 231.484C140.911 231.034 140.453 230.586 139.959 230.182C139.597 229.888 137.401 228.077 137.238 229.284C137.164 229.836 138.064 230.044 138.421 230.278C138.93 230.613 139.403 230.998 139.854 231.404C140.325 231.829 140.77 232.28 141.214 232.73C141.428 232.946 141.642 233.162 141.859 233.374C141.968 233.481 142.078 233.588 142.188 233.693C142.225 233.73 142.639 234.134 142.447 233.942C143.661 235.132 144.87 236.354 146.215 237.404C147.708 238.568 149.409 239.429 151.054 240.35C151.851 240.797 152.619 241.292 153.313 241.888C154.019 242.492 154.652 243.177 155.356 243.783C156.026 244.361 156.74 244.898 157.48 245.385C157.782 245.582 158.209 246.005 158.594 245.823C158.89 245.683 158.971 245.288 158.756 245.041C158.607 244.87 158.314 244.745 158.126 244.623C157.899 244.476 157.677 244.325 157.459 244.166C157.055 243.873 156.658 243.569 156.27 243.254C155.439 242.58 154.718 241.789 153.912 241.086C152.109 239.519 149.791 238.642 147.811 237.332" fill="#4D4D4D"/>
<path d="M143.585 231.557C144.412 232.232 145.239 232.901 146.15 233.462C147.071 234.03 147.971 234.608 148.824 235.276C149.706 235.965 150.554 236.697 151.445 237.377C151.74 237.604 152.196 238.124 152.601 238.065C153.029 238.002 153.17 237.438 152.825 237.176C151.336 236.054 149.938 234.805 148.411 233.734C147.713 233.246 146.967 232.84 146.264 232.361C145.518 231.854 144.818 231.284 144.12 230.712C142.697 229.545 141.323 228.374 140.065 227.025C139.456 226.372 138.886 225.684 138.269 225.038C137.625 224.362 136.917 223.757 136.2 223.162C134.813 222.01 133.445 220.834 131.958 219.812C130.45 218.776 128.847 217.877 127.367 216.801C124.443 214.677 121.97 212.044 119.927 209.066C119.356 208.234 118.821 207.374 118.179 206.597C117.56 205.848 116.889 205.141 116.17 204.486C114.685 203.132 112.847 202.2 111.405 200.798C111.243 200.641 110.89 200.565 110.674 200.817C110.356 201.188 110.719 201.513 110.984 201.76C111.722 202.449 112.583 203.002 113.397 203.594C114.959 204.734 116.39 205.925 117.591 207.454C118.191 208.221 118.703 209.049 119.253 209.848C119.826 210.68 120.453 211.473 121.1 212.249C122.364 213.768 123.718 215.172 125.25 216.421C126.811 217.693 128.505 218.732 130.188 219.828C131.867 220.921 133.404 222.148 134.949 223.418C135.717 224.05 136.488 224.677 137.203 225.366C137.891 226.032 138.494 226.784 139.141 227.486C140.514 228.978 142.016 230.277 143.585 231.557" fill="#4D4D4D"/>
<path d="M111.542 195.394C113.154 196.672 114.632 198.092 116.068 199.562C117.507 201.034 118.891 202.564 120.182 204.169C121.445 205.736 122.649 207.346 123.995 208.846C125.352 210.36 126.807 211.832 128.317 213.192C129.859 214.581 131.562 215.784 133.227 217.016C134.872 218.233 136.504 219.457 138.029 220.822C139.548 222.181 140.991 223.608 142.594 224.87C142.873 225.089 143.201 225.468 143.584 225.242C143.888 225.064 143.9 224.629 143.626 224.417C141.995 223.145 140.506 221.744 138.98 220.352C137.467 218.97 135.853 217.722 134.206 216.505C132.541 215.273 130.83 214.073 129.265 212.713C127.726 211.373 126.271 209.88 124.901 208.37C123.519 206.848 122.295 205.205 121.008 203.606C119.727 202.014 118.357 200.494 116.932 199.03C115.507 197.566 114.046 196.121 112.447 194.845C110.862 193.58 109.192 192.397 107.764 190.946C106.393 189.552 105.113 188.061 104.041 186.422C103.489 185.578 102.967 184.716 102.458 183.846C102.206 183.416 101.959 182.984 101.714 182.55C101.531 182.226 101.317 181.693 100.841 181.898C100.443 182.066 100.526 182.456 100.694 182.754C100.964 183.233 101.236 183.708 101.512 184.181C102.038 185.082 102.573 185.982 103.139 186.858C104.222 188.537 105.515 190.069 106.915 191.492C108.338 192.936 109.956 194.137 111.542 195.394" fill="#4D4D4D"/>
<path d="M166.339 237.169C168.969 238.928 171.425 240.935 174.059 242.686C175.333 243.531 176.679 244.265 178.112 244.801C179.587 245.354 181.039 245.835 182.402 246.645C185.165 248.288 187.741 250.226 190.495 251.886C191.844 252.7 193.208 253.507 194.581 254.281C195.255 254.661 195.935 255.041 196.657 255.319C197.087 255.485 198.14 255.923 198.405 255.321C198.723 254.602 197.616 254.594 197.228 254.469C196.544 254.246 195.912 253.892 195.284 253.543C194.624 253.183 193.939 252.75 193.271 252.358C191.915 251.561 190.561 250.773 189.239 249.918C187.895 249.05 186.573 248.149 185.24 247.264C183.982 246.426 182.69 245.546 181.304 244.933C179.895 244.309 178.391 243.928 177.003 243.249C174.221 241.889 171.851 239.817 169.341 238.033C166.758 236.197 164.066 234.377 161.171 233.066C159.723 232.41 158.199 231.908 156.803 231.14C155.47 230.405 154.295 229.38 153.14 228.4C150.77 226.385 148.74 223.997 146.302 222.061C141.389 218.158 135.61 215.332 131.246 210.749C130.134 209.582 129.135 208.312 128.067 207.106C127.009 205.908 125.984 204.68 124.914 203.494C123.846 202.31 122.754 201.208 121.539 200.174C121.308 199.977 121.037 199.817 120.757 200.049C120.487 200.273 120.558 200.612 120.777 200.83C121.352 201.4 122.023 201.874 122.599 202.449C123.673 203.52 124.652 204.692 125.633 205.846C126.643 207.037 127.709 208.177 128.715 209.372C130.728 211.762 132.98 213.874 135.5 215.73C138.05 217.609 140.779 219.233 143.338 221.097C144.606 222.02 145.877 222.941 147.041 223.996C148.224 225.066 149.329 226.221 150.479 227.326C152.718 229.481 155.119 231.57 157.997 232.812C159.42 233.425 160.857 233.973 162.23 234.7C163.638 235.446 165.014 236.282 166.339 237.169" fill="#4D4D4D"/>
<circle cx="12" cy="206" r="2" fill="black"/>
<circle cx="17.5" cy="226.5" r="0.5" fill="black"/>
<circle cx="27" cy="251" r="3" fill="black"/>
<circle cx="45.5" cy="230.5" r="1.5" fill="black"/>
<circle cx="68.5" cy="227.5" r="3.5" fill="black"/>
<circle cx="30" cy="185" r="1" fill="black"/>
<circle cx="28" cy="153" r="1" fill="black"/>
<circle cx="76" cy="136" r="1" fill="black"/>
<circle cx="126" cy="121" r="3" fill="black"/>
<circle cx="199.5" cy="152.5" r="6.5" fill="black"/>
<circle cx="250" cy="167" r="3" fill="black"/>
<circle cx="259.5" cy="214.5" r="1.5" fill="black"/>
<circle cx="274.5" cy="267.5" r="5.5" fill="black"/>
<circle cx="283.5" cy="144.5" r="2.5" fill="black"/>
<circle cx="295.5" cy="24.5" r="2.5" fill="black"/>
<circle cx="283.5" cy="213.5" r="2.5" fill="black"/>
<circle cx="25.5" cy="432.5" r="2.5" fill="black"/>
<circle cx="41.5" cy="405.5" r="2.5" fill="black"/>
<circle cx="120" cy="431" r="1" fill="black"/>
<circle cx="156" cy="414" r="3" fill="black"/>
<circle cx="193.5" cy="439.5" r="1.5" fill="black"/>
<circle cx="269.5" cy="436.5" r="3.5" fill="black"/>
</svg>
