<svg width="300" height="450" viewBox="0 0 300 450" fill="none" xmlns="http://www.w3.org/2000/svg">
<rect width="300" height="450" fill="white"/>
<ellipse cx="277.5" cy="99.345" rx="3.5" ry="3.535" transform="rotate(-180 277.5 99.345)" fill="black"/>
<ellipse cx="235.5" cy="60.965" rx="1.5" ry="1.515" transform="rotate(-180 235.5 60.965)" fill="black"/>
<ellipse cx="167" cy="38.24" rx="3" ry="3.03" transform="rotate(-180 167 38.24)" fill="black"/>
<ellipse cx="187.5" cy="84.195" rx="5.5" ry="5.555" transform="rotate(-180 187.5 84.195)" fill="black"/>
<ellipse cx="284.5" cy="50.865" rx="1.5" ry="1.515" transform="rotate(-180 284.5 50.865)" fill="black"/>
<ellipse cx="238.5" cy="113.485" rx="1.5" ry="1.515" transform="rotate(-180 238.5 113.485)" fill="black"/>
<ellipse cx="221.5" cy="18.545" rx="4.5" ry="4.545" transform="rotate(-180 221.5 18.545)" fill="black"/>
<ellipse rx="3.5" ry="3.535" transform="matrix(1 0 0 -1 17.5 104.345)" fill="black"/>
<ellipse rx="1.5" ry="1.515" transform="matrix(1 0 0 -1 59.5 65.965)" fill="black"/>
<ellipse rx="3" ry="3.03" transform="matrix(1 0 0 -1 128 43.24)" fill="black"/>
<ellipse rx="5.5" ry="5.555" transform="matrix(1 0 0 -1 107.5 89.195)" fill="black"/>
<ellipse rx="1.5" ry="1.515" transform="matrix(1 0 0 -1 10.5 55.865)" fill="black"/>
<ellipse rx="1.5" ry="1.515" transform="matrix(1 0 0 -1 56.5 118.485)" fill="black"/>
<ellipse rx="4.5" ry="4.545" transform="matrix(1 0 0 -1 73.5 23.545)" fill="black"/>
<circle cx="29.5" cy="320.5" r="3.5" fill="black"/>
<circle cx="71.5" cy="358.5" r="1.5" fill="black"/>
<circle cx="140" cy="381" r="3" fill="black"/>
<circle cx="119.5" cy="335.5" r="5.5" fill="black"/>
<circle cx="22.5" cy="368.5" r="1.5" fill="black"/>
<circle cx="68.5" cy="306.5" r="1.5" fill="black"/>
<circle cx="85.5" cy="400.5" r="4.5" fill="black"/>
<circle cx="279.5" cy="391.5" r="3.5" transform="rotate(-180 279.5 391.5)" fill="black"/>
<circle cx="237.5" cy="353.5" r="1.5" transform="rotate(-180 237.5 353.5)" fill="black"/>
<circle cx="169" cy="331" r="3" transform="rotate(-180 169 331)" fill="black"/>
<circle cx="189.5" cy="376.5" r="5.5" transform="rotate(-180 189.5 376.5)" fill="black"/>
<circle cx="286.5" cy="343.5" r="1.5" transform="rotate(-180 286.5 343.5)" fill="black"/>
<circle cx="240.5" cy="405.5" r="1.5" transform="rotate(-180 240.5 405.5)" fill="black"/>
<circle cx="223.5" cy="311.5" r="4.5" transform="rotate(-180 223.5 311.5)" fill="black"/>
<circle cx="12" cy="206" r="2" fill="black"/>
<circle cx="17.5" cy="226.5" r="0.5" fill="black"/>
<circle cx="27" cy="251" r="3" fill="black"/>
<circle cx="45.5" cy="230.5" r="1.5" fill="black"/>
<circle cx="58.5" cy="198.5" r="3.5" fill="black"/>
<circle cx="30" cy="185" r="1" fill="black"/>
<circle cx="28" cy="153" r="1" fill="black"/>
<circle cx="76" cy="136" r="1" fill="black"/>
<circle cx="126" cy="121" r="3" fill="black"/>
<circle cx="194.5" cy="127.5" r="6.5" fill="black"/>
<circle cx="250" cy="167" r="3" fill="black"/>
<circle cx="259.5" cy="214.5" r="1.5" fill="black"/>
<circle cx="274.5" cy="267.5" r="5.5" fill="black"/>
<circle cx="283.5" cy="144.5" r="2.5" fill="black"/>
<circle cx="295.5" cy="24.5" r="2.5" fill="black"/>
<circle cx="283.5" cy="213.5" r="2.5" fill="black"/>
<circle cx="25.5" cy="432.5" r="2.5" fill="black"/>
<circle cx="41.5" cy="405.5" r="2.5" fill="black"/>
<circle cx="120" cy="431" r="1" fill="black"/>
<circle cx="156" cy="414" r="3" fill="black"/>
<circle cx="193.5" cy="439.5" r="1.5" fill="black"/>
<circle cx="269.5" cy="436.5" r="3.5" fill="black"/>
<path d="M214.627 233.512C214.222 233.413 213.956 233.657 213.782 233.988C213.57 234.388 213.351 234.709 213.008 235.009C212.286 235.643 211.432 236.051 210.536 236.379C208.611 237.084 206.746 237.907 204.87 238.736C203.971 239.132 203.078 239.524 202.24 240.044C201.419 240.556 200.648 241.173 199.943 241.835C198.567 243.127 197.214 244.656 196.231 246.273C195.162 248.032 194.498 249.891 193.89 251.844C193.604 252.761 193.266 253.613 192.727 254.413C192.187 255.217 191.522 255.924 190.902 256.667C189.658 258.151 188.658 259.797 188.224 261.704C188.006 262.667 187.89 263.657 187.906 264.645C187.922 265.721 188.012 266.796 187.991 267.872C187.97 268.991 187.747 269.957 187.16 270.917C186.61 271.82 185.984 272.644 185.543 273.615C185.102 274.585 184.906 275.709 185.146 276.763C185.35 277.653 185.912 278.869 186.786 279.289C180.334 283.693 173.122 286.929 165.524 288.767C164.43 289.032 163.328 289.267 162.222 289.473C161.694 289.572 161.163 289.665 160.634 289.751C160.356 289.796 160.078 289.84 159.799 289.881C159.698 289.897 159.596 289.912 159.495 289.927C159.394 289.941 159.292 289.956 159.191 289.969C159.023 289.993 158.988 289.999 159.087 289.985C159.026 289.993 158.962 290.001 158.899 290.011C159.116 289.98 158.567 290.052 158.514 290.059C158.332 290.081 158.151 290.103 157.971 290.124C157.608 290.167 157.246 290.205 156.882 290.241C156.131 290.316 155.378 290.377 154.626 290.428C153.171 290.523 151.714 290.569 150.256 290.569C148.8 290.571 147.343 290.523 145.89 290.428C145.162 290.381 144.435 290.321 143.71 290.251C143.347 290.215 142.984 290.176 142.622 290.135C142.415 290.111 142.208 290.087 142.002 290.06C141.948 290.053 141.371 289.979 141.63 290.013C141.476 289.993 141.591 290.009 141.44 289.988C141.706 290.021 141.226 289.957 141.224 289.957C141.07 289.935 140.916 289.912 140.763 289.889C140.507 289.851 140.252 289.812 139.996 289.769C139.435 289.68 138.874 289.581 138.315 289.476C137.171 289.261 136.034 289.016 134.903 288.743C132.69 288.207 130.507 287.552 128.364 286.783C128.531 286.375 128.586 285.901 128.694 285.475C128.818 284.979 128.923 284.479 128.998 283.972C129.146 282.963 129.199 281.931 129.187 280.913C129.174 279.895 129.07 278.88 128.954 277.869C128.842 276.887 128.738 275.948 129.152 275.017C129.922 273.299 131.374 271.941 132.804 270.764C134.27 269.557 135.847 268.421 136.562 266.591C137.279 264.757 137.344 262.744 137.09 260.812C136.826 258.811 136.38 256.821 135.862 254.872C135.356 252.977 134.699 251.145 134.596 249.173C134.496 247.224 134.92 245.265 135.396 243.388C135.896 241.415 136.508 239.472 137.088 237.52C137.368 236.58 137.698 235.632 137.864 234.664C138.016 233.784 138.12 232.772 137.863 231.903C137.255 229.847 134.664 230.452 133.322 231.404C131.746 232.52 130.604 234.201 129.68 235.864C128.699 237.628 127.822 239.463 127.102 241.348C126.399 243.191 125.851 245.088 125.138 246.927C124.475 248.633 123.526 250.424 122.043 251.561C121.286 252.14 120.347 252.485 119.462 252.815C118.532 253.161 117.614 253.525 116.724 253.964C115.055 254.785 113.758 256.176 112.771 257.729C111.762 259.319 110.862 261.075 110.275 262.867C109.092 266.485 108.635 270.684 109.679 274.393C109.939 275.319 110.235 276.215 110.66 277.079C108.932 275.744 107.276 274.311 105.694 272.807C104.923 272.075 104.17 271.325 103.435 270.559C103.067 270.173 102.703 269.785 102.346 269.393C102.15 269.18 101.955 268.964 101.763 268.748C101.699 268.676 101.635 268.603 101.571 268.531C101.507 268.459 101.443 268.385 101.379 268.313C101.404 268.227 101.414 268.139 101.406 268.048C101.358 267.6 100.919 267.144 100.775 266.709C100.599 266.179 100.523 265.6 100.467 265.047C100.362 264.009 100.362 262.945 100.542 261.916C100.738 260.809 101.088 259.716 101.518 258.677C101.943 257.651 102.544 256.764 103.214 255.883C104.522 254.157 105.768 252.323 106.42 250.24C106.732 249.241 107.072 248.107 106.983 247.051C106.895 246.017 106.442 245.095 105.663 244.412C104.863 243.711 103.86 243.187 102.872 242.804C101.852 242.408 100.719 242.528 99.6975 242.861C99.2335 243.013 98.7922 243.228 98.3255 243.369C98.1389 243.425 97.9229 243.5 97.7282 243.433C97.4922 243.352 97.2935 243.083 97.1375 242.896C96.4402 242.056 96.0015 240.973 95.5362 239.995C95.0402 238.955 94.6055 237.833 93.8255 236.965C92.9815 236.024 92.1202 235.091 91.2655 234.16C90.5482 233.377 89.6322 232.279 88.4882 232.199C87.4015 232.123 86.4775 233.056 85.9229 233.888C85.5202 230.6 85.3629 227.281 85.4495 223.968C86.6429 224.424 88.0949 223.797 89.1415 223.239C89.7015 222.94 90.2602 222.593 90.7335 222.165C91.2242 221.72 91.6415 221.185 92.0602 220.675C92.9015 219.652 93.6349 218.552 94.2802 217.397C94.9509 216.196 95.5255 214.947 96.3095 213.812C97.0202 212.785 97.8722 211.783 98.8669 211.025C99.8829 210.252 101.16 209.793 102.411 209.619C103.763 209.429 105.094 209.676 106.448 209.596C107.707 209.523 109.135 209.276 110.22 208.591C111.251 207.939 111.878 206.928 112.055 205.727C112.096 205.433 112.168 205.149 111.987 204.889C111.827 204.659 111.531 204.559 111.275 204.479C110.671 204.288 110.151 204.048 109.686 203.609C108.752 202.729 108.17 201.607 107.851 200.372C107.526 199.108 107.383 197.693 107.626 196.403C107.866 195.129 108.507 194.011 109.286 192.991C110.084 191.944 111.146 191.188 112.21 190.435C113.326 189.644 114.376 188.816 115.236 187.74C116.058 186.712 116.724 185.589 117.296 184.405C117.908 183.14 118.404 181.827 118.936 180.529C119.478 179.208 120.104 177.924 120.671 176.615C121.215 175.361 121.815 174.127 122.292 172.845C122.77 171.563 122.955 170.245 123.015 168.884C123.039 168.343 123.12 167.48 122.764 167.02C125.868 165.561 129.083 164.359 132.379 163.409C137.576 161.928 142.936 161.096 148.339 160.943C153.26 160.801 158.196 161.2 163.024 162.172C165.994 162.768 168.916 163.569 171.771 164.576C170.872 165.26 170.059 166.065 169.266 166.867C168.547 167.596 167.786 168.387 167.319 169.307C166.84 170.252 166.687 171.447 167.428 172.301C168.136 173.116 169.232 173.405 170.255 173.58C171.374 173.773 172.396 173.915 173.367 174.553C174.26 175.14 175.063 175.824 176.143 176.032C178.472 176.481 180.568 175.139 182.551 174.152C183.53 173.665 184.582 173.169 185.642 172.896C186.16 172.761 186.65 172.805 187.178 172.767C187.279 172.757 187.456 172.7 187.554 172.723C187.646 172.744 187.775 172.877 187.856 172.935C188.014 173.047 188.171 173.16 188.327 173.273C190.132 174.583 191.863 175.991 193.522 177.479C196.899 180.512 199.972 183.888 202.642 187.56C205.684 191.743 208.262 196.279 210.22 201.069C209.188 201.385 207.943 202.14 206.968 201.264C206.182 200.56 205.884 199.48 204.904 198.977C203.92 198.473 202.646 198.303 201.552 198.301C200.411 198.3 199.292 198.481 198.2 198.819C196.007 199.499 194.26 201.221 192.956 203.055C191.655 204.88 190.715 207.151 190.688 209.415C190.672 210.648 190.962 211.857 190.946 213.093C190.93 214.279 190.719 215.476 190.503 216.64C190.067 218.981 189.563 221.281 188.774 223.532C187.96 225.852 186.9 227.993 185.623 230.091C185.003 231.109 184.372 232.123 183.648 233.072C183.484 233.285 183.235 233.515 183.127 233.763C183.082 233.869 183.064 233.991 183.075 234.105C183.083 234.187 183.186 234.352 183.179 234.416C183.172 234.481 183.01 234.641 182.982 234.725C182.943 234.848 182.936 234.979 182.96 235.104C183.004 235.34 183.162 235.528 183.294 235.72C183.928 236.651 184.5 237.788 184.135 238.928C183.794 239.991 183.054 240.933 182.195 241.632C181.806 241.949 181.324 242.255 180.826 242.356C180.22 242.479 179.566 242.373 178.952 242.355C177.755 242.319 176.599 242.687 175.576 243.296C173.507 244.527 172.646 246.873 173.262 249.188C173.868 251.463 176.292 252.517 178.47 252.669C179.7 252.755 180.962 252.689 182.196 252.652C183.322 252.617 184.455 252.559 185.563 252.336C186.679 252.112 187.74 251.712 188.672 251.052C189.615 250.384 190.247 249.496 190.798 248.496C191.936 246.431 192.648 244.064 193.082 241.755C193.302 240.576 193.471 239.373 193.823 238.225C194.168 237.097 194.663 236.021 195.231 234.988C195.794 233.965 196.475 232.975 197.308 232.152C198.094 231.376 199.095 230.763 200.068 230.251C201.095 229.709 202.162 229.312 203.31 229.124C204.467 228.935 205.651 228.952 206.786 228.629C208.919 228.02 210.728 226.155 211.863 224.315C213.05 222.389 213.786 220.221 213.994 217.968C214.107 216.747 214.111 215.524 214.078 214.3C215.208 220.629 215.372 227.129 214.627 233.512V233.512ZM214.044 237.199C213.818 236.884 213.384 236.985 213.196 237.303C212.927 237.756 212.73 238.231 212.382 238.636C211.698 239.432 210.7 239.933 209.762 240.365C207.7 241.315 205.49 241.892 203.544 243.087C201.666 244.24 199.936 246.004 198.846 247.921C197.736 249.869 197.351 252.117 196.36 254.112C195.332 256.181 193.584 257.812 192.462 259.827C191.907 260.823 191.563 261.869 191.356 262.988C191.144 264.132 191.172 265.247 191.258 266.4C191.343 267.553 191.359 268.58 190.918 269.669C190.496 270.708 189.898 271.664 189.459 272.696C189.104 273.525 188.728 274.771 189.59 275.429C190.431 276.071 191.507 275.247 192.1 274.645C192.934 273.8 193.554 272.752 194.154 271.737C194.751 270.727 195.308 269.695 195.884 268.672C197.043 266.611 198.419 264.699 199.823 262.8C201.25 260.872 202.751 259.009 204.224 257.12C204.912 256.237 205.612 255.36 206.231 254.427C206.855 253.484 207.404 252.497 207.94 251.503C209.03 249.483 210.299 247.525 210.99 245.321C211.244 244.511 211.516 243.191 210.35 242.977C209.284 242.783 208.288 243.785 207.626 244.483C206.822 245.328 206.084 246.229 205.326 247.116C204.668 247.884 203.968 248.843 202.948 249.125C202.47 249.257 202.042 249.383 201.626 249.668C201.175 249.976 200.771 250.36 200.418 250.772C199.698 251.605 199.143 252.573 198.639 253.547C198.086 254.607 197.578 255.692 197.002 256.74C196.443 257.757 195.807 258.735 195.159 259.697C194.527 260.639 193.855 261.576 193.427 262.635C193.095 263.455 192.55 264.876 193.119 265.696C193.814 266.7 195.112 265.4 195.604 264.847C196.367 263.989 196.922 262.957 197.404 261.924C197.871 260.923 198.252 259.884 198.736 258.891C199.216 257.903 199.812 256.983 200.478 256.108C201.134 255.248 201.924 254.492 202.783 253.837C202.059 254.755 201.439 255.733 200.854 256.743C200.568 257.236 200.268 257.72 199.908 258.161C199.66 258.465 199.115 258.884 199.502 259.303C200.17 260.028 201.311 257.925 201.564 257.493C202.14 256.509 202.726 255.553 203.415 254.641C203.719 254.239 204.048 253.857 204.368 253.468C204.654 253.121 205.051 252.544 204.62 252.136C204.01 251.559 202.68 252.665 202.216 253.015C200.33 254.439 198.878 256.355 197.839 258.467C197.24 259.683 196.799 260.967 196.182 262.173C195.912 262.701 195.612 263.219 195.259 263.696C194.908 264.172 194.462 264.749 193.912 265.004C193.835 264.523 194.022 263.984 194.167 263.531C194.334 263.012 194.547 262.517 194.819 262.047C195.372 261.096 196.028 260.205 196.624 259.283C197.8 257.464 198.714 255.419 199.734 253.589C200.424 252.339 201.402 250.557 202.895 250.157C203.62 249.964 204.211 249.705 204.767 249.184C205.372 248.615 205.907 247.964 206.443 247.329C206.975 246.7 207.506 246.072 208.063 245.464C208.554 244.929 209.154 244.224 209.868 243.999C210.051 243.941 210.16 243.896 210.24 244.051C210.367 244.303 210.064 244.96 209.982 245.205C209.722 245.984 209.41 246.763 209.026 247.488C208.224 249 207.39 250.507 206.543 251.993C205.71 253.457 204.759 254.797 203.735 256.132C201.658 258.832 199.514 261.467 197.538 264.245C196.536 265.655 195.62 267.105 194.783 268.616C193.951 270.113 193.148 271.656 192.142 273.045C191.734 273.609 191.243 274.256 190.596 274.561C189.796 274.939 190.103 273.801 190.254 273.393C190.786 271.945 191.754 270.671 192.139 269.167C192.551 267.552 192.079 265.9 192.195 264.265C192.315 262.565 192.84 261.003 193.78 259.585C194.687 258.216 195.764 256.964 196.654 255.583C197.522 254.233 197.976 252.745 198.506 251.247C199.07 249.649 199.716 248.179 200.807 246.868C201.824 245.644 203.018 244.5 204.416 243.719C205.902 242.891 207.512 242.377 209.082 241.739C210.532 241.149 212.166 240.465 213.191 239.227C213.443 238.921 213.642 238.572 213.831 238.224C213.839 238.207 213.852 238.188 213.862 238.172C213.003 242.539 211.732 246.812 210.012 250.924C207.64 256.492 204.519 261.751 200.702 266.451C198.822 268.767 196.792 270.963 194.619 273.004C193.526 274.032 192.394 275.02 191.232 275.972C190.658 276.441 190.078 276.905 189.484 277.352C189.18 277.583 188.874 277.809 188.566 278.033C188.395 278.159 188.342 278.189 188.142 278.18C187.963 278.169 187.716 278.111 187.546 278.051C186.984 277.853 186.667 277.005 186.542 276.471C186.38 275.787 186.494 275.064 186.739 274.412C187.244 273.068 188.291 272.021 188.867 270.713C189.46 269.365 189.444 267.924 189.39 266.479C189.334 264.968 189.258 263.481 189.612 261.997C189.952 260.569 190.643 259.311 191.528 258.149C192.44 256.952 193.562 255.903 194.3 254.577C195.02 253.281 195.323 251.859 195.8 250.469C196.284 249.057 196.966 247.687 197.812 246.457C199.482 244.035 201.682 241.775 204.364 240.509C205.75 239.855 207.168 239.236 208.583 238.645C209.975 238.064 211.487 237.672 212.794 236.905C213.351 236.58 213.884 236.185 214.324 235.711C214.246 236.209 214.135 236.701 214.044 237.199V237.199ZM127.624 283.62C127.515 284.503 127.306 285.44 127.034 286.291C127.003 286.277 126.972 286.264 126.942 286.252C127.052 286.108 127.087 285.909 127.004 285.723C126.914 285.513 126.728 285.332 126.614 285.135C126.496 284.933 126.394 284.719 126.298 284.507C126.099 284.072 125.94 283.616 125.795 283.163C125.494 282.228 125.315 281.261 125.248 280.284C125.178 279.251 125.202 278.209 125.232 277.176C125.259 276.208 125.258 275.177 125.506 274.236C125.74 273.341 126.308 272.609 126.872 271.895C127.475 271.128 128.151 270.469 128.891 269.839C129.63 269.209 130.404 268.549 130.93 267.725C131.44 266.924 131.687 266.032 131.856 265.105C132.031 264.147 132.174 263.176 132.168 262.203C132.162 261.203 132.051 260.207 131.915 259.217C131.635 257.172 131.056 255.179 131.091 253.1C131.11 252.057 131.212 251.02 131.326 249.984C131.435 248.973 131.52 247.955 131.708 246.955C131.891 245.979 132.154 245.019 132.339 244.044C132.523 243.084 132.715 242.133 132.964 241.189C133.472 239.269 134.127 237.393 134.618 235.471C134.772 234.867 135.098 233.043 133.848 233.476C133.062 233.748 132.77 234.96 132.574 235.661C132.296 236.649 132.115 237.657 131.918 238.663C131.722 239.664 131.436 240.64 131.132 241.613C130.536 243.517 129.902 245.405 129.126 247.244C128.747 248.14 128.33 249.021 127.86 249.873C127.744 250.091 127.524 250.451 127.358 250.715C126.039 252.789 123.559 253.165 121.419 253.944C120.322 254.343 119.27 254.937 118.247 255.496C117.258 256.036 116.438 256.679 115.795 257.616C114.488 259.527 114.011 261.732 113.594 263.968C113.367 265.179 113.166 266.392 112.995 267.609C112.83 268.791 112.638 269.983 112.652 271.177C112.683 273.481 113.178 275.783 114.232 277.832C114.72 278.78 115.288 279.699 116.058 280.444C116.354 280.731 116.747 280.957 117.118 280.632C117.496 280.303 117.48 279.639 117.479 279.18C117.468 274.503 115.255 269.489 117.27 264.955C118.299 262.637 119.994 260.621 122.124 259.24C123.211 258.536 124.419 258.08 125.531 257.427C126.047 257.121 126.508 256.768 126.93 256.343C127.368 255.9 127.707 255.348 128.154 254.923C128.666 255.953 128.687 257.279 128.554 258.399C128.423 259.491 128.088 260.551 127.495 261.48C126.251 263.427 124.454 264.967 123.323 266.993C122.762 268.003 122.41 269.056 122.136 270.176C121.851 271.347 121.615 272.56 121.622 273.768C121.628 274.983 121.775 276.192 121.887 277.4C121.944 278.019 121.996 278.64 122.028 279.263C122.052 279.712 122.179 280.436 121.836 280.797C121.463 281.193 120.79 280.809 120.447 280.565C119.976 280.231 119.668 279.793 119.522 279.233C119.235 278.137 119.402 276.936 119.515 275.827C119.642 274.591 119.798 273.359 119.955 272.127C120.111 270.913 120.264 269.719 120.2 268.492C120.14 267.329 120.09 266.217 120.494 265.101C120.871 264.056 121.606 263.197 122.402 262.443C122.827 262.041 123.276 261.673 123.73 261.307C124.044 261.053 124.719 260.605 124.818 260.187C124.934 259.699 124.363 259.423 124.002 259.708C123.582 260.039 123.211 260.448 122.79 260.785C120.994 262.228 119.488 263.952 119.198 266.312C119.044 267.553 119.295 268.805 119.194 270.052C119.096 271.244 118.911 272.431 118.764 273.617C118.614 274.837 118.447 276.069 118.395 277.299C118.348 278.405 118.406 279.621 119.047 280.568C119.603 281.391 120.824 282.173 121.852 281.899C123.008 281.589 123.064 280.365 123.022 279.379C122.911 276.879 122.374 274.376 122.791 271.881C122.986 270.725 123.247 269.537 123.704 268.453C124.146 267.407 124.792 266.457 125.508 265.58C126.915 263.857 128.612 262.211 129.232 260.012C129.559 258.86 129.658 257.687 129.56 256.495C129.499 255.736 129.299 254.083 128.379 253.849C127.834 253.711 127.418 254.233 127.12 254.607C126.755 255.067 126.394 255.509 125.955 255.9C125.076 256.684 123.958 257.084 122.931 257.629C120.887 258.711 119.088 260.196 117.755 262.096C116.398 264.035 115.591 266.148 115.495 268.516C115.394 270.999 115.842 273.397 116.194 275.843C116.364 277.024 116.551 278.252 116.479 279.449C114.564 277.297 113.751 274.263 113.643 271.437C113.59 270.004 113.86 268.555 114.068 267.141C114.287 265.651 114.547 264.165 114.852 262.689C115.146 261.265 115.575 259.897 116.319 258.639C116.662 258.061 117.074 257.497 117.603 257.076C118.131 256.655 118.744 256.352 119.342 256.043C120.007 255.699 120.668 255.329 121.358 255.036C122.024 254.752 122.72 254.544 123.41 254.324C124.686 253.916 126.004 253.491 127.03 252.591C128.112 251.641 128.718 250.439 129.319 249.221C130.07 247.704 130.694 246.105 131.238 244.503C131.044 245.448 130.795 246.381 130.64 247.335C130.475 248.343 130.388 249.367 130.28 250.381C130.064 252.424 130.022 254.424 130.416 256.445C130.792 258.373 131.19 260.337 131.183 262.309C131.18 263.297 131.007 264.3 130.814 265.265C130.626 266.2 130.288 267.051 129.65 267.772C129.039 268.457 128.303 269.009 127.62 269.621C126.902 270.265 126.278 271.013 125.702 271.787C125.154 272.524 124.716 273.269 124.508 274.172C124.292 275.109 124.274 276.089 124.243 277.048C124.18 279.017 124.17 280.988 124.688 282.903C124.946 283.848 125.267 284.82 125.778 285.66C125.806 285.705 125.836 285.761 125.866 285.813C122.987 284.643 120.191 283.268 117.507 281.7C115.863 280.74 114.267 279.696 112.715 278.592C112.999 278.263 112.88 277.904 112.658 277.589C112.362 277.171 112.079 276.764 111.855 276.299C111.471 275.496 111.215 274.647 110.984 273.788C110.487 271.943 110.462 269.927 110.64 268.033C110.984 264.364 112.308 260.716 114.486 257.728C115.011 257.007 115.68 256.315 116.407 255.791C117.176 255.236 118.094 254.867 118.97 254.515C120.691 253.823 122.466 253.295 123.779 251.904C126.434 249.091 127.146 245.136 128.508 241.647C129.218 239.833 130.058 238.061 131.023 236.369C131.467 235.591 131.936 234.819 132.514 234.131C133.078 233.455 133.778 232.703 134.576 232.319C134.975 232.127 135.451 231.963 135.896 231.927C136.406 231.885 136.53 232.219 136.575 232.668C136.675 233.621 136.458 234.619 136.196 235.527C135.647 237.436 135.042 239.328 134.507 241.241C133.975 243.144 133.471 245.064 133.262 247.033C133.06 248.932 133.239 250.753 133.747 252.591C134.282 254.521 134.826 256.447 135.232 258.411C135.619 260.269 135.987 262.223 135.734 264.124C135.615 265.013 135.386 265.952 134.926 266.729C134.462 267.515 133.784 268.119 133.091 268.697C131.622 269.925 130.118 271.101 128.946 272.633C128.375 273.379 127.882 274.221 127.599 275.121C127.326 275.985 127.428 276.883 127.524 277.765C127.735 279.723 127.868 281.657 127.624 283.62V283.62ZM99.1082 265.577C97.9535 264.109 96.8935 262.569 95.8762 261.001C96.3135 261.501 96.8869 261.979 97.5309 261.931C98.3909 261.868 98.5549 260.847 98.6562 260.165C98.7922 259.263 98.8775 258.351 99.0962 257.463C99.3149 256.581 99.6442 255.723 99.9842 254.88C100.803 252.851 104.271 245.948 99.5442 246.332C98.6402 246.405 97.8189 246.767 96.9322 246.909C96.0082 247.057 95.3589 246.167 94.9282 245.467C93.9602 243.889 93.3295 242.067 92.6189 240.363C92.2669 239.516 91.9309 238.663 91.5322 237.836C91.1909 237.127 90.7895 236.212 90.0309 235.867C89.3829 235.572 88.3922 235.772 87.8309 236.187C87.1215 236.711 86.9655 237.712 86.8762 238.527C86.8522 238.749 86.8522 238.973 86.8389 239.197C86.7562 238.805 86.6575 238.417 86.5815 238.024C86.5295 237.749 86.4775 237.473 86.4282 237.197C86.3869 236.965 86.2855 236.676 86.2989 236.445C86.3109 236.215 86.2949 236.323 86.4322 236.148C86.4762 236.091 86.5135 236.019 86.5375 235.952C86.5789 235.836 86.5629 235.739 86.5762 235.621C86.5949 235.456 86.5935 235.441 86.6962 235.283C87.0242 234.769 87.8175 233.336 88.5935 233.679C89.0255 233.869 89.3789 234.245 89.7042 234.572C90.0882 234.957 90.4495 235.365 90.8042 235.777C91.4855 236.567 92.2722 237.285 92.9229 238.097C93.5602 238.891 93.9335 239.928 94.3682 240.84C94.8175 241.781 95.2602 242.733 95.8789 243.58C96.4709 244.391 97.2309 245.015 98.2935 244.84C99.2909 244.677 100.155 244.076 101.179 243.983C102.191 243.891 103.146 244.421 103.979 244.94C104.844 245.479 105.527 246.16 105.57 247.239C105.606 248.108 105.318 249.039 105.058 249.853C104.747 250.825 104.296 251.72 103.764 252.588C103.148 253.595 102.439 254.533 101.739 255.481C101.018 256.457 100.458 257.475 100.019 258.605C99.1415 260.864 98.8162 263.173 99.1082 265.577ZM88.0122 243.888C88.0815 243.837 88.1415 243.772 88.1789 243.685C88.3242 243.343 88.0655 242.747 88.0042 242.392C87.8495 241.489 87.7682 240.567 87.7935 239.652C87.8069 239.205 87.8389 238.757 87.9055 238.316C87.9669 237.907 88.0402 237.351 88.3522 237.047C88.5882 236.816 89.2015 236.651 89.5309 236.737C89.9322 236.843 90.1562 237.36 90.3349 237.688C91.2095 239.304 91.8362 241.067 92.5482 242.757C93.2002 244.309 93.8362 246.156 95.1482 247.285C95.8362 247.879 96.5669 248.036 97.4469 247.816C98.3015 247.603 99.1375 247.283 100.032 247.303C101.912 247.343 100.662 250.449 100.319 251.397C99.7055 253.096 98.8989 254.719 98.3549 256.444C98.0722 257.339 97.9055 258.264 97.7829 259.193C97.7229 259.652 97.6895 260.129 97.5709 260.576C97.5402 260.688 97.5055 260.9 97.4002 260.936C97.2882 260.976 97.0309 260.728 96.9522 260.66C95.6109 259.497 94.9375 257.608 94.2375 256.031C92.7109 252.588 91.4495 249.012 90.8055 245.293C90.6495 244.396 90.5469 243.495 90.5082 242.584C91.1189 243.473 91.4989 244.593 91.8802 245.595C92.2829 246.649 92.6655 247.717 92.9549 248.808C93.2362 249.865 93.4829 250.929 93.8255 251.968C94.1122 252.837 94.4415 253.967 95.1749 254.572C95.5362 254.871 96.0389 254.997 96.4749 254.776C96.9189 254.551 97.1282 254.039 97.2482 253.584C97.5082 252.597 97.3669 251.371 97.9295 250.485C97.9909 250.389 98.1549 250.121 98.2962 250.127C98.3682 250.128 98.4015 250.193 98.4615 250.228C98.8495 250.443 99.4135 250.153 99.2202 249.649C99.0762 249.273 98.5202 249.085 98.1575 249.14C97.7162 249.208 97.3709 249.531 97.1322 249.889C96.5629 250.747 96.5442 251.837 96.3882 252.821C96.3522 253.048 96.2895 253.821 95.9922 253.896C95.6602 253.977 95.2975 253.019 95.2122 252.828C94.3255 250.853 94.0149 248.66 93.3122 246.619C92.9575 245.588 92.5629 244.572 92.1255 243.575C91.9175 243.103 91.6975 242.633 91.4295 242.192C91.2002 241.813 90.8909 241.327 90.4469 241.18C89.2375 240.781 89.5149 242.739 89.5575 243.345C89.6362 244.479 89.8349 245.596 90.0642 246.705C90.5762 249.183 91.3869 251.564 92.2762 253.928C92.7135 255.091 93.2282 256.224 93.7349 257.356C93.8909 257.705 94.0669 258.045 94.2362 258.387C92.8149 255.948 91.5495 253.419 90.4495 250.824C89.5055 248.56 88.6989 246.241 88.0122 243.888V243.888ZM103.007 201.224C103.154 202.151 103.587 202.955 104.094 203.731C104.22 203.927 104.356 204.119 104.476 204.317C104.622 204.559 104.612 204.545 104.339 204.664C103.911 204.848 103.434 204.907 102.979 204.996C102.046 205.177 101.135 205.447 100.2 205.631C98.3469 205.995 96.7269 206.757 95.3055 208.007C93.6962 209.419 92.4242 211.191 91.2495 212.967C90.6229 213.913 90.0535 214.891 89.3069 215.751C88.9589 216.153 88.5815 216.533 88.1949 216.897C87.8482 217.225 87.4575 217.621 87.0335 217.848C87.0055 217.619 87.0175 217.384 87.0549 217.157C87.3322 215.515 88.0175 213.945 88.5989 212.395C89.1882 210.824 89.7629 209.249 90.4162 207.704C91.0882 206.113 91.8429 204.56 92.5629 202.989C93.2682 201.449 93.9055 199.879 94.6455 198.355C95.3815 196.84 96.2095 195.377 97.0589 193.924C97.9269 192.44 98.7309 190.919 99.5962 189.431C100.428 188 101.28 186.575 102.339 185.297C103.38 184.04 104.531 182.871 105.62 181.655C106.731 180.412 107.907 179.241 109.119 178.099C110.336 176.953 111.552 175.793 112.858 174.749C114.142 173.72 115.499 172.681 116.947 171.895C117.06 171.833 117.64 171.452 117.755 171.52C117.962 171.644 117.75 172.097 117.683 172.235C117.346 172.923 116.775 173.584 116.231 174.117C113.898 176.407 111.319 178.433 109.01 180.748C106.622 183.143 104.719 185.896 102.97 188.781C101.28 191.567 99.6135 194.531 99.1042 197.793C98.9802 198.585 98.9549 199.373 98.9295 200.173C98.9055 200.96 98.8615 201.752 98.5149 202.472C97.8509 203.851 96.5922 204.839 95.3895 205.727C94.7335 206.211 94.1002 206.78 93.3855 207.176C93.1589 205.975 93.6815 204.549 94.1255 203.455C94.6215 202.233 95.1815 201.015 95.8455 199.875C96.5215 198.715 97.2949 197.615 97.9749 196.457C98.6562 195.297 99.2615 194.096 99.9255 192.927C100.594 191.749 101.339 190.632 102.13 189.533C102.54 188.964 102.954 188.395 103.375 187.832C103.611 187.517 103.99 186.879 103.335 186.728C102.791 186.603 102.387 187.489 102.127 187.843C101.716 188.403 101.312 188.965 100.91 189.531C100.12 190.632 99.4162 191.791 98.7655 192.979C98.1109 194.173 97.4869 195.381 96.7682 196.539C96.0642 197.672 95.3015 198.768 94.6762 199.948C94.0562 201.119 93.4749 202.323 93.0135 203.567C92.5922 204.703 92.1682 206.14 92.4055 207.36C92.5069 207.889 92.8775 208.377 93.4709 208.22C94.0375 208.068 94.5682 207.591 95.0269 207.243C96.0562 206.464 97.1389 205.736 98.0349 204.799C98.8695 203.927 99.5589 202.925 99.7909 201.723C100.036 200.441 99.8842 199.119 100.103 197.831C100.559 195.151 101.827 192.688 103.179 190.36C103.876 189.16 104.626 187.995 105.395 186.84C106.132 185.739 106.86 184.629 107.711 183.611C108.074 183.176 108.594 182.573 108.902 182.267C108.931 182.236 108.96 182.205 108.988 182.173C108.828 182.348 109.15 182.011 109.147 182.013C109.236 181.923 109.326 181.832 109.415 181.741C109.612 181.543 109.81 181.345 110.008 181.151C110.388 180.776 110.774 180.405 111.163 180.04C111.959 179.297 112.794 178.597 113.607 177.873C114.382 177.183 115.139 176.472 115.908 175.775C116.699 175.06 117.446 174.336 118.07 173.465C117.659 174.375 117.175 175.249 116.707 176.131C116.256 176.979 115.814 177.835 115.287 178.64C114.223 180.265 112.928 181.679 111.626 183.112C110.28 184.592 109.088 186.193 107.852 187.763C106.655 189.285 105.48 190.8 104.624 192.547C103.735 194.361 103.299 196.336 103.052 198.331C102.934 199.284 102.856 200.272 103.007 201.224V201.224ZM85.6255 220.587C85.6935 219.707 85.7775 218.827 85.8802 217.951C86.0789 216.248 86.3602 214.556 86.6989 212.877C87.3749 209.539 88.3082 206.255 89.5015 203.063C89.7935 202.277 90.1015 201.499 90.4215 200.725C92.8042 195.091 95.9535 189.769 99.8135 185.021C103.502 180.485 107.783 176.409 112.543 173.012C114.848 171.365 117.26 169.873 119.756 168.537C119.551 169.631 119.266 170.679 118.824 171.723C118.804 171.297 118.62 170.851 118.228 170.645C117.78 170.409 117.311 170.597 116.894 170.803C116.006 171.24 115.194 171.796 114.39 172.369C112.74 173.549 111.204 174.819 109.716 176.195C108.188 177.605 106.66 179.021 105.264 180.564C103.903 182.069 102.45 183.531 101.192 185.124C99.9615 186.684 98.9842 188.469 98.0175 190.199C97.0109 192 95.9589 193.777 94.9709 195.587C93.9642 197.429 93.0949 199.321 92.2562 201.244C91.4122 203.181 90.4709 205.075 89.6295 207.015C88.6882 209.188 87.8909 211.425 87.0669 213.644C86.6775 214.688 86.2935 215.756 86.1002 216.856C85.9562 217.675 86.0335 219.371 87.3215 218.823C87.8135 218.612 88.2549 218.18 88.6469 217.825C89.1255 217.391 89.5789 216.931 90.0095 216.448C90.7842 215.583 91.3642 214.596 92.0015 213.631C93.2749 211.696 94.6735 209.695 96.5362 208.281C97.4762 207.569 98.4842 207.077 99.6255 206.78C100.163 206.639 100.708 206.552 101.252 206.437C101.806 206.32 102.344 206.144 102.896 206.025C103.684 205.855 105.403 205.772 105.615 204.753C105.711 204.293 105.358 203.856 105.126 203.497C104.8 202.992 104.447 202.495 104.224 201.932C103.755 200.751 103.919 199.425 104.072 198.197C104.228 196.967 104.472 195.748 104.864 194.569C105.646 192.227 107.123 190.296 108.628 188.379C110.159 186.431 111.675 184.512 113.358 182.691C115.019 180.895 116.346 178.928 117.487 176.769C118.755 174.371 120.071 171.923 120.65 169.251C120.724 168.905 120.784 168.557 120.835 168.208C120.847 168.128 120.863 168.04 120.876 167.952C121.091 167.843 121.302 167.727 121.516 167.619C121.65 168.155 121.596 169.051 121.54 169.74C121.475 170.552 121.304 171.32 121.047 172.093C120.53 173.655 119.768 175.141 119.116 176.651C118.446 178.203 117.731 179.729 117.102 181.299C116.486 182.833 115.826 184.363 114.927 185.756C114.032 187.147 112.875 188.256 111.523 189.197C110.139 190.16 108.903 191.129 107.891 192.491C106.963 193.739 106.32 195.163 106.154 196.717C105.98 198.336 106.198 200.105 106.752 201.636C107.267 203.06 108.18 204.391 109.462 205.228C109.763 205.425 110.086 205.576 110.427 205.696C110.67 205.783 110.607 205.839 110.528 206.077C110.462 206.281 110.358 206.464 110.242 206.644C109.82 207.299 109.111 207.611 108.391 207.831C107.596 208.073 106.772 208.185 105.943 208.197C105.142 208.208 104.348 208.077 103.548 208.105C101.883 208.161 100.355 208.537 98.8895 209.337C97.4935 210.097 96.4095 211.327 95.4575 212.576C94.4709 213.871 93.8175 215.339 93.0242 216.748C92.2415 218.136 91.3082 219.473 90.2282 220.648C89.6949 221.228 89.0935 221.667 88.3962 222.031C87.7362 222.375 86.9135 222.764 86.1455 222.679C85.8935 222.649 85.8989 222.531 85.8335 222.308C85.7722 222.104 85.6869 222.045 85.5882 221.872C85.4362 221.597 85.5989 220.919 85.6255 220.587V220.587ZM172.995 165.424C173.054 165.377 173.112 165.327 173.171 165.283C173.352 165.147 173.122 165.12 173.415 165.179C173.668 165.231 173.95 165.379 174.19 165.475C178.196 167.064 182.056 169.071 185.662 171.435C184.768 171.593 183.91 171.997 183.082 172.353C182.186 172.737 181.344 173.197 180.48 173.648C178.932 174.455 176.975 175.201 175.348 174.195C174.567 173.712 173.879 173.111 173.016 172.764C172.108 172.4 171.174 172.331 170.227 172.136C169.59 172.007 168.427 171.773 168.326 170.973C168.222 170.16 168.964 169.304 169.456 168.74C170.182 167.909 170.991 167.145 171.804 166.403C172.186 166.052 172.586 165.74 172.995 165.424V165.424ZM210.858 202.683C210.967 202.969 211.072 203.256 211.178 203.544C211.543 204.552 211.886 205.567 212.203 206.591C212.523 207.621 212.816 208.66 213.086 209.705C212.539 211.031 212.604 212.512 212.648 213.911C212.696 215.383 212.712 216.869 212.531 218.335C212.188 221.129 210.891 223.831 208.834 225.761C208.264 226.296 207.631 226.772 206.91 227.08C206.547 227.233 206.159 227.324 205.774 227.4C205.555 227.444 205.336 227.483 205.115 227.509C205.042 227.519 204.968 227.527 204.895 227.533C204.895 227.533 204.438 227.579 204.686 227.552C203.606 227.655 202.511 227.747 201.476 228.096C200.544 228.409 199.628 228.843 198.782 229.34C197.035 230.367 195.598 231.684 194.514 233.404C193.416 235.145 192.563 237.091 192.142 239.108C191.71 241.179 191.372 243.232 190.671 245.237C190.002 247.145 189.147 249.22 187.296 250.24C185.395 251.288 183.024 251.233 180.914 251.263C178.988 251.288 176.515 251.429 175.13 249.799C174.508 249.067 174.372 247.9 174.536 246.981C174.73 245.905 175.358 245.067 176.292 244.521C177.202 243.991 178.15 243.743 179.202 243.784C180.228 243.823 181.15 243.869 182.09 243.388C183.748 242.54 185.216 240.759 185.606 238.921C185.823 237.897 185.55 236.871 185.08 235.955C184.863 235.529 184.563 235.156 184.335 234.741C184.22 234.533 184.342 234.479 184.475 234.312C184.66 234.081 184.839 233.843 185.016 233.605C186.315 231.851 187.466 229.925 188.447 227.976C190.366 224.172 191.396 220.033 192.075 215.847C192.244 214.804 192.378 213.752 192.358 212.693C192.338 211.705 192.139 210.736 192.103 209.751C192.031 207.751 192.871 205.675 193.988 204.051C195.071 202.476 196.588 200.832 198.455 200.227C199.508 199.884 200.604 199.684 201.715 199.729C202.182 199.748 202.642 199.795 203.098 199.891C203.568 199.988 204.143 200.079 204.516 200.407C204.843 200.696 205.051 201.137 205.302 201.489C205.596 201.905 205.922 202.276 206.34 202.575C207.123 203.139 208.13 203.176 209.046 202.979C209.551 202.872 209.996 202.644 210.479 202.475C210.776 202.372 210.744 202.384 210.858 202.683V202.683ZM216.34 221.133C215.866 214.311 214.356 207.567 211.812 201.217C209.384 195.151 206.054 189.439 201.964 184.34C199.835 181.688 197.504 179.191 194.996 176.893C193.722 175.727 192.4 174.612 191.036 173.548C190.356 173.017 189.664 172.497 188.964 171.992C188.782 171.86 188.634 171.745 188.487 171.584C188.384 171.469 188.298 171.363 188.147 171.305C187.759 171.159 187.442 170.917 187.088 170.679C181.356 166.803 174.98 163.887 168.328 161.988C161.583 160.063 154.531 159.269 147.524 159.544C140.626 159.815 133.75 161.184 127.276 163.585C121.114 165.873 115.298 169.072 110.079 173.067C104.919 177.017 100.332 181.717 96.5282 186.984C92.5069 192.552 89.3549 198.735 87.2255 205.264C85.0815 211.843 84.0162 218.763 84.0002 225.679C83.9829 232.591 85.0669 239.493 87.1882 246.073C89.2895 252.591 92.4122 258.781 96.4109 264.341C98.3215 266.999 100.431 269.512 102.706 271.865C107.152 276.467 112.284 280.401 117.862 283.536C123.824 286.888 130.308 289.316 137.015 290.673C143.931 292.073 151.075 292.372 158.083 291.537C165.012 290.712 171.806 288.797 178.132 285.851C184.223 283.015 189.876 279.249 194.848 274.728C199.548 270.453 203.616 265.488 206.92 260.063C210.364 254.408 212.931 248.239 214.532 241.816C216.214 235.069 216.823 228.069 216.34 221.133" fill="#4D4D4D"/>
<path d="M159.004 289.996C159.124 289.98 158.911 290.009 159.004 289.996Z" fill="#4D4D4D"/>
<path d="M185.452 204.947C185.115 207.703 184.01 210.561 182.352 212.788C180.644 215.081 178.46 216.837 176.368 218.755C175.854 219.227 175.39 219.735 174.948 220.277C174.755 220.515 174.656 220.764 174.495 221.001C174.299 221.289 174.123 221.545 174.026 221.888C173.638 223.261 173.399 224.64 172.82 225.957C172.252 227.257 171.494 228.519 170.624 229.64C170.182 230.212 169.716 230.763 169.188 231.259C168.782 231.637 168.167 232.247 167.566 232.139C166.932 232.025 166.788 231.188 166.683 230.659C166.54 229.937 166.498 229.204 166.424 228.473C166.29 227.125 166.103 225.607 165.266 224.489C164.452 223.403 163.167 222.877 161.866 223.385C160.588 223.885 159.522 224.772 158.7 225.865C156.986 228.155 155.891 230.928 154.796 233.549C153.642 236.316 152.604 239.133 151.43 241.893C150.907 243.121 150.302 244.588 149.154 245.371C148.032 246.135 146.355 246.12 145.168 245.503C143.971 244.881 143.539 243.295 143.307 242.075C143.048 240.72 143.063 239.335 143.167 237.963C143.223 237.229 143.283 236.489 143.408 235.763C143.403 235.795 143.403 235.788 143.404 235.785C143.406 235.78 143.408 235.757 143.411 235.745C143.423 235.675 143.443 235.556 143.45 235.52C143.468 235.415 143.488 235.309 143.506 235.204C143.51 235.187 143.523 235.097 143.531 235.043C143.896 232.915 144.586 230.829 145.335 228.811C146.111 226.725 147.042 224.697 148.175 222.781C150.335 219.125 153.251 215.863 156.814 213.527C158.65 212.324 160.57 211.407 162.583 210.549C163.539 210.141 164.482 209.696 165.319 209.072C166.147 208.455 166.858 207.68 167.474 206.853C168.75 205.14 169.615 203.168 171.062 201.572C172.468 200.02 174.27 198.832 176.195 198.025C178.284 197.149 180.984 197.476 182.838 198.76C184.774 200.101 185.738 202.644 185.452 204.947V204.947ZM143.404 235.783C143.404 235.785 143.403 235.791 143.403 235.789C143.403 235.788 143.402 235.797 143.403 235.795C143.4 235.808 143.402 235.801 143.404 235.783ZM185.464 199.449C184.347 197.832 182.666 196.772 180.752 196.345C179.706 196.111 178.648 196.124 177.587 196.223C176.55 196.319 175.618 196.709 174.684 197.152C172.852 198.02 171.152 199.312 169.823 200.841C168.448 202.423 167.598 204.327 166.348 205.988C165.748 206.788 165.043 207.573 164.207 208.133C163.356 208.705 162.39 209.091 161.45 209.491C159.51 210.316 157.666 211.249 155.911 212.424C152.422 214.756 149.355 217.976 147.222 221.595C146.011 223.648 144.971 225.781 144.124 228.009C143.283 230.223 142.512 232.507 142.136 234.851C142.12 234.952 142.04 235.4 142.002 235.631C141.898 236.231 141.802 237.117 141.75 237.831C141.691 238.612 141.648 239.399 141.687 240.181C141.764 241.752 141.974 243.345 142.684 244.768C143.396 246.192 144.594 247.04 146.167 247.284C147.723 247.524 149.312 247.195 150.487 246.105C151.626 245.048 152.236 243.604 152.832 242.204C153.496 240.643 154.112 239.061 154.751 237.489C156.007 234.397 157.115 231.155 158.83 228.276C159.628 226.937 160.5 225.635 161.928 224.912C162.596 224.575 163.236 224.436 163.835 225.004C164.4 225.54 164.632 226.307 164.787 227.049C165.108 228.573 165.012 230.173 165.476 231.668C165.687 232.34 166.04 233.023 166.7 233.34C167.35 233.651 168.024 233.644 168.675 233.355C170.046 232.748 171.126 231.367 171.986 230.185C172.95 228.863 173.775 227.425 174.382 225.904C174.686 225.141 174.9 224.339 175.096 223.543C175.191 223.167 175.258 222.784 175.355 222.408C175.443 222.06 175.652 221.851 175.798 221.548C176.108 220.896 176.77 220.315 177.306 219.821C177.912 219.264 178.543 218.736 179.166 218.197C181.519 216.155 183.716 213.827 185.063 210.989C186.418 208.135 187.538 204.624 186.496 201.5C186.254 200.772 185.902 200.08 185.464 199.449" fill="#4D4D4D"/>
<path d="M142.158 234.725C142.164 234.687 142.17 234.648 142.178 234.608C142.167 234.672 142.155 234.733 142.144 234.797C142.159 234.717 142.163 234.693 142.158 234.725Z" fill="#4D4D4D"/>
<path d="M166.643 177.723C167.871 177.703 169.214 177.963 170.354 178.427C171.607 178.937 172.772 179.657 173.978 180.267C175.179 180.873 176.364 181.151 177.704 180.923C179.06 180.692 180.335 180.14 181.591 179.604C182.82 179.08 184.07 178.6 185.339 178.179C186.012 177.955 186.708 177.799 187.404 177.655C188.063 177.517 188.758 177.356 189.434 177.357C190.147 177.359 190.527 177.649 190.988 178.164C191.41 178.633 191.74 179.127 191.846 179.759C192.072 181.109 191.004 181.973 189.994 182.655C188.843 183.432 187.574 183.863 186.254 184.269C184.95 184.672 183.608 184.948 182.287 185.289C180.998 185.621 179.73 186.025 178.482 186.491C177.19 186.973 175.939 187.539 174.703 188.152C173.504 188.748 172.286 189.348 171.188 190.121C169.02 191.648 167.446 193.916 165.652 195.836C164.727 196.825 163.771 197.768 162.73 198.635C161.662 199.523 160.448 200.227 159.276 200.967C158.132 201.691 156.998 202.445 155.779 203.043C155.188 203.333 154.451 203.571 153.79 203.591C153.156 203.611 152.732 203.336 152.364 202.848C152.063 202.449 151.739 202.003 151.558 201.535C151.58 201.591 151.482 201.403 151.476 201.392C151.419 201.275 151.404 201.277 151.375 201.153C151.334 200.972 151.332 200.856 151.219 200.689C150.971 200.321 150.691 200.027 150.523 199.604C150.182 198.74 150.23 197.736 150.256 196.823C150.311 194.957 151.043 193.091 151.78 191.4C152.542 189.652 153.459 187.963 154.406 186.309C155.336 184.684 156.375 183.08 157.554 181.621C158.191 180.835 158.919 180.079 159.727 179.465C160.574 178.823 161.618 178.487 162.618 178.172C163.911 177.764 165.299 177.745 166.643 177.723V177.723ZM158.018 179.059C155.26 181.728 153.238 185.207 151.54 188.623C150.65 190.416 149.8 192.227 149.286 194.167C149.035 195.111 148.83 196.049 148.83 197.031C148.828 198.004 148.802 199.031 149.143 199.957C149.299 200.379 149.49 200.763 149.759 201.124C149.876 201.28 150.06 201.437 150.146 201.612C150.227 201.775 150.227 202.012 150.308 202.211C150.456 202.579 150.686 202.897 150.907 203.225C151.16 203.601 151.419 204.011 151.759 204.317C153.216 205.624 155.474 204.835 156.974 204.039C158.768 203.085 160.476 201.909 162.178 200.796C163.795 199.736 165.198 198.397 166.512 196.988C167.847 195.556 169.062 194.005 170.448 192.624C171.828 191.252 173.459 190.355 175.188 189.497C177.015 188.593 178.867 187.8 180.81 187.18C182.734 186.567 184.731 186.223 186.66 185.632C188.54 185.056 190.287 184.355 191.8 183.065C192.494 182.473 193.079 181.731 193.239 180.813C193.398 179.904 193.226 178.901 192.73 178.117C192.287 177.417 191.662 176.624 190.907 176.244C190.05 175.813 189.088 175.927 188.176 176.064C186.192 176.361 184.324 177.012 182.456 177.723C180.676 178.4 178.843 179.499 176.899 179.596C175.924 179.645 175.051 179.243 174.21 178.797C173.331 178.329 172.459 177.851 171.559 177.427C169.768 176.581 167.854 176.261 165.884 176.321C163.904 176.381 162.031 176.711 160.22 177.545C159.407 177.921 158.66 178.435 158.018 179.059" fill="#4D4D4D"/>
<path d="M134.887 217.009C133.252 218.957 131.316 220.785 129.282 222.308C128.256 223.075 127.155 223.735 126.118 224.485C125.118 225.211 124.183 226.004 123.29 226.856C122.403 227.703 121.568 228.597 120.808 229.561C120.048 230.525 119.46 231.595 118.894 232.68C118.335 233.755 117.8 234.843 117.091 235.831C116.386 236.816 115.419 237.591 114.423 238.268C113.408 238.957 112.204 239.396 110.959 239.189C109.782 238.995 108.583 238.36 107.688 237.588C105.727 235.895 104.651 233.604 103.764 231.22C103.326 230.037 102.907 228.84 102.722 227.587C102.543 226.379 102.566 225.105 102.691 223.892C102.934 221.544 103.991 219.213 105.308 217.272C105.992 216.263 106.919 215.379 107.932 214.701C108.856 214.084 110.076 213.443 111.212 213.823C112.356 214.205 113.016 215.46 113.496 216.473C114.024 217.587 114.811 218.272 115.916 218.788C118.203 219.853 120.842 218.865 122.846 217.623C124.975 216.303 126.771 214.517 128.344 212.583C129.14 211.607 129.876 210.593 130.507 209.501C131.103 208.469 131.647 207.339 131.808 206.148C131.97 204.951 131.827 203.836 131.287 202.739C130.774 201.693 129.93 200.913 128.988 200.257C127.92 199.512 126.814 198.811 125.7 198.137C124.659 197.509 123.575 196.885 122.71 196.019C121.852 195.161 121.187 194.189 120.895 193C120.59 191.757 120.674 190.552 121.043 189.333C121.766 186.944 122.904 184.699 124.534 182.801C125.331 181.872 126.206 180.965 127.355 180.491C128.022 180.257 128.695 180.053 129.351 179.791C129.956 179.547 130.467 179.133 130.939 178.691C131.942 177.752 132.492 176.493 133.022 175.251C134.108 172.692 135.024 170.085 137.008 168.059C137.984 167.063 139.052 166.212 140.332 165.644C141.575 165.091 142.98 164.888 144.328 164.787C147.276 164.564 150.342 164.289 153.28 164.763C154.864 165.019 156.396 165.34 157.926 165.84C158.655 166.077 159.252 166.419 159.466 167.207C159.538 167.479 159.607 168.005 159.368 168.208C159.146 168.397 158.54 168.416 158.262 168.433C158.266 167.885 157.663 167.236 157.254 166.929C156.69 166.505 155.983 166.297 155.295 166.187C153.779 165.947 152.326 166.196 150.899 166.724C148.166 167.733 145.716 169.485 143.612 171.476C141.536 173.439 139.534 175.56 138.14 178.075C137.447 179.323 136.979 180.729 136.834 182.152C136.679 183.668 137.127 185.072 137.679 186.463C138.96 189.696 140.326 192.897 141.619 196.124C141.599 196.067 141.576 196.009 141.555 195.952C141.586 196.035 141.618 196.117 141.648 196.199C141.628 196.147 141.608 196.095 141.588 196.043C141.996 197.112 142.452 198.284 142.572 199.484C142.704 200.809 142.483 202.143 142.108 203.409C141.359 205.945 140.334 208.36 139.072 210.681C137.859 212.913 136.523 215.061 134.887 217.009V217.009ZM142.671 206.188C143.528 203.836 144.32 201.379 143.91 198.845C143.806 198.205 143.64 197.587 143.431 196.973C143.339 196.707 143.246 196.443 143.147 196.179C143.094 196.039 143.102 196.059 143.039 195.893C143.018 195.836 142.898 195.523 142.942 195.635C142.919 195.577 142.898 195.519 142.876 195.463C142.643 194.827 142.222 193.903 141.903 193.161C141.542 192.321 141.215 191.468 140.891 190.613C140.567 189.763 140.236 188.916 139.888 188.076C139.715 187.66 139.54 187.244 139.364 186.829C139.276 186.619 139.186 186.407 139.098 186.195C139.058 186.097 139.019 186.001 138.979 185.905C138.984 185.915 138.824 185.517 138.878 185.661C138.375 184.361 138.062 183.045 138.334 181.655C138.586 180.365 139.106 179.173 139.8 178.065C141.244 175.763 143.164 173.715 145.207 171.929C147.228 170.163 149.608 168.5 152.228 167.78C153.451 167.443 154.991 167.296 156.16 167.912C156.432 168.055 156.635 168.256 156.792 168.517C156.852 168.615 156.894 168.725 156.962 168.817C157.003 168.876 157.086 168.931 157.118 168.989C157.16 169.069 157.14 169.113 157.167 169.208C157.334 169.809 157.779 169.895 158.346 169.845C158.951 169.792 159.619 169.717 160.15 169.396C160.672 169.081 160.884 168.476 160.934 167.895C161.035 166.668 160.38 165.451 159.3 164.869C158.72 164.559 158.074 164.387 157.443 164.213C156.772 164.031 156.107 163.816 155.424 163.676C154.107 163.408 152.738 163.215 151.395 163.159C149.966 163.099 148.532 163.1 147.104 163.181C145.686 163.26 144.246 163.324 142.836 163.523C141.48 163.715 140.143 164.085 138.932 164.737C137.758 165.368 136.698 166.299 135.795 167.272C134.864 168.275 134.118 169.365 133.503 170.585C132.875 171.831 132.371 173.14 131.831 174.427C131.303 175.687 130.78 176.957 129.727 177.875C128.77 178.709 127.504 178.851 126.382 179.369C125.791 179.644 125.28 180.045 124.799 180.479C122.887 182.197 121.482 184.404 120.476 186.751C119.967 187.941 119.494 189.2 119.332 190.493C119.174 191.74 119.339 193.033 119.786 194.208C120.683 196.565 122.76 198.007 124.824 199.273C125.954 199.967 127.086 200.665 128.176 201.42C129.24 202.157 130.028 203.051 130.356 204.325C130.674 205.561 130.279 206.837 129.73 207.952C129.152 209.127 128.411 210.225 127.603 211.252C126.032 213.249 124.198 215.183 121.995 216.487C120.971 217.093 119.771 217.684 118.568 217.788C117.364 217.893 115.99 217.572 115.204 216.579C114.835 216.111 114.632 215.52 114.347 215C114.056 214.472 113.69 213.957 113.264 213.528C112.391 212.645 111.286 212.187 110.042 212.329C108.743 212.479 107.602 213.152 106.583 213.936C105.568 214.717 104.654 215.644 103.964 216.725C102.62 218.835 101.586 221.2 101.288 223.696C101.138 224.969 101.148 226.284 101.291 227.557C101.431 228.817 101.824 230.007 102.256 231.191C103.132 233.597 104.112 235.993 105.918 237.868C107.66 239.68 110.16 241.005 112.73 240.539C113.987 240.311 114.992 239.624 115.995 238.872C117.018 238.105 117.88 237.231 118.586 236.163C119.3 235.079 119.839 233.9 120.447 232.756C121.042 231.633 121.748 230.559 122.598 229.611C124.35 227.657 126.318 226.028 128.495 224.572C132.82 221.679 136.494 217.877 139.152 213.4C140.523 211.089 141.752 208.716 142.671 206.188" fill="#4D4D4D"/>
<path d="M176.435 265.669C176.015 267.581 175.188 269.271 174.076 270.869C173.535 271.645 172.851 272.336 172.14 272.957C171.4 273.603 170.458 274.123 169.448 273.847C168.484 273.584 167.846 273.049 167.128 272.385C166.483 271.789 165.659 271.253 164.744 271.453C163.827 271.653 163.014 272.404 162.29 272.96C161.459 273.6 160.636 274.251 159.792 274.875C158.104 276.121 156.247 277.083 154.47 278.185C153.622 278.711 152.952 279.303 152.322 280.075C151.64 280.912 150.988 281.773 150.354 282.647C149.252 284.155 148.108 285.92 146.49 286.924C146.11 287.16 145.698 287.353 145.242 287.357C144.708 287.363 144.292 287.016 143.9 286.691C143.118 286.04 142.299 285.251 141.708 284.419C140.5 282.72 140.326 280.657 140.734 278.66C141.13 276.721 142.146 275.053 143.706 273.828C145.356 272.533 147.24 271.565 148.886 270.265C150.387 269.081 151.48 267.54 151.862 265.641C152.263 263.635 152.195 261.56 152.48 259.535C152.763 257.528 153.434 255.72 154.551 254.025C155.636 252.383 156.864 250.793 158.383 249.527C159.151 248.885 160.044 248.296 160.991 247.952C161.435 247.791 161.9 247.709 162.372 247.721C162.82 247.731 163.034 248.091 163.524 247.893C164.166 247.635 165.352 246.705 165.971 247.464C166.471 248.079 165.714 249.303 165.494 249.913C165.159 250.844 164.979 251.881 165.256 252.852C165.526 253.791 166.16 254.521 166.874 255.159C168.394 256.515 170.052 257.679 171.69 258.884C172.528 259.501 173.36 260.121 174.227 260.7C175.018 261.225 175.948 261.792 176.368 262.681C176.794 263.576 176.64 264.736 176.435 265.669V265.669ZM174.211 258.977C173.282 258.327 172.379 257.633 171.46 256.967C170.54 256.301 169.632 255.624 168.748 254.911C167.963 254.248 166.952 253.536 166.639 252.508C166.323 251.469 166.818 250.437 167.18 249.484C167.518 248.596 167.767 247.544 167.174 246.696C166.602 245.877 165.559 245.615 164.626 245.867C164.382 245.932 164.15 246.031 163.919 246.132C163.776 246.195 163.636 246.26 163.495 246.327C163.32 246.409 163.291 246.439 163.127 246.407C162.659 246.316 162.211 246.269 161.726 246.327C160.672 246.453 159.684 246.919 158.795 247.483C156.978 248.635 155.508 250.256 154.238 251.975C152.975 253.683 151.842 255.605 151.375 257.697C150.891 259.869 150.887 262.072 150.638 264.269C150.508 265.411 150.24 266.493 149.612 267.468C149.063 268.319 148.267 268.993 147.45 269.58C145.68 270.848 143.639 271.851 142.055 273.364C139.096 276.188 138.094 281.235 140.268 284.796C140.824 285.707 141.598 286.489 142.371 287.217C143.056 287.863 143.835 288.595 144.798 288.744C146.843 289.06 148.592 287.181 149.763 285.755C151.166 284.043 152.332 282.125 153.828 280.492C154.535 279.72 155.458 279.239 156.354 278.72C157.324 278.157 158.304 277.6 159.236 276.977C160.158 276.36 161.051 275.709 161.93 275.033C162.806 274.36 163.652 273.591 164.615 273.043C165.062 272.788 165.311 272.797 165.734 273.075C166.194 273.376 166.555 273.819 166.98 274.164C167.739 274.777 168.694 275.232 169.672 275.333C171.794 275.555 173.507 273.805 174.74 272.313C176.1 270.669 177.1 268.739 177.643 266.675C178.174 264.661 178.364 262.435 176.763 260.856C176.004 260.109 175.079 259.583 174.211 258.977" fill="#4D4D4D"/>
<path d="M138.822 201.253C138.252 203.147 137.41 205.007 136.26 206.62C135.078 208.283 133.754 209.837 132.692 211.585C131.622 213.351 130.66 215.188 129.498 216.896C128.298 218.657 126.891 220.301 125.079 221.448C125.012 221.484 124.866 221.569 124.848 221.579C124.758 221.628 124.667 221.676 124.575 221.724C124.347 221.845 124.116 221.963 123.886 222.076C123.392 222.323 122.894 222.557 122.402 222.803C121.488 223.257 120.595 223.757 119.767 224.357C118.143 225.533 117.128 227.268 116.187 228.995C115.316 230.591 114.371 232.171 113.018 233.409C112.668 233.728 112.296 234.015 111.904 234.279C111.532 234.529 111.114 234.816 110.648 234.788C109.766 234.733 108.914 234.036 108.323 233.429C107.01 232.08 106.407 230.263 106.26 228.409C106.098 226.361 106.311 224.165 106.731 222.157C106.834 221.673 106.95 221.191 107.103 220.72C107.234 220.312 107.38 219.752 107.792 219.543C108.599 219.133 109.708 219.817 110.159 220.468C110.724 221.284 110.876 222.373 111.087 223.321C111.296 224.263 111.52 225.249 112.056 226.067C112.699 227.048 113.792 227.244 114.844 226.823C115.859 226.416 116.619 225.572 117.306 224.755C118.014 223.909 118.744 223.111 119.579 222.387C120.478 221.607 121.535 221.009 122.507 220.324C123.515 219.615 124.583 218.999 125.578 218.273C126.562 217.555 127.486 216.773 128.327 215.892C129.992 214.149 131.403 212.169 132.647 210.108C133.256 209.099 133.819 208.029 134.186 206.905C134.548 205.789 134.836 204.517 134.882 203.343C134.974 200.964 132.976 199.239 131.139 198.076C129.092 196.781 126.736 195.757 125.352 193.671C124.758 192.773 124.348 191.752 124.535 190.661C124.732 189.507 125.366 188.271 126.024 187.312C126.342 186.848 126.708 186.384 127.156 186.04C127.607 185.695 128.172 185.533 128.704 185.365C129.795 185.02 130.532 184.352 131.227 183.463C131.988 182.488 132.671 181.432 133.308 180.373C133.958 179.296 134.49 178.151 135.111 177.057C136.442 174.707 137.339 172.16 139.044 170.031C140.815 167.819 143.428 166.793 146.175 166.479C144.307 167.377 142.764 168.652 141.266 170.068C139.682 171.564 138.319 173.189 137.188 175.055C136.103 176.843 135.324 178.812 134.83 180.843C134.308 182.979 134.368 185.053 134.928 187.172C135.223 188.288 135.628 189.376 136.188 190.385C136.676 191.263 137.186 192.052 137.724 192.912C138.191 193.645 138.592 194.515 138.872 195.392C138.886 195.447 138.93 195.604 138.936 195.629C138.956 195.719 138.976 195.808 138.995 195.899C139.047 196.147 139.091 196.397 139.126 196.649C139.2 197.191 139.219 197.739 139.211 198.285C139.198 199.288 139.112 200.288 138.822 201.253V201.253ZM137.378 190.475C136.472 188.945 135.888 187.277 135.588 185.525C135.288 183.763 135.488 182.041 135.996 180.336C136.508 178.616 137.162 177.001 138.104 175.469C139.044 173.94 140.131 172.54 141.422 171.291C142.694 170.063 144.02 168.763 145.58 167.905C146.354 167.479 147.151 167.084 147.979 166.773C148.342 166.637 148.702 166.517 149.082 166.441C149.422 166.372 150.027 166.417 150.287 166.167C150.516 165.947 150.448 165.679 150.292 165.451C150.018 165.044 149.835 164.975 149.33 165.012C148.426 165.08 147.543 165.312 146.644 165.424C144.918 165.64 143.27 165.905 141.687 166.679C140.203 167.403 138.944 168.511 137.948 169.817C136.87 171.233 136.1 172.825 135.363 174.439C134.623 176.053 133.702 177.605 132.86 179.171C132.444 179.945 131.95 180.681 131.459 181.411C130.984 182.119 130.51 182.856 129.922 183.477C129.303 184.129 128.584 184.345 127.759 184.629C126.955 184.907 126.302 185.385 125.75 186.029C125.211 186.66 124.772 187.388 124.414 188.135C124.06 188.872 123.696 189.676 123.559 190.488C123.278 192.144 124.039 193.695 125.062 194.955C127.26 197.664 131.168 198.347 133.215 201.191C134.274 202.661 133.82 204.485 133.388 206.105C132.924 207.843 131.954 209.397 130.97 210.88C128.99 213.86 126.716 216.489 123.64 218.377C122.928 218.815 122.251 219.296 121.566 219.772C120.846 220.273 120.084 220.724 119.39 221.259C118.71 221.785 118.082 222.385 117.498 223.015C116.935 223.619 116.447 224.291 115.872 224.883C115.35 225.421 114.599 226.048 113.806 226.063C112.958 226.076 112.612 225.088 112.391 224.429C111.862 222.845 111.89 220.924 110.746 219.603C109.836 218.552 107.754 217.839 106.746 219.145C106.262 219.773 106.078 220.637 105.89 221.389C105.68 222.224 105.538 223.079 105.443 223.933C105.244 225.725 105.082 227.6 105.384 229.389C105.659 231.019 106.222 232.621 107.356 233.856C108.356 234.945 110.035 236.279 111.6 235.597C113.136 234.929 114.402 233.551 115.376 232.231C116.331 230.939 116.992 229.479 117.819 228.108C118.679 226.681 119.707 225.551 121.114 224.645C122.579 223.701 124.243 223.117 125.731 222.212C128.767 220.367 130.651 217.045 132.387 214.061C133.302 212.488 134.24 210.96 135.336 209.504C136.404 208.081 137.514 206.712 138.323 205.119C139.124 203.539 139.835 201.833 140.09 200.072C140.348 198.295 140.247 196.389 139.691 194.679C139.194 193.148 138.19 191.847 137.378 190.475Z" fill="#4D4D4D"/>
<path d="M135.691 200.897C135.428 200.275 135.432 199.532 135.254 198.88C135.07 198.205 134.763 197.604 134.375 197.025C133.698 196.004 132.726 195.257 131.79 194.488C130.95 193.799 129.959 193.088 129.446 192.105C128.255 189.829 130.095 187.525 131.94 186.34C131.892 186.611 132.02 186.963 132.04 187.243C132.064 187.587 132.079 187.929 132.122 188.273C132.204 188.936 132.356 189.599 132.606 190.22C133.106 191.464 134.152 192.243 134.842 193.356C135.532 194.471 135.895 195.937 136.131 197.215C136.339 198.348 136.367 199.895 135.691 200.897V200.897ZM135.502 192.567C134.787 191.548 133.855 190.776 133.427 189.577C133.191 188.915 133.092 188.199 133.047 187.5C133.019 187.067 133.12 186.131 132.598 185.952C133.191 185.605 132.743 184.792 132.127 185.081C131.456 185.397 130.81 185.872 130.252 186.355C129.108 187.345 128.288 188.657 128.111 190.184C127.699 193.723 131.662 194.993 133.408 197.376C133.91 198.06 134.238 198.791 134.408 199.621C134.554 200.333 134.555 201.637 135.343 201.997C136.442 202.512 136.959 200.507 137.099 199.824C137.362 198.539 137.214 197.28 136.879 196.021C136.563 194.839 136.212 193.58 135.502 192.567" fill="#4D4D4D"/>
<path d="M110.08 230.585C109.522 229.905 109.32 228.881 109.255 228.029C109.223 227.604 109.214 227.173 109.251 226.748C109.272 226.513 109.307 226.279 109.34 226.045C109.359 225.919 109.352 225.539 109.444 225.469C109.942 226.748 110.412 228.195 110.306 229.588C110.28 229.933 110.223 230.267 110.08 230.585V230.585ZM109.088 223.949C108.89 224.08 108.81 224.312 108.751 224.532C108.718 224.656 108.719 224.845 108.66 224.957C108.603 225.069 108.503 225.124 108.46 225.26C108.282 225.821 108.255 226.517 108.24 227.103C108.208 228.396 108.396 229.784 109.09 230.903C109.36 231.337 109.78 231.791 110.347 231.616C110.843 231.463 111.062 230.907 111.178 230.445C111.522 229.064 111.179 227.52 110.756 226.196C110.594 225.691 110.03 223.331 109.088 223.949" fill="#4D4D4D"/>
<path d="M155.09 189.033C154.263 190.385 153.568 191.864 153.138 193.392C152.698 194.952 152.68 196.619 152.551 198.227C152.452 199.451 152.167 201.869 153.967 201.967C154.712 202.007 155.423 201.655 156.047 201.28C156.7 200.888 157.322 200.433 157.902 199.937C159.099 198.911 160.126 197.719 161.003 196.408C161.911 195.052 162.77 193.661 163.808 192.397C164.798 191.195 165.952 189.943 167.268 189.093C168.57 188.252 170.214 187.989 171.695 187.623C174.919 186.824 178.108 185.788 181.191 184.545C182.702 183.936 184.224 183.345 185.731 182.724C186.858 182.259 188.807 181.429 188.795 179.947C188.782 178.196 186.115 179.123 185.255 179.499C183.858 180.112 182.603 181.019 181.248 181.719C180.519 182.095 179.766 182.42 179.008 182.731C178.264 183.036 177.518 183.34 176.712 183.433C175.168 183.609 173.604 183.152 172.142 182.723C171.359 182.493 170.582 182.251 169.8 182.012C169.455 181.905 169.103 181.825 168.75 181.752C168.364 181.671 167.955 181.497 167.568 181.452C167.318 181.421 167.078 181.556 167.008 181.805C166.916 182.143 167.152 182.351 167.439 182.449C168.159 182.697 168.928 182.776 169.655 183.012C171.204 183.517 172.808 184.059 174.422 184.308C175.996 184.553 177.402 184.436 178.887 183.853C180.368 183.272 181.804 182.6 183.172 181.785C184.434 181.033 185.826 180.055 187.331 179.917C187.414 179.911 187.746 179.865 187.802 179.943C187.864 180.029 187.671 180.307 187.628 180.372C187.426 180.673 187.118 180.893 186.812 181.081C186.148 181.493 185.407 181.803 184.678 182.076C183.154 182.648 181.671 183.312 180.148 183.887C177.031 185.064 173.88 186.064 170.644 186.86C169.146 187.229 167.63 187.595 166.36 188.515C165.131 189.405 164.004 190.575 163.055 191.756C161.064 194.233 159.67 197.143 157.206 199.217C156.682 199.659 153.894 201.985 153.552 200.477C153.378 199.7 153.496 198.845 153.563 198.064C153.631 197.268 153.672 196.471 153.748 195.676C153.904 194.053 154.399 192.569 155.086 191.096C155.746 189.683 156.698 188.432 157.559 187.139C158.462 185.784 159.454 184.525 160.56 183.332C161.523 182.296 162.643 181.067 164.06 180.693C164.83 180.491 165.658 180.515 166.431 180.689C166.744 180.76 167.035 180.879 167.314 181.036C167.596 181.196 167.928 181.443 168.227 181.167C168.894 180.552 167.546 180.007 167.142 179.86C166.46 179.611 165.686 179.541 164.964 179.572C163.406 179.633 162.144 180.397 161.036 181.451C159.863 182.564 158.742 183.772 157.779 185.073C156.839 186.347 155.916 187.684 155.09 189.033" fill="#4D4D4D"/>
<path d="M166.584 184.031C166.715 183.971 166.696 183.952 166.846 183.974C166.983 183.994 167.14 184.074 167.266 184.127C167.4 184.186 167.756 184.335 167.794 184.505C167.852 184.784 166.566 184.746 166.355 184.748C165.136 184.764 163.932 185.004 162.948 185.769C162.044 186.472 161.531 187.51 161.146 188.563C160.703 189.779 160.267 190.962 159.631 192.094C159.032 193.159 158.299 194.227 157.407 195.067C157.195 195.268 156.476 195.976 156.122 195.785C155.759 195.593 156.063 194.474 156.124 194.179C156.642 191.696 158.135 189.693 159.728 187.785C160.62 186.717 161.564 185.671 162.694 184.846C163.251 184.438 163.878 184.077 164.559 183.933C164.876 183.867 165.191 183.838 165.514 183.879C165.83 183.919 166.272 184.171 166.584 184.031V184.031ZM164.292 182.974C163.603 183.14 162.967 183.456 162.383 183.854C161.152 184.69 160.114 185.779 159.164 186.915C157.267 189.184 155.431 191.597 155.042 194.621C154.964 195.223 154.91 195.952 155.355 196.433C155.826 196.941 156.578 196.824 157.131 196.518C158.376 195.826 159.296 194.493 160.05 193.321C160.822 192.123 161.414 190.819 161.88 189.475C162.33 188.184 162.832 186.824 164.146 186.184C164.814 185.859 165.563 185.735 166.302 185.736C167.012 185.736 167.944 185.807 168.508 185.283C169.072 184.757 168.782 183.979 168.251 183.56C167.691 183.119 166.812 182.83 166.102 182.818C165.843 182.818 165.623 182.876 165.362 182.867C165.002 182.855 164.642 182.89 164.292 182.974" fill="#4D4D4D"/>
<path d="M172.656 171.041C173.72 171.053 174.703 170.465 175.714 170.215C175.86 170.179 176.1 170.081 176.228 170.161C176.395 170.264 176.475 170.796 176.52 170.971C176.642 171.452 176.742 171.976 176.998 172.407C177.564 173.363 178.563 173.273 179.479 172.929C179.928 172.76 180.346 172.539 180.747 172.275C181.123 172.027 181.683 171.684 181.594 171.151C181.527 170.747 181.086 170.468 180.79 170.236C180.33 169.873 179.856 169.532 179.376 169.197C178.456 168.553 177.558 167.903 176.687 167.191C176.484 167.025 176.282 166.863 176.084 166.692C175.887 166.524 175.703 166.287 175.488 166.147C175.12 165.907 174.583 166.209 174.716 166.679C174.783 166.907 175.028 167.072 175.196 167.225C175.41 167.424 175.632 167.611 175.858 167.796C176.364 168.211 176.864 168.635 177.394 169.023C178.415 169.773 179.506 170.436 180.475 171.256C179.995 171.629 179.41 171.943 178.823 172.111C178.619 172.169 178.324 172.253 178.118 172.165C177.883 172.065 177.783 171.78 177.704 171.555C177.494 170.94 177.432 170.275 177.107 169.7C176.804 169.165 176.283 169.072 175.708 169.196C175.076 169.335 174.467 169.575 173.855 169.783C173.466 169.916 172.611 170.269 172.24 169.933C171.872 169.603 172.534 168.803 172.739 168.531C173.12 168.021 173.575 167.568 174.024 167.121C174.211 166.933 174.532 166.715 174.59 166.443C174.648 166.16 174.446 165.876 174.158 165.848C173.816 165.812 173.587 166.16 173.375 166.373C173.254 166.496 173.134 166.619 173.014 166.741C172.931 166.824 172.676 167.088 172.68 167.084C172.65 167.116 172.622 167.145 172.591 167.176C172.696 167.069 172.432 167.351 172.44 167.343C172.379 167.411 172.318 167.479 172.259 167.548C172.095 167.739 171.938 167.935 171.791 168.137C171.542 168.483 171.315 168.869 171.2 169.283C170.924 170.277 171.683 171.031 172.656 171.041" fill="#4D4D4D"/>
<path d="M174.211 168.548C174.856 168.607 174.943 167.559 174.312 167.559C173.686 167.559 173.563 168.489 174.211 168.548Z" fill="#4D4D4D"/>
<path d="M181.683 206.481C181.526 207.393 181.203 208.233 180.804 209.064C179.964 210.808 178.878 212.371 177.543 213.772C176.612 214.761 175.466 215.515 174.342 216.312C173.166 217.148 172.284 218.277 171.484 219.467C170.64 220.727 170.211 222.081 169.851 223.54C169.494 224.985 169.083 226.308 168.308 227.588C167.94 226.54 167.983 225.327 167.95 224.233C167.916 223.176 167.79 222.087 167.346 221.115C166.938 220.221 166.286 219.575 165.358 219.247C164.376 218.901 163.276 218.788 162.27 219.085C160.318 219.661 158.711 221.085 157.375 222.565C155.886 224.215 154.699 226.115 153.576 228.024C153.022 228.965 152.483 229.919 152.079 230.936C151.672 231.957 151.338 233.012 151.024 234.065C150.375 236.249 149.998 238.552 149.094 240.651C148.71 241.543 148.214 242.493 147.451 243.121C147.2 243.327 146.856 243.551 146.552 243.344C146.151 243.071 145.955 242.473 145.804 242.039C145.432 240.972 145.451 239.875 145.572 238.767C145.691 237.679 145.867 236.589 146.112 235.523C146.676 233.069 147.496 230.651 148.432 228.317C149.364 225.993 150.568 223.709 152.022 221.667C152.968 220.336 154.012 219.033 155.271 217.984C156.555 216.913 158.016 216.06 159.522 215.34C161.034 214.619 162.599 213.861 163.914 212.809C165.211 211.769 166.558 210.696 167.706 209.489C170.088 206.989 171.695 203.769 174.542 201.733C175.807 200.829 177.328 200.117 178.916 200.315C180.698 200.536 181.843 201.892 181.827 203.671C181.82 204.597 181.839 205.564 181.683 206.481V206.481ZM180.491 199.741C178.776 198.947 176.854 199.285 175.235 200.143C173.488 201.067 172.052 202.419 170.847 203.971C169.607 205.567 168.466 207.247 167.075 208.72C166.416 209.417 165.675 210.027 164.94 210.641C164.166 211.291 163.423 211.995 162.583 212.56C160.916 213.681 159.015 214.392 157.282 215.393C155.315 216.531 153.654 217.969 152.234 219.74C150.831 221.489 149.684 223.407 148.67 225.404C147.403 227.911 146.468 230.569 145.694 233.265C145.307 234.611 144.972 235.963 144.759 237.345C144.555 238.681 144.359 240.059 144.611 241.401C144.806 242.432 145.322 244.212 146.559 244.411C147.812 244.611 148.787 243.269 149.342 242.337C150.764 239.943 151.151 237.107 151.936 234.471C152.328 233.155 152.734 231.812 153.322 230.569C153.911 229.327 154.636 228.151 155.368 226.988C156.796 224.728 158.427 222.409 160.7 220.919C161.796 220.201 163.008 219.751 164.32 219.993C164.906 220.1 165.522 220.299 165.939 220.741C166.379 221.209 166.606 221.853 166.748 222.468C167.066 223.843 166.911 225.261 167.108 226.651C167.192 227.231 167.267 227.919 167.599 228.419C167.847 228.793 168.462 229.165 168.9 228.883C169.199 228.689 169.038 228.44 169.107 228.185C169.188 227.887 169.483 227.569 169.631 227.288C169.938 226.7 170.186 226.085 170.37 225.447C170.751 224.124 170.966 222.727 171.51 221.457C172.024 220.256 172.863 219.143 173.724 218.171C174.611 217.171 175.828 216.591 176.855 215.757C177.114 215.548 177.364 215.327 177.608 215.097C177.712 215 177.815 214.9 177.918 214.8C177.984 214.733 178.052 214.664 178.119 214.596C178.127 214.589 178.288 214.419 178.183 214.532C178.211 214.501 178.242 214.471 178.271 214.44C179.558 213.105 180.707 211.479 181.567 209.76C182.011 208.872 182.398 207.963 182.596 206.987C182.792 206.031 182.792 205.049 182.812 204.076C182.832 203.16 182.771 202.308 182.328 201.485C181.912 200.712 181.29 200.112 180.491 199.741" fill="#4D4D4D"/>
<path d="M177.587 205.259C177.215 206.512 176.523 207.7 175.822 208.796C175.104 209.917 174.322 211.005 173.508 212.057C172.767 213.015 171.959 213.909 170.89 214.504C170.552 214.691 170.39 214.769 170.208 215.091C170.174 215.152 170.207 215.156 170.163 215.203C170.144 215.22 170.018 215.261 169.991 215.272C169.902 215.309 169.77 215.42 169.668 215.408C169.456 215.384 169.102 214.927 168.962 214.793C168.704 214.552 168.448 214.324 168.127 214.171C167.468 213.856 166.766 214.092 166.122 214.327C165.8 214.443 165.486 214.577 165.172 214.709C164.902 214.824 164.415 214.979 164.252 215.113C165.264 214.279 166.2 213.337 167.156 212.437C168.172 211.48 169.126 210.451 170.068 209.421C171.004 208.4 171.938 207.375 172.903 206.379C173.795 205.457 174.699 204.457 175.788 203.763C176.234 203.477 177 203.076 177.423 203.597C177.812 204.075 177.751 204.708 177.587 205.259V205.259ZM148.431 235.153C148.491 235.017 148.551 234.881 148.61 234.745C149.738 232.152 150.887 229.567 152.035 226.984C152.571 225.779 153.107 224.552 153.842 223.452C154.594 222.325 155.576 221.372 156.594 220.487C152.935 224.821 151.084 230.224 148.431 235.153V235.153ZM173.432 204.436C170.231 207.589 167.383 211.067 163.992 214.031C162.359 215.46 160.412 216.432 158.635 217.655C156.896 218.851 155.18 220.217 153.815 221.839C152.224 223.729 151.344 226.103 150.356 228.337C149.343 230.627 148.323 232.915 147.323 235.209C147.072 235.784 146.836 236.359 146.664 236.963C146.543 237.393 146.29 238.108 146.746 238.435C147.198 238.757 147.63 238.28 147.88 237.944C148.262 237.433 148.588 236.885 148.904 236.332C150.176 234.097 151.215 231.749 152.327 229.433C153.432 227.129 154.62 224.924 156.078 222.82C156.748 221.851 157.472 220.919 158.318 220.093C159.2 219.233 160.2 218.551 161.254 217.915C162.484 217.173 163.722 216.439 165.036 215.853C165.658 215.576 166.296 215.277 166.954 215.093C167.218 215.02 167.467 214.96 167.723 215.079C167.95 215.184 168.2 215.428 168.343 215.567C168.643 215.857 168.971 216.24 169.387 216.363C169.77 216.476 170.442 216.317 170.67 215.963C170.707 215.904 170.708 215.833 170.743 215.775C170.83 215.621 170.756 215.731 170.904 215.624C171.096 215.488 171.338 215.391 171.542 215.271C172.035 214.98 172.486 214.643 172.902 214.248C173.682 213.507 174.334 212.631 174.97 211.767C175.624 210.875 176.266 209.972 176.844 209.028C177.404 208.115 177.947 207.161 178.33 206.159C178.688 205.22 178.922 204.188 178.394 203.263C177.144 201.077 174.559 203.327 173.432 204.436" fill="#4D4D4D"/>
<path d="M209.26 205.677C209.398 205.691 209.571 206.02 209.63 206.117C209.458 205.841 209.668 206.2 209.686 206.236C209.732 206.333 209.771 206.433 209.808 206.535C209.902 206.78 209.972 207.028 210.03 207.284C210.151 207.829 210.212 208.389 210.236 208.948C210.236 210.992 209.815 213.12 209.132 215.039C208.786 216.011 208.386 216.964 207.999 217.92C207.622 218.851 207.262 219.791 206.754 220.66C205.91 222.112 204.67 223.488 203.022 224.005C202.062 224.305 201.059 224.44 200.104 224.765C199.17 225.084 198.362 225.551 197.57 226.136C196.024 227.283 194.604 228.657 193.564 230.285C192.504 231.944 191.932 233.832 191.246 235.661C190.895 236.597 190.566 237.54 190.304 238.505C190.043 239.471 189.858 240.461 189.534 241.409C188.919 243.219 187.9 244.924 186.595 246.317C185.946 247.013 185.196 247.536 184.364 247.989C183.508 248.457 182.639 248.911 181.726 249.257C180.912 249.567 179.902 249.979 179.039 249.643C178.664 249.496 178.264 249.267 178.051 248.912C177.834 248.551 178.014 248.327 178.31 248.081C179.027 247.491 179.947 247.169 180.755 246.728C181.646 246.241 182.495 245.681 183.346 245.129C184.919 244.109 186.53 242.88 187.351 241.143C188.218 239.307 188.034 237.272 188.051 235.3C188.059 234.296 188.08 233.285 188.392 232.321C188.687 231.416 189.188 230.632 189.698 229.837C190.758 228.187 191.896 226.572 192.732 224.793C193.57 223.011 194.254 221.088 194.55 219.136C194.862 217.084 194.752 215.015 194.896 212.952C195.036 210.921 195.619 208.997 196.375 207.116C197.006 205.545 198.056 203.629 199.952 203.46C200.978 203.369 201.752 203.907 202.51 204.517C203.23 205.097 203.986 205.621 204.847 205.971C205.698 206.317 206.64 206.469 207.552 206.348C206.912 207.963 206.882 209.793 206.466 211.469C206.051 213.141 205.308 214.727 204.287 216.115C203.271 217.499 201.971 218.553 200.61 219.576C199.219 220.621 197.802 221.683 196.512 222.849C195.834 223.463 195.132 224.08 194.53 224.771C193.904 225.488 193.464 226.377 192.976 227.191C193.796 225.348 194.564 223.433 195.574 221.685C196.059 220.845 196.594 220.051 197.235 219.321C197.867 218.597 198.594 217.941 199.104 217.119C199.59 216.339 199.862 215.485 199.915 214.567C199.972 213.577 199.742 212.672 199.547 211.712C199.363 210.793 199.272 209.856 199.591 208.959C199.827 208.293 200.45 207.117 201.268 207.085C202.08 207.053 203.027 207.639 203.442 208.315C203.946 209.135 203.664 210.139 203.366 210.977C203.035 211.907 202.602 212.799 202.076 213.632C201.564 214.443 200.946 215.167 200.372 215.933C200.078 216.328 199.803 216.736 199.535 217.151C199.323 217.483 198.863 218.017 199.323 218.351C199.67 218.6 199.954 218.343 200.135 218.059C200.41 217.627 200.687 217.195 200.984 216.779C201.562 215.971 202.226 215.231 202.767 214.397C203.295 213.583 203.751 212.724 204.112 211.823C204.46 210.957 204.792 209.999 204.702 209.053C204.618 208.149 204.108 207.351 203.375 206.827C202.662 206.317 201.615 205.913 200.74 206.173C199.916 206.419 199.33 207.267 198.944 207.987C198.507 208.808 198.336 209.684 198.396 210.609C198.46 211.592 198.778 212.517 198.895 213.489C199.003 214.396 198.906 215.343 198.503 216.171C198.098 217.005 197.407 217.679 196.783 218.351C195.4 219.837 194.452 221.575 193.602 223.405C192.743 225.256 191.828 227.117 191.12 229.032C190.955 229.479 190.807 229.932 190.691 230.395C190.586 230.815 190.419 231.325 190.479 231.763C190.531 232.139 190.823 232.433 191.215 232.281C191.61 232.129 191.779 231.529 191.952 231.184C192.847 229.405 193.778 227.627 194.875 225.96C195.422 225.132 196.206 224.483 196.93 223.812C197.656 223.14 198.434 222.544 199.214 221.936C200.803 220.695 202.531 219.541 203.919 218.072C205.242 216.669 206.328 215.028 206.978 213.204C207.306 212.288 207.531 211.345 207.714 210.392C207.911 209.379 208.011 208.337 208.276 207.339C208.387 206.921 208.536 206.495 208.763 206.124C208.844 205.991 209.082 205.66 209.26 205.677V205.677ZM208.555 204.879C208.323 205.039 208.16 205.177 207.882 205.263C207.515 205.373 207.112 205.412 206.731 205.395C205.346 205.332 204.176 204.573 203.123 203.739C201.999 202.845 200.767 202.183 199.287 202.564C197.875 202.928 196.794 204.071 196.11 205.315C195.411 206.587 194.927 208.025 194.52 209.415C194.098 210.855 193.907 212.319 193.867 213.817C193.828 215.329 193.811 216.843 193.651 218.349C193.492 219.828 193.074 221.255 192.558 222.644C192.054 223.999 191.415 225.288 190.654 226.517C189.882 227.767 189.035 228.971 188.276 230.229C187.527 231.471 187.142 232.805 187.078 234.255C187.012 235.752 187.167 237.267 186.994 238.759C186.828 240.179 186.234 241.349 185.252 242.373C184.244 243.427 182.988 244.2 181.764 244.973C181.146 245.363 180.522 245.739 179.87 246.071C179.226 246.399 178.559 246.688 177.962 247.1C177.455 247.448 176.95 247.931 176.948 248.588C176.947 249.239 177.412 249.815 177.923 250.169C179.122 251.004 180.412 250.775 181.71 250.321C183.052 249.851 184.359 249.184 185.568 248.439C187.923 246.989 189.612 244.291 190.476 241.713C190.688 241.083 190.866 240.277 191.006 239.736C191.016 239.692 191.027 239.649 191.036 239.605C191.007 239.736 191.102 239.343 191.115 239.291C191.158 239.121 191.2 238.952 191.248 238.785C191.351 238.407 191.47 238.033 191.591 237.661C191.818 236.981 192.063 236.307 192.315 235.636C192.838 234.244 193.272 232.785 194.007 231.484C194.691 230.272 195.552 229.223 196.566 228.271C197.572 227.324 198.695 226.38 199.988 225.86C201.351 225.312 202.888 225.264 204.2 224.592C205.419 223.968 206.428 222.967 207.192 221.84C208.008 220.635 208.518 219.277 209.059 217.936C209.607 216.58 210.198 215.227 210.56 213.807C210.956 212.257 211.252 210.556 211.222 208.955C211.206 208.131 211.1 207.293 210.848 206.505C210.728 206.132 210.582 205.764 210.367 205.435C210.27 205.285 210.086 205.152 210.004 205.004C209.93 204.871 209.976 204.693 209.86 204.549C209.712 204.368 209.448 204.319 209.243 204.421C209.103 204.489 209.01 204.631 208.879 204.712C208.779 204.776 208.656 204.807 208.555 204.879" fill="#4D4D4D"/>
<path d="M169.428 260.152C168.803 259.557 168.142 258.999 167.466 258.46C166.81 257.94 166.054 257.476 165.506 256.839C164.966 256.211 164.75 255.457 164.612 254.656C164.487 253.924 164.418 253.107 163.93 252.508C163.466 251.937 162.675 251.577 161.939 251.637C161.178 251.697 160.475 252.215 159.976 252.761C158.884 253.96 158.511 255.657 157.982 257.148C156.808 260.455 156.056 263.939 154.387 267.051C153.582 268.551 152.644 269.981 151.548 271.288C150.411 272.644 149.016 273.731 147.808 275.016C146.672 276.225 145.839 277.747 145.268 279.299C144.975 280.097 144.76 280.94 144.847 281.799C144.912 282.455 145.206 283.287 146.003 283.245C146.763 283.207 147.328 282.493 147.75 281.937C148.275 281.243 148.712 280.475 149.151 279.724C150.043 278.199 150.887 276.655 151.919 275.216C152.77 274.029 153.978 272.212 155.639 272.271C156.402 272.299 157.174 272.683 157.936 272.503C158.756 272.308 159.307 271.545 159.744 270.88C160.188 270.205 160.594 269.507 161.058 268.845C161.519 268.187 162.039 267.515 162.807 267.205C163.548 266.903 164.359 266.921 165.138 267.04C165.899 267.156 166.686 267.452 167.452 267.219C168.175 266.997 168.696 266.335 168.902 265.627C169.136 264.824 168.934 264 168.53 263.288C168.106 262.544 167.551 261.901 166.992 261.257C166.408 260.583 165.863 259.873 165.271 259.205C164.692 258.551 164.031 257.996 163.39 257.403C162.914 256.963 162.278 256.096 161.546 256.179C160.758 256.268 160.492 257.341 160.306 257.965C160.048 258.819 159.843 259.687 159.59 260.541C159.1 262.196 158.398 263.772 157.61 265.304C157.247 266.009 156.67 266.887 156.926 267.713C157.178 268.527 158.044 268.652 158.723 268.313C160.156 267.6 160.979 266.077 161.526 264.649C161.827 263.856 162.31 263.069 162.81 262.385C162.895 262.268 162.992 262.1 163.119 262.023C163.258 261.936 163.258 261.94 163.375 262.051C163.604 262.261 163.55 262.665 163.808 262.853C164.078 263.049 164.459 262.921 164.57 262.615C164.682 262.303 164.428 261.844 164.263 261.584C163.864 260.963 163.155 260.739 162.542 261.213C161.923 261.692 161.538 262.508 161.152 263.169C160.727 263.903 160.502 264.713 160.102 265.455C159.726 266.152 159.196 266.836 158.531 267.277C158.38 267.377 158.043 267.636 157.888 267.451C157.715 267.241 158.022 266.712 158.111 266.517C158.816 264.984 159.619 263.52 160.19 261.923C160.483 261.099 160.706 260.252 160.931 259.405C161.116 258.709 161.251 257.793 161.675 257.197C162.344 257.665 162.908 258.309 163.519 258.849C164.196 259.447 164.764 260.136 165.335 260.832C165.9 261.523 166.514 262.176 167.058 262.881C167.516 263.476 168.048 264.204 168.008 264.993C167.988 265.36 167.839 265.708 167.594 265.983C167.288 266.324 166.886 266.34 166.459 266.277C165.602 266.151 164.784 265.924 163.908 265.972C163.107 266.015 162.295 266.232 161.644 266.717C160.964 267.227 160.452 267.947 159.986 268.645C159.502 269.371 159.09 270.156 158.548 270.84C158.332 271.113 158.068 271.457 157.708 271.537C157.311 271.627 156.844 271.449 156.454 271.375C155.614 271.213 154.82 271.271 154.047 271.656C153.323 272.019 152.738 272.615 152.216 273.223C151.047 274.588 150.071 276.117 149.183 277.677C148.723 278.485 148.264 279.293 147.779 280.089C147.359 280.777 146.904 281.663 146.219 282.129C146.071 282.231 146.036 282.272 145.936 282.16C145.844 282.059 145.844 281.776 145.832 281.645C145.794 281.203 145.859 280.747 145.979 280.323C146.211 279.517 146.547 278.747 146.932 278.005C147.327 277.244 147.807 276.527 148.366 275.877C148.951 275.2 149.659 274.631 150.306 274.013C152.848 271.575 154.952 268.667 156.279 265.385C156.952 263.721 157.46 261.997 157.988 260.283C158.512 258.588 159.095 256.907 159.703 255.241C159.986 254.471 160.332 253.739 160.962 253.191C161.606 252.629 162.403 252.391 163.084 253.049C163.65 253.597 163.576 254.72 163.748 255.44C163.946 256.273 164.314 257.036 164.912 257.655C165.514 258.276 166.244 258.757 166.918 259.296C167.623 259.861 168.316 260.449 168.97 261.076C170.19 262.249 171.522 263.44 172.326 264.951C172.494 265.265 172.682 265.612 172.727 265.971C172.783 266.411 172.63 266.884 172.498 267.299C172.239 268.115 171.834 268.891 171.315 269.572C170.87 270.16 170.24 270.884 169.482 271.041C168.672 271.208 167.842 270.748 167.142 270.403C166.419 270.047 165.719 269.705 164.932 269.515C164.323 269.356 163.315 269.367 162.667 269.735C161.935 270.151 161.426 270.988 160.907 271.629C160.364 272.297 159.786 272.936 159.024 273.356C158.227 273.795 157.354 274.001 156.508 274.316C154.738 274.976 153.532 276.401 152.268 277.736C151.018 279.057 149.956 280.507 148.799 281.905C148.214 282.615 147.614 283.32 146.946 283.953C146.412 284.459 145.643 285.152 144.855 285.131C143.984 285.108 143.532 284.033 143.316 283.332C143.043 282.444 143.023 281.524 143.068 280.605C143.152 278.872 143.416 276.973 144.548 275.583C145.11 274.893 145.839 274.393 146.552 273.875C147.302 273.331 148.054 272.793 148.764 272.201C150.166 271.033 151.372 269.615 152.455 268.151C153.516 266.717 154.475 265.124 154.918 263.384C155.379 261.561 155.399 259.64 155.751 257.793C156.088 256.015 156.671 254.091 157.644 252.551C158.543 251.127 160.098 250.085 161.824 250.02C162.24 250.004 162.662 250.095 163.052 250.231C163.374 250.34 163.795 250.629 164.124 250.403C164.378 250.229 164.407 249.853 164.188 249.639C163.912 249.371 163.287 249.245 162.92 249.156C161.272 248.755 159.255 249.441 158.007 250.555C156.678 251.741 155.964 253.505 155.42 255.161C154.839 256.931 154.552 258.753 154.338 260.6C154.23 261.529 154.154 262.469 153.896 263.372C153.654 264.224 153.268 265.023 152.827 265.785C151.912 267.364 150.743 268.823 149.5 270.155C148.251 271.496 146.718 272.511 145.252 273.593C144.562 274.104 143.95 274.677 143.458 275.385C142.511 276.739 142.224 278.476 142.102 280.085C141.974 281.76 142.048 283.591 143.022 285.031C145.266 288.351 148.962 283.344 150.308 281.612C151.367 280.247 152.466 278.951 153.658 277.699C154.236 277.093 154.81 276.489 155.484 275.988C156.156 275.491 156.904 275.22 157.691 274.96C158.455 274.708 159.192 274.448 159.867 274.001C160.564 273.541 161.12 272.943 161.647 272.301C162.1 271.751 162.556 270.911 163.207 270.576C163.844 270.248 164.726 270.435 165.363 270.671C166.851 271.22 168.408 272.553 170.082 271.896C171.49 271.341 172.487 269.812 173.102 268.501C173.442 267.775 173.778 266.851 173.731 266.037C173.687 265.267 173.268 264.551 172.868 263.909C171.978 262.481 170.642 261.304 169.428 260.152" fill="#4D4D4D"/>
</svg>
